<svg width="76.596mm" height="8.2974mm" version="1.1" viewBox="0 0 76.596 8.2974" xmlns="http://www.w3.org/2000/svg">

<g transform="translate(-47.852 -94.005)">

<style>

@keyframes animate {
0% {
filter: hue-rotate(360deg);}
100% {
filter: hue-rotate(0deg);}
}

path {
fill: url(#grad);
animation: animate ease 5s infinite ;
}

</style>

<linearGradient id="grad">
<stop offset="0%" stop-color="cyan" />
<stop offset="50%" stop-color="magenta" />
<stop offset="100%" stop-color="yellow" />
</linearGradient>

<path d="m124.45 98.08q0 2.0433-1.1176 3.0819-1.1063 1.0273-3.0932 1.0273h-2.2465v-8.0603h2.4836q1.2192 0 2.111 0.45156t1.3773 1.3321q0.48543 0.86925 0.48543 2.1675zm-1.0725 0.03387q0-1.6143-0.80152-2.3594-0.79023-0.75636-2.2465-0.75636h-1.3208v6.3218h1.095q3.2738 0 3.2738-3.2061zm-11.3 4.0753v-8.0603h1.016v7.1572h3.5222v0.90312zm-4.7978-8.0603q1.5014 0 2.2126 0.57574 0.72249 0.56445 0.72249 1.7159 0 0.64347-0.23707 1.0725t-0.6096 0.68863q-0.36125 0.24836-0.76766 0.39512l2.2126 3.6125h-1.1854l-1.953-3.3303h-1.603v3.3303h-1.016v-8.0603zm-0.0564 0.88054h-1.1515v2.9916h1.2079q0.98214 0 1.4337-0.38383 0.45156-0.39512 0.45156-1.1515 0-0.79023-0.47413-1.1176-0.47414-0.33867-1.4676-0.33867zm-3.9512 3.1383q0 1.2531-0.42898 2.1901-0.4177 0.9257-1.2418 1.445-0.8241 0.51929-2.0433 0.51929-1.2531 0-2.0885-0.51929-0.8241-0.51929-1.2305-1.4563-0.4064-0.93699-0.4064-2.1901 0-1.2418 0.4064-2.1675t1.2305-1.445q0.83539-0.51929 2.0998-0.51929 1.2079 0 2.032 0.51929 0.82409 0.508 1.2418 1.445 0.42898 0.9257 0.42898 2.1788zm-6.367 0q0 1.524 0.64347 2.4046 0.64347 0.86925 2.0094 0.86925 1.3773 0 2.0094-0.86925 0.63218-0.88054 0.63218-2.4046 0-1.524-0.63218-2.382-0.63219-0.86925-1.9982-0.86925-1.366 0-2.0207 0.86925-0.64347 0.85796-0.64347 2.382zm-1.7949-4.0189-2.1449 8.0603h-1.0273l-1.5692-5.2832q-0.09031-0.32738-0.18062-0.65476-0.09031-0.32738-0.14676-0.57574-0.05644-0.25965-0.07902-0.36125-0.01129 0.14676-0.12418 0.63218-0.1016 0.47414-0.25965 0.99343l-1.524 5.2494h-1.0273l-2.1336-8.0603h1.0612l1.2531 4.922q0.13547 0.51929 0.22578 1.0047 0.1016 0.48543 0.15805 0.91441 0.05644-0.44027 0.16934-0.95956 0.11289-0.5193 0.25965-1.016l1.4224-4.8656h1.0499l1.4789 4.8994q0.15805 0.51929 0.27094 1.0386 0.11289 0.50801 0.16934 0.90312 0.05644-0.41769 0.15805-0.90312 0.1016-0.49672 0.23707-1.0273l1.2418-4.9107zm-13.976 4.0189q0 1.2531-0.42898 2.1901-0.41769 0.9257-1.2418 1.445t-2.0433 0.51929q-1.2531 0-2.0885-0.51929-0.8241-0.51929-1.2305-1.4563-0.4064-0.93699-0.4064-2.1901 0-1.2418 0.4064-2.1675t1.2305-1.445q0.83539-0.51929 2.0998-0.51929 1.2079 0 2.032 0.51929 0.8241 0.508 1.2418 1.445 0.42898 0.9257 0.42898 2.1788zm-6.367 0q0 1.524 0.64347 2.4046 0.64347 0.86925 2.0094 0.86925 1.3773 0 2.0094-0.86925 0.63218-0.88054 0.63218-2.4046 0-1.524-0.63218-2.382-0.63218-0.86925-1.9982-0.86925t-2.0207 0.86925q-0.64347 0.85796-0.64347 2.382zm-6.3557 4.0415v-8.0603h1.016v7.1572h3.5222v0.90312zm-5.9154 0v-8.0603h1.016v7.1572h3.5222v0.90312zm-1.7724 0h-4.5043v-8.0603h4.5043v0.89183h-3.4883v2.5174h3.2851v0.88054h-3.2851v2.8787h3.4883zm-6.7057 0h-1.016v-3.7592h-4.1318v3.7592h-1.016v-8.0603h1.016v3.4093h4.1318v-3.4093h1.016z"/>

</g>

</svg>
