<svg width="34.782mm" height="8.2974mm" version="1.1" viewBox="0 0 34.782 8.2974" xmlns="http://www.w3.org/2000/svg">
<g transform="matrix(1 0 0 .8131 -29.651 -121.57)" stroke-width=".26458" aria-label="سلام دنیا">

<style>
@keyframes animate {
0% {
filter: hue-rotate(360deg);}
100% {
filter: hue-rotate(0deg);}
}
path {
fill: url(#grad);
animation: animate ease-in-out 5s infinite ;
}
</style>

<linearGradient id="grad">
<stop offset="0%" stop-color="yellow" />
<stop offset="50%" stop-color="magenta" />
<stop offset="100%" stop-color="cyan" />
</linearGradient>

<path d="m30.84 155.72q-0.81132 0-0.90434-1.2144l-0.28422-4.2013q0.83716-0.78548 0.85266-0.79065l0.1602 4.1496q0.03101 0.83716 0.7028 0.83716h0.1602v1.2196zm3.9326 2.3409-0.59428 0.7028-0.72864-0.65112 0.56844-0.69246zm-1.6485-0.0103-0.59944 0.7028-0.72347-0.65112 0.56844-0.69247zm2.0102-2.5218q-0.0052 0.1912-0.29456 0.1912h-3.8292v-1.1989h3.1988l0.06718-0.093q-0.10335-0.32556-0.26872-0.63561-0.1602-0.31006-0.3824-0.58911l0.65112-1.0439q0.01033-0.0413 0.04134-0.0103 0.82165 1.1317 0.82165 2.7285 0 0.51676-0.0052 0.65112zm3.6122 5e-3q-0.0052 0.1912-0.29455 0.1912h-3.8292v-1.1989h3.1988l0.06718-0.093q-0.10335-0.32556-0.26872-0.63562-0.1602-0.31005-0.3824-0.58911l0.65112-1.0439q0.01034-0.0413 0.04134-0.0103 0.82165 1.1317 0.82165 2.7285 0 0.51677-0.0052 0.65113zm-1.7363-4.5992-1.1369-0.45475 0.38757-0.88367 1.1472 0.43408zm5.9479 4.5785q-0.0052 0.0982-0.23771 0.1447-0.08785 0.0155-0.25838 0.0258-1.3953 0.0827-1.9379 0.0207-0.73897-0.10336-0.73897-0.82682 0-0.11886 0.02067-0.26355 0.03101-0.25322 0.17053-0.69763 0.23771-0.77515 0.16536-0.11886 0 0.62012 0.67696 0.71314 0.3359 0.0465 0.80615 0.0465 0.67696 0 0.84749-0.093l0.03101-0.0672q-0.07751-1.1266-0.57361-2.0412l0.69246-0.9095 0.0052-5e-3q0-5e-3 0-5e-3 0.0052-5e-3 0.0052 0 0.0052 0 0.01034 0.0103 0.17053 0.29456 0.27388 0.7028 0.34106 1.3074 0.1912 2.3203zm8.0408-1.0232t0 1.2351h-2.682q-0.41341 0-0.56327 0.2067l-0.01034 0.062q0.57878 1.7053 0.57878 2.6097 0 0.5426-0.1757 1.0335-0.06718 0.1912-0.09819-0.0672-0.0155-0.12402-0.04134-0.28422-0.02584-0.16019-0.06201-0.37723-0.03617-0.21188-0.08268-0.49093v-5e-3q-0.05168-0.21704-0.13953-0.58911-0.08268-0.34106-0.19637-0.79581-0.10852-0.44958-0.25838-1.0749 0.05168-0.26355 0.1602-0.55293 0.11369-0.28939 0.27905-0.61495 0.07751-0.0775 0.91467-0.14986 0.87333-0.0724 0.94051-0.16537l0.01033-0.0723q-0.03617-0.093-0.12919-0.22221-0.09302-0.12919-0.25838-0.29456-0.34623-0.36173-0.53226-0.36173-0.25321 0-0.8785 0.45475-0.23254 0.1757-0.08785-0.13952 0.7183-1.4469 1.3591-1.4469 0.33073 0 0.58911 0.22221 0.1912 0.16536 0.49609 0.68213 0.26355 0.43924 0.40824 0.67695 0.30489 0.4961 0.45992 0.52193zm6.0255 1.2299q-0.60978 0-0.98702-0.74414-0.14986-0.29455-0.23771-0.64078-0.08268-0.34624-0.12402-0.74931l-0.12919-0.0207q-0.15503 0.44442-0.47025 1.0284-0.37724 0.70279-0.60978 0.894-0.3824 0.31522-0.81648 0.3979-0.32039 0.062-1.3643 0.062-0.76998 0-0.76998-0.0258 0-0.031 0.43925-0.15503 1.6071-0.47026 2.1859-1.0025l0.02067-0.0568v-0.98701q0-0.67696-1.1524-1.8293l-0.10335 0.0103q-0.2067 0.33073-0.23254 0.33073-0.10852 0-0.59944-0.61495-0.3669-0.45991-0.3669-0.69763 0-0.14986 0.16536-0.5736 0.1912-0.48576 0.3824-0.48576 0.30489 0 1.3849 1.3332 0.70796 0.8785 0.78548 1.6381 0.01033 0.10335 0.0155 0.21704 0.0052 0.10852 0.0052 0.22737 0 0.27905-0.02067 0.56844-0.02067 0.28422-0.06201 0.62528l0.10852 0.062q0.5581-0.44442 0.75964-1.0645 0.13953-0.42891 0.13953-1.0594v-0.11885l-0.04134-2.1136 0.67696-0.63045q-0.0052 5e-3 0.06718 2.9249 0.05168 2.0309 0.98702 2.0309h0.24805v1.2196zm7.3535-0.22221q-0.02584 0.23771-0.78031 0.23771-1.1162 0-1.9585-0.47542l-0.07751 0.0103q-0.23771 0.23771-0.52193 0.33589-0.34106 0.11369-0.95084 0.11369-0.69246 0-1.1369-0.25838h-0.06718q-0.41341 0.25838-1.1369 0.25838h-0.70797q-0.08785 0-0.16536-0.0775-0.08268-0.0775-0.08268-0.17054v-0.97151h1.1989q0.77514 0 0.99735-0.14469l0.02584-0.0362q0.05168-0.13952 0.05168-0.34623 0-0.18086-0.07235-0.45475l0.72347-0.82165q0.04134 0.12402 0.04134 0.44958 0 0.26355-0.06718 0.54777-0.06201 0.28422-0.18087 0.60978l0.04134 0.0879q0.99735 0.31006 1.8655 0l0.03617-0.031q0.09818-0.1912 0.09818-0.41857 0-0.24288-0.06718-0.37207l0.74931-0.81132q0.03101 0.0775 0.03101 0.34106 0 0.27905-0.06718 0.55294-0.06201 0.27388-0.18604 0.55294l0.02067 0.0827q0.42891 0.32039 1.1575 0.32039 0.43925 0 0.58394-0.12919l0.02067-0.062q-0.02584-0.5426-0.30489-1.0542l0.70796-0.82165q0.3514 1.1524 0.18087 2.9559z"/>
</g>
</svg>
