<svg width="19.996mm" height="2.4071mm" version="1.1" viewBox="0 0 19.996 2.4071" xmlns="http://www.w3.org/2000/svg" xmlns:xlink="http://www.w3.org/1999/xlink">
<defs>
<linearGradient id="a" x1="34.826" x2="54.822" y1="133.13" y2="133.13" gradientUnits="userSpaceOnUse">
<stop stop-color="#ff0" offset="0"/>
<stop stop-color="#0ff" offset="1"/>
</linearGradient>
</defs>
<g transform="translate(-34.826 -131.93)">
<style>@keyframes animate {
0% {
filter: hue-rotate(360deg);}
100% {
filter: hue-rotate(0deg);}
}
path {
animation: animate linear 5s infinite ;
}</style>
<path d="m53.661 131.93c-0.05927 0-0.1185 1e-3 -0.17777 3e-3 -0.05927 3e-3 -0.11554 6e-3 -0.16846 0.01-0.0508 3e-3 -0.09621 6e-3 -0.13643 0.0103-0.04021 3e-3 -0.0718 6e-3 -0.09508 0.01-0.04445 6e-3 -0.06666 0.033-0.06666 0.0796v2.1813c0 0.0463 0.02222 0.0724 0.06666 0.0791 0.02329 5e-3 0.05487 8e-3 0.09508 0.0103 0.04021 5e-3 0.08563 8e-3 0.13643 0.01 0.05292 5e-3 0.1092 8e-3 0.16846 0.01 0.05927 2e-3 0.1185 3e-3 0.17777 3e-3 0.01247 0 0.02443-2.3e-4 0.03669-5.1e-4 -0.03825-4.6e-4 -0.07647-1e-3 -0.11472-3e-3 -0.05927-2e-3 -0.11503-5e-3 -0.16795-0.01-0.0508-2e-3 -0.09673-5e-3 -0.13694-0.01-0.04021-2e-3 -0.0718-6e-3 -0.09508-0.0103-0.04445-7e-3 -0.06666-0.0328-0.06666-0.0791v-2.1813c0-0.0466 0.02222-0.0732 0.06666-0.0796 0.02329-4e-3 0.05487-7e-3 0.09508-0.01 0.04021-4e-3 0.08614-8e-3 0.13694-0.0103 0.05292-4e-3 0.10868-7e-3 0.16795-0.01 0.03498-1e-3 0.06993-2e-3 0.1049-3e-3 -9e-3 -1.5e-4 -0.01774-5.2e-4 -0.02687-5.2e-4zm0.03669 2.4055c0.02102 2.5e-4 0.04203 5.1e-4 0.06305 5.1e-4 0.01229 0 0.0246-2.4e-4 0.03669-5.1e-4 -0.02188-2.6e-4 -0.04375-5e-4 -0.06563-1e-3 -0.01122 5e-4 -0.02271 7.8e-4 -0.03411 1e-3zm0.03411-1e-3c0.11822-5e-3 0.22706-0.0239 0.32608-0.0558 0.11853-0.0402 0.21873-0.10043 0.30127-0.18086 0.08467-0.0825 0.14934-0.18523 0.19379-0.308 0.04657-0.12488 0.06976-0.27198 0.06976-0.44131v-0.43091c0-0.17146-0.0232-0.31855-0.06976-0.44132-0.04445-0.12488-0.10912-0.22756-0.19379-0.30799-0.08255-0.0826-0.18274-0.1428-0.30127-0.18087-0.09787-0.0315-0.20531-0.0498-0.32194-0.0553-0.01774 4.2e-4 -0.03548 4.3e-4 -0.05323 1e-3 -0.05927 3e-3 -0.11554 6e-3 -0.16846 0.01-0.0508 3e-3 -0.09621 6e-3 -0.13643 0.0103-0.04021 3e-3 -0.0718 6e-3 -0.09508 0.01-0.04445 6e-3 -0.06666 0.033-0.06666 0.0796v2.1813c0 0.0463 0.02222 0.0724 0.06666 0.0791 0.02329 5e-3 0.05487 8e-3 0.09508 0.0103 0.04021 5e-3 0.08563 8e-3 0.13643 0.01 0.05292 5e-3 0.1092 8e-3 0.16846 0.01 0.01637 5.6e-4 0.03272 1e-3 0.04909 2e-3zm0.0041-2.4024c0.02085-5e-4 0.04168-1e-3 0.06253-2e-3 -0.01243-2.9e-4 -0.02509-5.2e-4 -0.03772-5.2e-4 -0.02067 0-0.04134 2.7e-4 -0.06201 5.2e-4 0.01243 2.9e-4 0.02498 9.7e-4 0.03721 2e-3zm0.06253-2e-3c0.13124 3e-3 0.25087 0.022 0.35915 0.0568 0.11853 0.0381 0.21924 0.0983 0.30179 0.18087 0.08467 0.0804 0.14933 0.18311 0.19379 0.30799 0.04657 0.12277 0.06976 0.26986 0.06976 0.44132v0.43091c0 0.16933-0.0232 0.31643-0.06976 0.44131-0.04445 0.12277-0.10911 0.22545-0.19379 0.308-0.08255 0.0804-0.18326 0.14064-0.30179 0.18086-0.10856 0.0349-0.22854 0.0539-0.36018 0.0569 0.02102 2.5e-4 0.04203 5.1e-4 0.06305 5.1e-4 0.14605 0 0.27834-0.0192 0.39688-0.0574 0.11853-0.0402 0.21924-0.10043 0.30179-0.18086 0.08467-0.0825 0.14882-0.18523 0.19327-0.308 0.04657-0.12488 0.07028-0.27198 0.07028-0.44131v-0.43091c0-0.17146-0.02371-0.31855-0.07028-0.44132-0.04445-0.12488-0.1086-0.22756-0.19327-0.30799-0.08255-0.0826-0.18326-0.1428-0.30179-0.18087-0.11853-0.0381-0.25082-0.0574-0.39688-0.0574-0.02067 0-0.04134 2.7e-4 -0.06201 5.2e-4zm-16.136 2e-3c-0.22437 0-0.39368 0.0454-0.50798 0.13642-0.11219 0.091-0.16846 0.24257-0.16846 0.45424v1.2222c0 0.21166 0.05628 0.36322 0.16846 0.45423 0.1143 0.091 0.28361 0.13643 0.50798 0.13643h0.09973c-0.22437 0-0.39368-0.0454-0.50798-0.13643-0.11219-0.091-0.16846-0.24257-0.16846-0.45423v-1.2222c0-0.21167 0.05628-0.36322 0.16846-0.45424 0.10615-0.0845 0.25987-0.12988 0.46095-0.13591-0.01809-2.5e-4 -0.03599-5.1e-4 -0.05271-5.1e-4zm0.09973 0c-0.01402 0-0.02775 1.6e-4 -0.04134 5.1e-4 0.01876 3e-4 0.03871 9.9e-4 0.05891 2e-3 -0.18377 0.0101-0.32547 0.0549-0.4253 0.13436-0.11219 0.091-0.16846 0.24257-0.16846 0.45424v1.2222c0 0.21166 0.05628 0.36322 0.16846 0.45423 0.1143 0.091 0.28361 0.13643 0.50798 0.13643 0.04494-3.6e-4 0.08962-2e-3 0.13332-3e-3 0.05927-2e-3 0.11405-4e-3 0.16485-6e-3 0.0508 0 0.09129-2e-3 0.12092-6e-3 0.01061-2e-3 0.01802-8e-3 0.02222-0.016 0.0063-8e-3 0.0093-0.0178 0.0093-0.0284v-0.16275c0-0.0254-0.01186-0.0382-0.03514-0.0382h-0.44338c-0.07038-1e-3 -0.12815-7e-3 -0.1726-0.016-0.05081-0.0127-0.08979-0.0315-0.1173-0.0568-0.02752-0.0275-0.04626-0.0626-0.05685-0.1049-0.0085-0.0423-0.01292-0.0932-0.01292-0.15244v-0.5333h0.77463c0.01693 0 0.03174-6e-3 0.04444-0.0191 0.0127-0.0127 0.01912-0.0275 0.01912-0.0444v-0.1204c0-0.0169-0.0064-0.0318-0.01912-0.0444-0.0127-0.0127-0.02751-0.0191-0.04444-0.0191h-0.77463v-0.44132c0-0.0614 0.0045-0.11225 0.01292-0.15245 0.01058-0.0423 0.02933-0.0764 0.05685-0.1018 0.02752-0.0275 0.0665-0.0462 0.1173-0.0568 0.0508-0.0127 0.11894-0.0191 0.2036-0.0191h0.41238c0.02328 0 0.03514-0.0128 0.03514-0.0382v-0.15865c0-0.0106-3e-3 -0.02-0.0093-0.0284-0.0042-9e-3 -0.01163-0.014-0.02222-0.016-0.03387-5e-3 -0.07632-8e-3 -0.12712-0.01-0.0508-2e-3 -0.1046-3e-3 -0.16175-3e-3 -0.05715-2e-3 -0.1154-3e-3 -0.17467-3e-3 -0.01294-4.6e-4 -0.02481-6.9e-4 -0.03721-1e-3 0.01129-6.1e-4 0.0225-1e-3 0.03411-2e-3 -0.01795-2.5e-4 -0.0361-5.1e-4 -0.05271-5.1e-4zm0.10025 0c-0.01402 0-0.02826 1.6e-4 -0.04186 5.1e-4 0.0307 4.8e-4 0.06258 1e-3 0.09715 3e-3 0.05927 0 0.11752 1e-3 0.17467 3e-3 0.05715 0 0.11095 1e-3 0.16175 3e-3s0.09326 5e-3 0.12712 0.01c0.01059 2e-3 0.01799 7e-3 0.02222 0.016 0.0063 8e-3 0.0098 0.0178 0.0098 0.0284v0.15865c0 0.0254-0.01186 0.0382-0.03514 0.0382h0.09974c0.02328 0 0.03514-0.0128 0.03514-0.0382v-0.15865c0-0.0106-3e-3 -0.02-0.0093-0.0284-0.0042-9e-3 -0.01163-0.014-0.02222-0.016-0.03387-5e-3 -0.07632-8e-3 -0.12712-0.01-0.0508-2e-3 -0.1046-3e-3 -0.16175-3e-3 -0.05715-2e-3 -0.1154-3e-3 -0.17467-3e-3 -0.05715-2e-3 -0.10898-3e-3 -0.15555-3e-3zm12.172 0c-0.04657 0-0.09493 1e-3 -0.14573 3e-3 -0.0508 0-0.10165 1e-3 -0.15245 3e-3 -0.04869 3e-3 -0.09658 6e-3 -0.14314 0.01-0.04445 3e-3 -0.08344 6e-3 -0.1173 0.0103-0.02963 4e-3 -0.04988 0.0116-0.06046 0.0222-0.01059 8e-3 -0.01602 0.0243-0.01602 0.0476v2.2221c0 0.0169 0.0054 0.0322 0.01602 0.045 0.01058 0.0127 0.02441 0.0186 0.04134 0.0186h0.09353c-0.01412-1e-3 -0.02537-8e-3 -0.03462-0.0186-0.01059-0.0127-0.01602-0.028-0.01602-0.045v-2.2221c0-0.0233 0.0054-0.0391 0.01602-0.0476 0.01059-0.0106 0.03032-0.018 0.05994-0.0222 0.03387-4e-3 0.07337-8e-3 0.11782-0.0103 0.04657-4e-3 0.09394-7e-3 0.14263-0.01 0.0508-2e-3 0.10164-3e-3 0.15244-3e-3 0.0318-1e-3 0.06236-2e-3 0.0925-3e-3 -0.01535-3.6e-4 -0.0309-5.1e-4 -0.04651-5.1e-4zm0.10025 0c-0.01608 0-0.03303 2.8e-4 -0.04961 5.1e-4 0.01167 3.1e-4 0.02311 1e-3 0.03462 2e-3 0.02084-6.6e-4 0.04139-1e-3 0.0615-2e-3 -0.01535-3.6e-4 -0.0309-5.1e-4 -0.04651-5.1e-4zm-0.01499 2e-3c-0.0104 3.3e-4 -0.02042 6.2e-4 -0.03101 1e-3 -0.0508 0-0.10164 1e-3 -0.15244 3e-3 -0.04869 3e-3 -0.09606 6e-3 -0.14263 0.01-0.04445 3e-3 -0.08396 6e-3 -0.11782 0.0103-0.02963 4e-3 -0.04936 0.0116-0.05994 0.0222-0.01059 8e-3 -0.01602 0.0243-0.01602 0.0476v2.2221c0 0.0169 0.0054 0.0322 0.01602 0.045 0.0073 9e-3 0.01595 0.0144 0.02635 0.017 0.01061-3e-3 0.01993-8e-3 0.02739-0.017 0.01059-0.0127 0.0155-0.028 0.0155-0.045v-0.93327c0.03768 2e-3 0.07012 4e-3 0.10025 6e-3v-6e-3c0.03768 2e-3 0.07012 4e-3 0.10025 6e-3v-6e-3c0.08467 5e-3 0.15032 8e-3 0.19689 0.01h0.03462l0.56844 0.9462c0.0127 0.0214 0.02404 0.0342 0.03462 0.0382 0.0127 2e-3 0.02849 3e-3 0.04754 3e-3h0.0863c-0.0131-3.7e-4 -0.02406-2e-3 -0.03359-3e-3 -0.01058-4e-3 -0.02244-0.0168-0.03514-0.0382l-0.56844-0.9462h0.10026l0.56844 0.9462c0.0127 0.0214 0.02456 0.0342 0.03514 0.0382 0.0127 2e-3 0.02849 3e-3 0.04754 3e-3h0.0031c0.02751 0 0.04082-0.0138 0.04082-0.0413v-1e-3c0-0.0106-3e-3 -0.02-0.0093-0.0284l-0.57774-0.96531c0.07197-0.019 0.13861-0.0462 0.19999-0.0822s0.11419-0.0809 0.15865-0.13384c0.04445-0.0529 0.07852-0.11411 0.1018-0.18397 0.0254-0.072 0.03772-0.15243 0.03772-0.24133v-0.0222c0-0.12912-0.0232-0.23671-0.06976-0.32349-0.04445-0.0868-0.10664-0.15687-0.18707-0.20981-0.07832-0.0529-0.1726-0.0909-0.28267-0.1142-0.08296-0.0179-0.17111-0.0289-0.26407-0.0331zm-0.23409 1.3886v4e-3h0.09663c-0.02585-1e-3 -0.05905-2e-3 -0.09663-4e-3zm0 4e-3h-0.0036c-0.02584-1e-3 -0.05905-2e-3 -0.09663-4e-3v0.92759c0 0.0169-0.0054 0.0322-0.01602 0.045-0.0093 0.0111-0.02102 0.0172-0.03514 0.0186h0.09405c0.01693 0 0.03076-6e-3 0.04134-0.0186 0.01059-0.0127 0.01602-0.028 0.01602-0.045zm-0.2434 0.98547c-0.0026 6.4e-4 -5e-3 1e-3 -0.0078 2e-3h0.01602c-0.0029-2.8e-4 -0.0056-8.5e-4 -0.0083-2e-3zm0.59273-2.3802c-0.01608 0-0.03302 2.8e-4 -0.04961 5.1e-4 0.10586 3e-3 0.20546 0.0145 0.29869 0.0346 0.11007 0.0233 0.20383 0.0613 0.28215 0.1142 0.08043 0.0529 0.14314 0.12304 0.18759 0.20981 0.04657 0.0868 0.06976 0.19437 0.06976 0.32349v0.0222c0 0.0889-0.01284 0.16937-0.03824 0.24133-0.02329 0.0699-0.05684 0.13106-0.10129 0.18397-0.04445 0.0529-0.09778 0.0979-0.15916 0.13384-0.06138 0.036-0.12802 0.0632-0.19999 0.0822l0.57826 0.96531c0.0063 8e-3 0.0093 0.0178 0.0093 0.0284v1e-3c0 0.0275-0.01383 0.0413-0.04134 0.0413h0.10025c0.02751 0 0.04134-0.0138 0.04134-0.0413v-1e-3c0-0.0106-3e-3 -0.02-0.0093-0.0284l-0.57826-0.96531c0.07197-0.019 0.13912-0.0462 0.2005-0.0822s0.11419-0.0809 0.15865-0.13384c0.04445-0.0529 0.078-0.11411 0.10129-0.18397 0.0254-0.072 0.03824-0.15243 0.03824-0.24133v-0.0222c0-0.12912-0.0232-0.23671-0.06976-0.32349-0.04445-0.0868-0.10715-0.15687-0.18758-0.20981-0.07832-0.0529-0.17209-0.0909-0.28215-0.1142-0.10795-0.0233-0.22445-0.0351-0.34933-0.0351zm-7.4564 1e-3c-0.11596 2e-3 -0.22324 0.0211-0.32246 0.0568-0.10372 0.0381-0.19355 0.0973-0.26975 0.17777-0.0762 0.0804-0.13693 0.18461-0.18138 0.31161-0.04233 0.12489-0.06305 0.27494-0.06305 0.45062v0.40979c0 0.17568 0.02071 0.32672 0.06305 0.45372 0.04445 0.12489 0.10518 0.22756 0.18138 0.30799 0.0762 0.0804 0.16603 0.13964 0.26975 0.17777 0.10584 0.0381 0.22135 0.0574 0.34623 0.0574 0.01561 0 0.03071-4.4e-4 0.04599-1e-3 -0.10443-5e-3 -0.20198-0.0237-0.29249-0.0563-0.10372-0.0381-0.19355-0.0974-0.26975-0.17777-0.0762-0.0804-0.13641-0.1831-0.18087-0.30799-0.04233-0.127-0.06356-0.27804-0.06356-0.45372v-0.40979c0-0.17568 0.02123-0.32573 0.06356-0.45062 0.04445-0.127 0.10467-0.23118 0.18087-0.31161 0.0762-0.0804 0.16603-0.13967 0.26975-0.17777 0.09156-0.033 0.19029-0.0519 0.29611-0.0563-0.01646-7e-4 -0.03276-5.2e-4 -0.04961-5.2e-4 -0.0078 0-0.01604-1.5e-4 -0.02377 0zm0.07338 5.2e-4c0.01671 7e-4 0.0333 2e-3 0.04961 4e-3 0.01656-1e-3 0.0332-3e-3 0.05013-4e-3 -0.01644-6.9e-4 -0.03279-5.2e-4 -0.04961-5.2e-4 -0.01685 0-0.03363-1.8e-4 -0.05013 5.2e-4zm0.09973 0c0.1056 4e-3 0.20326 0.0233 0.29301 0.0563 0.10583 0.0381 0.19717 0.0973 0.27337 0.17777 0.0762 0.0804 0.13543 0.18461 0.17777 0.31161 0.04233 0.12489 0.06356 0.27494 0.06356 0.45062v0.40979c0 0.17568-0.02123 0.32672-0.06356 0.45372-0.04233 0.12489-0.10157 0.22756-0.17777 0.30799-0.0762 0.0804-0.16754 0.13967-0.27337 0.17777-0.0886 0.0326-0.18483 0.0516-0.28887 0.0563 0.01531 5.9e-4 0.03038 1e-3 0.04599 1e-3 0.12488 0 0.23941-0.0192 0.34313-0.0574 0.10583-0.0381 0.19665-0.0973 0.27285-0.17777 0.0762-0.0804 0.13543-0.1831 0.17777-0.30799 0.04233-0.127 0.06356-0.27804 0.06356-0.45372v-0.40979c0-0.17568-0.02123-0.32573-0.06356-0.45062-0.04233-0.127-0.10157-0.23118-0.17777-0.31161-0.0762-0.0805-0.16702-0.1397-0.27285-0.17777-0.10371-0.0381-0.21824-0.0568-0.34313-0.0568-0.01685 0-0.03363-1.8e-4 -0.05013 5.2e-4zm-0.05013 4e-3c-0.08698 8e-3 -0.16855 0.025-0.24546 0.0527-0.10372 0.0381-0.19407 0.0973-0.27027 0.17777-0.0762 0.0804-0.13641 0.18461-0.18087 0.31161-0.04233 0.12489-0.06356 0.27494-0.06356 0.45062v0.40979c0 0.17568 0.02123 0.32672 0.06356 0.45372 0.04445 0.12489 0.10467 0.22756 0.18087 0.30799 0.0762 0.0804 0.16655 0.13964 0.27027 0.17777 0.07693 0.0277 0.15848 0.0457 0.24546 0.0532 0.08676-8e-3 0.16786-0.0255 0.2434-0.0532 0.10583-0.0381 0.19717-0.0973 0.27337-0.17777 0.0762-0.0804 0.13543-0.1831 0.17777-0.30799 0.04233-0.127 0.06305-0.27804 0.06305-0.45372v-0.40979c0-0.17568-0.02071-0.32573-0.06305-0.45062-0.04233-0.127-0.10157-0.23118-0.17777-0.31161-0.0762-0.0805-0.16754-0.1397-0.27337-0.17777-0.07552-0.0278-0.15664-0.0452-0.2434-0.0527zm0 2.3952c-0.01512 1e-3 -0.03053 2e-3 -0.04599 3e-3 0.01531 5.9e-4 0.0309 1e-3 0.04651 1e-3s0.03071-4.4e-4 0.04599-1e-3c-0.01556-7.1e-4 -0.03126-2e-3 -0.04651-3e-3zm5.179-2.3993c-0.11596 2e-3 -0.22324 0.0211-0.32246 0.0568-0.10372 0.0381-0.19407 0.0973-0.27027 0.17777-0.07621 0.0804-0.13642 0.18461-0.18087 0.31161-0.04233 0.12489-0.06356 0.27494-0.06356 0.45062v0.40979c0 0.17568 0.02123 0.32672 0.06356 0.45372 0.04445 0.12489 0.10467 0.22756 0.18087 0.30799 0.0762 0.0804 0.16655 0.13964 0.27027 0.17777 0.10584 0.0381 0.22084 0.0574 0.34572 0.0574 0.01561 0 0.03123-4.4e-4 0.04651-1e-3 -0.10443-5e-3 -0.20198-0.0237-0.29249-0.0563-0.10372-0.0381-0.19355-0.0974-0.26975-0.17777-0.0762-0.0804-0.13641-0.1831-0.18087-0.30799-0.04233-0.127-0.06356-0.27804-0.06356-0.45372v-0.40979c0-0.17568 0.02123-0.32573 0.06356-0.45062 0.04445-0.127 0.10466-0.23118 0.18087-0.31161 0.0762-0.0804 0.16603-0.13967 0.26975-0.17777 0.09156-0.033 0.19029-0.0519 0.29611-0.0563-0.01646-7e-4 -0.03328-5.2e-4 -0.05013-5.2e-4 -0.0078 0-0.01552-1.5e-4 -0.02325 0zm0.07338 5.2e-4c0.01688 7.1e-4 0.03365 2e-3 0.05013 4e-3 0.01655-1e-3 0.03322-2e-3 0.05013-3e-3 -0.01661-7e-4 -0.03312-1e-3 -0.05013-1e-3 -0.01685 0-0.03363-1.8e-4 -0.05013 5.2e-4zm0.10025 5.1e-4c0.10539 4e-3 0.2029 0.0229 0.29249 0.0558 0.10583 0.0381 0.19717 0.0973 0.27337 0.17777 0.0762 0.0804 0.13543 0.18461 0.17777 0.31161 0.04233 0.12489 0.06356 0.27494 0.06356 0.45062v0.40979c0 0.17568-0.02123 0.32672-0.06356 0.45372-0.04233 0.12489-0.10157 0.22756-0.17777 0.30799-0.0762 0.0804-0.16754 0.13967-0.27337 0.17777-0.0886 0.0326-0.18483 0.0516-0.28887 0.0563 0.01531 5.9e-4 0.0309 1e-3 0.04651 1e-3 0.12488 0 0.23941-0.0192 0.34313-0.0574 0.10583-0.0381 0.19665-0.0973 0.27285-0.17777 0.0762-0.0804 0.13543-0.1831 0.17777-0.30799 0.04233-0.127 0.06356-0.27804 0.06356-0.45372v-0.40979c0-0.17568-0.02123-0.32573-0.06356-0.45062-0.04233-0.127-0.10157-0.23118-0.17777-0.31161-0.0762-0.0805-0.16702-0.1397-0.27285-0.17777-0.10371-0.0381-0.21824-0.0568-0.34313-0.0568-0.01686 0-0.03361 3.4e-4 -0.05013 1e-3zm-0.05013 3e-3c-0.08698 8e-3 -0.16906 0.025-0.24598 0.0527-0.10372 0.0381-0.19355 0.0973-0.26975 0.17777-0.07621 0.0804-0.13642 0.18461-0.18087 0.31161-0.04233 0.12489-0.06356 0.27494-0.06356 0.45062v0.40979c0 0.17568 0.02123 0.32672 0.06356 0.45372 0.04445 0.12489 0.10467 0.22756 0.18087 0.30799 0.0762 0.0804 0.16603 0.13964 0.26975 0.17777 0.07693 0.0277 0.159 0.0457 0.24598 0.0532 0.08656-8e-3 0.1675-0.0255 0.24288-0.0532 0.10583-0.0381 0.19665-0.0973 0.27285-0.17777 0.0762-0.0804 0.13543-0.1831 0.17777-0.30799 0.04233-0.127 0.06356-0.27804 0.06356-0.45372v-0.40979c0-0.17568-0.02123-0.32573-0.06356-0.45062-0.04233-0.127-0.10157-0.23118-0.17777-0.31161-0.0762-0.0805-0.16702-0.1397-0.27285-0.17777-0.07537-0.0277-0.15632-0.0451-0.24288-0.0527zm0 2.3952c-0.01529 1e-3 -0.03087 2e-3 -0.04651 3e-3 0.01531 5.9e-4 0.0309 1e-3 0.04651 1e-3s0.03071-4.4e-4 0.04599-1e-3c-0.0155-7.1e-4 -0.0308-2e-3 -0.04599-3e-3zm-3.6111-2.3776c-0.03163 2e-3 -0.04754 0.02-0.04754 0.0537v0.0103l0.35243 2.1461c0.01059 0.0656 0.0328 0.10902 0.06666 0.13022 0.03599 0.0211 0.07943 0.0315 0.13022 0.0315h0.10025c-0.0508 0-0.09424-0.0104-0.13022-0.0315-0.03387-0.0212-0.05608-0.0646-0.06666-0.13022l-0.35243-2.1461v-0.0103c0-0.0337 0.01591-0.0516 0.04754-0.0537h-0.09353c-0.0022 0-0.0046-1.4e-4 -0.0067 0zm0.19069 0c0.0011 0 0.0021 4.7e-4 0.0031 5.2e-4 -0.02755 4e-3 -0.04134 0.0217-0.04134 0.0532v0.0103l0.35243 2.1461c0.01059 0.0656 0.0328 0.10902 0.06666 0.13022 0.02673 0.0157 0.0576 0.0254 0.0925 0.0295-0.0094 1e-3 -0.01894 2e-3 -0.02894 2e-3h0.06666c-0.0127 0-0.02492-7.4e-4 -0.03669-2e-3 0.03182-5e-3 0.05988-0.0182 0.08423-0.0393 0.03175-0.0297 0.05396-0.0686 0.06666-0.1173l0.31471-1.1746c0.0042-0.0149 0.0072-0.0238 0.0093-0.0258s5e-3 -3e-3 0.0093-3e-3h0.0067c0.0042 0 0.0072 5.8e-4 0.0093 3e-3 0.0021 2e-3 0.0056 0.011 0.0098 0.0258l0.02739 0.10387 0.02791-0.10387c0.0042-0.0149 0.0077-0.0238 0.0098-0.0258s5e-3 -3e-3 0.0093-3e-3h0.0062c0.0042 0 0.0077 5.8e-4 0.0098 3e-3 0.0021 2e-3 0.0051 0.011 0.0093 0.0258l0.02739 0.10387 0.0279-0.10387c0.0042-0.0149 0.0077-0.0238 0.0098-0.0258s5e-3 -3e-3 0.0093-3e-3h0.0062c0.0042 0 0.0077 5.8e-4 0.0098 3e-3 0.0021 2e-3 0.0051 0.011 0.0093 0.0258l0.31109 1.1746c0.0127 0.0487 0.03491 0.0876 0.06666 0.1173 0.02496 0.0217 0.054 0.0346 0.08682 0.0393-0.01134 1e-3 -0.02332 2e-3 -0.03566 2e-3h0.06305c-0.0092 0-0.01774-9e-4 -0.02636-2e-3 0.03493-4e-3 0.06503-0.0136 0.09043-0.0295 0.03598-0.0212 0.05918-0.0646 0.06976-0.13022l0.35243-2.1461v-0.0103c0-0.0315-0.01379-0.0493-0.04134-0.0532 1e-3 -5e-5 2e-3 -5.2e-4 0.0031-5.2e-4h-0.0093c0.0012 9e-5 0.0024 3.9e-4 0.0036 5.2e-4 -0.02628 2e-3 -0.04266 0.0196-0.04858 0.0532l-0.30799 2.0226c-0.0042 0.0169-0.0062 0.0298-0.0062 0.0382 0 7e-3 -3e-3 0.01-0.0093 0.01-0.0085 0-0.01589-0.0158-0.02222-0.0475l-0.03927-0.14883-0.02274 0.14831c-0.0042 0.0169-0.0062 0.0298-0.0062 0.0382 0 7e-3 -3e-3 0.01-0.0093 0.01-0.0085 0-0.01589-0.0158-0.02222-0.0475l-0.03927-0.14883-0.02274 0.14831c-0.0042 0.0169-0.0062 0.0298-0.0062 0.0382 0 7e-3 -0.0035 0.01-0.0098 0.01-0.0085 0-0.01589-0.0158-0.02222-0.0475l-0.31109-1.1746c-0.02116-0.0847-0.07102-0.12713-0.14934-0.12713h-0.0031c-0.07831 0-0.12818 0.0425-0.14934 0.12713l-0.31109 1.1746c-0.0063 0.0317-0.01375 0.0475-0.02222 0.0475-0.0063 0-0.0098-3e-3 -0.0098-0.01 0-8e-3 -0.0019-0.0213-0.0062-0.0382l-0.02222-0.14727-0.03927 0.14779c-0.0063 0.0317-0.01375 0.0475-0.02222 0.0475-0.0063 0-0.0098-3e-3 -0.0098-0.01 0-8e-3 -0.0019-0.0213-0.0062-0.0382l-0.02274-0.14831-0.03927 0.14883c-0.0063 0.0317-0.01375 0.0475-0.02222 0.0475-0.0063 0-0.0093-3e-3 -0.0093-0.01 0-8e-3 -0.0019-0.0213-0.0062-0.0382l-0.30799-2.0226c-0.0059-0.0336-0.02231-0.051-0.04858-0.0532 0.0012-1.3e-4 0.0024-4.3e-4 0.0036-5.2e-4zm0.43925 1.928 0.06356-0.23926-0.24908-1.635c-0.0064-0.036-0.02411-0.0537-0.05374-0.0537h-0.09974c0.02963 0 0.04739 0.0177 0.05374 0.0537zm0.06356-0.23926 0.03669 0.2403 0.27182-1.0268c0.02117-0.0847 0.07103-0.12713 0.14934-0.12713h-0.10025c-0.07831 0-0.12818 0.0425-0.14934 0.12713zm1.0821 0.23926 0.03617-0.23874-0.20826-0.78703c-0.02116-0.0847-0.07102-0.12713-0.14934-0.12713h-0.09974c0.07832 0 0.12818 0.0425 0.14934 0.12713zm0.03617-0.23874 0.06356 0.23874 0.28525-1.8743c0.0063-0.036 0.02461-0.0537 0.05426-0.0537h-0.10025c-0.02965 0-0.04741 0.0177-0.05374 0.0537zm-0.50953-0.54674-0.05013 0.18759 0.23409 0.88315c0.0127 0.0487 0.03491 0.0876 0.06666 0.1173 0.03175 0.0275 0.06975 0.0413 0.1142 0.0413h0.09974c-0.04445 0-0.08246-0.0138-0.1142-0.0413-0.03175-0.0297-0.05396-0.0686-0.06666-0.1173zm-0.05013 0.18759-0.04961-0.18759-0.28629 1.0707c-0.0127 0.0487-0.03492 0.0876-0.06666 0.1173-0.03175 0.0275-0.06976 0.0413-0.1142 0.0413h0.09974c0.04445 0 0.08245-0.0138 0.1142-0.0413 0.03175-0.0297 0.05396-0.0686 0.06666-0.1173zm1.1534-1.3302c0.03163 2e-3 0.04754 0.02 0.04754 0.0537v0.0103l-0.35243 2.1461c-0.01059 0.0656-0.0343 0.10904-0.07028 0.13022-0.03387 0.0211-0.07581 0.0315-0.12661 0.0315h0.09974c0.0508 0 0.09274-0.0104 0.12661-0.0315 0.03598-0.0212 0.05969-0.0646 0.07028-0.13022l0.35243-2.1461v-0.0103c0-0.036-0.01827-0.0537-0.05426-0.0537zm-12.108 5.2e-4c-0.01382 7e-3 -0.02862 0.0141-0.04444 0.0191-0.0053 0.0158-0.01172 0.0306-0.01912 0.0444 1e-3 0.745 1e-3 1.4889 0 2.2319 0.0074 0.0158 0.01382 0.0306 0.01912 0.0444 0.01582 7e-3 0.03062 0.0141 0.04444 0.0191 0.04451 8.1e-4 0.08806 5e-4 0.13126 0-0.01037-1.2e-4 -0.02057 1.9e-4 -0.03101 0-0.01382-5e-3 -0.02914-0.0118-0.04496-0.0191-0.0053-0.0138-0.01125-0.0286-0.0186-0.0444 1e-3 -0.74301 1e-3 -1.4869 0-2.2319 0.0074-0.0138 0.01325-0.0286 0.0186-0.0444 0.01544-5e-3 0.03039-0.0115 0.04393-0.0186-0.03277 1.3e-4 -0.06571 9e-5 -0.09922-5.2e-4zm0.09922 5.2e-4c0.01075-5e-5 0.02137-3.9e-4 0.03204-5.2e-4 -0.01037-1.2e-4 -0.02057 1.9e-4 -0.03101 0-3.32e-4 1.8e-4 -7e-4 3.4e-4 -1e-3 5.2e-4zm0.03204-5.2e-4c0.01054 1.2e-4 0.02106 4.7e-4 0.03152 5.2e-4 -3.58e-4 -1.6e-4 -6.75e-4 -3.6e-4 -1e-3 -5.2e-4 -0.01008 1.9e-4 -0.02034-1.2e-4 -0.03049 0zm0.03152 5.2e-4c0.0063 3e-3 0.01261 6e-3 0.0186 8e-3 6e-3 -3e-3 0.01194-5e-3 0.01757-8e-3 -0.01202 5e-5 -0.02406 5e-5 -0.03617 0zm0.03617 0c0.01093-5e-5 0.02171-3.9e-4 0.03256-5.2e-4 -0.01054-1.2e-4 -0.02091 1.9e-4 -0.03152 0-3.46e-4 1.8e-4 -6.87e-4 3.4e-4 -1e-3 5.2e-4zm0.03256-5.2e-4c0.01054 1.2e-4 0.02106 4.7e-4 0.03152 5.2e-4 -3.65e-4 -1.6e-4 -6.68e-4 -3.6e-4 -1e-3 -5.2e-4 -0.01008 1.9e-4 -0.02034-1.2e-4 -0.03049 0zm0.03152 5.2e-4c0.01541 7e-3 0.02991 0.0134 0.04341 0.0186 0.0074 0.0158 0.01377 0.0306 0.01912 0.0444 1e-3 0.30792 1e-3 0.61444 0 0.92036-0.03345-7e-5 -0.06679 9e-5 -0.10025 0 1e-3 -0.30592 1e-3 -0.61244 0-0.92036-0.0053-0.0138-0.01172-0.0286-0.01912-0.0444-8e-3 -3e-3 -0.01616-7e-3 -0.02481-0.0103-0.0084 4e-3 -0.01683 7e-3 -0.02584 0.0103-0.0053 0.0158-0.01172 0.0306-0.01912 0.0444 1e-3 0.745 1e-3 1.4889 0 2.2319 0.0074 0.0158 0.01382 0.0306 0.01912 0.0444 9e-3 4e-3 0.01747 8e-3 0.02584 0.0119 0.0087-4e-3 0.01679-8e-3 0.02481-0.0119 0.0074-0.0138 0.01382-0.0286 0.01912-0.0444 1e-3 -0.35037 1e-3 -0.70183 0-1.0542 0.03346 9e-5 0.06681-8e-5 0.10025 0 0.03329 9e-5 0.06646-8e-5 0.09974 0v5.2e-4c0.29586 5.1e-4 0.59118 3e-4 0.88573-5.2e-4 1e-3 0.35237 1e-3 0.70383 0 1.0542 0.0074 0.0158 0.01382 0.0306 0.01912 0.0444 0.01582 7e-3 0.03062 0.0141 0.04444 0.0191 0.0444 8.1e-4 0.08816 5e-4 0.13126 0-0.01037-1.2e-4 -0.02057 1.9e-4 -0.03101 0-0.01382-5e-3 -0.02862-0.0118-0.04444-0.0191-0.0053-0.0138-0.01177-0.0286-0.01912-0.0444 1e-3 -0.35037 1e-3 -0.70183 0-1.0542 0.03322-8e-5 0.06653 9e-5 0.09974 0 1e-3 0.35237 1e-3 0.70383 0 1.0542 0.0073 0.0158 0.01382 0.0306 0.01912 0.0444 0.0091 4e-3 0.01795 8e-3 0.02635 0.0119 0.0085-4e-3 0.01692-8e-3 0.02481-0.0119 0.0074-0.0138 0.0133-0.0286 0.0186-0.0444 1e-3 -0.743 1e-3 -1.4869 0-2.2319-0.0053-0.0138-0.0113-0.0286-0.0186-0.0444-0.0079-3e-3 -0.01629-7e-3 -0.02481-0.0103-0.0084 4e-3 -0.0173 7e-3 -0.02635 0.0103-0.0053 0.0158-0.01172 0.0306-0.01912 0.0444 1e-3 0.30792 1e-3 0.61444 0 0.92036-0.0332 9e-5 -0.06652-7e-5 -0.09974 0 1e-3 -0.30592 1e-3 -0.61244 0-0.92036 0.0074-0.0138 0.01377-0.0286 0.01912-0.0444 0.01544-5e-3 0.02987-0.0115 0.04341-0.0186-0.03274 1.3e-4 -0.06574 9e-5 -0.09922-5.2e-4 -0.01382 7e-3 -0.02862 0.0141-0.04444 0.0191-0.0053 0.0158-0.01172 0.0306-0.01912 0.0444 1e-3 0.30792 1e-3 0.61444 0 0.92036-0.29452 8.2e-4 -0.58984 5.2e-4 -0.88573 0 1e-3 -0.30592 1e-3 -0.61244 0-0.92036-0.0053-0.0138-0.01172-0.0286-0.01912-0.0444-0.01382-5e-3 -0.02862-0.0121-0.04444-0.0191-0.03252 6.2e-4 -0.06543 6.6e-4 -0.0987 5.2e-4zm1.2108 0c0.01068-5e-5 0.02143-4e-4 0.03204-5.2e-4 -0.01037-1.2e-4 -0.02057 1.9e-4 -0.03101 0-3.32e-4 1.8e-4 -7e-4 3.4e-4 -1e-3 5.2e-4zm0.03204-5.2e-4c0.01071 1.2e-4 0.0214 4.7e-4 0.03204 5.2e-4 -3.65e-4 -1.6e-4 -6.68e-4 -3.6e-4 -1e-3 -5.2e-4 -0.01019 1.9e-4 -0.02075-1.2e-4 -0.03101 0zm0.03204 5.2e-4c0.0064 3e-3 0.01251 6e-3 0.0186 8e-3 0.0059-3e-3 0.01147-5e-3 0.01705-8e-3 -0.01185 4e-5 -0.02371 5e-5 -0.03566 0zm0.03566 0c0.01093-5e-5 0.02171-3.9e-4 0.03256-5.2e-4 -0.01054-1.2e-4 -0.02091 1.9e-4 -0.03152 0-3.46e-4 1.8e-4 -6.87e-4 3.4e-4 -1e-3 5.2e-4zm0.03256-5.2e-4c0.01054 1.2e-4 0.02106 4.7e-4 0.03152 5.2e-4 -3.58e-4 -1.6e-4 -6.75e-4 -3.6e-4 -1e-3 -5.2e-4 -0.01008 1.9e-4 -0.02034-1.2e-4 -0.03049 0zm0.03152 5.2e-4c0.01542 7e-3 0.0299 0.0134 0.04341 0.0186 0.0073 0.0158 0.01377 0.0306 0.01912 0.0444 1e-3 0.74501 1e-3 1.4889 0 2.2319-0.0053 0.0158-0.01177 0.0306-0.01912 0.0444-0.01382 7e-3 -0.02862 0.0138-0.04444 0.0191-0.01008 1.9e-4 -0.02034-1.2e-4 -0.03049 0 0.04405 5e-4 0.088 8.1e-4 0.13074 0 0.01582-5e-3 0.03062-0.0121 0.04444-0.0191 0.0074-0.0138 0.0133-0.0286 0.0186-0.0444 1e-3 -0.743 1e-3 -1.4869 0-2.2319-0.0053-0.0138-0.0113-0.0286-0.0186-0.0444-0.01382-5e-3 -0.02862-0.0121-0.04444-0.0191-0.03252 6.2e-4 -0.06594 6.6e-4 -0.09922 5.2e-4zm-0.03152 2.3585c-0.01054-1.2e-4 -0.02091 1.9e-4 -0.03152 0-0.0059-2e-3 -0.01183-5e-3 -0.01809-7e-3 -0.0064 3e-3 -0.01284 5e-3 -0.01964 7e-3 -0.01019 1.9e-4 -0.02075-1.2e-4 -0.03101 0 0.03384 3.8e-4 0.06718 3.8e-4 0.10025 0zm-1.1808-1.1172c-0.03326-6e-5 -0.06646-4.5e-4 -0.09974-5.2e-4 1e-3 0.35237 1e-3 0.70383 0 1.0542-0.0053 0.0158-0.01177 0.0306-0.01912 0.0444-0.01382 7e-3 -0.02862 0.0138-0.04444 0.0191-0.01008 1.9e-4 -0.02034-1.2e-4 -0.03049 0 0.04405 5e-4 0.08748 8.1e-4 0.13022 0 0.01582-5e-3 0.03062-0.0121 0.04444-0.0191 0.0074-0.0138 0.01382-0.0286 0.01912-0.0444 9.99e-4 -0.3502 9.99e-4 -0.70149 0-1.0537zm-0.19379 1.1172c-0.01054-1.2e-4 -0.02091 1.9e-4 -0.03152 0-0.0059-2e-3 -0.0123-5e-3 -0.0186-7e-3 -0.0063 3e-3 -0.01299 5e-3 -0.01964 7e-3 -0.01008 1.9e-4 -0.02034-1.2e-4 -0.03049 0 0.03384 3.8e-4 0.06718 3.8e-4 0.10025 0zm16.326-2.359c-0.01693 0-0.03174 6e-3 -0.04444 0.0191-0.0127 0.0127-0.01912 0.0275-0.01912 0.0444v1.727c0 0.13123 0.01926 0.23588 0.05736 0.31419 0.0381 0.0762 0.08895 0.13544 0.15245 0.17777 0.0635 0.0403 0.13557 0.0669 0.21601 0.0796 0.08255 0.0127 0.16596 0.0191 0.25063 0.0191 0.0235 0 0.04569-3.5e-4 0.06821-5.2e-4 -0.07385-1e-3 -0.14688-7e-3 -0.21911-0.0186-0.08043-0.0127-0.15251-0.0393-0.21601-0.0796-0.0635-0.0423-0.11383-0.10157-0.15193-0.17777-0.0381-0.0783-0.05736-0.18296-0.05736-0.31419v-1.727c0-0.0169 0.0064-0.0318 0.01912-0.0444 0.0127-0.0127 0.02751-0.0191 0.04444-0.0191zm0.16226 0c0.0063 0 0.01285 1e-3 0.0186 3e-3 0.0061-2e-3 0.01237-3e-3 0.01912-3e-3zm0.0186 3e-3c-0.0092 3e-3 -0.01769 8e-3 -0.02532 0.016-0.0127 0.0127-0.01912 0.0275-0.01912 0.0444v1.727c0 0.13123 0.01875 0.23588 0.05684 0.31419 0.0381 0.0762 0.08895 0.13544 0.15245 0.17777 0.0635 0.0403 0.13557 0.0669 0.21601 0.0796 0.06174 0.01 0.12414 0.0157 0.18707 0.0181-0.01906 2.9e-4 -0.03856 3.5e-4 -0.05839 5.1e-4 0.0075 1e-4 0.01523 5.2e-4 0.02274 5.2e-4 0.02344 0 0.04524-3.5e-4 0.0677-5.2e-4 -0.01055-1.9e-4 -0.02101-1.1e-4 -0.03152-5.1e-4 0.09383-1e-3 0.17914-4e-3 0.25425-9e-3 0.11007-6e-3 0.18608-0.0125 0.22841-0.0191 0.01061-2e-3 0.01802-8e-3 0.02222-0.016 0.0063-8e-3 0.0098-0.0178 0.0098-0.0284v-0.14883c0-0.0254-0.01186-0.0382-0.03514-0.0382h-0.4129c-0.08467 0-0.1528-5e-3 -0.2036-0.016-0.05081-0.0127-0.08979-0.0314-0.1173-0.0568-0.02751-0.0275-0.04626-0.0626-0.05684-0.1049-0.0085-0.0423-0.01292-0.0932-0.01292-0.15245v-1.727c0-0.0169-0.0064-0.0317-0.01912-0.0444-0.0127-0.0127-0.02751-0.0191-0.04444-0.0191h-0.09974c0.01693 0 0.03174 6e-3 0.04444 0.0191 0.0127 0.0127 0.01912 0.0276 0.01912 0.0444v1.727c0 0.0593 0.0045 0.11011 0.01292 0.15245 0.01059 0.0423 0.02933 0.0774 0.05684 0.1049 0.02751 0.0254 0.06702 0.0442 0.11782 0.0568 0.0508 0.0106 0.11842 0.016 0.20309 0.016h-0.10025c-0.08467 0-0.15229-5e-3 -0.20309-0.016-0.05081-0.0127-0.08979-0.0314-0.1173-0.0568-0.02751-0.0275-0.04677-0.0626-0.05736-0.1049-0.0085-0.0423-0.0124-0.0932-0.0124-0.15245v-1.727c0-0.0169-0.0064-0.0317-0.01912-0.0444-0.0078-8e-3 -0.01649-0.013-0.02584-0.016zm-12.836-3e-3c-0.01435 1e-3 -0.02713 8e-3 -0.03824 0.0191-0.0127 0.0127-0.01912 0.027-0.01912 0.0439v1.7276c0 0.13123 0.01926 0.23588 0.05736 0.31419 0.0381 0.0762 0.08895 0.13543 0.15245 0.17777 0.0635 0.0403 0.13557 0.0669 0.21601 0.0796 0.08255 0.0127 0.16596 0.0191 0.25063 0.0191 0.02333 0 0.04534-3.6e-4 0.0677-5.2e-4 -0.07385-1e-3 -0.14688-7e-3 -0.21911-0.0186-0.08043-0.0127-0.15251-0.0393-0.21601-0.0796-0.0635-0.0423-0.11383-0.10157-0.15193-0.17777-0.0381-0.0783-0.05736-0.18296-0.05736-0.31419v-1.7276c0-0.0169 0.0064-0.0312 0.01912-0.0439 0.01111-0.0111 0.02389-0.0177 0.03824-0.0191h-0.09353c-0.0021 0-0.0042-2e-4 -0.0062 0zm0.17467 0c0.0041 3.9e-4 8e-3 1e-3 0.01188 3e-3 -0.0092 3e-3 -0.01764 9e-3 -0.02532 0.0165-0.0127 0.0127-0.01912 0.027-0.01912 0.0439v1.7276c0 0.13123 0.01926 0.23588 0.05736 0.31419 0.0381 0.0762 0.08895 0.13543 0.15245 0.17777 0.0635 0.0403 0.13557 0.0669 0.21601 0.0796 0.06479 0.01 0.13028 0.0159 0.19637 0.0181 0.09028-1e-3 0.17274-5e-3 0.24546-9e-3 0.11007-6e-3 0.18608-0.0119 0.22841-0.0186 0.01061-2e-3 0.01802-8e-3 0.02222-0.016 0.0063-8e-3 0.0093-0.0183 0.0093-0.0289l5.17e-4 5.2e-4v-0.14935c0-0.0254-0.01185-0.0377-0.03514-0.0377h-0.41341c-0.08467 0-0.15229-5e-3 -0.20309-0.016-0.05081-0.0127-0.08979-0.032-0.1173-0.0574-0.02751-0.0275-0.04677-0.062-0.05736-0.10439-0.0085-0.0423-0.0124-0.0932-0.0124-0.15244v-1.7276c0-0.0169-0.0064-0.0312-0.01912-0.0439-0.0127-0.0127-0.02751-0.0191-0.04444-0.0191h-0.09405c0.01435 1e-3 0.02713 8e-3 0.03824 0.0191 0.0127 0.0127 0.01912 0.0271 0.01912 0.0439v1.7276c0 0.0593 0.0045 0.11011 0.01292 0.15244 0.01059 0.0423 0.02933 0.0769 0.05684 0.10439 0.02751 0.0254 0.06702 0.0447 0.11782 0.0574 0.0508 0.0106 0.11842 0.016 0.20309 0.016h-0.09974c-0.08467 0-0.15229-5e-3 -0.20309-0.016-0.05081-0.0127-0.08979-0.032-0.1173-0.0574-0.02751-0.0275-0.04677-0.062-0.05736-0.10439-0.0085-0.0423-0.01292-0.0932-0.01292-0.15244v-1.7276c0-0.0169-0.0059-0.0312-0.0186-0.0439-0.0077-8e-3 -0.01609-0.0135-0.02532-0.0165 0.0038-1e-3 0.0078-2e-3 0.01188-3e-3zm0.58963 2.3802c-0.02224 3.7e-4 -0.04491 3.3e-4 -0.06821 5.2e-4 0.0075 1e-4 0.01523 5.2e-4 0.02274 5.2e-4 0.02361 0 0.04559-3.5e-4 0.06821-5.2e-4 -0.0076-1.4e-4 -0.01515-2.7e-4 -0.02274-5.2e-4zm0.86765-2.3802c-0.01435 1e-3 -0.02713 8e-3 -0.03824 0.0191-0.0127 0.0127-0.01912 0.027-0.01912 0.0439v1.7276c0 0.13123 0.01926 0.23588 0.05736 0.31419 0.0381 0.0762 0.08895 0.13543 0.15245 0.17777 0.0635 0.0403 0.13557 0.0669 0.21601 0.0796 0.08255 0.0127 0.16596 0.0191 0.25063 0.0191 0.02332 0 0.04534-3.6e-4 0.0677-5.2e-4 -0.07385-1e-3 -0.14688-7e-3 -0.21911-0.0186-0.08043-0.0127-0.15199-0.0393-0.21549-0.0796-0.0635-0.0423-0.11434-0.10157-0.15244-0.17777-0.0381-0.0783-0.05736-0.18296-0.05736-0.31419v-1.7276c0-0.0169 0.0064-0.0312 0.01912-0.0439 0.01111-0.0111 0.02389-0.0177 0.03824-0.0191h-0.09354c-0.0021 0-0.0041-2e-4 -0.0062 0zm0.17467 0c0.0041 3.9e-4 8e-3 1e-3 0.01189 3e-3 -0.0092 3e-3 -0.01764 9e-3 -0.02532 0.0165-0.0127 0.0127-0.0186 0.027-0.0186 0.0439v1.7276c0 0.13123 0.01874 0.23588 0.05684 0.31419 0.0381 0.0762 0.08895 0.13543 0.15245 0.17777 0.0635 0.0403 0.13557 0.0669 0.21601 0.0796 0.06479 0.01 0.13028 0.0159 0.19637 0.0181 0.09028-1e-3 0.17274-5e-3 0.24546-9e-3 0.11007-6e-3 0.18608-0.0119 0.22841-0.0186 0.01055-2e-3 0.01796-8e-3 0.02222-0.016 0.0063-8e-3 0.0093-0.0183 0.0093-0.0289l5.17e-4 5.2e-4v-0.14935c0-0.0254-0.01185-0.0377-0.03514-0.0377h-0.41341c-0.08467 0-0.15229-5e-3 -0.20309-0.016-0.05081-0.0127-0.08979-0.032-0.11731-0.0574-0.02752-0.0275-0.04678-0.062-0.05736-0.10439-0.0085-0.0423-0.0124-0.0932-0.0124-0.15244v-1.7276c0-0.0169-0.0064-0.0312-0.01912-0.0439-0.0127-0.0127-0.02751-0.0191-0.04444-0.0191h-0.09405c0.01435 1e-3 0.02713 8e-3 0.03824 0.0191 0.0127 0.0127 0.01912 0.0271 0.01912 0.0439v1.7276c0 0.0593 0.0045 0.11011 0.01292 0.15244 0.01058 0.0423 0.02932 0.0769 0.05684 0.10439 0.02751 0.0254 0.06702 0.0447 0.11782 0.0574 0.0508 0.0106 0.11842 0.016 0.20309 0.016h-0.09974c-0.08467 0-0.15229-5e-3 -0.20309-0.016-0.05081-0.0127-0.08979-0.032-0.11731-0.0574-0.02752-0.0275-0.04678-0.062-0.05736-0.10439-0.0085-0.0423-0.01292-0.0932-0.01292-0.15244v-1.7276c0-0.0169-0.0059-0.0312-0.0186-0.0439-0.0077-8e-3 -0.01609-0.0135-0.02532-0.0165 0.0038-1e-3 0.0078-2e-3 0.01188-3e-3zm0.58963 2.3802c-0.02224 3.7e-4 -0.04491 3.3e-4 -0.06821 5.2e-4 0.0075 1e-4 0.01523 5.2e-4 0.02274 5.2e-4 0.02362 0 0.04559-3.5e-4 0.06821-5.2e-4 -0.0076-1.4e-4 -0.01515-2.7e-4 -0.02274-5.2e-4zm12.473-2.1559c0.01191 0 0.02343 1.6e-4 0.03514 5.2e-4 -0.04752 4.2e-4 -0.09089 1e-3 -0.12919 3e-3 -0.05291 0-0.10573 2e-3 -0.15865 6e-3v1.8924c0.0508 4e-3 0.10361 6e-3 0.15865 6e-3h-0.09973c-0.05503 0-0.10785-2e-3 -0.15865-6e-3v-1.8924c0.05292-4e-3 0.10573-6e-3 0.15865-6e-3 0.05504-2e-3 0.11971-3e-3 0.19379-3e-3zm0.09974 0c0.01191 0 0.02395 1.6e-4 0.03566 5.2e-4 -0.02723 2.4e-4 -0.05279 9.9e-4 -0.077 2e-3 0.07337 4e-3 0.14286 0.0146 0.20826 0.0331 0.08255 0.0233 0.15312 0.0633 0.21239 0.12041 0.06139 0.055 0.10928 0.13058 0.14314 0.22583 0.03387 0.0952 0.05064 0.2147 0.05064 0.35863v0.42788c0 0.14182-0.01678 0.26029-0.05064 0.35554-0.03387 0.0953-0.08176 0.17127-0.14314 0.2284-0.05927 0.0572-0.12984 0.0977-0.21239 0.12093-0.08088 0.0228-0.16789 0.0342-0.26097 0.0346-0.05503 0-0.10785-2e-3 -0.15865-6e-3v-1.8924c0.05292-4e-3 0.10573-6e-3 0.15865-6e-3 0.01651-6e-4 0.03449-6.1e-4 0.05271-1e-3 -0.0072-3.7e-4 -0.01447-1e-3 -0.02171-2e-3 0.02028-1.8e-4 0.04109-5.2e-4 0.06305-5.2e-4zm0.09974 0c0.09525 0 0.1841 0.0119 0.26665 0.0351 0.08255 0.0233 0.15364 0.0633 0.21291 0.12041 0.06139 0.055 0.10876 0.13058 0.14263 0.22583 0.03387 0.0952 0.05116 0.2147 0.05116 0.35863v0.42788c0 0.14182-0.01729 0.26029-0.05116 0.35554-0.03387 0.0953-0.08125 0.17127-0.14263 0.2284-0.05927 0.0572-0.13036 0.0977-0.21291 0.12093-0.08255 0.0233-0.1714 0.0346-0.26665 0.0346h-0.09974c0.09525 0 0.1841-0.0114 0.26665-0.0346 0.08255-0.0233 0.15364-0.0638 0.21291-0.12093 0.06138-0.0571 0.10875-0.13314 0.14263-0.2284 0.03387-0.0953 0.05116-0.21372 0.05116-0.35554v-0.42788c0-0.14393-0.01729-0.26338-0.05116-0.35863-0.03387-0.0952-0.08124-0.1708-0.14263-0.22583-0.05927-0.0571-0.13036-0.0971-0.21291-0.12041-0.07177-0.0202-0.14807-0.032-0.22944-0.0346 0.02012-1.7e-4 0.04076-5.2e-4 0.06253-5.2e-4zm-16.195 0.0124h0.09974c-0.08467 0-0.15229 6e-3 -0.20309 0.0191-0.0508 0.0106-0.08978 0.0293-0.1173 0.0568-0.02752 0.0254-0.04678 0.0595-0.05736 0.1018-0.0085 0.0402-0.01292 0.091-0.01292 0.15245v0.44132h-0.09974v-0.44132c0-0.0614 0.0045-0.11225 0.01292-0.15245 0.01058-0.0423 0.02932-0.0764 0.05684-0.1018 0.02752-0.0275 0.0665-0.0462 0.1173-0.0568 0.0508-0.0127 0.11894-0.0191 0.2036-0.0191zm5.1206 1e-3c0.0054-1.1e-4 0.01111 0 0.01654 0 0.01627 0 0.03187 7e-5 0.04754 1e-3 -0.06633 4e-3 -0.12733 0.0179-0.18294 0.0398-0.06985 0.0254-0.13007 0.0679-0.18087 0.12713-0.04869 0.0593-0.08669 0.13579-0.1142 0.22892-0.0254 0.0931-0.03824 0.20617-0.03824 0.33952v0.40979c0 0.13335 0.01284 0.24638 0.03824 0.33952 0.02751 0.0931 0.06552 0.16914 0.1142 0.22841 0.0508 0.0593 0.11101 0.1027 0.18087 0.13022 0.0556 0.0202 0.11662 0.0326 0.18294 0.0367-0.01568 8.9e-4 -0.03127 2e-3 -0.04754 2e-3 -0.08678 0-0.16527-0.0128-0.23513-0.0382-0.06985-0.0275-0.13007-0.071-0.18087-0.13022-0.04869-0.0593-0.08669-0.13528-0.1142-0.22841-0.0254-0.0931-0.03824-0.20617-0.03824-0.33952v-0.40979c0-0.13335 0.01284-0.24638 0.03824-0.33952 0.02751-0.0931 0.06552-0.16966 0.1142-0.22892 0.0508-0.0593 0.11101-0.10173 0.18087-0.12713 0.06549-0.0258 0.13823-0.0392 0.21859-0.0408zm0.09974 0c0.0054-1.1e-4 0.01111 0 0.01654 0 0.01627 0 0.03187 7e-5 0.04754 1e-3 -0.01611 1e-3 -0.03207 4e-3 -0.04754 6e-3 0.04811 7e-3 0.09288 0.0175 0.13488 0.0341 0.06985 0.0254 0.12908 0.0679 0.17777 0.12713 0.04868 0.0593 0.08571 0.13579 0.1111 0.22892 0.02752 0.0931 0.04134 0.20617 0.04134 0.33952v0.40979c0 0.13335-0.01382 0.24638-0.04134 0.33952-0.02539 0.0931-0.06242 0.16914-0.1111 0.22841-0.04868 0.0592-0.10791 0.10269-0.17777 0.13022-0.04199 0.0153-0.08677 0.0259-0.13488 0.032 0.01547 2e-3 0.03144 4e-3 0.04754 5e-3 -0.01568 8.9e-4 -0.03127 2e-3 -0.04754 2e-3s-0.03238-6.6e-4 -0.04806-2e-3c0.01623-1e-3 0.03247-3e-3 0.04806-5e-3 -0.04811-6e-3 -0.09288-0.0168-0.13488-0.032-0.06985-0.0275-0.13058-0.071-0.18138-0.13022-0.04869-0.0593-0.08669-0.13528-0.1142-0.22841-0.0254-0.0931-0.03824-0.20617-0.03824-0.33952v-0.40979c0-0.13335 0.01284-0.24638 0.03824-0.33952 0.02751-0.0931 0.06552-0.16966 0.1142-0.22892 0.0508-0.0593 0.11153-0.10173 0.18138-0.12713 0.04199-0.0165 0.08677-0.0275 0.13488-0.0341-0.01559-2e-3 -0.03182-5e-3 -0.04806-6e-3 0.01045-6.4e-4 0.02081-8.2e-4 0.03152-1e-3zm0.10025 0c0.0054-1.1e-4 0.0106 0 0.01602 0 0.08678 0 0.16527 0.0133 0.23513 0.0408 0.06985 0.0254 0.12908 0.0679 0.17777 0.12713 0.04868 0.0593 0.0857 0.13579 0.1111 0.22892 0.02752 0.0931 0.04134 0.20617 0.04134 0.33952v0.40979c0 0.13335-0.01382 0.24638-0.04134 0.33952-0.02539 0.0931-0.06242 0.16914-0.1111 0.22841-0.04868 0.0592-0.10791 0.10269-0.17777 0.13022-0.06985 0.0254-0.14835 0.0382-0.23513 0.0382-0.01627 0-0.03187-6.6e-4 -0.04754-2e-3 0.06618-4e-3 0.12692-0.0165 0.18242-0.0367 0.06985-0.0275 0.12909-0.071 0.17777-0.13022 0.04869-0.0593 0.08623-0.13528 0.11162-0.22841 0.02752-0.0931 0.04082-0.20617 0.04082-0.33952v-0.40979c0-0.13335-0.0133-0.24638-0.04082-0.33952-0.0254-0.0931-0.06294-0.16966-0.11162-0.22892-0.04869-0.0593-0.10792-0.10173-0.17777-0.12713-0.0555-0.0219-0.11623-0.0353-0.18242-0.0398 0.01045-6.4e-4 0.02081-8.2e-4 0.03152-1e-3zm5.102 0c0.0054-1.1e-4 0.0106 0 0.01602 0 0.01627 0 0.03238 7e-5 0.04806 1e-3 -0.06633 4e-3 -0.12733 0.0179-0.18294 0.0398-0.06985 0.0254-0.13007 0.0679-0.18087 0.12713-0.04869 0.0593-0.08669 0.13579-0.1142 0.22892-0.0254 0.0931-0.03824 0.20617-0.03824 0.33952v0.40979c0 0.13335 0.01284 0.24638 0.03824 0.33952 0.02751 0.0931 0.06552 0.16914 0.1142 0.22841 0.0508 0.0593 0.11101 0.1027 0.18087 0.13022 0.0556 0.0202 0.11662 0.0326 0.18294 0.0367-0.01568 8.9e-4 -0.03179 2e-3 -0.04806 2e-3 -0.08678 0-0.16476-0.0128-0.23461-0.0382-0.06985-0.0275-0.13058-0.071-0.18138-0.13022-0.04869-0.0593-0.08669-0.13528-0.1142-0.22841-0.0254-0.0931-0.03772-0.20617-0.03772-0.33952v-0.40979c0-0.13335 0.01232-0.24638 0.03772-0.33952 0.02751-0.0931 0.06552-0.16966 0.1142-0.22892 0.0508-0.0593 0.11153-0.10173 0.18138-0.12713 0.06549-0.0258 0.13823-0.0392 0.21859-0.0408zm0.10025 0c0.0054-1.1e-4 0.0106 0 0.01602 0 0.01627 0 0.03238 7e-5 0.04806 1e-3 -0.01641 1e-3 -0.0323 4e-3 -0.04806 6e-3 0.04792 7e-3 0.09303 0.0176 0.13488 0.0341 0.06985 0.0254 0.12908 0.0679 0.17777 0.12713 0.04868 0.0593 0.0857 0.13579 0.1111 0.22892 0.02751 0.0931 0.04134 0.20617 0.04134 0.33952v0.40979c0 0.13335-0.01383 0.24638-0.04134 0.33952-0.02539 0.0931-0.06242 0.16914-0.1111 0.22841-0.04868 0.0592-0.10791 0.10269-0.17777 0.13022-0.04184 0.0152-0.08696 0.0259-0.13488 0.032 0.01575 2e-3 0.03166 4e-3 0.04806 5e-3 -0.01568 8.9e-4 -0.03179 2e-3 -0.04806 2e-3s-0.03238-6.6e-4 -0.04806-2e-3c0.0164-1e-3 0.03231-3e-3 0.04806-5e-3 -0.04792-6e-3 -0.09251-0.0168-0.13436-0.032-0.06985-0.0275-0.13058-0.071-0.18138-0.13022-0.04869-0.0593-0.08669-0.13528-0.1142-0.22841-0.0254-0.0931-0.03824-0.20617-0.03824-0.33952v-0.40979c0-0.13335 0.01284-0.24638 0.03824-0.33952 0.02751-0.0931 0.06552-0.16966 0.1142-0.22892 0.0508-0.0593 0.11153-0.10173 0.18138-0.12713 0.04185-0.0165 0.08644-0.0275 0.13436-0.0341-0.01576-2e-3 -0.03165-5e-3 -0.04806-6e-3 0.01045-6.4e-4 0.02132-8.2e-4 0.03204-1e-3zm0.10025 0c0.0054-1.1e-4 0.0106 0 0.01602 0 0.08678 0 0.16528 0.0133 0.23513 0.0408 0.06985 0.0254 0.12908 0.0679 0.17777 0.12713 0.04868 0.0593 0.0857 0.13579 0.1111 0.22892 0.02751 0.0931 0.04134 0.20617 0.04134 0.33952v0.40979c0 0.13335-0.01383 0.24638-0.04134 0.33952-0.02539 0.0931-0.06242 0.16914-0.1111 0.22841-0.04868 0.0592-0.10791 0.10269-0.17777 0.13022-0.06985 0.0254-0.14835 0.0382-0.23513 0.0382-0.01627 0-0.03238-6.6e-4 -0.04806-2e-3 0.06632-4e-3 0.12682-0.0165 0.18242-0.0367 0.06985-0.0275 0.1296-0.071 0.17828-0.13022 0.04869-0.0593 0.08571-0.13528 0.1111-0.22841 0.02751-0.0931 0.04082-0.20617 0.04082-0.33952v-0.40979c0-0.13335-0.01331-0.24638-0.04082-0.33952-0.0254-0.0931-0.06242-0.16966-0.1111-0.22892-0.04869-0.0593-0.10844-0.10173-0.17828-0.12713-0.0556-0.0219-0.11609-0.0353-0.18242-0.0398 0.01045-6.4e-4 0.02132-8.2e-4 0.03204-1e-3zm1.6366 0c0.0081-1.3e-4 0.01583 0 0.02377 0h0.07597c-0.02421 3.7e-4 -0.04901 1e-3 -0.07441 3e-3 -0.03175 0-0.06235 1e-3 -0.09198 3e-3 -0.02963 0-0.05381 1e-3 -0.07286 3e-3v0.86972c0.06985 2e-3 0.13649 4e-3 0.19999 6e-3h-0.10025c-0.06349-2e-3 -0.13013-4e-3 -0.19999-6e-3v-0.86972c0.01905-2e-3 0.04375-3e-3 0.07338-3e-3 0.02963-2e-3 0.06023-3e-3 0.09198-3e-3 0.0254-1e-3 0.05021-2e-3 0.07441-3e-3zm0.14624 0h0.05374c-0.0081 1.2e-4 -0.01609 2.7e-4 -0.02429 5.2e-4 0.16646 6e-3 0.29497 0.0371 0.38499 0.0915 0.1016 0.0614 0.15193 0.17146 0.15193 0.33022v0.0212c0 0.0847-0.01331 0.15578-0.04082 0.21291-0.0254 0.0572-0.06392 0.10256-0.11472 0.13643-0.0508 0.0339-0.11397 0.0581-0.19017 0.0729-0.06483 0.0111-0.13853 0.0172-0.22118 0.0186 0.0048 1.5e-4 0.01023 3.7e-4 0.01499 5.2e-4h-0.05116c0.01182 0 0.02366-3.3e-4 0.03514-5.2e-4 -0.05888-2e-3 -0.11971-4e-3 -0.18397-6e-3v-0.86972c0.01905-2e-3 0.04323-3e-3 0.07286-3e-3 0.02963-2e-3 0.06023-3e-3 0.09198-3e-3 0.01535-9e-4 0.03056-2e-3 0.04547-2e-3 -0.0081-2.8e-4 -0.01647-3.5e-4 -0.02481-5.2e-4zm0.10025 0h0.06356c0.19897 0 0.34902 0.0306 0.45062 0.092s0.15245 0.17146 0.15245 0.33022v0.0212c0 0.0847-0.01383 0.15578-0.04134 0.21291-0.0254 0.0572-0.0634 0.10256-0.1142 0.13643-0.0508 0.0339-0.11449 0.0581-0.19069 0.0729-0.07409 0.0127-0.15947 0.0191-0.25683 0.0191h-0.10025c0.09737 0 0.18275-6e-3 0.25683-0.0191 0.0762-0.0148 0.13989-0.039 0.19069-0.0729s0.08881-0.0793 0.1142-0.13643c0.02751-0.0571 0.04134-0.12822 0.04134-0.21291v-0.0212c0-0.15876-0.05084-0.26884-0.15244-0.33022-0.09525-0.0576-0.2331-0.0884-0.41393-0.092zm-11.822 0.7705c0.01693 0 0.03174 6e-3 0.04444 0.0191 0.0127 0.0127 0.01912 0.0275 0.01912 0.0444v0.1204c0 0.0169-0.0064 0.0317-0.01912 0.0444-0.0127 0.0127-0.02751 0.0191-0.04444 0.0191h0.09974c0.01693 0 0.03174-6e-3 0.04444-0.0191 0.0127-0.0127 0.01912-0.0275 0.01912-0.0444v-0.1204c0-0.0169-0.0064-0.0318-0.01912-0.0444-0.0127-0.0127-0.02751-0.0191-0.04444-0.0191zm-1.0749 0.24753h0.09974v0.5333c0 0.0593 0.0045 0.11011 0.01292 0.15244 0.01058 0.0423 0.02984 0.0774 0.05736 0.1049 0.02751 0.0254 0.0665 0.0442 0.1173 0.0568 0.04445 9e-3 0.1017 0.0149 0.17208 0.016h-0.06873c-0.08467 0-0.1528-5e-3 -0.2036-0.016-0.05081-0.0127-0.08979-0.0315-0.1173-0.0568-0.02752-0.0275-0.04626-0.0626-0.05684-0.1049-0.0085-0.0423-0.01292-0.0932-0.01292-0.15244zm1.1033 0.86351c0.02328 0 0.03514 0.0128 0.03514 0.0382v0.16275c0 0.0106-0.0035 0.02-0.0098 0.0284-0.0042 8e-3 -0.01161 0.0139-0.02222 0.016-0.02963 4e-3 -0.06961 6e-3 -0.12041 6e-3 -0.0508 2e-3 -0.1061 4e-3 -0.16536 6e-3 -0.04286 1e-3 -0.08617 3e-3 -0.13022 3e-3h0.05581c0.05926 0 0.11751-1e-3 0.17467-3e-3 0.05927-2e-3 0.11405-4e-3 0.16485-6e-3 0.0508 0 0.09129-2e-3 0.12092-6e-3 0.01061-2e-3 0.01802-8e-3 0.02222-0.016 0.0063-8e-3 0.0093-0.0178 0.0093-0.0284v-0.16275c0-0.0254-0.01186-0.0382-0.03514-0.0382zm14.399 1e-3c0.02328 0 0.03462 0.0128 0.03462 0.0382v0.14883c0 0.0106-3e-3 0.02-0.0093 0.0284-0.0042 8e-3 -0.01161 0.0139-0.02222 0.016-0.04233 7e-3 -0.11886 0.0131-0.22893 0.0191-0.09054 5e-3 -0.1954 8e-3 -0.31316 9e-3 0.0075 1e-4 0.01523 5.2e-4 0.02274 5.2e-4 0.15028 0 0.28009-3e-3 0.39016-0.01 0.11007-6e-3 0.18659-0.0125 0.22893-0.0191 0.01061-2e-3 0.01802-8e-3 0.02222-0.016 0.0063-8e-3 0.0093-0.0178 0.0093-0.0284v-0.14883c0-0.0254-0.01186-0.0382-0.03514-0.0382zm-12.65 5.2e-4c0.02329 0 0.03462 0.0123 0.03462 0.0377v0.14935c-1.04e-4 0.0104-0.0031 0.0201-0.0093 0.0284-0.0042 8e-3 -0.01161 0.0139-0.02222 0.016-0.04233 7e-3 -0.11886 0.0126-0.22893 0.0186-0.09041 5e-3 -0.1951 9e-3 -0.31264 0.01 0.0074 1e-4 0.01476 5.2e-4 0.02222 5.2e-4 0.15028 0 0.28061-4e-3 0.39067-0.0103 0.11007-6e-3 0.18608-0.0119 0.22841-0.0186 0.01061-2e-3 0.01802-8e-3 0.02222-0.016 0.0062-8e-3 0.0097-0.018 0.0098-0.0284v-0.14935c0-0.0254-0.01185-0.0377-0.03514-0.0377zm1.6319 0c0.02329 0 0.03462 0.0123 0.03462 0.0377v0.14935c-1.04e-4 0.0104-0.0031 0.0201-0.0093 0.0284-0.0043 8e-3 -0.01167 0.0139-0.02222 0.016-0.04233 7e-3 -0.11886 0.0126-0.22893 0.0186-0.09041 5e-3 -0.1951 9e-3 -0.31264 0.01 0.0074 1e-4 0.01476 5.2e-4 0.02222 5.2e-4 0.15028 0 0.28061-4e-3 0.39067-0.0103 0.11007-6e-3 0.18608-0.0119 0.22841-0.0186 0.01055-2e-3 0.01796-8e-3 0.02222-0.016 0.0062-8e-3 0.0097-0.018 0.0098-0.0284v-0.14935c0-0.0254-0.01185-0.0377-0.03514-0.0377z" fill="url(#a)"/>
</g>
</svg>
