<svg width="23.202mm" height="3.5713mm" version="1.1" viewBox="0 0 23.202 3.5713" xmlns="http://www.w3.org/2000/svg" xmlns:xlink="http://www.w3.org/1999/xlink">
<defs>
<linearGradient id="b" x1="34.826" x2="54.822" y1="133.13" y2="133.13" gradientUnits="userSpaceOnUse">
<stop stop-color="#ff0" offset="0"/>
<stop stop-color="#0ff" offset="1"/>
</linearGradient>
<linearGradient id="a" x1="33.223" x2="56.426" y1="133.13" y2="133.13" gradientUnits="userSpaceOnUse">
<stop stop-color="#0ff" offset="0"/>
<stop stop-color="#ff0" offset="1"/>
</linearGradient>
</defs>
<g transform="translate(-33.223 -131.35)">
<style>
@keyframes animate {
0% {
filter: hue-rotate(360deg);}
100% {
filter: hue-rotate(0deg);}
}
path {
animation: animate linear 10s infinite ;
}
</style>
<path d="m54.822 133.35q0 0.254-0.06985 0.44133-0.06667 0.18415-0.19368 0.30797-0.12382 0.12065-0.30162 0.18098-0.1778 0.0572-0.39688 0.0572-0.0889 0-0.1778-3e-3t-0.16828-0.01q-0.0762-3e-3 -0.13652-0.01-0.06032-3e-3 -0.09525-0.01-0.06667-0.01-0.06667-0.0794v-2.1812q0-0.0699 0.06667-0.0794 0.03493-6e-3 0.09525-0.01 0.06032-6e-3 0.13652-0.01 0.07938-6e-3 0.16828-0.01 0.0889-3e-3 0.1778-3e-3 0.21908 0 0.39688 0.0572 0.1778 0.0571 0.30162 0.18098 0.127 0.12065 0.19368 0.30797 0.06985 0.18415 0.06985 0.44133v0.42862zm-0.28892-0.42862q0-0.2159-0.0508-0.35878-0.0508-0.14287-0.14288-0.22542-0.0889-0.0857-0.21272-0.12065-0.12382-0.0349-0.2667-0.0349-0.11112 0-0.19368 3e-3 -0.07937 0-0.15875 6e-3v1.8923q0.0762 6e-3 0.15875 6e-3t0.19368 0q0.14288 0 0.2667-0.0349t0.21272-0.12065q0.09207-0.0857 0.14288-0.2286 0.0508-0.14287 0.0508-0.3556zm0.18932 0.42862q0 0.254-0.06985 0.44133-0.06667 0.18415-0.19368 0.30797-0.12382 0.12065-0.30162 0.18098-0.1778 0.0572-0.39688 0.0572-0.0889 0-0.1778-3e-3t-0.16828-0.01q-0.0762-3e-3 -0.13652-0.01-0.06032-3e-3 -0.09525-0.01-0.06667-0.01-0.06667-0.0794v-2.1812q0-0.0699 0.06667-0.0794 0.03493-6e-3 0.09525-0.01 0.06032-6e-3 0.13652-0.01 0.07938-6e-3 0.16828-0.01 0.0889-3e-3 0.1778-3e-3 0.21908 0 0.39688 0.0572 0.1778 0.0571 0.30162 0.18098 0.127 0.12065 0.19368 0.30797 0.06985 0.18415 0.06985 0.44133v0.42862zm-0.28892-0.42862q0-0.2159-0.0508-0.35878-0.0508-0.14287-0.14288-0.22542-0.0889-0.0857-0.21272-0.12065-0.12382-0.0349-0.2667-0.0349-0.11112 0-0.19368 3e-3 -0.07937 0-0.15875 6e-3v1.8923q0.0762 6e-3 0.15875 6e-3t0.19368 0q0.14288 0 0.2667-0.0349t0.21272-0.12065q0.09207-0.0857 0.14288-0.2286 0.0508-0.14287 0.0508-0.3556zm0.18892 0.42862q0 0.254-0.06985 0.44133-0.06667 0.18415-0.19368 0.30797-0.12382 0.12065-0.30162 0.18098-0.1778 0.0572-0.39688 0.0572-0.0889 0-0.1778-3e-3t-0.16828-0.01q-0.0762-3e-3 -0.13652-0.01-0.06032-3e-3 -0.09525-0.01-0.06667-0.01-0.06667-0.0794v-2.1812q0-0.0699 0.06667-0.0794 0.03493-6e-3 0.09525-0.01 0.06032-6e-3 0.13652-0.01 0.07938-6e-3 0.16828-0.01 0.0889-3e-3 0.1778-3e-3 0.21908 0 0.39688 0.0572 0.1778 0.0571 0.30162 0.18098 0.127 0.12065 0.19368 0.30797 0.06985 0.18415 0.06985 0.44133v0.42862zm-0.28892-0.42862q0-0.2159-0.0508-0.35878-0.0508-0.14287-0.14288-0.22542-0.0889-0.0857-0.21272-0.12065-0.12382-0.0349-0.2667-0.0349-0.11112 0-0.19368 3e-3 -0.07937 0-0.15875 6e-3v1.8923q0.0762 6e-3 0.15875 6e-3t0.19368 0q0.14288 0 0.2667-0.0349t0.21272-0.12065q0.09207-0.0857 0.14288-0.2286 0.0508-0.14287 0.0508-0.3556zm-1.4228 1.343q0 0.0159-0.0095 0.0286-0.0063 0.0127-0.02222 0.0159-0.0635 0.01-0.2286 0.019-0.1651 0.01-0.39052 0.01-0.127 0-0.25082-0.0191-0.12065-0.019-0.2159-0.0794-0.09525-0.0635-0.1524-0.1778-0.05715-0.11747-0.05715-0.31432v-1.7272q0-0.0254 0.01905-0.0444t0.04445-0.019h0.16192q0.0254 0 0.04445 0.019 0.01905 0.0191 0.01905 0.0444v1.7272q0 0.0889 0.0127 0.1524 0.01588 0.0635 0.05715 0.10477 0.04127 0.0381 0.11748 0.0571 0.0762 0.0159 0.2032 0.0159h0.61278q0.03492 0 0.03492 0.0381v0.14922zm-0.09968 0q0 0.0159-0.0095 0.0286-0.0063 0.0127-0.02222 0.0159-0.0635 0.01-0.2286 0.019-0.1651 0.01-0.39052 0.01-0.127 0-0.25082-0.0191-0.12065-0.019-0.2159-0.0794-0.09525-0.0635-0.1524-0.1778-0.05715-0.11747-0.05715-0.31432v-1.7272q0-0.0254 0.01905-0.0444t0.04445-0.019h0.16192q0.0254 0 0.04445 0.019 0.01905 0.0191 0.01905 0.0444v1.7272q0 0.0889 0.0127 0.1524 0.01588 0.0635 0.05715 0.10477 0.04127 0.0381 0.11748 0.0571 0.0762 0.0159 0.2032 0.0159h0.61278q0.03492 0 0.03492 0.0381v0.14922zm-0.1 0q0 0.0159-0.0095 0.0286-0.0063 0.0127-0.02222 0.0159-0.0635 0.01-0.2286 0.019-0.1651 0.01-0.39052 0.01-0.127 0-0.25082-0.0191-0.12065-0.019-0.2159-0.0794-0.09525-0.0635-0.1524-0.1778-0.05715-0.11747-0.05715-0.31432v-1.7272q0-0.0254 0.01905-0.0444t0.04445-0.019h0.16192q0.0254 0 0.04445 0.019 0.01905 0.0191 0.01905 0.0444v1.7272q0 0.0889 0.0127 0.1524 0.01588 0.0635 0.05715 0.10477 0.04127 0.0381 0.11748 0.0571 0.0762 0.0159 0.2032 0.0159h0.61278q0.03492 0 0.03492 0.0381v0.14922zm-1.4989 0.01q0 0.0413-0.04127 0.0413h-0.2032q-0.02858 0-0.04763-3e-3 -0.01587-6e-3 -0.03492-0.0381l-0.56832-0.94615h-0.08255q-0.07938 0-0.1524 0-0.06985-3e-3 -0.19685-0.01v0.93345q0 0.0254-0.01588 0.0445-0.01587 0.019-0.04127 0.019h-0.17145q-0.0254 0-0.04127-0.019-0.01588-0.0191-0.01588-0.0445v-2.2225q0-0.0349 0.01588-0.0476 0.01588-0.0159 0.06032-0.0222 0.0508-6e-3 0.11748-0.01 0.06985-6e-3 0.14288-0.01 0.0762-3e-3 0.1524-3e-3 0.0762-3e-3 0.14605-3e-3 0.18732 0 0.34925 0.0349 0.1651 0.0349 0.28258 0.1143 0.12065 0.0794 0.18732 0.20955 0.06985 0.13017 0.06985 0.32385v0.0222q0 0.13335-0.0381 0.2413-0.03493 0.10478-0.1016 0.18415-0.06668 0.0794-0.15875 0.13335-0.09207 0.054-0.20002 0.0825l0.57785 0.9652q0.0095 0.0127 0.0095 0.0286zm-0.37465-1.6574q0-0.23813-0.1524-0.3302-0.1524-0.0921-0.45085-0.0921-0.0381 0-0.08573 0-0.04762 0-0.09842 3e-3 -0.04763 0-0.09208 3e-3 -0.04445 0-0.07303 3e-3v0.86995q0.10478 3e-3 0.20002 6e-3 0.09525 0 0.14922 0 0.14605 0 0.25718-0.019 0.1143-0.0222 0.1905-0.073t0.1143-0.13652q0.04127-0.0857 0.04127-0.21273zm0.27437 1.6574q0 0.0413-0.04127 0.0413h-0.2032q-0.02858 0-0.04763-3e-3 -0.01587-6e-3 -0.03492-0.0381l-0.56832-0.94615h-0.08255q-0.07938 0-0.1524 0-0.06985-3e-3 -0.19685-0.01v0.93345q0 0.0254-0.01588 0.0445-0.01587 0.019-0.04127 0.019h-0.17145q-0.0254 0-0.04127-0.019-0.01588-0.0191-0.01588-0.0445v-2.2225q0-0.0349 0.01588-0.0476 0.01588-0.0159 0.06032-0.0222 0.0508-6e-3 0.11748-0.01 0.06985-6e-3 0.14288-0.01 0.0762-3e-3 0.1524-3e-3 0.0762-3e-3 0.14605-3e-3 0.18732 0 0.34925 0.0349 0.1651 0.0349 0.28258 0.1143 0.12065 0.0794 0.18732 0.20955 0.06985 0.13017 0.06985 0.32385v0.0222q0 0.13335-0.0381 0.2413-0.03493 0.10478-0.1016 0.18415-0.06668 0.0794-0.15875 0.13335-0.09207 0.054-0.20002 0.0825l0.57785 0.9652q0.0095 0.0127 0.0095 0.0286zm-0.37465-1.6574q0-0.23813-0.1524-0.3302-0.1524-0.0921-0.45085-0.0921-0.0381 0-0.08573 0-0.04762 0-0.09842 3e-3 -0.04763 0-0.09208 3e-3 -0.04445 0-0.07303 3e-3v0.86995q0.10478 3e-3 0.20002 6e-3 0.09525 0 0.14922 0 0.14605 0 0.25718-0.019 0.1143-0.0222 0.1905-0.073t0.1143-0.13652q0.04127-0.0857 0.04127-0.21273zm0.27465 1.6574q0 0.0413-0.04127 0.0413h-0.2032q-0.02858 0-0.04763-3e-3 -0.01587-6e-3 -0.03492-0.0381l-0.56832-0.94615h-0.08255q-0.07938 0-0.1524 0-0.06985-3e-3 -0.19685-0.01v0.93345q0 0.0254-0.01588 0.0445-0.01587 0.019-0.04127 0.019h-0.17145q-0.0254 0-0.04127-0.019-0.01588-0.0191-0.01588-0.0445v-2.2225q0-0.0349 0.01588-0.0476 0.01588-0.0159 0.06032-0.0222 0.0508-6e-3 0.11748-0.01 0.06985-6e-3 0.14288-0.01 0.0762-3e-3 0.1524-3e-3 0.0762-3e-3 0.14605-3e-3 0.18732 0 0.34925 0.0349 0.1651 0.0349 0.28258 0.1143 0.12065 0.0794 0.18732 0.20955 0.06985 0.13017 0.06985 0.32385v0.0222q0 0.13335-0.0381 0.2413-0.03493 0.10478-0.1016 0.18415-0.06668 0.0794-0.15875 0.13335-0.09207 0.054-0.20002 0.0825l0.57785 0.9652q0.0095 0.0127 0.0095 0.0286zm-0.37465-1.6574q0-0.23813-0.1524-0.3302-0.1524-0.0921-0.45085-0.0921-0.0381 0-0.08573 0-0.04762 0-0.09842 3e-3 -0.04763 0-0.09208 3e-3 -0.04445 0-0.07303 3e-3v0.86995q0.10478 3e-3 0.20002 6e-3 0.09525 0 0.14922 0 0.14605 0 0.25718-0.019 0.1143-0.0222 0.1905-0.073t0.1143-0.13652q0.04127-0.0857 0.04127-0.21273zm-1.4761 0.7239q0 0.26352-0.0635 0.45402-0.0635 0.18733-0.1778 0.30798t-0.27305 0.1778q-0.15558 0.0572-0.3429 0.0572t-0.34608-0.0572q-0.15558-0.0572-0.26988-0.1778-0.1143-0.12065-0.18098-0.30798-0.0635-0.1905-0.0635-0.45402v-0.40958q0-0.26352 0.0635-0.45085 0.06667-0.1905 0.18098-0.31115 0.1143-0.12065 0.26988-0.1778 0.15875-0.0572 0.34608-0.0572t0.3429 0.0572q0.15875 0.0571 0.27305 0.1778 0.1143 0.12065 0.1778 0.31115 0.0635 0.18733 0.0635 0.45085zm-0.2921-0.40958q0-0.20002-0.04127-0.33972-0.0381-0.1397-0.11112-0.2286-0.07303-0.0889-0.1778-0.127-0.10478-0.0413-0.23495-0.0413t-0.23495 0.0413q-0.10478 0.0381-0.18098 0.127-0.07303 0.0889-0.1143 0.2286-0.0381 0.1397-0.0381 0.33972v0.40958q0 0.20002 0.0381 0.33972 0.04127 0.1397 0.1143 0.2286 0.0762 0.0889 0.18098 0.13018 0.10478 0.0381 0.23495 0.0381t0.23495-0.0381q0.10478-0.0413 0.1778-0.13018 0.07303-0.0889 0.11112-0.2286 0.04127-0.1397 0.04127-0.33972zm0.19165 0.40958q0 0.26352-0.0635 0.45402-0.0635 0.18733-0.1778 0.30798t-0.27305 0.1778q-0.15558 0.0572-0.3429 0.0572t-0.34608-0.0572q-0.15558-0.0572-0.26988-0.1778-0.1143-0.12065-0.18098-0.30798-0.0635-0.1905-0.0635-0.45402v-0.40958q0-0.26352 0.0635-0.45085 0.06667-0.1905 0.18098-0.31115 0.1143-0.12065 0.26988-0.1778 0.15875-0.0572 0.34608-0.0572t0.3429 0.0572q0.15875 0.0571 0.27305 0.1778 0.1143 0.12065 0.1778 0.31115 0.0635 0.18733 0.0635 0.45085zm-0.2921-0.40958q0-0.20002-0.04127-0.33972-0.0381-0.1397-0.11112-0.2286-0.07303-0.0889-0.1778-0.127-0.10478-0.0413-0.23495-0.0413t-0.23495 0.0413q-0.10478 0.0381-0.18098 0.127-0.07303 0.0889-0.1143 0.2286-0.0381 0.1397-0.0381 0.33972v0.40958q0 0.20002 0.0381 0.33972 0.04127 0.1397 0.1143 0.2286 0.0762 0.0889 0.18098 0.13018 0.10478 0.0381 0.23495 0.0381t0.23495-0.0381q0.10478-0.0413 0.1778-0.13018 0.07303-0.0889 0.11112-0.2286 0.04127-0.1397 0.04127-0.33972zm0.1921 0.40958q0 0.26352-0.0635 0.45402-0.0635 0.18733-0.1778 0.30798t-0.27305 0.1778q-0.15558 0.0572-0.3429 0.0572t-0.34608-0.0572q-0.15558-0.0572-0.26988-0.1778-0.1143-0.12065-0.18098-0.30798-0.0635-0.1905-0.0635-0.45402v-0.40958q0-0.26352 0.0635-0.45085 0.06667-0.1905 0.18098-0.31115 0.1143-0.12065 0.26988-0.1778 0.15875-0.0572 0.34608-0.0572t0.3429 0.0572q0.15875 0.0571 0.27305 0.1778 0.1143 0.12065 0.1778 0.31115 0.0635 0.18733 0.0635 0.45085zm-0.2921-0.40958q0-0.20002-0.04127-0.33972-0.0381-0.1397-0.11112-0.2286-0.07303-0.0889-0.1778-0.127-0.10478-0.0413-0.23495-0.0413t-0.23495 0.0413q-0.10478 0.0381-0.18098 0.127-0.07303 0.0889-0.1143 0.2286-0.0381 0.1397-0.0381 0.33972v0.40958q0 0.20002 0.0381 0.33972 0.04127 0.1397 0.1143 0.2286 0.0762 0.0889 0.18098 0.13018 0.10478 0.0381 0.23495 0.0381t0.23495-0.0381q0.10478-0.0413 0.1778-0.13018 0.07303-0.0889 0.11112-0.2286 0.04127-0.1397 0.04127-0.33972zm-1.5236-0.91122-0.35242 2.1463q-0.01588 0.0984-0.06985 0.13017-0.0508 0.0317-0.127 0.0317h-0.13652q-0.06668 0-0.1143-0.0413-0.04763-0.0445-0.06668-0.11748l-0.31115-1.1748q-0.0063-0.0222-0.0095-0.0254-0.0032-3e-3 -0.0095-3e-3h-0.0064q-0.0064 0-0.0095 3e-3 -0.0032 3e-3 -0.0095 0.0254l-0.31432 1.1748q-0.01905 0.073-0.06667 0.11748-0.04763 0.0413-0.1143 0.0413h-0.13335q-0.0762 0-0.13018-0.0317-0.0508-0.0318-0.06668-0.13017l-0.35242-2.1463v-0.01q0-0.054 0.05398-0.054h0.18415q0.04445 0 0.05398 0.054l0.30798 2.0225q0.0064 0.0254 0.0064 0.0381 0 0.01 0.0095 0.01 0.0127 0 0.02222-0.0476l0.31115-1.1748q0.03175-0.127 0.14922-0.127h0.2032q0.11748 0 0.14922 0.127l0.31115 1.1748q0.0095 0.0476 0.02222 0.0476 0.0095 0 0.0095-0.01 0-0.0127 0.0063-0.0381l0.30798-2.0225q0.0095-0.054 0.05398-0.054h0.18415q0.05398 0 0.05398 0.054zm-0.09974 0-0.35242 2.1463q-0.01588 0.0984-0.06985 0.13017-0.0508 0.0317-0.127 0.0317h-0.13652q-0.06668 0-0.1143-0.0413-0.04763-0.0445-0.06668-0.11748l-0.31115-1.1748q-0.0063-0.0222-0.0095-0.0254-0.0032-3e-3 -0.0095-3e-3h-0.0064q-0.0064 0-0.0095 3e-3 -0.0032 3e-3 -0.0095 0.0254l-0.31432 1.1748q-0.01905 0.073-0.06667 0.11748-0.04763 0.0413-0.1143 0.0413h-0.13335q-0.0762 0-0.13018-0.0317-0.0508-0.0318-0.06668-0.13017l-0.35242-2.1463v-0.01q0-0.054 0.05398-0.054h0.18415q0.04445 0 0.05398 0.054l0.30798 2.0225q0.0064 0.0254 0.0064 0.0381 0 0.01 0.0095 0.01 0.0127 0 0.02222-0.0476l0.31115-1.1748q0.03175-0.127 0.14922-0.127h0.2032q0.11748 0 0.14922 0.127l0.31115 1.1748q0.0095 0.0476 0.02222 0.0476 0.0095 0 0.0095-0.01 0-0.0127 0.0063-0.0381l0.30798-2.0225q0.0095-0.054 0.05398-0.054h0.18415q0.05398 0 0.05398 0.054zm-0.1 0-0.35242 2.1463q-0.01588 0.0984-0.06985 0.13017-0.0508 0.0317-0.127 0.0317h-0.13652q-0.06668 0-0.1143-0.0413-0.04763-0.0445-0.06668-0.11748l-0.31115-1.1748q-0.0063-0.0222-0.0095-0.0254-0.0032-3e-3 -0.0095-3e-3h-0.0064q-0.0064 0-0.0095 3e-3 -0.0032 3e-3 -0.0095 0.0254l-0.31432 1.1748q-0.01905 0.073-0.06667 0.11748-0.04763 0.0413-0.1143 0.0413h-0.13335q-0.0762 0-0.13018-0.0317-0.0508-0.0318-0.06668-0.13017l-0.35242-2.1463v-0.01q0-0.054 0.05398-0.054h0.18415q0.04445 0 0.05398 0.054l0.30798 2.0225q0.0064 0.0254 0.0064 0.0381 0 0.01 0.0095 0.01 0.0127 0 0.02222-0.0476l0.31115-1.1748q0.03175-0.127 0.14922-0.127h0.2032q0.11748 0 0.14922 0.127l0.31115 1.1748q0.0095 0.0476 0.02222 0.0476 0.0095 0 0.0095-0.01 0-0.0127 0.0063-0.0381l0.30798-2.0225q0.0095-0.054 0.05398-0.054h0.18415q0.05398 0 0.05398 0.054zm-3.2864 1.3208q0 0.26352-0.0635 0.45402-0.0635 0.18733-0.1778 0.30798t-0.27305 0.1778q-0.15558 0.0572-0.3429 0.0572t-0.34608-0.0572q-0.15558-0.0572-0.26988-0.1778-0.1143-0.12065-0.18098-0.30798-0.0635-0.1905-0.0635-0.45402v-0.40958q0-0.26352 0.0635-0.45085 0.06668-0.1905 0.18098-0.31115 0.1143-0.12065 0.26988-0.1778 0.15875-0.0572 0.34608-0.0572t0.3429 0.0572q0.15875 0.0571 0.27305 0.1778 0.1143 0.12065 0.1778 0.31115 0.0635 0.18733 0.0635 0.45085zm-0.2921-0.40958q0-0.20002-0.04128-0.33972-0.0381-0.1397-0.11112-0.2286-0.07303-0.0889-0.1778-0.127-0.10478-0.0413-0.23495-0.0413t-0.23495 0.0413q-0.10478 0.0381-0.18098 0.127-0.07303 0.0889-0.1143 0.2286-0.0381 0.1397-0.0381 0.33972v0.40958q0 0.20002 0.0381 0.33972 0.04127 0.1397 0.1143 0.2286 0.0762 0.0889 0.18098 0.13018 0.10478 0.0381 0.23495 0.0381t0.23495-0.0381q0.10478-0.0413 0.1778-0.13018 0.07303-0.0889 0.11112-0.2286 0.04128-0.1397 0.04128-0.33972zm0.39192 0.40958q0 0.26352-0.0635 0.45402-0.0635 0.18733-0.1778 0.30798t-0.27305 0.1778q-0.15558 0.0572-0.3429 0.0572t-0.34608-0.0572q-0.15558-0.0572-0.26988-0.1778-0.1143-0.12065-0.18098-0.30798-0.0635-0.1905-0.0635-0.45402v-0.40958q0-0.26352 0.0635-0.45085 0.06668-0.1905 0.18098-0.31115 0.1143-0.12065 0.26988-0.1778 0.15875-0.0572 0.34608-0.0572t0.3429 0.0572q0.15875 0.0571 0.27305 0.1778 0.1143 0.12065 0.1778 0.31115 0.0635 0.18733 0.0635 0.45085zm-0.2921-0.40958q0-0.20002-0.04128-0.33972-0.0381-0.1397-0.11112-0.2286-0.07303-0.0889-0.1778-0.127-0.10478-0.0413-0.23495-0.0413t-0.23495 0.0413q-0.10478 0.0381-0.18098 0.127-0.07303 0.0889-0.1143 0.2286-0.0381 0.1397-0.0381 0.33972v0.40958q0 0.20002 0.0381 0.33972 0.04127 0.1397 0.1143 0.2286 0.0762 0.0889 0.18098 0.13018 0.10478 0.0381 0.23495 0.0381t0.23495-0.0381q0.10478-0.0413 0.1778-0.13018 0.07303-0.0889 0.11112-0.2286 0.04128-0.1397 0.04128-0.33972zm0.3921 0.40958q0 0.26352-0.0635 0.45402-0.0635 0.18733-0.1778 0.30798t-0.27305 0.1778q-0.15558 0.0572-0.3429 0.0572t-0.34608-0.0572q-0.15558-0.0572-0.26988-0.1778-0.1143-0.12065-0.18098-0.30798-0.0635-0.1905-0.0635-0.45402v-0.40958q0-0.26352 0.0635-0.45085 0.06668-0.1905 0.18098-0.31115 0.1143-0.12065 0.26988-0.1778 0.15875-0.0572 0.34608-0.0572t0.3429 0.0572q0.15875 0.0571 0.27305 0.1778 0.1143 0.12065 0.1778 0.31115 0.0635 0.18733 0.0635 0.45085zm-0.2921-0.40958q0-0.20002-0.04128-0.33972-0.0381-0.1397-0.11112-0.2286-0.07303-0.0889-0.1778-0.127-0.10478-0.0413-0.23495-0.0413t-0.23495 0.0413q-0.10478 0.0381-0.18098 0.127-0.07303 0.0889-0.1143 0.2286-0.0381 0.1397-0.0381 0.33972v0.40958q0 0.20002 0.0381 0.33972 0.04127 0.1397 0.1143 0.2286 0.0762 0.0889 0.18098 0.13018 0.10478 0.0381 0.23495 0.0381t0.23495-0.0381q0.10478-0.0413 0.1778-0.13018 0.07303-0.0889 0.11112-0.2286 0.04128-0.1397 0.04128-0.33972zm-1.873 1.3335q0 0.0159-0.0095 0.0286-0.0064 0.0127-0.02222 0.0159-0.0635 0.01-0.2286 0.019-0.1651 0.01-0.39052 0.01-0.127 0-0.25082-0.0191-0.12065-0.019-0.2159-0.0794-0.09525-0.0635-0.1524-0.1778-0.05715-0.11747-0.05715-0.31432v-1.7272q0-0.0254 0.01905-0.0444t0.04445-0.019h0.16192q0.0254 0 0.04445 0.019 0.01905 0.0191 0.01905 0.0444v1.7272q0 0.0889 0.0127 0.1524 0.01587 0.0635 0.05715 0.10477 0.04127 0.0381 0.11748 0.0571 0.0762 0.0159 0.2032 0.0159h0.61278q0.03493 0 0.03493 0.0381v0.14922zm0.09959 0q0 0.0159-0.0095 0.0286-0.0064 0.0127-0.02222 0.0159-0.0635 0.01-0.2286 0.019-0.1651 0.01-0.39052 0.01-0.127 0-0.25082-0.0191-0.12065-0.019-0.2159-0.0794-0.09525-0.0635-0.1524-0.1778-0.05715-0.11747-0.05715-0.31432v-1.7272q0-0.0254 0.01905-0.0444t0.04445-0.019h0.16192q0.0254 0 0.04445 0.019 0.01905 0.0191 0.01905 0.0444v1.7272q0 0.0889 0.0127 0.1524 0.01587 0.0635 0.05715 0.10477 0.04127 0.0381 0.11748 0.0571 0.0762 0.0159 0.2032 0.0159h0.61278q0.03493 0 0.03493 0.0381v0.14922zm0.1 0q0 0.0159-0.0095 0.0286-0.0064 0.0127-0.02222 0.0159-0.0635 0.01-0.2286 0.019-0.1651 0.01-0.39052 0.01-0.127 0-0.25082-0.0191-0.12065-0.019-0.2159-0.0794-0.09525-0.0635-0.1524-0.1778-0.05715-0.11747-0.05715-0.31432v-1.7272q0-0.0254 0.01905-0.0444t0.04445-0.019h0.16192q0.0254 0 0.04445 0.019 0.01905 0.0191 0.01905 0.0444v1.7272q0 0.0889 0.0127 0.1524 0.01587 0.0635 0.05715 0.10477 0.04127 0.0381 0.11748 0.0571 0.0762 0.0159 0.2032 0.0159h0.61278q0.03493 0 0.03493 0.0381v0.14922zm-1.8315 0q0 0.0159-0.0095 0.0286-0.0063 0.0127-0.02222 0.0159-0.0635 0.01-0.2286 0.019-0.1651 0.01-0.39052 0.01-0.127 0-0.25082-0.0191-0.12065-0.019-0.2159-0.0794-0.09525-0.0635-0.1524-0.1778-0.05715-0.11747-0.05715-0.31432v-1.7272q0-0.0254 0.01905-0.0444t0.04445-0.019h0.16192q0.0254 0 0.04445 0.019 0.01905 0.0191 0.01905 0.0444v1.7272q0 0.0889 0.0127 0.1524 0.01588 0.0635 0.05715 0.10477 0.04127 0.0381 0.11748 0.0571 0.0762 0.0159 0.2032 0.0159h0.61278q0.03493 0 0.03493 0.0381v0.14922zm0.09954 0q0 0.0159-0.0095 0.0286-0.0063 0.0127-0.02222 0.0159-0.0635 0.01-0.2286 0.019-0.1651 0.01-0.39052 0.01-0.127 0-0.25082-0.0191-0.12065-0.019-0.2159-0.0794-0.09525-0.0635-0.1524-0.1778-0.05715-0.11747-0.05715-0.31432v-1.7272q0-0.0254 0.01905-0.0444t0.04445-0.019h0.16192q0.0254 0 0.04445 0.019 0.01905 0.0191 0.01905 0.0444v1.7272q0 0.0889 0.0127 0.1524 0.01588 0.0635 0.05715 0.10477 0.04127 0.0381 0.11748 0.0571 0.0762 0.0159 0.2032 0.0159h0.61278q0.03493 0 0.03493 0.0381v0.14922zm0.1 0q0 0.0159-0.0095 0.0286-0.0063 0.0127-0.02222 0.0159-0.0635 0.01-0.2286 0.019-0.1651 0.01-0.39052 0.01-0.127 0-0.25082-0.0191-0.12065-0.019-0.2159-0.0794-0.09525-0.0635-0.1524-0.1778-0.05715-0.11747-0.05715-0.31432v-1.7272q0-0.0254 0.01905-0.0444t0.04445-0.019h0.16192q0.0254 0 0.04445 0.019 0.01905 0.0191 0.01905 0.0444v1.7272q0 0.0889 0.0127 0.1524 0.01588 0.0635 0.05715 0.10477 0.04127 0.0381 0.11748 0.0571 0.0762 0.0159 0.2032 0.0159h0.61278q0.03493 0 0.03493 0.0381v0.14922zm-1.949 0.0127q0 0.0159-0.0095 0.0286-0.0063 0.0127-0.02222 0.0159-0.04445 6e-3 -0.12065 6e-3 -0.0762 3e-3 -0.1651 6e-3 -0.08573 3e-3 -0.17462 3e-3 -0.0889 0-0.15875 0-0.33655 0-0.508-0.13653-0.16828-0.13652-0.16828-0.45402v-1.2224q0-0.3175 0.16828-0.45402 0.17145-0.13653 0.508-0.13653 0.06985 0 0.15558 3e-3 0.0889 0 0.17462 3e-3 0.08572 0 0.16192 3e-3 0.0762 3e-3 0.127 0.01 0.01588 3e-3 0.02222 0.0159 0.0095 0.0127 0.0095 0.0286v0.15875q0 0.0381-0.03492 0.0381h-0.61278q-0.127 0-0.2032 0.019-0.0762 0.0159-0.11748 0.0572-0.04128 0.0381-0.05715 0.1016-0.0127 0.0603-0.0127 0.1524v0.44133h0.97472q0.0254 0 0.04445 0.019t0.01905 0.0444v0.12065q0 0.0254-0.01905 0.0445-0.01905 0.019-0.04445 0.019h-0.97472v0.5334q0 0.0889 0.0127 0.1524 0.01587 0.0635 0.05715 0.10477 0.04127 0.0381 0.11748 0.0571 0.0762 0.0159 0.2032 0.0159h0.61278q0.03492 0 0.03492 0.0381v0.16192zm0.09997 0q0 0.0159-0.0095 0.0286-0.0063 0.0127-0.02222 0.0159-0.04445 6e-3 -0.12065 6e-3 -0.0762 3e-3 -0.1651 6e-3 -0.08573 3e-3 -0.17462 3e-3 -0.0889 0-0.15875 0-0.33655 0-0.508-0.13653-0.16828-0.13652-0.16828-0.45402v-1.2224q0-0.3175 0.16828-0.45402 0.17145-0.13653 0.508-0.13653 0.06985 0 0.15558 3e-3 0.0889 0 0.17462 3e-3 0.08572 0 0.16192 3e-3 0.0762 3e-3 0.127 0.01 0.01588 3e-3 0.02222 0.0159 0.0095 0.0127 0.0095 0.0286v0.15875q0 0.0381-0.03492 0.0381h-0.61278q-0.127 0-0.2032 0.019-0.0762 0.0159-0.11748 0.0572-0.04128 0.0381-0.05715 0.1016-0.0127 0.0603-0.0127 0.1524v0.44133h0.97472q0.0254 0 0.04445 0.019t0.01905 0.0444v0.12065q0 0.0254-0.01905 0.0445-0.01905 0.019-0.04445 0.019h-0.97472v0.5334q0 0.0889 0.0127 0.1524 0.01587 0.0635 0.05715 0.10477 0.04127 0.0381 0.11748 0.0571 0.0762 0.0159 0.2032 0.0159h0.61278q0.03492 0 0.03492 0.0381v0.16192zm0.1 0q0 0.0159-0.0095 0.0286-0.0063 0.0127-0.02222 0.0159-0.04445 6e-3 -0.12065 6e-3 -0.0762 3e-3 -0.1651 6e-3 -0.08573 3e-3 -0.17462 3e-3 -0.0889 0-0.15875 0-0.33655 0-0.508-0.13653-0.16828-0.13652-0.16828-0.45402v-1.2224q0-0.3175 0.16828-0.45402 0.17145-0.13653 0.508-0.13653 0.06985 0 0.15558 3e-3 0.0889 0 0.17462 3e-3 0.08572 0 0.16192 3e-3 0.0762 3e-3 0.127 0.01 0.01588 3e-3 0.02222 0.0159 0.0095 0.0127 0.0095 0.0286v0.15875q0 0.0381-0.03492 0.0381h-0.61278q-0.127 0-0.2032 0.019-0.0762 0.0159-0.11748 0.0572-0.04128 0.0381-0.05715 0.1016-0.0127 0.0603-0.0127 0.1524v0.44133h0.97472q0.0254 0 0.04445 0.019t0.01905 0.0444v0.12065q0 0.0254-0.01905 0.0445-0.01905 0.019-0.04445 0.019h-0.97472v0.5334q0 0.0889 0.0127 0.1524 0.01587 0.0635 0.05715 0.10477 0.04127 0.0381 0.11748 0.0571 0.0762 0.0159 0.2032 0.0159h0.61278q0.03492 0 0.03492 0.0381v0.16192zm-2.0224-0.0254c-0.0053 0.0158-0.0117 0.0307-0.01905 0.0445-0.01382 7e-3 -0.02863 0.0137-0.04445 0.019-0.05297 1e-3 -0.10695 1e-3 -0.16192 0-0.01382-5e-3 -0.02863-0.0117-0.04445-0.019-0.0053-0.0138-0.0117-0.0287-0.01905-0.0445 1e-3 -0.35037 1e-3 -0.70173 0-1.0541-0.36095 1e-3 -0.7229 1e-3 -1.0858 0 1e-3 0.35237 1e-3 0.70373 0 1.0541-0.0053 0.0158-0.0117 0.0307-0.01905 0.0445-0.01382 7e-3 -0.02863 0.0137-0.04445 0.019-0.05297 1e-3 -0.10695 1e-3 -0.16192 0-0.01382-5e-3 -0.02863-0.0117-0.04445-0.019-0.0053-0.0138-0.0117-0.0287-0.01905-0.0445 1e-3 -0.74301 1e-3 -1.487 0-2.232 0.0074-0.0138 0.0137-0.0286 0.01905-0.0444 0.01582-5e-3 0.03063-0.0117 0.04445-0.019 0.05497 1e-3 0.10895 1e-3 0.16192 0 0.01582 7e-3 0.03063 0.0137 0.04445 0.019 0.0074 0.0158 0.0137 0.0306 0.01905 0.0444 1e-3 0.30792 1e-3 0.61483 0 0.92075 0.36295 1e-3 0.7249 1e-3 1.0858 0 1e-3 -0.30592 1e-3 -0.61283 0-0.92075 0.0074-0.0138 0.0137-0.0286 0.01905-0.0444 0.01582-5e-3 0.03063-0.0117 0.04445-0.019 0.05497 1e-3 0.10895 1e-3 0.16192 0 0.01582 7e-3 0.03063 0.0137 0.04445 0.019 0.0073 0.0158 0.0137 0.0306 0.01905 0.0444 1e-3 0.74501 1e-3 1.489 0 2.232zm0.1 0c-0.0053 0.0158-0.0117 0.0307-0.01905 0.0445-0.01382 7e-3 -0.02863 0.0137-0.04445 0.019-0.05297 1e-3 -0.10695 1e-3 -0.16192 0-0.01382-5e-3 -0.02863-0.0117-0.04445-0.019-0.0053-0.0138-0.0117-0.0287-0.01905-0.0445 1e-3 -0.35037 1e-3 -0.70173 0-1.0541-0.36095 1e-3 -0.7229 1e-3 -1.0858 0 1e-3 0.35237 1e-3 0.70373 0 1.0541-0.0053 0.0158-0.0117 0.0307-0.01905 0.0445-0.01382 7e-3 -0.02863 0.0137-0.04445 0.019-0.05297 1e-3 -0.10695 1e-3 -0.16192 0-0.01382-5e-3 -0.02863-0.0117-0.04445-0.019-0.0053-0.0138-0.0117-0.0287-0.01905-0.0445 1e-3 -0.74301 1e-3 -1.487 0-2.232 0.0074-0.0138 0.0137-0.0286 0.01905-0.0444 0.01582-5e-3 0.03063-0.0117 0.04445-0.019 0.05497 1e-3 0.10895 1e-3 0.16192 0 0.01582 7e-3 0.03063 0.0137 0.04445 0.019 0.0074 0.0158 0.0137 0.0306 0.01905 0.0444 1e-3 0.30792 1e-3 0.61483 0 0.92075 0.36295 1e-3 0.7249 1e-3 1.0858 0 1e-3 -0.30592 1e-3 -0.61283 0-0.92075 0.0074-0.0138 0.0137-0.0286 0.01905-0.0444 0.01582-5e-3 0.03063-0.0117 0.04445-0.019 0.05497 1e-3 0.10895 1e-3 0.16192 0 0.01582 7e-3 0.03063 0.0137 0.04445 0.019 0.0073 0.0158 0.0137 0.0306 0.01905 0.0444 1e-3 0.74501 1e-3 1.489 0 2.232zm0.1 0c-0.0053 0.0158-0.0117 0.0307-0.01905 0.0445-0.01382 7e-3 -0.02863 0.0137-0.04445 0.019-0.05297 1e-3 -0.10695 1e-3 -0.16192 0-0.01382-5e-3 -0.02863-0.0117-0.04445-0.019-0.0053-0.0138-0.0117-0.0287-0.01905-0.0445 1e-3 -0.35037 1e-3 -0.70173 0-1.0541-0.36095 1e-3 -0.7229 1e-3 -1.0858 0 1e-3 0.35237 1e-3 0.70373 0 1.0541-0.0053 0.0158-0.0117 0.0307-0.01905 0.0445-0.01382 7e-3 -0.02863 0.0137-0.04445 0.019-0.05297 1e-3 -0.10695 1e-3 -0.16192 0-0.01382-5e-3 -0.02863-0.0117-0.04445-0.019-0.0053-0.0138-0.0117-0.0287-0.01905-0.0445 1e-3 -0.74301 1e-3 -1.487 0-2.232 0.0074-0.0138 0.0137-0.0286 0.01905-0.0444 0.01582-5e-3 0.03063-0.0117 0.04445-0.019 0.05497 1e-3 0.10895 1e-3 0.16192 0 0.01582 7e-3 0.03063 0.0137 0.04445 0.019 0.0074 0.0158 0.0137 0.0306 0.01905 0.0444 1e-3 0.30792 1e-3 0.61483 0 0.92075 0.36295 1e-3 0.7249 1e-3 1.0858 0 1e-3 -0.30592 1e-3 -0.61283 0-0.92075 0.0074-0.0138 0.0137-0.0286 0.01905-0.0444 0.01582-5e-3 0.03063-0.0117 0.04445-0.019 0.05497 1e-3 0.10895 1e-3 0.16192 0 0.01582 7e-3 0.03063 0.0137 0.04445 0.019 0.0073 0.0158 0.0137 0.0306 0.01905 0.0444 1e-3 0.74501 1e-3 1.489 0 2.232z" fill="url(#b)"/>
<path d="m33.572 131.35v2e-3h-0.34961v3.5664h0.20703v2e-3h0.25v2e-3h22.287v-2e-3h0.25195v-2e-3h0.20703v-3.5664h-0.34961v-2e-3h-22.396zm0.41406 0.3086h21.676v2.9531h-21.676z" color="#000000" fill="url(#a)" style="-inkscape-stroke:none;paint-order:stroke fill markers"/>
</g>
</svg>
