<svg width="20.233mm" height="2.1813mm" version="1.1" viewBox="0 0 20.233 2.1813" xmlns="http://www.w3.org/2000/svg">
<g stroke-width=".136">

<style>
@keyframes animate {
0% {
filter: invert(0%);}
100% {
filter: invert(100%);}
}
path {
animation: animate linear 1s infinite alternate ;
}
</style>

<g fill="#333" style="paint-order:stroke fill markers" aria-label="HELLO WORLD">
<path d="m1.5704 2.1487h-0.38137v-0.91932h-0.8077v0.91932h-0.38137v-2.1161h0.38137v0.86971h0.8077v-0.86971h0.38137z"/>
<path d="m3.4106 2.1487h-1.3751v-2.1161h1.3612v0.31471h-0.97979v0.57361h0.78755v0.30696h-0.78755v0.59221h0.99374z"/>
<path d="m5.0416 2.1487h-1.3022v-2.1161h0.40153v1.7704h0.90072z"/>
<path d="m6.6244 2.1487h-1.3022v-2.1161h0.40153v1.7704h0.90072z"/>
<path d="m7.6274 2.1813q-0.42168 0-0.65732-0.31626-0.23409-0.31626-0.23409-0.78135 0-0.46199 0.2496-0.77205 0.2496-0.31161 0.65887-0.31161 0.41238 0 0.65112 0.31161 0.2403 0.31006 0.2403 0.7767 0 0.48989-0.2496 0.7922-0.24805 0.30076-0.65887 0.30076zm0.0031-0.30696q0.20619 0 0.34882-0.17053 0.14263-0.17053 0.14263-0.61857 0-0.36432-0.11782-0.57051-0.11782-0.20774-0.36587-0.20774-0.48989 0-0.48989 0.7891 0 0.38292 0.12402 0.58136 0.12557 0.19689 0.35812 0.19689z"/>
<path d="m12.226 0.032556-0.56586 2.1161h-0.39998l-0.42168-1.5565-0.38292 1.5565h-0.39222l-0.57826-2.1161h0.40463l0.40928 1.5425 0.38137-1.5425h0.38602l0.42168 1.5425 0.40153-1.5425z"/>
<path d="m13.221 2.1813q-0.42168 0-0.65732-0.31626-0.23409-0.31626-0.23409-0.78135 0-0.46199 0.2496-0.77205 0.2496-0.31161 0.65888-0.31161 0.41238 0 0.65112 0.31161 0.2403 0.31006 0.2403 0.7767 0 0.48989-0.2496 0.7922-0.24805 0.30076-0.65888 0.30076zm0.0031-0.30696q0.20619 0 0.34882-0.17053t0.14263-0.61857q0-0.36432-0.11782-0.57051-0.11782-0.20774-0.36587-0.20774-0.48989 0-0.48989 0.7891 0 0.38292 0.12402 0.58136 0.12557 0.19689 0.35812 0.19689z"/>
<path d="m16.134 2.1487h-0.40308l-0.32866-0.86971h-0.5364v0.86971h-0.38137v-2.1161h0.91777q0.38292 0 0.56276 0.17363 0.17983 0.17208 0.17983 0.44648 0 0.40773-0.38137 0.56121zm-1.2681-1.1751h0.47439q0.20619 0 0.30696-0.086816t0.10077-0.23875q0-0.13953-0.09922-0.22479-0.09922-0.086816-0.2775-0.086816h-0.5054z"/>
<path d="m17.827 2.1487h-1.3022v-2.1161h0.40153v1.7704h0.90072z"/>
<path d="m18.097 2.1487v-2.1161h0.7798q0.43253 0 0.69453 0.30696 0.262 0.30541 0.262 0.75499 0 0.44958-0.26975 0.75189-0.26975 0.30231-0.77205 0.30231zm0.39222-0.31161h0.31781q0.2558 0 0.43408-0.19224 0.17828-0.19224 0.17828-0.57206 0-0.31006-0.15658-0.524-0.15503-0.21549-0.41083-0.21549h-0.36277z"/>
</g>
<g fill="#666" style="paint-order:stroke fill markers" aria-label="HELLO WORLD">
<path d="m1.6704 2.1487h-0.38137v-0.91932h-0.8077v0.91932h-0.38137v-2.1161h0.38137v0.86971h0.8077v-0.86971h0.38137z"/>
<path d="m3.5106 2.1487h-1.3751v-2.1161h1.3612v0.31471h-0.97979v0.57361h0.78755v0.30696h-0.78755v0.59221h0.99374z"/>
<path d="m5.1416 2.1487h-1.3022v-2.1161h0.40153v1.7704h0.90072z"/>
<path d="m6.7244 2.1487h-1.3022v-2.1161h0.40153v1.7704h0.90072z"/>
<path d="m7.7274 2.1813q-0.42168 0-0.65732-0.31626-0.23409-0.31626-0.23409-0.78135 0-0.46199 0.2496-0.77205 0.2496-0.31161 0.65887-0.31161 0.41238 0 0.65112 0.31161 0.2403 0.31006 0.2403 0.7767 0 0.48989-0.2496 0.7922-0.24805 0.30076-0.65887 0.30076zm0.0031-0.30696q0.20619 0 0.34882-0.17053 0.14263-0.17053 0.14263-0.61857 0-0.36432-0.11782-0.57051-0.11782-0.20774-0.36587-0.20774-0.48989 0-0.48989 0.7891 0 0.38292 0.12402 0.58136 0.12557 0.19689 0.35812 0.19689z"/>
<path d="m12.326 0.032556-0.56586 2.1161h-0.39998l-0.42168-1.5565-0.38292 1.5565h-0.39222l-0.57826-2.1161h0.40463l0.40928 1.5425 0.38137-1.5425h0.38602l0.42168 1.5425 0.40153-1.5425z"/>
<path d="m13.321 2.1813q-0.42168 0-0.65732-0.31626-0.23409-0.31626-0.23409-0.78135 0-0.46199 0.2496-0.77205 0.2496-0.31161 0.65888-0.31161 0.41238 0 0.65112 0.31161 0.2403 0.31006 0.2403 0.7767 0 0.48989-0.2496 0.7922-0.24805 0.30076-0.65888 0.30076zm0.0031-0.30696q0.20619 0 0.34882-0.17053t0.14263-0.61857q0-0.36432-0.11782-0.57051-0.11782-0.20774-0.36587-0.20774-0.48989 0-0.48989 0.7891 0 0.38292 0.12402 0.58136 0.12557 0.19689 0.35812 0.19689z"/>
<path d="m16.234 2.1487h-0.40308l-0.32866-0.86971h-0.5364v0.86971h-0.38137v-2.1161h0.91777q0.38292 0 0.56276 0.17363 0.17983 0.17208 0.17983 0.44648 0 0.40773-0.38137 0.56121zm-1.2681-1.1751h0.47439q0.20619 0 0.30696-0.086816t0.10077-0.23875q0-0.13953-0.09922-0.22479-0.09922-0.086816-0.2775-0.086816h-0.5054z"/>
<path d="m17.927 2.1487h-1.3022v-2.1161h0.40153v1.7704h0.90072z"/>
<path d="m18.197 2.1487v-2.1161h0.7798q0.43253 0 0.69453 0.30696 0.262 0.30541 0.262 0.75499 0 0.44958-0.26975 0.75189-0.26975 0.30231-0.77205 0.30231zm0.39222-0.31161h0.31781q0.2558 0 0.43408-0.19224 0.17828-0.19224 0.17828-0.57206 0-0.31006-0.15658-0.524-0.15503-0.21549-0.41083-0.21549h-0.36277z"/>
</g>
<g fill="#999" style="paint-order:stroke fill markers" aria-label="HELLO WORLD">
<path d="m1.7704 2.1487h-0.38137v-0.91932h-0.8077v0.91932h-0.38137v-2.1161h0.38137v0.86971h0.8077v-0.86971h0.38137z"/>
<path d="m3.6106 2.1487h-1.3751v-2.1161h1.3612v0.31471h-0.97979v0.57361h0.78755v0.30696h-0.78755v0.59221h0.99374z"/>
<path d="m5.2416 2.1487h-1.3022v-2.1161h0.40153v1.7704h0.90072z"/>
<path d="m6.8244 2.1487h-1.3022v-2.1161h0.40153v1.7704h0.90072z"/>
<path d="m7.8274 2.1813q-0.42168 0-0.65732-0.31626-0.23409-0.31626-0.23409-0.78135 0-0.46199 0.2496-0.77205 0.2496-0.31161 0.65887-0.31161 0.41238 0 0.65112 0.31161 0.2403 0.31006 0.2403 0.7767 0 0.48989-0.2496 0.7922-0.24805 0.30076-0.65887 0.30076zm0.0031-0.30696q0.20619 0 0.34882-0.17053 0.14263-0.17053 0.14263-0.61857 0-0.36432-0.11782-0.57051-0.11782-0.20774-0.36587-0.20774-0.48989 0-0.48989 0.7891 0 0.38292 0.12402 0.58136 0.12557 0.19689 0.35812 0.19689z"/>
<path d="m12.426 0.032556-0.56586 2.1161h-0.39998l-0.42168-1.5565-0.38292 1.5565h-0.39222l-0.57826-2.1161h0.40463l0.40928 1.5425 0.38137-1.5425h0.38602l0.42168 1.5425 0.40153-1.5425z"/>
<path d="m13.421 2.1813q-0.42168 0-0.65732-0.31626-0.23409-0.31626-0.23409-0.78135 0-0.46199 0.2496-0.77205 0.2496-0.31161 0.65888-0.31161 0.41238 0 0.65112 0.31161 0.2403 0.31006 0.2403 0.7767 0 0.48989-0.2496 0.7922-0.24805 0.30076-0.65888 0.30076zm0.0031-0.30696q0.20619 0 0.34882-0.17053t0.14263-0.61857q0-0.36432-0.11782-0.57051-0.11782-0.20774-0.36587-0.20774-0.48989 0-0.48989 0.7891 0 0.38292 0.12402 0.58136 0.12557 0.19689 0.35812 0.19689z"/>
<path d="m16.334 2.1487h-0.40308l-0.32866-0.86971h-0.5364v0.86971h-0.38137v-2.1161h0.91777q0.38292 0 0.56276 0.17363 0.17983 0.17208 0.17983 0.44648 0 0.40773-0.38137 0.56121zm-1.2681-1.1751h0.47439q0.20619 0 0.30696-0.086816t0.10077-0.23875q0-0.13953-0.09922-0.22479-0.09922-0.086816-0.2775-0.086816h-0.5054z"/>
<path d="m18.027 2.1487h-1.3022v-2.1161h0.40153v1.7704h0.90072z"/>
<path d="m18.297 2.1487v-2.1161h0.7798q0.43253 0 0.69453 0.30696 0.262 0.30541 0.262 0.75499 0 0.44958-0.26975 0.75189-0.26975 0.30231-0.77205 0.30231zm0.39222-0.31161h0.31781q0.2558 0 0.43408-0.19224 0.17828-0.19224 0.17828-0.57206 0-0.31006-0.15658-0.524-0.15503-0.21549-0.41083-0.21549h-0.36277z"/>
</g>
<g fill="#ccc" style="paint-order:stroke fill markers" aria-label="HELLO WORLD">
<path d="m1.8704 2.1487h-0.38137v-0.91932h-0.8077v0.91932h-0.38137v-2.1161h0.38137v0.86971h0.8077v-0.86971h0.38137z"/>
<path d="m3.7106 2.1487h-1.3751v-2.1161h1.3612v0.31471h-0.97979v0.57361h0.78755v0.30696h-0.78755v0.59221h0.99374z"/>
<path d="m5.3416 2.1487h-1.3022v-2.1161h0.40153v1.7704h0.90072z"/>
<path d="m6.9244 2.1487h-1.3022v-2.1161h0.40153v1.7704h0.90072z"/>
<path d="m7.9274 2.1813q-0.42168 0-0.65732-0.31626-0.23409-0.31626-0.23409-0.78135 0-0.46199 0.2496-0.77205 0.2496-0.31161 0.65887-0.31161 0.41238 0 0.65112 0.31161 0.2403 0.31006 0.2403 0.7767 0 0.48989-0.2496 0.7922-0.24805 0.30076-0.65887 0.30076zm0.0031-0.30696q0.20619 0 0.34882-0.17053 0.14263-0.17053 0.14263-0.61857 0-0.36432-0.11782-0.57051-0.11782-0.20774-0.36587-0.20774-0.48989 0-0.48989 0.7891 0 0.38292 0.12402 0.58136 0.12557 0.19689 0.35812 0.19689z"/>
<path d="m12.526 0.032556-0.56586 2.1161h-0.39998l-0.42168-1.5565-0.38292 1.5565h-0.39222l-0.57826-2.1161h0.40463l0.40928 1.5425 0.38137-1.5425h0.38602l0.42168 1.5425 0.40153-1.5425z"/>
<path d="m13.521 2.1813q-0.42168 0-0.65732-0.31626-0.23409-0.31626-0.23409-0.78135 0-0.46199 0.2496-0.77205 0.2496-0.31161 0.65888-0.31161 0.41238 0 0.65112 0.31161 0.2403 0.31006 0.2403 0.7767 0 0.48989-0.2496 0.7922-0.24805 0.30076-0.65888 0.30076zm0.0031-0.30696q0.20619 0 0.34882-0.17053t0.14263-0.61857q0-0.36432-0.11782-0.57051-0.11782-0.20774-0.36587-0.20774-0.48989 0-0.48989 0.7891 0 0.38292 0.12402 0.58136 0.12557 0.19689 0.35812 0.19689z"/>
<path d="m16.434 2.1487h-0.40308l-0.32866-0.86971h-0.5364v0.86971h-0.38137v-2.1161h0.91777q0.38292 0 0.56276 0.17363 0.17983 0.17208 0.17983 0.44648 0 0.40773-0.38137 0.56121zm-1.2681-1.1751h0.47439q0.20619 0 0.30696-0.086816t0.10077-0.23875q0-0.13953-0.09922-0.22479-0.09922-0.086816-0.2775-0.086816h-0.5054z"/>
<path d="m18.127 2.1487h-1.3022v-2.1161h0.40153v1.7704h0.90072z"/>
<path d="m18.397 2.1487v-2.1161h0.7798q0.43253 0 0.69453 0.30696 0.262 0.30541 0.262 0.75499 0 0.44958-0.26975 0.75189-0.26975 0.30231-0.77205 0.30231zm0.39222-0.31161h0.31781q0.2558 0 0.43408-0.19224 0.17828-0.19224 0.17828-0.57206 0-0.31006-0.15658-0.524-0.15503-0.21549-0.41083-0.21549h-0.36277z"/>
</g>
<g fill="#fff" style="paint-order:stroke fill markers" aria-label="HELLO WORLD">
<path d="m1.9704 2.1487h-0.38137v-0.91932h-0.8077v0.91932h-0.38137v-2.1161h0.38137v0.86971h0.8077v-0.86971h0.38137z"/>
<path d="m3.8106 2.1487h-1.3751v-2.1161h1.3612v0.31471h-0.97979v0.57361h0.78755v0.30696h-0.78755v0.59221h0.99374z"/>
<path d="m5.4416 2.1487h-1.3022v-2.1161h0.40153v1.7704h0.90072z"/>
<path d="m7.0244 2.1487h-1.3022v-2.1161h0.40153v1.7704h0.90072z"/>
<path d="m8.0274 2.1813q-0.42168 0-0.65732-0.31626-0.23409-0.31626-0.23409-0.78135 0-0.46199 0.2496-0.77205 0.2496-0.31161 0.65887-0.31161 0.41238 0 0.65112 0.31161 0.2403 0.31006 0.2403 0.7767 0 0.48989-0.2496 0.7922-0.24805 0.30076-0.65887 0.30076zm0.0031-0.30696q0.20619 0 0.34882-0.17053 0.14263-0.17053 0.14263-0.61857 0-0.36432-0.11782-0.57051-0.11782-0.20774-0.36587-0.20774-0.48989 0-0.48989 0.7891 0 0.38292 0.12402 0.58136 0.12557 0.19689 0.35812 0.19689z"/>
<path d="m12.626 0.032556-0.56586 2.1161h-0.39998l-0.42168-1.5565-0.38292 1.5565h-0.39222l-0.57826-2.1161h0.40463l0.40928 1.5425 0.38137-1.5425h0.38602l0.42168 1.5425 0.40153-1.5425z"/>
<path d="m13.621 2.1813q-0.42168 0-0.65732-0.31626-0.23409-0.31626-0.23409-0.78135 0-0.46199 0.2496-0.77205 0.2496-0.31161 0.65888-0.31161 0.41238 0 0.65112 0.31161 0.2403 0.31006 0.2403 0.7767 0 0.48989-0.2496 0.7922-0.24805 0.30076-0.65888 0.30076zm0.0031-0.30696q0.20619 0 0.34882-0.17053t0.14263-0.61857q0-0.36432-0.11782-0.57051-0.11782-0.20774-0.36587-0.20774-0.48989 0-0.48989 0.7891 0 0.38292 0.12402 0.58136 0.12557 0.19689 0.35812 0.19689z"/>
<path d="m16.534 2.1487h-0.40308l-0.32866-0.86971h-0.5364v0.86971h-0.38137v-2.1161h0.91777q0.38292 0 0.56276 0.17363 0.17983 0.17208 0.17983 0.44648 0 0.40773-0.38137 0.56121zm-1.2681-1.1751h0.47439q0.20619 0 0.30696-0.086816t0.10077-0.23875q0-0.13953-0.09922-0.22479-0.09922-0.086816-0.2775-0.086816h-0.5054z"/>
<path d="m18.227 2.1487h-1.3022v-2.1161h0.40153v1.7704h0.90072z"/>
<path d="m18.497 2.1487v-2.1161h0.7798q0.43253 0 0.69453 0.30696 0.262 0.30541 0.262 0.75499 0 0.44958-0.26975 0.75189-0.26975 0.30231-0.77205 0.30231zm0.39222-0.31161h0.31781q0.2558 0 0.43408-0.19224 0.17828-0.19224 0.17828-0.57206 0-0.31006-0.15658-0.524-0.15503-0.21549-0.41083-0.21549h-0.36277z"/>
</g>
</g>
</svg>
