<?xml version="1.0" encoding="UTF-8"?>
<!-- Created with Inkscape (http://www.inkscape.org/) -->
<svg width="9.6066mm" height="4.3974mm" version="1.1" viewBox="0 0 9.6066 4.3974" xmlns="http://www.w3.org/2000/svg" xmlns:xlink="http://www.w3.org/1999/xlink">
 <defs>
  <linearGradient id="linearGradient3944" x1="76.113" x2="85.72" y1="128.94" y2="128.94" gradientUnits="userSpaceOnUse">
   <stop stop-color="#ff0" offset="0"/>
   <stop stop-color="#0ff" offset="1"/>
  </linearGradient>
  <linearGradient id="linearGradient6130" x1="76.113" x2="85.72" y1="131.14" y2="131.14" gradientUnits="userSpaceOnUse">
   <stop stop-color="#0ff" offset="0"/>
   <stop stop-color="#ff0" offset="1"/>
  </linearGradient>
 </defs>
 <style>@keyframes animate {
0% {
filter: hue-rotate(360deg);}
100% {
filter: hue-rotate(0deg);}
}
path {
animation: animate linear 10s infinite ;
}</style>
 <path transform="translate(-76.113 -127.84)" d="m84.619 130.04q-1.1005 0-1.1005-1.0854 0-1.1156 1.1005-1.1156t1.1005 1.1156q0 1.0854-1.1005 1.0854zm0-0.27738q0.65946 0 0.65946-0.80804 0-0.83819-0.65946-0.83819-0.65946 0-0.65946 0.83819 0 0.80804 0.65946 0.80804zm-0.75086-0.0168v0.29455h-2.201v-2.2014h0.4683v1.9069zm-1.8514 0v0.29455h-2.201v-2.2014h0.4683v1.9069zm-3.5841-1.6123v0.65733h1.3112v0.29455h-1.3112v0.66043h1.7327v0.29455h-2.201v-2.2014h2.201v0.29455zm-0.11883-0.29455v2.201h-0.47952v-0.9486h-1.242v0.9486h-0.47952v-2.201h0.47952v0.9579h1.242v-0.9579z" fill="url(#linearGradient3944)" stroke-width="0"/>
 <path transform="translate(-76.113 -127.84)" d="m84.28 130.04q0.72186 0 1.0806 0.2899 0.35872 0.28991 0.35872 0.87282 0 0.5209-0.35872 0.77979-0.35871 0.2589-1.0806 0.2589h-0.76171v-2.2014zm0 1.9069q0.48493 0 0.7285-0.19379 0.24578-0.19379 0.24578-0.58136 0-0.83716-0.97429-0.83716h-0.31886v1.6123zm-0.41207-3.6e-4v0.2945h-2.201v-2.201h0.4683v1.9065zm-2.3819 0.29491-0.5634-0.83715h-0.66863v0.83715h-0.43845v-2.2014h1.0742q0.32006 0 0.54806 0.0791 0.22799 0.0775 0.34637 0.2279 0.11839 0.14882 0.11839 0.35966 0 0.23565-0.13593 0.39843t-0.39241 0.23874l0.64233 0.89762zm-1.232-1.1317h0.63575q0.26087 0 0.40556-0.0977 0.14688-0.0977 0.14688-0.2744 0-0.19224-0.14468-0.29766t-0.40776-0.10542h-0.63575zm-1.1893 1.1313q-1.1005 0-1.1005-1.0854 0-1.1156 1.1005-1.1156t1.1005 1.1156q0 1.0854-1.1005 1.0854zm0-0.27738q0.65946 0 0.65946-0.80804 0-0.83819-0.65946-0.83819-0.65946 0-0.65946 0.83819 0 0.80804 0.65946 0.80804zm-1.1115-1.9236h0.36051l-0.26564 2.201h-0.61476l-0.20872-1.2564h-0.02277l-0.20872 1.2564h-0.61476l-0.26564-2.201h0.36051l0.22769 1.9564h0.03796l0.27702-1.3145h0.39846l0.27323 1.3145h0.03796z" fill="url(#linearGradient6130)" stroke-width="0"/>
</svg>
