<?xml version="1.0" encoding="UTF-8"?>
<!-- Created with Inkscape (http://www.inkscape.org/) -->
<svg width="19.359mm" height="2.1069mm" version="1.1" viewBox="0 0 19.359 2.1069" xmlns="http://www.w3.org/2000/svg" xmlns:xlink="http://www.w3.org/1999/xlink">
 <defs>
  <linearGradient id="linearGradient2474" x1="12.786" x2="22.321" y1="2.5589" y2="2.5589" gradientTransform="translate(-2.9613 -1.5055)" gradientUnits="userSpaceOnUse">
   <stop stop-color="#ff0" offset="0"/>
   <stop stop-color="#0ff" offset="1"/>
  </linearGradient>
  <linearGradient id="linearGradient2490" x1="1.4629" x2="10.867" y1="2.5589" y2="2.5589" gradientTransform="translate(-1.4629 -1.5055)" gradientUnits="userSpaceOnUse">
   <stop stop-color="#0ff" offset="0"/>
   <stop stop-color="#ff0" offset="1"/>
  </linearGradient>
 </defs>
 
<style>
@keyframes animate {
0% {
filter: hue-rotate(0deg);
fill: #000}
100% {
filter: hue-rotate(360deg);
fill: #fff}
}
path {
animation: animate linear 2.5s infinite alternate ;
}
</style>
 
 <path d="m17.931 1.8255v-1.5534h-0.11007q-0.04651 0-0.06666-0.017053-0.02015-0.018603-0.02015-0.048059t0.02015-0.046509q0.02015-0.018604 0.06666-0.018604h0.70073q0.16433 0 0.29921 0.068213 0.13642 0.068213 0.20774 0.15503 0.12247 0.14728 0.18604 0.31161 0.04496 0.11937 0.04496 0.28215v0.17983q0 0.19999-0.08837 0.38757-0.08837 0.18759-0.29456 0.32711-0.15348 0.10232-0.35502 0.10232h-0.70073q-0.04651 0-0.06666-0.018604-0.02015-0.018603-0.02015-0.046509 0-0.029456 0.02015-0.046509 0.02015-0.018604 0.06666-0.018604zm0.13022 0h0.47284q0.16433 0 0.30696-0.10697 0.14418-0.10697 0.21549-0.2558 0.07286-0.15038 0.07286-0.29611v-0.23564q0-0.12092-0.03876-0.21549-0.05581-0.13798-0.15813-0.262-0.05581-0.068213-0.16433-0.12402-0.10852-0.057361-0.2341-0.057361h-0.47284zm-1.7503-1.5534v1.5534h0.86506v-0.5178q0-0.046509 0.0186-0.066663t0.04806-0.020154q0.02791 0 0.04651 0.020154 0.0186 0.018604 0.0186 0.066663v0.64802h-1.4387q-0.04651 0-0.06666-0.018604-0.02015-0.018603-0.02015-0.046509 0-0.029456 0.02015-0.046509 0.02015-0.018604 0.06666-0.018604h0.31006v-1.5534h-0.31006q-0.04651 0-0.06666-0.017053-0.02015-0.018603-0.02015-0.048059t0.02015-0.046509q0.02015-0.018604 0.06666-0.018604h0.75189q0.04651 0 0.06666 0.018604 0.02015 0.017053 0.02015 0.046509 0 0.029455-0.02015 0.048059-0.02015 0.017053-0.06666 0.017053zm-2.1037 0.87437v0.67903h0.2403q0.04806 0 0.06821 0.018604 0.02015 0.017053 0.02015 0.046509 0 0.027905-0.02015 0.046509t-0.06821 0.018604h-0.5457q-0.04651 0-0.06666-0.018604-0.02015-0.018603-0.02015-0.046509 0-0.029456 0.02015-0.046509 0.02015-0.018604 0.06666-0.018604h0.17518v-1.5534h-0.17518q-0.04651 0-0.06666-0.017053-0.02015-0.018603-0.02015-0.048059t0.02015-0.046509q0.02015-0.018604 0.06666-0.018604h0.78755q0.2434 0 0.40928 0.15503 0.16743 0.15348 0.16743 0.34727 0 0.13953-0.10387 0.26355-0.10232 0.12247-0.34416 0.20464 0.13953 0.096118 0.23874 0.21704 0.09922 0.12092 0.31781 0.49609h0.09922q0.04651 0 0.06666 0.018604 0.02015 0.017053 0.02015 0.046509 0 0.027905-0.02015 0.046509t-0.06666 0.018604h-0.17363q-0.24185-0.43253-0.37517-0.57981-0.13178-0.14728-0.30386-0.22944zm0-0.13022h0.35502q0.17053 0 0.30851-0.062012 0.13953-0.062012 0.20154-0.14573 0.06356-0.083716 0.06356-0.17053 0-0.13022-0.13178-0.24805-0.13022-0.11782-0.31781-0.11782h-0.47904zm-0.68523 0.037207q0 0.26045-0.10542 0.48369-0.10542 0.22169-0.29146 0.34572-0.18448 0.12402-0.39688 0.12402-0.31471 0-0.555-0.26665-0.23875-0.2682-0.23875-0.68678 0-0.42013 0.23875-0.68678 0.2403-0.26665 0.555-0.26665 0.21239 0 0.39688 0.12402 0.18448 0.12402 0.2899 0.34572 0.10697 0.22169 0.10697 0.48369zm-0.13177 0q0-0.31781-0.18448-0.57051-0.18448-0.2527-0.47749-0.2527-0.2744 0-0.46974 0.24185-0.19379 0.2403-0.19379 0.58136 0 0.36277 0.20309 0.59376 0.20464 0.22944 0.46044 0.22944 0.29301 0 0.47749-0.25115 0.18448-0.2527 0.18448-0.57206zm-1.9983 0.90227h-0.20464l-0.36897-1.2883-0.36122 1.2883h-0.20464l-0.19224-1.6836h-0.04806q-0.04651 0-0.06666-0.017053-0.02015-0.018603-0.02015-0.048059t0.02015-0.046509q0.02015-0.018604 0.06666-0.018604h0.48369q0.04806 0 0.06821 0.018604 0.02015 0.017053 0.02015 0.046509 0 0.029455-0.02015 0.048059-0.02015 0.017053-0.06821 0.017053h-0.30386l0.17208 1.5348 0.35192-1.2635h0.19999l0.36122 1.2635 0.16898-1.5348h-0.30541q-0.04651 0-0.06666-0.017053-0.02015-0.018603-0.02015-0.048059t0.02015-0.046509q0.02015-0.018604 0.06666-0.018604h0.48059q0.04806 0 0.06821 0.018604 0.02015 0.017053 0.02015 0.046509 0 0.029455-0.02015 0.048059-0.02015 0.017053-0.06821 0.017053h-0.04806z" stroke="url(#linearGradient2474)" stroke-width=".2" style="paint-order:stroke fill markers"/>
 <path d="m9.3041 1.0534q0 0.26045-0.10542 0.48369-0.10542 0.22169-0.29146 0.34572-0.18448 0.12402-0.39688 0.12402-0.31471 0-0.555-0.26665-0.23874-0.2682-0.23874-0.68678 0-0.42013 0.23874-0.68678 0.2403-0.26665 0.555-0.26665 0.21239 0 0.39688 0.12402 0.18448 0.12402 0.2899 0.34572 0.10697 0.22169 0.10697 0.48369zm-0.13178 0q0-0.31781-0.18448-0.57051-0.18448-0.2527-0.47749-0.2527-0.2744 0-0.46974 0.24185-0.19379 0.2403-0.19379 0.58136 0 0.36277 0.20309 0.59376 0.20464 0.22944 0.46044 0.22944 0.29301 0 0.47749-0.25115 0.18448-0.2527 0.18448-0.57206zm-2.7952-0.78135v1.5534h0.86506v-0.5178q0-0.046509 0.0186-0.066663t0.04806-0.020154q0.02791 0 0.04651 0.020154 0.0186 0.018604 0.0186 0.066663v0.64802h-1.4387q-0.04651 0-0.06666-0.018604-0.02015-0.018603-0.02015-0.046509 0-0.029456 0.02015-0.046509 0.02015-0.018604 0.06666-0.018604h0.31006v-1.5534h-0.31006q-0.04651 0-0.06666-0.017053-0.02015-0.018603-0.02015-0.048059t0.02015-0.046509q0.02015-0.018604 0.06666-0.018604h0.75189q0.04651 0 0.06666 0.018604 0.02015 0.017053 0.02015 0.046509 0 0.029455-0.02015 0.048059-0.02015 0.017053-0.06666 0.017053zm-1.9053 0v1.5534h0.86506v-0.5178q0-0.046509 0.0186-0.066663t0.04806-0.020154q0.02791 0 0.04651 0.020154 0.0186 0.018604 0.0186 0.066663v0.64802h-1.4387q-0.046509 0-0.066663-0.018604-0.020154-0.018603-0.020154-0.046509 0-0.029456 0.020154-0.046509 0.020154-0.018604 0.066663-0.018604h0.31006v-1.5534h-0.31006q-0.046509 0-0.066663-0.017053-0.020154-0.018603-0.020154-0.048059t0.020154-0.046509q0.020154-0.018604 0.066663-0.018604h0.75189q0.04651 0 0.06666 0.018604 0.02015 0.017053 0.02015 0.046509 0 0.029455-0.02015 0.048059-0.02015 0.017053-0.06666 0.017053zm-2.1037 0.8077v0.74569h1.0015v-0.38447q0-0.046509 0.017053-0.066663 0.018604-0.020154 0.048059-0.020154 0.029456 0 0.046509 0.020154 0.018604 0.020154 0.018604 0.066663v0.5147h-1.4371q-0.046509 0-0.066663-0.018604-0.020154-0.018603-0.020154-0.046509 0-0.029456 0.020154-0.046509 0.020154-0.018604 0.066663-0.018604h0.17518v-1.5534h-0.17518q-0.046509 0-0.066663-0.017053-0.020154-0.018603-0.020154-0.048059t0.020154-0.046509q0.020154-0.018604 0.066663-0.018604h1.3689v0.44803q0 0.046509-0.018603 0.066663-0.017053 0.020154-0.046509 0.020154t-0.048059-0.020154q-0.017053-0.020154-0.017053-0.066663v-0.31781h-0.93328v0.67748h0.46664v-0.14728q0-0.046509 0.018603-0.066663 0.018604-0.020154 0.048059-0.020154 0.027905 0 0.046509 0.020154t0.018604 0.066663v0.42478q0 0.046509-0.018604 0.066663t-0.046509 0.020154q-0.029456 0-0.048059-0.020154t-0.018603-0.066663v-0.14728zm-1.0402-0.00155h-0.86351v0.74724h0.17518q0.046509 0 0.066663 0.018604 0.020154 0.017053 0.020154 0.046509 0 0.027905-0.020154 0.046509t-0.066663 0.018604h-0.45269q-0.046509 0-0.066663-0.018604-0.020154-0.018603-0.020154-0.046509 0-0.029456 0.020154-0.046509 0.020154-0.018604 0.066663-0.018604h0.14728v-1.5534h-0.080615q-0.048059 0-0.068213-0.017053-0.020154-0.018603-0.020154-0.048059t0.020154-0.046509q0.020154-0.018604 0.068213-0.018604h0.38602q0.046509 0 0.066663 0.018604 0.020154 0.017053 0.020154 0.046509 0 0.029455-0.020154 0.048059-0.020154 0.017053-0.066663 0.017053h-0.17518v0.67593h0.86351v-0.67593h-0.17363q-0.046509 0-0.066663-0.017053-0.020154-0.018603-0.020154-0.048059t0.018603-0.046509q0.020154-0.018604 0.068213-0.018604h0.38602q0.048059 0 0.068213 0.018604 0.020154 0.017053 0.020154 0.046509 0 0.029455-0.020154 0.048059-0.020154 0.017053-0.068213 0.017053h-0.080615v1.5534h0.14728q0.046509 0 0.066663 0.018604 0.020154 0.017053 0.020154 0.046509 0 0.027905-0.020154 0.046509t-0.066663 0.018604h-0.45268q-0.046509 0-0.066663-0.018604-0.020154-0.018603-0.020154-0.046509 0-0.029456 0.018603-0.046509 0.020154-0.018604 0.068213-0.018604h0.17363z" stroke="url(#linearGradient2490)" stroke-width=".2" style="paint-order:stroke fill markers"/>
</svg>
