<?xml version="1.0" encoding="UTF-8"?>
<!-- Created with Inkscape (http://www.inkscape.org/) -->
<svg width="18.8mm" height="2.066mm" version="1.1" viewBox="0 0 18.8 2.066" xmlns="http://www.w3.org/2000/svg" xmlns:xlink="http://www.w3.org/1999/xlink">
 <defs>
  <linearGradient id="linearGradient6993">
   <stop stop-color="#ff0" offset="0"/>
   <stop stop-color="#0ff" offset="1"/>
  </linearGradient>
  <linearGradient id="linearGradient6261">
   <stop stop-color="#0ff" offset="0"/>
   <stop stop-color="#ff0" offset="1"/>
  </linearGradient>
  <linearGradient id="linearGradient2509" x1="-.08885" x2="1.93" y1="1.079" y2="1.079" gradientUnits="userSpaceOnUse" xlink:href="#linearGradient6261"/>
  <linearGradient id="linearGradient3259" x1="2.032" x2="3.495" y1="1.082" y2="1.082" gradientUnits="userSpaceOnUse" xlink:href="#linearGradient6993"/>
  <linearGradient id="linearGradient3269" x1="3.598" x2="5.05" y1="1.083" y2="1.083" gradientUnits="userSpaceOnUse" xlink:href="#linearGradient6261"/>
  <linearGradient id="linearGradient3333" x1="5.152" x2="6.604" y1="1.083" y2="1.083" gradientUnits="userSpaceOnUse" xlink:href="#linearGradient6993"/>
  <linearGradient id="linearGradient3335" x1="6.707" x2="8.389" y1="1.065" y2="1.065" gradientUnits="userSpaceOnUse" xlink:href="#linearGradient6261"/>
  <linearGradient id="linearGradient3337" x1="9.021" x2="11.56" y1="1.059" y2="1.059" gradientUnits="userSpaceOnUse" xlink:href="#linearGradient6993"/>
  <linearGradient id="linearGradient3339" x1="11.67" x2="13.35" y1="1.065" y2="1.065" gradientUnits="userSpaceOnUse" xlink:href="#linearGradient6261"/>
  <linearGradient id="linearGradient3341" x1="13.45" x2="15.25" y1="1.073" y2="1.073" gradientUnits="userSpaceOnUse" xlink:href="#linearGradient6993"/>
  <linearGradient id="linearGradient3343" x1="15.35" x2="16.8" y1="1.083" y2="1.083" gradientUnits="userSpaceOnUse" xlink:href="#linearGradient6261"/>
  <linearGradient id="linearGradient3345" x1="16.9" x2="18.71" y1="1.074" y2="1.074" gradientUnits="userSpaceOnUse" xlink:href="#linearGradient6993"/>
 </defs>
 <g transform="translate(.08885 -.03255)" fill="none" stroke-width=".2">
 <style>
@keyframes animate {
0% {
filter: hue-rotate(360deg);}
100% {
filter: hue-rotate(0deg);}
}
path {
animation: animate linear 5s infinite ;
}
</style>
  <path d="m0.4883 0.3814q0 0.03256-0.00155 0.08372-0.00155 0.05038-0.003876 0.124-0.002325 0.07364-0.005426 0.1721-0.003101 0.09767-0.006201 0.224 0.1116-0.003876 0.2147-0.006201 0.1031-0.003101 0.2031-0.004651 0.1008-0.002325 0.2015-0.003101 0.1008-0.00155 0.2077-0.002325 0.00233-0.07906 0.00465-0.1581 0.0031-0.07906 0.00698-0.1667 0.00388-0.08759 0.0093-0.1884 0.0062-0.1008 0.01473-0.2232 7.751e-4 -0.01705 0.01008-0.02868 0.01008-0.0124 0.0248-0.02015 0.0155-0.008527 0.03411-0.0124 0.0186-0.003876 0.03721-0.003876 0.02248 0 0.04806 0.006201 0.02636 0.005426 0.05116 0.01628-0.01163 0.1271-0.02093 0.2434-0.00853 0.1163-0.01473 0.2263-0.0062 0.1101-0.01085 0.2178-0.00465 0.107-0.00698 0.2163-0.00233 0.1093-0.00388 0.2232-7.751e-4 0.1139-7.751e-4 0.238 0 0.08217 0.00698 0.1403 0.00698 0.05814 0.02403 0.09534 0.01783 0.03643 0.04728 0.05348t0.07364 0.01705q0.03178 0 0.06589-0.00465 0.03411-0.00543 0.08449-0.02403l0.0217 0.06356q-0.05581 0.02403-0.1039 0.04186-0.04806 0.01783-0.08992 0.02946-0.04108 0.01163-0.07674 0.01705-0.03566 0.0062-0.06821 0.0062-0.04418 0-0.07752-0.01705-0.03333-0.01628-0.05581-0.05426-0.0217-0.03798-0.03256-0.09999t-0.01085-0.1535v-0.176q0-0.06124 0-0.1163 7.752e-4 -0.05581 0.00155-0.1077 7.752e-4 -0.05194 0.00155-0.1008 7.752e-4 -0.04883 0.00233-0.09689-0.107 0-0.2077 7.752e-4 -0.09999 7.751e-4 -0.2008 0.0031-0.09999 0.00233-0.2039 0.0062-0.1031 0.00388-0.2147 0.0093l-0.02636 0.8682-0.1837 0.02325-0.01395-0.00155q0.009302-0.2225 0.01628-0.4225 0.007751-0.2008 0.01318-0.3899 0.005426-0.1891 0.007751-0.3728 0.003101-0.1837 0.003101-0.3728 0-0.03643-0.005426-0.06201-0.004651-0.02636-0.0186-0.04263-0.01395-0.01628-0.03876-0.02325-0.02403-0.007751-0.06201-0.007751-0.05116 0-0.131 0.01163l-0.007752-0.06434q0.1124-0.02868 0.1907-0.04263 0.07829-0.01473 0.131-0.01473 0.05193 0 0.08139 0.01395 0.02946 0.01318 0.04341 0.04031 0.01473 0.02636 0.01783 0.06511 0.003101 0.03876 0.003101 0.08837z" stroke="url(#linearGradient2509)" style="paint-order:stroke fill markers"/>
  <path d="m2.401 0.4155q0-0.03256-0.00543-0.05581-0.00465-0.02325-0.0186-0.03721-0.01318-0.01473-0.03721-0.02093-0.02403-0.006976-0.06201-0.006976-0.0248 0-0.05581 0.003101-0.03101 0.002325-0.07054 0.006976l-0.00853-0.07209q0.07596-0.01163 0.1411-0.02015 0.06511-0.009302 0.1217-0.0155 0.05736-0.006976 0.107-0.01008 0.04961-0.003101 0.09379-0.003101 0.1225 0 0.2318-0.00155 0.1101-0.002325 0.1946-0.003876 0.08527-0.002325 0.1395-0.003876 0.05504-0.002325 0.06744-0.002325 0.03566 0 0.05426 0.01705 0.01938 0.01628 0.01938 0.05116 0 0.01395-0.0031 0.05426-0.00233 0.04031-0.00698 0.09302-0.00388 0.05193-0.0093 0.1101-0.00543 0.05814-0.01163 0.1085l-0.07441-0.002325q0.00155-0.02946 0.00233-0.05504 7.752e-4 -0.02558 7.752e-4 -0.04806 0-0.06511-0.00775-0.1054-0.00775-0.04108-0.02868-0.06434-0.02015-0.02325-0.05581-0.03178-0.03566-0.008527-0.09069-0.009302-0.07674-7.757e-4 -0.1349-7.757e-4 -0.05814-7.752e-4 -0.1116-7.752e-4h-0.04108q-0.02946 0-0.06046 7.752e-4 -0.03023 0-0.07364 0.00155-0.00155 0.06434-0.00388 0.1442-0.00155 0.07906-0.00388 0.1698-0.00233 0.09069-0.00543 0.1915-0.00233 0.1008-0.00543 0.2077 0.09999 0.00465 0.1775 0.00698 0.07752 0.00155 0.1434 0.00155 0.07984 0 0.1411-0.00465 0.06201-0.00543 0.117-0.01628 0.0124 0.03411 0.0124 0.06124 0 0.02248-0.01395 0.03798t-0.03953 0.02558q-0.02558 0.0093-0.06201 0.01395-0.03643 0.00388-0.08139 0.00388-0.07984 0-0.1814-0.00853-0.1008-0.0093-0.2163-0.02248-0.00155 0.04496-0.00388 0.1085-0.00233 0.06279-0.00543 0.1341-0.0031 0.07131-0.00775 0.1465-0.00388 0.07441-0.00853 0.1434-0.00388 0.06821-0.0093 0.1256-0.00465 0.05659-0.01008 0.09302 0.07519-0.01085 0.1465-0.0155 0.07131-0.00543 0.1294-0.00543 0.08139 0 0.1519 0.00465 0.07131 0.00388 0.1411 0.00388 0.04651 0 0.08139-0.0124 0.03566-0.01318 0.06201-0.04573 0.02636-0.03333 0.04341-0.08914 0.01783-0.05581 0.0279-0.1419l0.06976 0.00388q-0.00233 0.1302-0.0186 0.2147-0.01628 0.08449-0.04573 0.1333-0.02868 0.04883-0.07054 0.06744-0.04186 0.01938-0.09457 0.01938-0.04186 0-0.09224-0.00775t-0.1101-0.01783q-0.05969-0.0093-0.1294-0.01705-0.06899-0.00775-0.1488-0.00775-0.07054 0-0.1558 0.0093-0.08449 0.00853-0.1736 0.02946l-0.01395-0.00155q0.01163-0.07752 0.02015-0.1876 0.0093-0.1101 0.01628-0.2403 0.00698-0.131 0.01163-0.276 0.00465-0.145 0.00775-0.2922 0.0031-0.1481 0.00388-0.2922 0.00155-0.145 0.00155-0.2744z" stroke="url(#linearGradient3259)" style="paint-order:stroke fill markers"/>
  <path d="m3.971 0.4194q0-0.03643-0.00388-0.06201-0.0031-0.02636-0.0155-0.04263-0.0124-0.01628-0.03566-0.02325-0.02248-0.007751-0.06046-0.007751-0.02558 0-0.06279 0.003101-0.03721 0.002325-0.07752 0.008527l-0.00775-0.06434q0.1139-0.02946 0.1953-0.04341 0.08216-0.01395 0.1357-0.01395 0.05116 0 0.07829 0.01395 0.0279 0.01318 0.04031 0.04031 0.01318 0.02636 0.0155 0.06511 0.00233 0.03876 0.00233 0.08837 0 0.003101-7.752e-4 0.05116-7.751e-4 0.04806-0.0031 0.1279-0.00155 0.07906-0.00465 0.1845-0.00233 0.1046-0.0062 0.2225-0.0031 0.117-0.00775 0.2411-0.00465 0.124-0.01085 0.2411-0.00543 0.117-0.0124 0.2217-0.0062 0.1046-0.01395 0.1829 0.07441-0.01085 0.1403-0.0155 0.06589-0.00543 0.1225-0.00543 0.07984 0 0.1488 0.00465 0.06976 0.00388 0.1372 0.00388 0.04728 0 0.08372-0.01395 0.03721-0.01395 0.06356-0.04883 0.02636-0.03488 0.04341-0.09457 0.01783-0.05969 0.02713-0.1519l0.06744 0.00543q-7.752e-4 0.1364-0.01705 0.2248-0.0155 0.08759-0.04496 0.1388-0.02946 0.05038-0.07209 0.06976-0.04186 0.02015-0.09612 0.02015-0.04108 0-0.09069-0.00775t-0.1085-0.01783q-0.05814-0.0093-0.1263-0.01705-0.06821-0.00775-0.1473-0.00775-0.07054 0-0.1535 0.0093-0.08217 0.00853-0.169 0.02946l-0.01395-0.00155q0.01318-0.1062 0.02248-0.2279 0.01008-0.1225 0.01628-0.2542 0.00698-0.1318 0.01163-0.2698 0.00465-0.138 0.00698-0.276 0.00233-0.138 0.0031-0.2721 7.751e-4 -0.1341 7.751e-4 -0.2589z" stroke="url(#linearGradient3269)" style="paint-order:stroke fill markers"/>
  <g>
   <path d="m5.525 0.4194q0-0.03643-0.00388-0.06201-0.0031-0.02636-0.0155-0.04263-0.0124-0.01628-0.03566-0.02325-0.02248-0.007751-0.06046-0.007751-0.02558 0-0.06279 0.003101-0.03721 0.002325-0.07752 0.008527l-0.00775-0.06434q0.1139-0.02946 0.1953-0.04341 0.08217-0.01395 0.1357-0.01395 0.05116 0 0.07829 0.01395 0.0279 0.01318 0.04031 0.04031 0.01318 0.02636 0.0155 0.06511 0.00233 0.03876 0.00233 0.08837 0 0.003101-7.751e-4 0.05116-7.752e-4 0.04806-0.0031 0.1279-0.00155 0.07906-0.00465 0.1845-0.00233 0.1046-0.0062 0.2225-0.0031 0.117-0.00775 0.2411-0.00465 0.124-0.01085 0.2411-0.00543 0.117-0.0124 0.2217-0.0062 0.1046-0.01395 0.1829 0.07441-0.01085 0.1403-0.0155 0.06589-0.00543 0.1225-0.00543 0.07984 0 0.1488 0.00465 0.06976 0.00388 0.1372 0.00388 0.04728 0 0.08372-0.01395 0.03721-0.01395 0.06356-0.04883 0.02636-0.03488 0.04341-0.09457 0.01783-0.05969 0.02713-0.1519l0.06744 0.00543q-7.751e-4 0.1364-0.01705 0.2248-0.0155 0.08759-0.04496 0.1388-0.02946 0.05038-0.07209 0.06976-0.04186 0.02015-0.09612 0.02015-0.04108 0-0.09069-0.00775t-0.1085-0.01783q-0.05814-0.0093-0.1263-0.01705-0.06821-0.00775-0.1473-0.00775-0.07054 0-0.1535 0.0093-0.08217 0.00853-0.169 0.02946l-0.01395-0.00155q0.01318-0.1062 0.02248-0.2279 0.01008-0.1225 0.01628-0.2542 0.00698-0.1318 0.01163-0.2698 0.00465-0.138 0.00698-0.276 0.00233-0.138 0.0031-0.2721 7.752e-4 -0.1341 7.752e-4 -0.2589z" stroke="url(#linearGradient3333)" style="paint-order:stroke fill markers"/>
   <path d="m7.516 1.998q-0.1558 0-0.286-0.05426-0.1302-0.05426-0.2248-0.1612-0.09379-0.107-0.1465-0.2659-0.05194-0.1597-0.05194-0.3705 0-0.1333 0.0217-0.2604 0.0217-0.1271 0.06511-0.2395 0.04341-0.1132 0.1077-0.207 0.06434-0.09457 0.1504-0.1628 0.08604-0.06821 0.193-0.1062 0.107-0.03798 0.2349-0.03798 0.1558 0 0.286 0.05426t0.224 0.1612q0.09457 0.107 0.1465 0.2667 0.05271 0.1597 0.05271 0.3697 0 0.1333-0.0217 0.2604t-0.06511 0.2403q-0.04341 0.1124-0.1077 0.207-0.06434 0.09379-0.1504 0.162-0.08604 0.06821-0.193 0.1062-0.107 0.03798-0.2349 0.03798zm0.03488-0.1008q0.08992 0 0.1636-0.02946 0.07364-0.02946 0.131-0.08294 0.05814-0.05348 0.1008-0.1294 0.04263-0.07596 0.06976-0.169 0.0279-0.09379 0.04108-0.2015 0.01395-0.1077 0.01395-0.2263 0-0.2108-0.04186-0.3659-0.04108-0.1558-0.1124-0.2573-0.07131-0.1023-0.1667-0.1519-0.09457-0.05038-0.2015-0.05038-0.08992 0-0.1636 0.02946-0.07364 0.02946-0.1318 0.08294-0.05736 0.05349-0.09999 0.1294-0.04263 0.07596-0.07054 0.1698-0.02713 0.09302-0.04108 0.2015-0.01318 0.1077-0.01318 0.2256 0 0.2108 0.04108 0.3666 0.04186 0.155 0.1132 0.2573 0.07131 0.1015 0.1659 0.1519 0.09534 0.04961 0.2023 0.04961z" stroke="url(#linearGradient3335)" style="paint-order:stroke fill markers"/>
   <path d="m10.7 1.985-0.01628-0.00233q-0.02248-0.1426-0.04496-0.2659-0.0217-0.1232-0.04418-0.2325-0.0217-0.1093-0.04341-0.2077-0.02093-0.09844-0.04108-0.1907-0.02868-0.1287-0.05116-0.2372-0.02248-0.1093-0.04728-0.2093h-0.0054q-0.03101 0.1124-0.06279 0.217-0.03178 0.1039-0.06511 0.2062-0.03333 0.1015-0.06976 0.2054-0.03643 0.1031-0.07674 0.2139-0.04031 0.1108-0.08604 0.2325-0.04496 0.1217-0.09612 0.2597l-0.1333 0.01085-0.01628-0.00233q-0.1225-0.6193-0.2108-1.005-0.08759-0.386-0.1395-0.5395-0.01395-0.04186-0.02946-0.07054-0.0155-0.02946-0.03643-0.04806t-0.04961-0.02713q-0.0279-0.008527-0.06744-0.008527-0.02558 0-0.05581 0.003876-0.03101 0.003101-0.06821 0.009302l-0.0085-0.06899q0.1201-0.02946 0.1992-0.04496 0.07984-0.01628 0.1318-0.01628 0.04108 0 0.06744 0.01163 0.02713 0.01085 0.04573 0.03566 0.0186 0.0248 0.03256 0.06434 0.01395 0.03953 0.02946 0.09612 0.02248 0.08062 0.05349 0.2046 0.03178 0.1232 0.06976 0.2915 0.03798 0.1682 0.08217 0.3814 0.04418 0.2132 0.09224 0.4736h0.0054q0.03876-0.1054 0.07984-0.2232 0.04186-0.1178 0.08449-0.2426 0.04263-0.1248 0.08527-0.2542 0.04263-0.1294 0.08372-0.2581 0.04108-0.1294 0.07906-0.2558 0.03876-0.1263 0.07286-0.2449 0.0039-0.01395 0.0186-0.02015 0.01473-0.006201 0.03178-0.006201t0.03101 0.004651q0.02015 0.07751 0.04573 0.1845 0.02558 0.1062 0.05349 0.231 0.02791 0.124 0.05736 0.262 0.03023 0.1372 0.05891 0.2783 0.02946 0.1411 0.05659 0.2806 0.02713 0.1395 0.05038 0.2667h0.0039q0.05581-0.1163 0.1108-0.2411 0.05581-0.1256 0.1062-0.2504 0.05116-0.1248 0.09457-0.2457 0.04418-0.1209 0.07596-0.2287 0.03256-0.1077 0.05038-0.1984 0.0186-0.09069 0.0186-0.1558 0-0.03798-7e-3 -0.07674-0.0062-0.03876-0.01938-0.07286-0.01318-0.03411-0.03411-0.06201-0.02015-0.02791-0.04806-0.04418l0.0031-0.01473q0.0155-0.002325 0.03101-0.003876 0.0155-0.00155 0.03101-0.00155 0.04341 0 0.08294 0.01085t0.06976 0.03411 0.04806 0.06046 0.01783 0.08914q0 0.03953-0.01395 0.1046-0.01395 0.06434-0.04031 0.1488-0.02558 0.08449-0.06201 0.186-0.03643 0.1008-0.08139 0.2139-0.04418 0.1132-0.09612 0.2364-0.05116 0.1225-0.1077 0.2496-0.05581 0.1263-0.1155 0.255-0.05891 0.1279-0.1194 0.2527z" stroke="url(#linearGradient3337)" style="paint-order:stroke fill markers"/>
   <path d="m12.48 1.998q-0.1558 0-0.286-0.05426t-0.2248-0.1612q-0.09379-0.107-0.1465-0.2659-0.05193-0.1597-0.05193-0.3705 0-0.1333 0.0217-0.2604 0.0217-0.1271 0.06511-0.2395 0.04341-0.1132 0.1077-0.207 0.06434-0.09457 0.1504-0.1628 0.08604-0.06821 0.193-0.1062 0.107-0.03798 0.2349-0.03798 0.1558 0 0.286 0.05426 0.1302 0.05426 0.224 0.1612 0.09457 0.107 0.1465 0.2667 0.05271 0.1597 0.05271 0.3697 0 0.1333-0.0217 0.2604t-0.06511 0.2403q-0.04341 0.1124-0.1077 0.207-0.06434 0.09379-0.1504 0.162-0.08604 0.06821-0.193 0.1062-0.107 0.03798-0.2349 0.03798zm0.03488-0.1008q0.08992 0 0.1636-0.02946 0.07364-0.02946 0.131-0.08294 0.05814-0.05348 0.1008-0.1294 0.04263-0.07596 0.06976-0.169 0.02791-0.09379 0.04108-0.2015 0.01395-0.1077 0.01395-0.2263 0-0.2108-0.04186-0.3659-0.04108-0.1558-0.1124-0.2573-0.07131-0.1023-0.1667-0.1519-0.09457-0.05038-0.2015-0.05038-0.08992 0-0.1636 0.02946-0.07364 0.02946-0.1318 0.08294-0.05736 0.05349-0.09999 0.1294-0.04263 0.07596-0.07054 0.1698-0.02713 0.09302-0.04108 0.2015-0.01318 0.1077-0.01318 0.2256 0 0.2108 0.04108 0.3666 0.04186 0.155 0.1132 0.2573 0.07131 0.1015 0.1659 0.1519 0.09534 0.04961 0.2023 0.04961z" stroke="url(#linearGradient3339)" style="paint-order:stroke fill markers"/>
   <path d="m13.83 0.4155q0-0.03256-0.0054-0.05581-0.0054-0.02325-0.01938-0.03798-0.01318-0.01473-0.03721-0.0217-0.02403-0.006976-0.06124-0.006976-0.05116 0-0.131 0.01163l-0.0093-0.06899q0.07209-0.01318 0.1574-0.02713 0.08604-0.01395 0.176-0.02558 0.09069-0.01163 0.1814-0.0186 0.09147-0.007751 0.1752-0.007751 0.1124 0 0.2085 0.02015 0.09612 0.01938 0.1667 0.06589 0.07054 0.04573 0.1108 0.1209 0.04031 0.07519 0.04031 0.1868 0 0.1031-0.03411 0.1891-0.03333 0.08527-0.09534 0.1527-0.06124 0.06744-0.1488 0.1155-0.08759 0.04806-0.1953 0.07596 0.08062 0.138 0.1465 0.2426 0.06589 0.1046 0.1209 0.1837 0.05504 0.07829 0.1008 0.1349 0.04573 0.05581 0.08604 0.09689 0.03178 0.03333 0.05969 0.05659 0.02791 0.02248 0.05348 0.03643 0.02636 0.01395 0.05271 0.02015 0.02635 0.0062 0.05504 0.0062 0.03101 0 0.05891-0.0062 0.02791-0.0062 0.06124-0.0186l0.0217 0.06356q-0.09844 0.04496-0.1744 0.06666-0.07596 0.02248-0.1271 0.02248-0.02558 0-0.04883-0.0062-0.02325-0.00543-0.04573-0.01705-0.02248-0.01163-0.04496-0.02946-0.02248-0.0186-0.04806-0.04341-0.04186-0.03953-0.09689-0.107-0.05504-0.06821-0.1248-0.1698-0.06899-0.1023-0.1535-0.2418-0.08449-0.1395-0.186-0.3225l0.0016-0.01008q0.1372-0.00543 0.2318-0.03798 0.09457-0.03256 0.1527-0.08837 0.05891-0.05581 0.08527-0.1326 0.02636-0.07751 0.02636-0.1729 0-0.1829-0.09612-0.2736-0.09612-0.09069-0.2845-0.09069-0.04031 0-0.07674 0.003101t-0.08061 0.008527q-0.0015 0.05969-0.0047 0.1597-0.0023 0.09999-0.0062 0.2302-0.0031 0.1294-0.0078 0.2845-0.0047 0.1543-0.0093 0.3232-0.0047 0.1682-0.01008 0.3465-0.0054 0.1775-0.01085 0.3542l-0.1837 0.02325-0.01395-0.00155q0.0093-0.2225 0.01705-0.4217 0.0078-0.1992 0.0124-0.3876 0.0054-0.1891 0.0085-0.3736 0.0031-0.1853 0.0031-0.379z" stroke="url(#linearGradient3341)" style="paint-order:stroke fill markers"/>
   <path d="m15.72 0.4194q0-0.03643-0.0039-0.06201-0.0031-0.02636-0.0155-0.04263t-0.03566-0.02325q-0.02248-0.007751-0.06046-0.007751-0.02558 0-0.06279 0.003101-0.03721 0.002325-0.07751 0.008527l-0.0078-0.06434q0.1139-0.02946 0.1953-0.04341 0.08217-0.01395 0.1357-0.01395 0.05116 0 0.07829 0.01395 0.02791 0.01318 0.04031 0.04031 0.01318 0.02636 0.0155 0.06511 0.0023 0.03876 0.0023 0.08837 0 0.003101-7.76e-4 0.05116-7.75e-4 0.04806-0.0031 0.1279-0.0015 0.07906-0.0047 0.1845-0.0023 0.1046-0.0062 0.2225-0.0031 0.117-0.0078 0.2411-0.0047 0.124-0.01085 0.2411-0.0054 0.117-0.0124 0.2217-0.0062 0.1046-0.01395 0.1829 0.07441-0.01085 0.1403-0.0155 0.06589-0.00543 0.1225-0.00543 0.07984 0 0.1488 0.00465 0.06976 0.00388 0.1372 0.00388 0.04728 0 0.08372-0.01395 0.03721-0.01395 0.06356-0.04883 0.02635-0.03488 0.04341-0.09457 0.01783-0.05969 0.02713-0.1519l0.06744 0.00543q-7.75e-4 0.1364-0.01705 0.2248-0.0155 0.08759-0.04496 0.1388-0.02945 0.05038-0.07209 0.06976-0.04186 0.02015-0.09612 0.02015-0.04108 0-0.09069-0.00775t-0.1085-0.01783q-0.05814-0.0093-0.1263-0.01705-0.06821-0.00775-0.1473-0.00775-0.07054 0-0.1535 0.0093-0.08216 0.00853-0.169 0.02946l-0.01395-0.00155q0.01318-0.1062 0.02248-0.2279 0.01008-0.1225 0.01628-0.2542 7e-3 -0.1318 0.01163-0.2698 0.0047-0.138 7e-3 -0.276 0.0023-0.138 0.0031-0.2721 7.75e-4 -0.1341 7.75e-4 -0.2589z" stroke="url(#linearGradient3343)" style="paint-order:stroke fill markers"/>
   <path d="m17.48 0.2612q-7.75e-4 0.03876-0.0023 0.1155-0.0015 0.07674-0.0039 0.1791-0.0023 0.1015-0.0062 0.2225-0.0031 0.1201-7e-3 0.2465-0.0039 0.1256-0.0085 0.2504-0.0047 0.1248-0.0093 0.2356-0.0047 0.1108-0.01008 0.2015-0.0047 0.08992-0.0093 0.1465 0.07674 0.02015 0.1411 0.02713 0.06511 0.0062 0.1279 0.0062 0.1302 0 0.2325-0.03256 0.1031-0.03256 0.1806-0.09069 0.07829-0.05891 0.1326-0.1395 0.05504-0.08062 0.08914-0.1767 0.03488-0.09612 0.05038-0.2046 0.01628-0.1085 0.01628-0.2225 0-0.1705-0.03798-0.3124-0.03721-0.1419-0.1225-0.2442-0.08449-0.1023-0.2209-0.1589-0.1364-0.05736-0.3333-0.05736-0.04883 0-0.09844 0.002325t-0.1008 0.006201zm-0.4674-0.02558q0.08216-0.0155 0.169-0.02946 0.08682-0.01473 0.1752-0.02558 0.08837-0.01085 0.1767-0.01705 0.08914-0.006976 0.176-0.006976 0.1209 0 0.2341 0.0155 0.1139 0.01473 0.2139 0.05116 0.1008 0.03566 0.1845 0.09612 0.08372 0.05969 0.1434 0.1496 0.06046 0.08914 0.09379 0.2116 0.03333 0.1225 0.03333 0.2829 0 0.1442-0.02868 0.2767-0.02868 0.1318-0.08372 0.2457-0.05504 0.1139-0.1349 0.207-0.07906 0.09302-0.1814 0.1597-0.1015 0.06589-0.2248 0.1023-0.1225 0.03566-0.2636 0.03566-0.07286 0-0.1481-0.01008-0.07519-0.01008-0.1566-0.03101l-0.1535 0.0186-0.01395-0.00155q0.0054-0.04961 0.01163-0.131 0.0062-0.08216 0.01163-0.1907 0.0062-0.1085 0.01163-0.2411 0.0054-0.1333 0.0093-0.286 0.0047-0.1535 7e-3 -0.3232t0.0023-0.3527q0-0.03721-0.0031-0.06511t-0.01628-0.04651q-0.0124-0.0186-0.03798-0.02791-0.02481-0.009302-0.06821-0.009302-0.05116 0-0.131 0.01163z" stroke="url(#linearGradient3345)" style="paint-order:stroke fill markers"/>
  </g>
 </g>
</svg>
