<svg width="103.59mm" height="10.356mm" version="1.1" viewBox="0 0 103.59 10.356" xmlns="http://www.w3.org/2000/svg">
<g stroke-width=".26458" aria-label=" Përshendetje Botë">
<style> @keyframes animate { 0% { filter: hue-rotate(360deg);} 100% { filter: hue-rotate(0deg);} } path {fill: url(#grad);animation: animate linear 5s infinite ;} </style> <linearGradient id="grad"> <stop offset="0%" stop-color="cyan" /> <stop offset="50%" stop-color="magenta" /> <stop offset="100%" stop-color="yellow" /> </linearGradient>
<path d="m101.25 2.097q0.73025 0 1.2488 0.3175 0.52916 0.3175 0.80433 0.89958 0.28575 0.5715 0.28575 1.3441v0.56092h-3.8841q0.02117 0.96308 0.48683 1.4711 0.47625 0.49742 1.3229 0.49742 0.53975 0 0.9525-0.09525 0.42333-0.10583 0.86783-0.29633v0.81491q-0.43392 0.1905-0.85725 0.27517-0.42333 0.09525-1.0054 0.09525-0.80433 0-1.4288-0.32808-0.61383-0.32808-0.96308-0.97366-0.33866-0.65616-0.33866-1.5981 0-0.93133 0.30692-1.5981 0.3175-0.66675 0.87841-1.0266 0.5715-0.35983 1.3229-0.35983zm-0.0106 0.762q-0.66675 0-1.0583 0.43392-0.381 0.42333-0.45508 1.1853h2.8892q-0.0106-0.71966-0.33867-1.1642-0.32808-0.45508-1.0372-0.45508zm-1.5557-2.1907q0-0.27517 0.14817-0.39158 0.14817-0.127 0.34925-0.127 0.20108 0 0.34925 0.127 0.14817 0.11642 0.14817 0.39158 0 0.26458-0.14817 0.40216-0.14817 0.127-0.34925 0.127-0.20108 0-0.34925-0.127-0.14817-0.13758-0.14817-0.40216zm1.9897 0q0-0.27517 0.13758-0.39158 0.14817-0.127 0.34925-0.127t0.34925 0.127q0.14816 0.11642 0.14816 0.39158 0 0.26458-0.14816 0.40216-0.14817 0.127-0.34925 0.127t-0.34925-0.127q-0.13758-0.13758-0.13758-0.40216zm-4.2371 7.1866q-0.72864 0.12402-1.4366 0.12402-0.83716 0-1.3539-0.22738-0.51676-0.22738-0.75964-0.7028-0.24288-0.47542-0.24288-1.2402v-2.5011h-1.3746v-0.9095h1.3746v-1.6536h1.0955v1.6536h2.4908v0.9095h-2.4908v2.4495q0 0.65629 0.32039 0.95084 0.32039 0.28939 1.0439 0.28939 0.23771 0 0.50643-0.02584 0.27388-0.02584 0.7028-0.07751zm-8.5783 0.12402q-0.75447 0-1.2971-0.33073-0.53743-0.3359-0.82165-0.97151-0.27905-0.64078-0.27905-1.54t0.27905-1.5348q0.28422-0.64078 0.82165-0.97151 0.5426-0.3359 1.2971-0.3359 0.75447 0 1.2919 0.3359 0.5426 0.33073 0.82165 0.97151 0.28422 0.63562 0.28422 1.5348t-0.28422 1.54q-0.27905 0.63562-0.82165 0.97151-0.53743 0.33073-1.2919 0.33073zm0-0.98185q0.60461 0 0.93017-0.48059 0.33073-0.48576 0.33073-1.3798 0-0.894-0.33073-1.3746-0.32556-0.48576-0.93017-0.48576-0.60461 0-0.93534 0.48576-0.32556 0.48059-0.32556 1.3746 0 0.894 0.32556 1.3798 0.33073 0.48059 0.93534 0.48059zm-5.7154-2.9766q1.0904 0.0155 1.6795 0.48059 0.59428 0.46509 0.59428 1.3074 0 0.65112-0.26355 1.1162-0.25838 0.46509-0.75964 0.70796-0.49609 0.24288-1.1989 0.24288h-2.8112v-7.338h2.1807q1.1162 0 1.726 0.48576t0.60978 1.3746q0 0.66662-0.45475 1.0697-0.45475 0.40308-1.3022 0.49092zm-1.726-2.5011v1.9895h0.96118q0.68213 0 1.0594-0.26355 0.37724-0.26355 0.37724-0.74414 0-0.47025-0.39274-0.72347-0.39274-0.25838-1.1162-0.25838zm1.4779 5.3743q0.68213 0 1.0594-0.31006 0.37724-0.31522 0.37724-0.8785 0-0.57878-0.39791-0.894-0.39274-0.32039-1.111-0.32039h-1.4056v2.4029zm-10.242-1.974q0 0.37724-0.03101 0.7028h-3.7q0.14469 0.68213 0.65112 1.0387 0.50643 0.35657 1.3332 0.35657 0.63562 0 1.3436-0.14469l0.13436 0.96118q-0.75964 0.14469-1.602 0.14469-0.93534 0-1.5916-0.33073-0.65112-0.33073-0.99218-0.96635-0.34106-0.64079-0.34106-1.5555 0-0.88883 0.28939-1.5244 0.28939-0.63562 0.84232-0.97151 0.5581-0.3359 1.3384-0.3359 1.1162 0 1.7208 0.67696 0.60461 0.67696 0.60461 1.9482zm-0.99218-0.13436q0-0.7338-0.3514-1.1317-0.34623-0.39791-0.97151-0.39791-0.63562 0-1.0129 0.39791-0.37724 0.39791-0.44442 1.1317zm-6.7799-3.2556q-0.2067 0-0.3824-0.10335-0.1757-0.10335-0.27905-0.27905-0.10335-0.1757-0.10335-0.3824t0.10335-0.3824q0.10335-0.1757 0.27905-0.27905 0.1757-0.10335 0.3824-0.10335t0.3824 0.10335q0.1757 0.10335 0.27905 0.27905 0.10335 0.1757 0.10335 0.3824t-0.10335 0.3824q-0.10335 0.1757-0.27905 0.27905-0.1757 0.10335-0.3824 0.10335zm0.66146 5.8601q0 0.97668-0.28939 1.5865-0.28939 0.60978-0.89917 0.925-0.60461 0.31523-1.5916 0.39274l-0.8785 0.06201-0.05168-0.97151 1.0335-0.09302q0.83199-0.07751 1.2041-0.48576 0.37724-0.40824 0.37724-1.2506v-4.2478h-2.1291v-0.9095h3.2246zm-5.3123 0.46509q-0.72864 0.12402-1.4366 0.12402-0.83716 0-1.3539-0.22738-0.51676-0.22738-0.75964-0.7028-0.24288-0.47542-0.24288-1.2402v-2.5011h-1.3746v-0.9095h1.3746v-1.6536h1.0955v1.6536h2.4908v0.9095h-2.4908v2.4495q0 0.65629 0.32039 0.95084 0.32039 0.28939 1.0439 0.28939 0.23771 0 0.50643-0.02584 0.27388-0.02584 0.7028-0.07751zm-6.1805-2.9352q0 0.37724-0.03101 0.7028h-3.7q0.14469 0.68213 0.65112 1.0387 0.50643 0.35657 1.3332 0.35657 0.63562 0 1.3436-0.14469l0.13436 0.96118q-0.75964 0.14469-1.602 0.14469-0.93534 0-1.5916-0.33073-0.65112-0.33073-0.99218-0.96635-0.34106-0.64079-0.34106-1.5555 0-0.88883 0.28939-1.5244 0.28939-0.63562 0.84232-0.97151 0.5581-0.3359 1.3384-0.3359 1.1162 0 1.7208 0.67696 0.60461 0.67696 0.60461 1.9482zm-0.99218-0.13436q0-0.7338-0.3514-1.1317-0.34623-0.39791-0.97151-0.39791-0.63562 0-1.0129 0.39791-0.37724 0.39791-0.44442 1.1317zm-5.3743-4.6612v7.7514l-0.98185 0.05168-0.09302-0.89917h-0.12402q-0.05168 0.46509-0.43925 0.70796-0.38757 0.24288-1.018 0.24288-0.69246 0-1.1834-0.32039-0.48576-0.32556-0.74414-0.95084-0.25321-0.62528-0.25321-1.5193 0-0.91467 0.25321-1.5658 0.25838-0.65112 0.74931-0.98702 0.49609-0.34106 1.1886-0.34106 0.65629 0 1.0129 0.27388 0.36173 0.26872 0.43408 0.82165h0.10335v-3.2659zm-2.4805 6.9246q1.3849 0 1.3849-0.93017v-1.3229q0-1.571-1.3953-1.571-0.60461 0-0.93534 0.5116-0.32556 0.5116-0.32556 1.4521 0 0.91984 0.32039 1.3901 0.32039 0.47026 0.95084 0.47026zm-5.5397-4.7542q0.86816 0 1.3436 0.5271t0.47542 1.4883v3.5657h-1.0955v-3.5657q0-0.51676-0.25838-0.80098-0.25838-0.28422-0.72347-0.28422-1.2919 0-1.2919 1.571v3.0799h-1.0955v-5.4777h0.99218l0.08785 0.99218h0.11886q0.04651-0.55294 0.40307-0.82165 0.35657-0.27388 1.0439-0.27388zm-4.2168 2.6252q0 0.37724-0.03101 0.7028h-3.7q0.14469 0.68213 0.65112 1.0387 0.50643 0.35657 1.3332 0.35657 0.63562 0 1.3436-0.14469l0.13436 0.96118q-0.75964 0.14469-1.602 0.14469-0.93534 0-1.5916-0.33073-0.65112-0.33073-0.99218-0.96635-0.34106-0.64079-0.34106-1.5555 0-0.88883 0.28939-1.5244 0.28939-0.63562 0.84232-0.97151 0.5581-0.3359 1.3384-0.3359 1.1162 0 1.7208 0.67696 0.60461 0.67696 0.60461 1.9482zm-0.99218-0.13436q0-0.7338-0.3514-1.1317-0.34623-0.39791-0.97151-0.39791-0.63562 0-1.0129 0.39791-0.37724 0.39791-0.44442 1.1317zm-7.1933-2.4908q0.86816 0 1.3436 0.5271 0.47542 0.5271 0.47542 1.4883v3.5657h-1.0955v-3.5657q0-0.51676-0.25838-0.80098-0.25838-0.28422-0.72347-0.28422-1.2919 0-1.2919 1.571v3.0799h-1.0955v-7.7514h1.0955v3.2659h0.10335q0.04651-0.55294 0.40308-0.82165 0.35657-0.27388 1.0439-0.27388zm-7.0383 5.6844q-0.63045 0-1.0749-0.03617-0.43925-0.03617-0.79582-0.11886l0.12402-0.99219q1.0542 0.16536 1.7467 0.16536 0.82682 0 1.2041-0.1602 0.37724-0.16536 0.37724-0.52193 0-0.23771-0.12919-0.36173-0.12402-0.12402-0.40824-0.19637l-1.2609-0.32039q-0.5271-0.13436-0.84232-0.31006-0.31523-0.1757-0.47025-0.44442-0.15503-0.27388-0.15503-0.68213 0-0.60461 0.28939-0.97668 0.29456-0.37724 0.9095-0.55294 0.62012-0.1757 1.6123-0.1757 0.75447 0 1.4469 0.10335l-0.11369 0.95084q-0.78031-0.07235-1.3643-0.07235-0.86816 0-1.2557 0.1602-0.38757 0.15503-0.38757 0.5116 0 0.22738 0.13436 0.34106t0.45475 0.19637l1.0129 0.24805q0.58911 0.14469 0.95084 0.34106t0.53743 0.49092q0.1757 0.29455 0.1757 0.72864 0 0.59428-0.28422 0.96635-0.28422 0.3669-0.88366 0.5426-0.59428 0.1757-1.5503 0.1757zm-4.5372-5.6844q0.56844 0 0.91984 0.21704 0.35657 0.21187 0.52193 0.66146 0.17053 0.44958 0.17053 1.1782h-1.0852q0-0.59428-0.18087-0.85783-0.1757-0.26872-0.57361-0.26872-0.6873 0-1.0387 0.58911-0.34623 0.58911-0.34623 1.7053v1.4469h1.3436v0.9095h-3.6587v-0.9095h1.2196v-3.6587h-1.0129v-0.9095h1.9017l0.18603 1.4056h0.12402q0.04651-0.75964 0.41858-1.1317 0.37724-0.37724 1.0904-0.37724zm-7.2195-0.19744q0.73025 0 1.2488 0.3175 0.52916 0.3175 0.80433 0.89958 0.28575 0.5715 0.28575 1.3441v0.56092h-3.8841q0.021167 0.96308 0.48683 1.4711 0.47625 0.49742 1.3229 0.49742 0.53975 0 0.9525-0.09525 0.42333-0.10583 0.86783-0.29633v0.81491q-0.43392 0.1905-0.85725 0.27517-0.42333 0.09525-1.0054 0.09525-0.80433 0-1.4287-0.32808-0.61383-0.32808-0.96308-0.97366-0.33867-0.65616-0.33867-1.5981 0-0.93133 0.30692-1.5981 0.3175-0.66675 0.87841-1.0266 0.5715-0.35983 1.3229-0.35983zm-0.010583 0.762q-0.66675 0-1.0583 0.43392-0.381 0.42333-0.45508 1.1853h2.8892q-0.010583-0.71966-0.33867-1.1642-0.32808-0.45508-1.0372-0.45508zm-1.5557-2.1907q0-0.27517 0.14817-0.39158 0.14817-0.127 0.34925-0.127 0.20108 0 0.34925 0.127 0.14817 0.11642 0.14817 0.39158 0 0.26458-0.14817 0.40216-0.14817 0.127-0.34925 0.127-0.20108 0-0.34925-0.127-0.14817-0.13758-0.14817-0.40216zm1.9897 0q0-0.27517 0.13758-0.39158 0.14817-0.127 0.34925-0.127t0.34925 0.127q0.14817 0.11642 0.14817 0.39158 0 0.26458-0.14817 0.40216-0.14817 0.127-0.34925 0.127t-0.34925-0.127q-0.13758-0.13758-0.13758-0.40216zm-6.7279-0.1308q0.88366 0 1.5141 0.28939t0.95601 0.84749q0.33073 0.5581 0.33073 1.3436 0 0.81648-0.33073 1.4004-0.32556 0.57878-0.95601 0.88366-0.63045 0.29972-1.5141 0.29972h-1.1265v2.2738h-1.0335v-7.338zm0 4.0824q0.81648 0 1.2661-0.39274 0.44958-0.39274 0.44958-1.1059 0-0.76481-0.44958-1.1834-0.44958-0.41858-1.2661-0.41858h-1.1265v3.1006z"/>
</g>
</svg>
