<svg width="44.291mm" height="8.1491mm" version="1.1" viewBox="0 0 44.291 8.1491" xmlns="http://www.w3.org/2000/svg">
<g stroke-width=".26458" aria-label="ሰላም ልዑል">
<style> @keyframes animate { 0% { filter: hue-rotate(360deg);} 100% { filter: hue-rotate(0deg);} } path {fill: url(#grad);animation: animate linear 5s infinite ;} </style> <linearGradient id="grad"> <stop offset="0%" stop-color="cyan" /> <stop offset="50%" stop-color="magenta" /> <stop offset="100%" stop-color="yellow" /> </linearGradient>
<path d="m37.909 8.0433q0.14817-1.5134 0.35983-2.5612 0.22225-1.0583 0.55033-1.7357 0.32808-0.67733 0.78316-1.0689 0.46566-0.40216 1.0901-0.59266l-0.68791-1.5981h1.0266l3.2597 7.5565h-1.0054l-2.2754-5.1858q-0.56092 0.16933-1.0372 0.71966-0.47625 0.53975-0.71966 1.6722h0.78316q0.66675 0 1.0477 0.35983 0.39158 0.34925 0.39158 0.9525 0 0.70908-0.48683 1.1007-0.48683 0.381-1.3652 0.381zm1.0372-0.6985h0.49742q1.0901 0 1.0901-0.75141 0-0.62442-0.80433-0.62442h-0.60325q-0.05292 0.34925-0.10583 0.6985-0.04233 0.33867-0.07408 0.67733zm-5.9372 0.80433q-0.8255 0-1.3547-0.34925t-0.78316-0.97366q-0.254-0.635-0.254-1.4711v-2.1696q0-0.84666 0.254-1.4711t0.78316-0.97366 1.3547-0.34925q0.889 0 1.4287 0.37042 0.53975 0.35983 0.78316 0.99483 0.24342 0.62442 0.24342 1.4076v0.68791h1.7886l0.35983 1.6404h-0.21167q-0.3175 0-0.5715-0.23283-0.24342-0.24342-0.35983-0.635h-1.0054v0.75142q0 0.78316-0.24342 1.4182-0.24342 0.62441-0.78316 0.99483-0.53975 0.35983-1.4287 0.35983zm0.05292-0.84666q0.56092 0 0.86783-0.24342 0.3175-0.24342 0.4445-0.66675 0.127-0.43392 0.127-0.99483v-2.2542q0-0.56092-0.127-0.98425-0.127-0.43392-0.4445-0.67733-0.30692-0.24342-0.86783-0.24342-0.8255 0-1.1536 0.49742-0.32808 0.48683-0.32808 1.397v2.2754q0 0.89958 0.32808 1.397 0.32808 0.49742 1.1536 0.49742zm-9.5461 0.74083q0.14817-1.5134 0.35983-2.5612 0.22225-1.0583 0.55033-1.7357 0.32808-0.67733 0.78316-1.0689 0.46566-0.40216 1.0901-0.59266l-0.68792-1.5981h1.0266l3.2597 7.5565h-1.0054l-2.2754-5.1858q-0.56092 0.16933-1.0372 0.71966-0.47625 0.53975-0.71966 1.6722h0.78316q0.66675 0 1.0477 0.35983 0.39158 0.34925 0.39158 0.9525 0 0.70908-0.48683 1.1007-0.48683 0.381-1.3652 0.381zm1.0372-0.6985h0.49742q1.0901 0 1.0901-0.75141 0-0.62442-0.80433-0.62442h-0.60325q-0.05292 0.34925-0.10583 0.6985-0.04233 0.33867-0.07408 0.67733zm-11.62 0.6985 1.2277-3.0586q-0.34925 0.09525-0.71966 0.09525-0.89958 0-1.4287-0.53975t-0.52916-1.5346q0-1.1642 0.67733-1.8415 0.67733-0.67733 1.905-0.67733h4.0746q0.94191 0 1.4287 0.48683t0.48683 1.27q0 0.83608-0.4445 1.397-0.4445 0.56092-1.4076 0.56092h-1.7145v-3.0162h-1.0689v3.048l-1.5028 3.81zm0.56092-3.7147q0.33867 0 0.56092-0.09525t0.40216-0.24342v-2.8046h-0.29633q-0.80433 0-1.27 0.47625-0.46566 0.46567-0.46566 1.3441 0 0.64558 0.28575 0.98425 0.29633 0.33867 0.78316 0.33867zm3.9582-0.8255h0.5715q0.42333 0 0.65616-0.17992 0.24342-0.17992 0.33867-0.45508 0.09525-0.27517 0.09525-0.5715 0-0.26458-0.09525-0.51858-0.08467-0.254-0.29633-0.42333-0.21167-0.16933-0.60325-0.16933h-0.66675zm-7.1119 4.5402-1.5981-5.1435q-0.43392 0.10583-0.77258 0.42333-0.33866 0.3175-0.59266 0.99483-0.24342 0.66675-0.42333 1.8521h-0.91016q0.20108-1.3229 0.508-2.1272 0.30692-0.81491 0.77258-1.2594 0.47625-0.4445 1.1642-0.65616l-0.508-1.6404h1.0266l2.3389 7.5565zm-10.34 0v-3.8206q0-1.0689 0.4445-1.7674 0.45508-0.70908 1.397-0.85725v-1.5981h0.96308v1.5875q0.96308 0.127 1.397 0.81491 0.43392 0.67733 0.43392 1.8415v3.7994h-0.96308v-3.7465q0-0.91016-0.30692-1.397-0.30692-0.49742-1.0266-0.49742-0.79375 0-1.0901 0.51858-0.28575 0.51858-0.28575 1.3864v3.7359z"/>
</g>
</svg>
