<svg width="50.249mm" height="11.716mm" version="1.1" viewBox="0 0 50.249 11.716" xmlns="http://www.w3.org/2000/svg">
<g stroke-width=".26458" aria-label="مرحبا بالعالم">
<style> @keyframes animate { 0% { filter: hue-rotate(360deg);} 100% { filter: hue-rotate(0deg);} } path {fill: url(#grad);animation: animate linear 5s infinite ;} </style> <linearGradient id="grad"> <stop offset="0%" stop-color="cyan" /> <stop offset="50%" stop-color="magenta" /> <stop offset="100%" stop-color="yellow" /> </linearGradient>
<path d="m0.70908 11.716q-0.22225-0.81491-0.381-1.5981-0.15875-0.77258-0.24342-1.3864t-0.084666-0.91016q0-0.78316 0.254-1.4287 0.254-0.64558 0.65616-1.1324 0.40216-0.49742 0.86783-0.83608 0.46566-0.34925 0.89958-0.51858 0.4445-0.17992 0.75141-0.17992 0.26458 0 0.46566 0.11642 0.20108 0.11642 0.39158 0.45508 0.1905 0.33867 0.40217 0.99483 0.20108 0.60325 0.381 0.92075 0.17992 0.30692 0.39158 0.42333 0.21167 0.10583 0.48683 0.10583 0.22225 0 0.3175 0.127 0.10583 0.11642 0.10583 0.28575 0 0.16933-0.14817 0.3175-0.14817 0.13758-0.381 0.13758-0.37042 0-0.64558-0.11642-0.26458-0.127-0.47625-0.33867-0.20108 0.30692-0.48683 0.4445-0.28575 0.14817-0.61383 0.14817-0.39158 0-0.8255-0.1905-0.42333-0.17992-0.81491-0.53975-0.39158-0.35983-0.67733-0.86783-0.26458 0.40216-0.34925 0.86783-0.08467 0.45508-0.08467 0.80433 0 0.29633 0.0635 0.75141 0.0635 0.46567 0.15875 0.98425 0.10583 0.51858 0.22225 1.0266 0.127 0.51858 0.23283 0.93133zm2.9951-4.8366q0.27517 0 0.41275-0.16933 0.13758-0.16933 0.03175-0.49742-0.24342-0.77258-0.4445-1.1536-0.1905-0.39158-0.42333-0.39158-0.23283 0-0.65616 0.21167-0.41275 0.20108-0.75141 0.59266 0.23283 0.47625 0.56092 0.79375 0.33866 0.3175 0.66675 0.46566 0.33866 0.14817 0.60325 0.14817zm2.1378 0.73025 0.09525-0.86783q0.60325 0 0.84666-0.11642 0.24342-0.11642 0.27517-0.41275 0.04233-0.29633 0.02117-0.8255l-0.20109-5.3869h0.85725l0.21167 5.2916q0.03175 0.75141-0.10583 1.27-0.127 0.51858-0.59266 0.78316-0.45508 0.26458-1.4076 0.26458zm5.8314 0q-0.84666 0-1.3017-0.1905-0.4445-0.1905-0.61383-0.59266t-0.1905-1.0372l-0.21166-5.7891h0.86783l0.21167 5.4504q0.02117 0.51858 0.09525 0.80433 0.08467 0.27517 0.35983 0.381 0.28575 0.10583 0.889 0.10583 0.22225 0 0.3175 0.127 0.10583 0.11642 0.10583 0.28575 0 0.16933-0.14817 0.3175-0.14817 0.13758-0.381 0.13758zm-1.5e-5 0 0.10583-0.86783q0.56092 0 1.0689-0.09525 0.508-0.09525 0.94191-0.26458-0.254-0.29633-0.5715-0.60325-0.3175-0.30692-0.6985-0.58208-0.0635-0.05292-0.127-0.1905-0.0635-0.13758-0.10583-0.28575-0.04233-0.14817-0.04233-0.22225 0-0.15875 0.20108-0.381 0.20108-0.22225 0.53975-0.42333 0.33867-0.21167 0.77258-0.34925 0.43392-0.13758 0.89958-0.13758 0.60325 0 0.97366 0.17992 0.381 0.17992 0.55033 0.46566 0.17992 0.27517 0.17992 0.59266 0 0.51858-0.29633 1.0372-0.29633 0.508-0.81492 0.93133 0.45508 0.16933 0.98425 0.254 0.52916 0.07408 1.0583 0.07408 0.22225 0 0.3175 0.127 0.10583 0.11642 0.10583 0.28575 0 0.16933-0.14817 0.3175-0.14817 0.13758-0.381 0.13758-0.6985 0-1.4393-0.15875-0.73025-0.16933-1.3017-0.508-0.58208 0.30692-1.2912 0.48683-0.6985 0.17992-1.4817 0.17992zm1.3335-3.0586q0.40216 0.33866 0.75141 0.66675 0.35983 0.3175 0.79375 0.78316 0.45508-0.29633 0.70908-0.635 0.26458-0.34925 0.26458-0.68792 0-0.21167-0.23283-0.41275-0.22225-0.20108-0.79375-0.20108-0.35983 0-0.80433 0.13758-0.43392 0.13758-0.68791 0.34925zm4.1804 3.0586 0.09525-0.86783q0.60325 0 0.84666-0.11642 0.24342-0.11642 0.27517-0.41275 0.04233-0.29633 0.02117-0.8255l-0.20109-5.3869h0.85725l0.21167 5.2916q0.03175 0.75141-0.10583 1.27-0.127 0.51858-0.59266 0.78316-0.45508 0.26458-1.4076 0.26458zm5.8314 0q-0.84666 0-1.3017-0.1905-0.4445-0.1905-0.61383-0.59266-0.16933-0.40216-0.1905-1.0372l-0.21167-5.7891h0.86783l0.21167 5.4504q0.02117 0.51858 0.09525 0.80433 0.08467 0.27517 0.35983 0.381 0.28575 0.10583 0.889 0.10583 0.22225 0 0.3175 0.127 0.10583 0.11642 0.10583 0.28575 0 0.16933-0.14817 0.3175-0.14817 0.13758-0.381 0.13758zm-1.7e-5 0 0.10583-0.86783q0.51858 0 0.8255-0.0635t0.4445-0.254q0.13758-0.20108 0.13758-0.59266 0-0.40216-0.1905-1.0054-0.17992-0.61383-0.41275-1.2171l0.85725-0.3175q0.13758 0.33867 0.254 0.77258 0.127 0.43392 0.21167 0.85725 0.08467 0.42333 0.08467 0.74083 0 1.0583-0.5715 1.5028-0.56092 0.4445-1.7462 0.4445zm1.1324 1.9685q-0.22225 0-0.381-0.15875-0.14817-0.14817-0.14817-0.35983t0.14817-0.37042q0.15875-0.15875 0.381-0.15875 0.21167 0 0.35983 0.15875 0.15875 0.15875 0.15875 0.37042t-0.15875 0.35983q-0.14817 0.15875-0.35983 0.15875zm7.5459-1.9685q-0.84666 0-1.3017-0.1905-0.4445-0.1905-0.61383-0.59266t-0.1905-1.0372l-0.21167-5.7891h0.86783l0.21167 5.4504q0.02117 0.51858 0.09525 0.80433 0.08467 0.27517 0.35983 0.381 0.28575 0.10583 0.889 0.10583 0.22225 0 0.3175 0.127 0.10583 0.11642 0.10583 0.28575 0 0.16933-0.14817 0.3175-0.14817 0.13758-0.381 0.13758zm-1.5e-5 0 0.10583-0.86783q0.4445 0 0.6985-0.07408 0.254-0.08467 0.381-0.30692 0.13758-0.23283 0.23283-0.66675t0.23283-1.1324l0.8255 0.15875q-0.0635 0.28575-0.14817 0.65616-0.07408 0.37042-0.07408 0.62442 0 0.21167 0.09525 0.381 0.09525 0.16933 0.41275 0.26458t0.97366 0.09525q0.22225 0 0.3175 0.127 0.10583 0.11642 0.10583 0.28575 0 0.16933-0.14817 0.3175-0.14817 0.13758-0.381 0.13758-0.83608 0-1.2382-0.17992-0.40216-0.17992-0.55033-0.53975-0.3175 0.4445-0.73025 0.58208t-1.1112 0.13758zm1.7992 1.9685q-0.22225 0-0.381-0.15875-0.14817-0.14817-0.14817-0.35983t0.14817-0.37042q0.15875-0.15875 0.381-0.15875 0.21167 0 0.35983 0.15875 0.15875 0.15875 0.15875 0.37042t-0.15875 0.35983q-0.14817 0.15875-0.35983 0.15875zm1.8309-1.9685 0.09525-0.86783q1.1007 0 2.1167-0.32808 1.0266-0.32808 1.8732-0.91016-0.41275-0.37042-1.016-0.58208-0.59266-0.22225-1.3123-0.22225-0.26458 0-0.46567 0.03175-0.20108 0.02117-0.48683 0.08467l-0.16933-0.80434q0.59266-0.17992 1.1218-0.17992 0.55033 0 0.99483 0.13758 0.4445 0.127 0.80433 0.3175 0.37042 0.1905 0.68791 0.381 0.32808 0.1905 0.635 0.32808 0.30692 0.127 0.635 0.127h0.22225l0.07408 0.762q-0.53975 0-0.98425 0.17992-0.4445 0.16933-0.89958 0.42333-0.4445 0.254-0.98425 0.51858-0.52916 0.254-1.2382 0.43392-0.70908 0.16933-1.7039 0.16933zm5.8525 2.4024-0.30692-0.80433q1.0266-0.33866 1.5981-0.80433 0.58208-0.46566 0.81491-0.97366 0.24342-0.51858 0.24342-1.0054 0-0.51858-0.23283-1.0477-0.22225-0.53975-0.49742-1.016l0.77258-0.39158q0.29633 0.56092 0.49742 1.0795 0.21167 0.51858 0.32808 0.91016 0.14817 0.45508 0.381 0.62442 0.24342 0.15875 0.65616 0.15875 0.22225 0 0.3175 0.127 0.10583 0.11642 0.10583 0.28575 0 0.16933-0.14817 0.3175-0.14817 0.13758-0.381 0.13758-0.40217 0-0.67733-0.127-0.26458-0.127-0.43392-0.33867-0.10583 0.59266-0.4445 1.0795-0.33867 0.48683-0.79375 0.84666-0.45508 0.37042-0.93133 0.60325-0.47625 0.23283-0.86783 0.33866zm4.1487-2.4024 0.10583-0.86783q0.29633 0 0.49742-0.127t0.39158-0.42333 0.41275-0.79375q0.30692-0.67733 0.60325-1.0266 0.30692-0.34925 0.60325-0.47625 0.30692-0.127 0.60325-0.127 0.35983 0 0.66675 0.1905 0.30692 0.17992 0.53975 0.48683 0.23283 0.30692 0.35983 0.67733 0.13758 0.35983 0.13758 0.71966 0 0.635-0.22225 1.016-0.22225 0.37042-0.5715 0.53975-0.33867 0.15875-0.70908 0.15875-0.30692 0-0.78316-0.10583-0.46566-0.10583-1.1747-0.55033-0.33866 0.48683-0.67733 0.60325-0.33867 0.10583-0.78316 0.10583zm1.9791-1.651q-0.0635 0.13758-0.11642 0.26458 0.45508 0.26458 0.8255 0.37042 0.381 0.09525 0.635 0.09525 0.45508 0 0.64558-0.20108 0.1905-0.20108 0.1905-0.52916 0-0.30692-0.14817-0.61383-0.14817-0.30692-0.381-0.508-0.22225-0.20108-0.47625-0.20108-0.1905 0-0.37042 0.10583t-0.37042 0.39158q-0.1905 0.28575-0.43392 0.8255z"/>
</g>
</svg>
