<svg width="80.147mm" height="10.647mm" version="1.1" viewBox="0 0 80.147 10.647" xmlns="http://www.w3.org/2000/svg">
<g stroke-width=".26458" aria-label=" Բարեւ աշխարհ">
<style> @keyframes animate { 0% { filter: hue-rotate(360deg);} 100% { filter: hue-rotate(0deg);} } path {fill: url(#grad);animation: animate linear 5s infinite ;} </style> <linearGradient id="grad"> <stop offset="0%" stop-color="cyan" /> <stop offset="50%" stop-color="magenta" /> <stop offset="100%" stop-color="yellow" /> </linearGradient>
<path d="m79.068 8.1491v-1.5875q0-1.4605-1.2382-1.4605-0.49742 0-0.87841 0.24342-0.37042 0.24342-0.56092 0.80433l-0.889-0.15875v-0.77258q0-1.7039 0.40216-2.8575 0.41275-1.1642 1.0901-1.7568 0.68791-0.60325 1.5028-0.60325 0.52916 0 0.92075 0.15875 0.39158 0.15875 0.73025 0.48683l-0.56092 0.61383q-0.23283-0.24342-0.49742-0.35983-0.26458-0.127-0.59266-0.127-0.52916 0-1.0054 0.49742-0.46566 0.48683-0.762 1.4499-0.28575 0.9525-0.28575 2.3601l0.04233 0.01058q0.23283-0.32808 0.62441-0.53975 0.39158-0.22225 0.98425-0.22225 0.91016 0 1.4076 0.52916 0.508 0.52916 0.508 1.5346v1.7568zm-9.6202 2.4977v-7.7046h0.74083l0.11642 0.92075h0.05292q0.21167-0.42333 0.635-0.71966 0.43392-0.30692 1.1007-0.30692 0.87841 0 1.3758 0.49742 0.49742 0.49742 0.49742 1.4922v3.3232h-0.94191v-3.1432q0-0.71966-0.3175-1.0583-0.30692-0.33867-0.83608-0.33867-0.66675 0-1.0795 0.49742-0.40216 0.48683-0.40216 1.4922v5.0482zm-7.9586-2.4024q-0.83608 0-1.3335-0.47625-0.49742-0.47625-0.49742-1.4287v-3.3972h0.94191v3.2173q0 0.66675 0.30692 0.99483 0.3175 0.3175 0.80433 0.3175 0.65616 0 1.0477-0.45508 0.40216-0.45508 0.40216-1.4182v-2.6564h0.94191v3.2173q0 0.66675 0.30692 0.99483 0.3175 0.3175 0.80433 0.3175 0.62442 0 1.0266-0.45508 0.41275-0.45508 0.41275-1.4182v-2.6564h0.94191v5.207h-0.73025l-0.127-0.84666h-0.05292q-0.1905 0.37042-0.60325 0.65616-0.40217 0.28575-1.0901 0.28575-0.58208 0-1.016-0.24342t-0.62442-0.73025h-0.05292q-0.20108 0.42333-0.68792 0.6985-0.48683 0.27517-1.1218 0.27517zm-4.5826-5.3022h0.9525v5.207h-0.74083l-0.127-0.92075h-0.05292q-0.20108 0.42333-0.61383 0.73025-0.41275 0.29633-1.0795 0.29633-0.84666 0-1.3441-0.49742-0.49742-0.508-0.49742-1.4922v-1.2594q0-0.71966-0.29633-1.0583-0.29633-0.33867-0.81491-0.33867-0.65616 0-1.016 0.49742-0.35983 0.48683-0.35983 1.4922v5.0482h-0.94191v-10.541h0.94191v2.8363q0 0.23283-0.02117 0.45508-0.01058 0.22225-0.03175 0.46567h0.05292q0.1905-0.43392 0.5715-0.73025 0.381-0.29633 1.0372-0.29633 0.86783 0 1.3441 0.49742 0.47625 0.49742 0.47625 1.4922v1.2594q0 0.70908 0.30692 1.0583 0.30692 0.33867 0.81491 0.33867 0.66675 0 1.0477-0.49742 0.39158-0.508 0.39158-1.5028zm-8.2126 7.7046h-3.0692q-0.40216 0-0.56092-0.14817-0.15875-0.14817-0.15875-0.43392 0-0.1905 0.09525-0.40216 0.09525-0.20108 0.34925-0.52916l1.5028-1.9262q0.42333-0.53975 0.66675-1.0583 0.254-0.51858 0.254-1.1747 0-0.67733-0.3175-1.016-0.30692-0.34925-0.889-0.34925-0.39158 0-0.762 0.08467-0.35983 0.08467-0.74083 0.28575l-0.23283-0.71966q0.40216-0.21167 0.83608-0.3175 0.4445-0.10583 1.0054-0.10583 0.97366 0 1.5134 0.56092 0.55033 0.56092 0.55033 1.5028 0 0.80433-0.32808 1.4499-0.32808 0.635-0.83608 1.27l-1.2171 1.524q-0.28575 0.34925-0.28575 0.55033 0 0.10583 0.05292 0.15875 0.0635 0.05292 0.23283 0.05292h2.3389zm-11.06-2.4024q-0.83608 0-1.3335-0.47625-0.49742-0.47625-0.49742-1.4287v-3.3972h0.94191v3.2173q0 0.66675 0.30692 0.99483 0.3175 0.3175 0.80433 0.3175 0.65616 0 1.0477-0.45508 0.40217-0.45508 0.40217-1.4182v-2.6564h0.94191v3.2173q0 0.66675 0.30692 0.99483 0.3175 0.3175 0.80433 0.3175 0.62441 0 1.0266-0.45508 0.41275-0.45508 0.41275-1.4182v-2.6564h0.94191v5.207h-0.73025l-0.127-0.84666h-0.05292q-0.1905 0.37042-0.60325 0.65616-0.40216 0.28575-1.0901 0.28575-0.58208 0-1.016-0.24342-0.43392-0.24342-0.62442-0.73025h-0.05292q-0.20108 0.42333-0.68791 0.6985t-1.1218 0.27517zm-7.9269-0.09525v-5.207h0.94191v4.4662h1.3864v0.74083zm-1.8521-3.3549v3.3549h-0.74083l-0.11642-0.92075h-0.05292q-0.20108 0.42333-0.635 0.73025-0.43392 0.29633-1.1007 0.29633-0.86783 0-1.3758-0.49742-0.49742-0.508-0.49742-1.4922v-6.1595h0.94191v2.8363h3.7888v0.74083h-3.7888v2.4024q0 0.70908 0.3175 1.0583 0.3175 0.33867 0.83608 0.33867 0.66675 0 1.0689-0.49742 0.41275-0.508 0.41275-1.5028v-0.68791zm-10.784 5.8526v-7.7046h0.74083l0.11642 0.92075h0.05292q0.21167-0.42333 0.635-0.71966 0.43392-0.30692 1.1007-0.30692 0.87841 0 1.3758 0.49742 0.49742 0.49742 0.49742 1.4922v3.3232h-0.94191v-3.1432q0-0.71966-0.3175-1.0583-0.30692-0.33867-0.83608-0.33867-0.66675 0-1.0795 0.49742-0.40216 0.48683-0.40216 1.4922v5.0482zm-7.9586-2.4024q-0.83608 0-1.3335-0.47625-0.49742-0.47625-0.49742-1.4287v-3.3972h0.94191v3.2173q0 0.66675 0.30692 0.99483 0.3175 0.3175 0.80433 0.3175 0.65616 0 1.0477-0.45508 0.40217-0.45508 0.40217-1.4182v-2.6564h0.94191v3.2173q0 0.66675 0.30692 0.99483 0.3175 0.3175 0.80433 0.3175 0.62442 0 1.0266-0.45508 0.41275-0.45508 0.41275-1.4182v-2.6564h0.94191v5.207h-0.73025l-0.127-0.84666h-0.05292q-0.1905 0.37042-0.60325 0.65616-0.40216 0.28575-1.0901 0.28575-0.58208 0-1.016-0.24342t-0.62442-0.73025h-0.05292q-0.20108 0.42333-0.68792 0.6985t-1.1218 0.27517zm-9.1122-0.09525v-4.8895q0-1.2912 0.74083-2.032t2.1167-0.74083q1.4182 0 2.1061 0.75141 0.6985 0.75141 0.6985 2.2013h-0.9525q0-1.1007-0.45508-1.6192-0.45508-0.52916-1.4287-0.52916-1.8732 0-1.8732 2.0637v1.1853h4.7413v0.80433h-4.7413v2.8046z"/>
</g>
</svg>
