<svg width="97.504mm" height="10.202mm" version="1.1" viewBox="0 0 97.504 10.202" xmlns="http://www.w3.org/2000/svg">
<g stroke-width=".26458" aria-label=" Прывітанне Сусвет">
<style> @keyframes animate { 0% { filter: hue-rotate(360deg);} 100% { filter: hue-rotate(0deg);} } path {fill: url(#grad);animation: animate linear 5s infinite ;} </style> <linearGradient id="grad"> <stop offset="0%" stop-color="cyan" /> <stop offset="50%" stop-color="magenta" /> <stop offset="100%" stop-color="yellow" /> </linearGradient>
<path d="m97.504 2.7728h-1.8521v4.8895h-0.92075v-4.8895h-1.8309v-0.78316h4.6037zm-7.694-0.889q0.73025 0 1.2488 0.3175 0.52917 0.3175 0.80433 0.89958 0.28575 0.5715 0.28575 1.3441v0.56092h-3.8841q0.02117 0.96308 0.48683 1.4711 0.47625 0.49742 1.3229 0.49742 0.53974 0 0.95249-0.09525 0.42333-0.10583 0.86783-0.29633v0.81491q-0.43391 0.1905-0.85724 0.27517-0.42334 0.09525-1.0054 0.09525-0.80433 0-1.4287-0.32808-0.61383-0.32808-0.96308-0.97366-0.33866-0.65616-0.33866-1.5981 0-0.93133 0.30692-1.5981 0.3175-0.66675 0.87841-1.0266 0.5715-0.35983 1.3229-0.35983zm-0.0106 0.762q-0.66675 0-1.0583 0.43392-0.381 0.42333-0.45508 1.1853h2.8892q-0.0106-0.71966-0.33867-1.1642-0.32808-0.45508-1.0372-0.45508zm-3.7147 0.77258q0 0.52916-0.3175 0.8255t-0.81491 0.40216v0.04233q0.52916 0.07408 0.92075 0.381 0.39158 0.29633 0.39158 0.93133 0 0.71966-0.53975 1.1959-0.52916 0.46566-1.7568 0.46566h-2.4447v-5.6726h2.4342q0.60325 0 1.0795 0.13758 0.48683 0.127 0.762 0.4445 0.28575 0.30692 0.28575 0.84666zm-0.94191 0.11642q0-0.40217-0.29633-0.58208-0.28575-0.1905-0.94191-0.1905h-1.4499v1.5557h1.2806q1.4076 0 1.4076-0.78316zm0.15875 2.4659q0-0.48683-0.37042-0.6985-0.37042-0.21167-1.0901-0.21167h-1.3864v1.8203h1.4076q0.6985 0 1.0689-0.20108 0.37042-0.21167 0.37042-0.70908zm-6.5828 1.7674q-0.75141 0-1.3441-0.30692-0.58208-0.30692-0.92075-0.9525-0.32808-0.64558-0.32808-1.651 0-1.0477 0.34925-1.7039 0.34925-0.65616 0.94191-0.96308 0.60325-0.30692 1.3652-0.30692 0.43392 0 0.83608 0.09525 0.40216 0.08467 0.65616 0.21167l-0.28575 0.77258q-0.254-0.09525-0.59266-0.17992-0.33867-0.08467-0.635-0.08467-1.6722 0-1.6722 2.1484 0 1.0266 0.40217 1.5769 0.41275 0.53975 1.2171 0.53975 0.46566 0 0.81491-0.09525 0.35983-0.09525 0.65616-0.23283v0.8255q-0.28575 0.14817-0.635 0.22225-0.33867 0.08467-0.8255 0.08467zm-8.5619-5.7785h0.99483l1.2277 3.2279q0.15875 0.42333 0.28575 0.81491 0.127 0.381 0.1905 0.73025h0.04233q0.0635-0.26458 0.20108-0.68791 0.13758-0.43392 0.28575-0.86783l1.1536-3.2173h1.0054l-2.4447 6.4558q-0.29633 0.80433-0.77258 1.2806-0.46566 0.47625-1.2912 0.47625-0.254 0-0.4445-0.03175-0.1905-0.02117-0.32808-0.05292v-0.74083q0.11642 0.02117 0.27517 0.04233 0.16933 0.02117 0.34925 0.02117 0.48683 0 0.78316-0.27517 0.30692-0.27517 0.47625-0.73025l0.29633-0.75142zm-2.4342-1.1536q-1.2171 0-1.9156 0.81491-0.6985 0.81491-0.6985 2.2331 0 1.4076 0.64558 2.2331 0.65616 0.81491 1.9579 0.81491 0.49742 0 0.94191-0.08467 0.4445-0.08467 0.86783-0.21167v0.8255q-0.42333 0.15875-0.87841 0.23283-0.4445 0.07408-1.0689 0.07408-1.1536 0-1.9262-0.47625-0.77258-0.47625-1.1642-1.3547-0.381-0.87841-0.381-2.0637 0-1.143 0.41275-2.0108 0.42333-0.87841 1.2382-1.3652 0.81491-0.49742 1.9791-0.49742 1.1959 0 2.0849 0.4445l-0.381 0.80434q-0.34925-0.15875-0.78316-0.28575-0.42333-0.127-0.93133-0.127zm-9.8954 1.0477q0.73025 0 1.2488 0.3175 0.52916 0.3175 0.80433 0.89958 0.28575 0.5715 0.28575 1.3441v0.56092h-3.8841q0.02117 0.96308 0.48683 1.4711 0.47625 0.49742 1.3229 0.49742 0.53975 0 0.9525-0.09525 0.42333-0.10583 0.86783-0.29633v0.81491q-0.43392 0.1905-0.85725 0.27517-0.42333 0.09525-1.0054 0.09525-0.80433 0-1.4287-0.32808-0.61383-0.32808-0.96308-0.97366-0.33866-0.65616-0.33866-1.5981 0-0.93133 0.30692-1.5981 0.3175-0.66675 0.87841-1.0266 0.5715-0.35983 1.3229-0.35983zm-0.01058 0.762q-0.66675 0-1.0583 0.43392-0.381 0.42333-0.45508 1.1853h2.8892q-0.01058-0.71966-0.33866-1.1642-0.32808-0.45508-1.0372-0.45508zm-7.9904-0.65616v2.3601h3.0797v-2.3601h0.93133v5.6726h-0.93133v-2.5294h-3.0797v2.5294h-0.93133v-5.6726zm-6.7416 0v2.3601h3.0797v-2.3601h0.93133v5.6726h-0.93133v-2.5294h-3.0797v2.5294h-0.93133v-5.6726zm-4.7201-0.09525q1.0372 0 1.5346 0.45508 0.49742 0.45508 0.49742 1.4499v3.8629h-0.67733l-0.17992-0.80433h-0.04233q-0.37042 0.46566-0.78316 0.68791-0.40216 0.22225-1.1218 0.22225-0.77258 0-1.2806-0.40217-0.508-0.41275-0.508-1.2806 0-0.84666 0.66675-1.3017 0.66675-0.46566 2.0532-0.508l0.96308-0.03175v-0.33867q0-0.70908-0.30692-0.98425-0.30692-0.27517-0.86783-0.27517-0.4445 0-0.84666 0.13758-0.40217 0.127-0.75142 0.29633l-0.28575-0.6985q0.37042-0.20108 0.87841-0.33866 0.508-0.14817 1.0583-0.14817zm1.1112 2.9951-0.83608 0.03175q-1.0583 0.04233-1.4711 0.33867-0.40216 0.29633-0.40216 0.83608 0 0.47625 0.28575 0.6985 0.29633 0.22225 0.75141 0.22225 0.71966 0 1.1959-0.39158 0.47625-0.40216 0.47625-1.2277zm-4.3815-2.1167h-1.8521v4.8895h-0.92075v-4.8895h-1.8309v-0.78316h4.6037zm-5.715 4.8895h-0.93133v-5.6726h0.93133zm-2.4659-4.2439q0 0.52916-0.3175 0.8255t-0.81491 0.40216v0.04233q0.52916 0.07408 0.92075 0.381 0.39158 0.29633 0.39158 0.93133 0 0.71966-0.53975 1.1959-0.52916 0.46566-1.7568 0.46566h-2.4447v-5.6726h2.4342q0.60325 0 1.0795 0.13758 0.48683 0.127 0.762 0.4445 0.28575 0.30692 0.28575 0.84666zm-0.94191 0.11642q0-0.40217-0.29633-0.58208-0.28575-0.1905-0.94191-0.1905h-1.4499v1.5557h1.2806q1.4076 0 1.4076-0.78316zm0.15875 2.4659q0-0.48683-0.37042-0.6985-0.37042-0.21167-1.0901-0.21167h-1.3864v1.8203h1.4076q0.6985 0 1.0689-0.20108 0.37042-0.21167 0.37042-0.70908zm-12.012 1.6616v-5.6726h0.93133v2.3283h1.4711q1.1007 0 1.6298 0.40216 0.52916 0.40217 0.52916 1.2065 0 0.79375-0.51858 1.27-0.51858 0.46566-1.6827 0.46566zm5.5033 0v-5.6726h0.93133v5.6726zm-4.572-0.75142h1.3441q0.60325 0 0.98425-0.20108 0.381-0.21167 0.381-0.73025t-0.34925-0.6985q-0.34925-0.1905-1.0054-0.1905h-1.3547zm-4.7413-5.0271q1.0477 0 1.6827 0.73025 0.64558 0.73025 0.64558 2.2013 0 1.4499-0.64558 2.2013-0.635 0.75142-1.6933 0.75142-0.65616 0-1.0901-0.24342-0.42333-0.254-0.66675-0.58208h-0.0635q0.02117 0.17992 0.04233 0.45508 0.02117 0.27517 0.02117 0.47625v2.3283h-0.93133v-8.2126h0.762l0.127 0.77258h0.04233q0.254-0.37042 0.66675-0.62442 0.41275-0.254 1.1007-0.254zm-0.16933 0.78316q-0.86783 0-1.2277 0.48683-0.34925 0.48683-0.37042 1.4817v0.17992q0 1.0477 0.33867 1.6192 0.34925 0.56092 1.2806 0.56092 0.51858 0 0.84666-0.28575 0.33867-0.28575 0.49742-0.77258 0.16933-0.49742 0.16933-1.1324 0-0.97366-0.381-1.5557-0.37042-0.58208-1.1536-0.58208zm-10.139 4.9953v-7.5565h5.6726v7.5565h-0.94191v-6.7204h-3.7782v6.7204z"/>
</g>
</svg>
