<svg width="35.983mm" height="10.372mm" version="1.1" viewBox="0 0 35.983 10.372" xmlns="http://www.w3.org/2000/svg">
<g stroke-width=".26458" aria-label=" ওহে বিশ্ব">
<style> @keyframes animate { 0% { filter: hue-rotate(360deg);} 100% { filter: hue-rotate(0deg);} } path {fill: url(#grad);animation: animate linear 5s infinite ;} </style> <linearGradient id="grad"> <stop offset="0%" stop-color="cyan" /> <stop offset="50%" stop-color="magenta" /> <stop offset="100%" stop-color="yellow" /> </linearGradient>
<path d="m29.474 3.048q0.48683 0 0.92075 0.22225 0.4445 0.22225 0.65616 0.70908 0.1905-0.47625 0.58208-0.6985 0.39158-0.23283 0.84666-0.23283 0.508 0 0.91016 0.23283 0.41275 0.23283 0.6985 0.635-0.02117-0.13758-0.03175-0.28575 0-0.15875 0-0.34925v-0.85725h0.56092l0.254 0.6985h1.1112v0.75141h-1.1112v6.2865h-0.81491q-0.59266-0.61383-1.2382-0.889-0.64558-0.28575-1.4076-0.41275l-0.381-0.84666q0.39158-0.23283 0.91016-0.48683 0.51858-0.26458 1.0689-0.508 0.56092-0.24342 1.0477-0.40216v-1.6192q-0.30692-0.56092-0.6985-0.86783t-0.85725-0.30692q-0.41275 0-0.66675 0.23283-0.254 0.22225-0.254 0.66675 0 0.42333 0.33866 0.6985 0.34925 0.26458 1.1112 0.29633l-0.0635 0.81491q-0.75141-0.04233-1.2171-0.3175-0.45508-0.27517-0.65616-0.71966-0.1905 0.4445-0.64558 0.74083-0.45508 0.29633-1.2171 0.29633l-0.0635-0.81491q0.53975-0.01058 0.84666-0.14817 0.30692-0.14817 0.43392-0.37042 0.127-0.22225 0.127-0.4445 0-0.43392-0.27517-0.67733-0.27516-0.254-0.83608-0.254-0.34925 0-0.81491 0.11642l-0.08467-0.79375q0.26458-0.05292 0.46566-0.07408 0.20108-0.02117 0.4445-0.02117zm4.5826 4.3286q-0.3175 0.11642-0.68792 0.27517-0.37042 0.15875-0.73025 0.32808-0.35983 0.16933-0.62442 0.3175 0.58208 0.13758 1.0901 0.37042 0.51858 0.22225 0.98425 0.635-0.01058-0.17992-0.02117-0.40217-0.01058-0.23283-0.01058-0.37042zm-5.2916-4.2545v0.75141h-1.1112v5.8314h-0.81492q-0.3175-0.635-0.87841-1.1642-0.55033-0.53975-1.27-0.91016-0.71966-0.37042-1.5346-0.49742l-0.41275-1.016q0.96308-0.58208 1.9791-1.0583 1.0266-0.47625 2.1167-0.8255v-0.35983h-4.5932v-0.75141zm-5.0377 3.3655q0.53975 0.11642 1.143 0.40216 0.60325 0.27517 1.1324 0.6985 0.53975 0.42333 0.86783 0.97366-0.01058-0.1905-0.02117-0.39158-0.01058-0.20108-0.01058-0.46567v-2.6458q-0.762 0.26458-1.5875 0.635-0.8255 0.35983-1.524 0.79375zm-1.27-3.3655v0.75141h-1.1112v5.8314h-0.81491v-5.8314h-1.1007v-0.75141h0.97366q-0.16933-0.20108-0.34925-0.42333-0.16933-0.22225-0.30692-0.4445 0.35983-0.62442 0.77258-1.1324 0.41275-0.51858 0.97366-0.81491 0.56092-0.30692 1.3547-0.30692 0.75141 0 1.4182 0.24342t1.3335 0.68792q0.66675 0.43392 1.397 1.0372l-0.4445 0.5715q-0.73025-0.59266-1.3229-0.98425-0.58208-0.39158-1.1218-0.58208-0.52916-0.20108-1.1324-0.20108-0.87841 0-1.4076 0.4445-0.52916 0.4445-0.91016 1.1536 0.08467 0.15875 0.23283 0.34925 0.14817 0.1905 0.33867 0.40217zm-5.5668 0v0.75141h-3.4819q0.27517 0.22225 0.381 0.53975 0.81491 0.01058 1.3123 0.29633 0.508 0.28575 0.74083 0.70908 0.24342 0.41275 0.24342 0.84666 0 0.79375-0.51858 1.2912-0.51858 0.49742-1.524 0.62442 0.66675 0.23283 1.4076 0.66675 0.75141 0.42333 1.4393 0.96308l-0.48683 0.56092q-0.65616-0.48683-1.2065-0.83608-0.53975-0.35983-1.0689-0.62441-0.52916-0.26458-1.1218-0.46567-0.59266-0.20108-1.3441-0.37042l0.15875-0.73025q0.37042 0.10583 0.70908 0.15875 0.34925 0.04233 0.83608 0.04233 0.75141 0 1.1536-0.17992 0.41275-0.17992 0.5715-0.46566 0.15875-0.28575 0.15875-0.58208 0-0.56092-0.41275-0.85725-0.41275-0.30692-1.0477-0.30692-0.58208 0-0.81491 0.16933-0.23283 0.15875-0.23283 0.46566 0 0.08467 0.02117 0.17992 0.02117 0.08467 0.04233 0.15875l-0.77258 0.15875q-0.11642-0.32808-0.11642-0.64558 0-0.43392 0.27517-0.71966t0.75141-0.41275q-0.09525-0.21167-0.29633-0.37042-0.1905-0.16933-0.49742-0.26458h-1.0795v-0.75141zm-5.6091 0v0.75141h-0.21167q-0.32808 0.07408-0.70908 0.32808-0.381 0.24342-0.71966 0.64558-0.33866 0.39158-0.56092 0.92075-0.21167 0.52916-0.21167 1.1642 0 0.762 0.22225 1.2171 0.23283 0.4445 0.5715 0.635 0.33866 0.1905 0.67733 0.1905 0.26458 0 0.4445-0.05292 0.17992-0.05292 0.41275-0.1905l0.37042 0.64559q-0.27517 0.21167-0.60325 0.29633-0.32808 0.08467-0.65616 0.08467-0.66675 0-1.1853-0.34925-0.508-0.34925-0.80433-0.97366-0.28575-0.635-0.28575-1.4817 0-1.0477 0.46566-1.8521 0.47625-0.80433 1.2171-1.2594-0.17992 0.02117-0.381 0.03175-0.20108 0-0.4445 0h-1.4817v-0.75142zm-4.3709 4.2016q0 0.87841-0.65616 1.4076-0.64558 0.52916-1.7568 0.52916-0.99483 0-1.8415-0.47625-0.84666-0.48683-1.5134-1.5663-0.66675-1.0901-1.143-2.8787l0.79375-0.23283q0.42333 1.5134 0.94191 2.4765 0.52916 0.96308 1.2065 1.4182 0.68792 0.45508 1.5769 0.45508 0.66675 0 1.1007-0.27517 0.43392-0.28575 0.43392-0.889 0-0.28575-0.13758-0.508-0.13758-0.23283-0.37042-0.40216-0.33867 0.17992-0.762 0.33867l-0.32808-0.762q0.70908-0.23283 1.1007-0.53975 0.40217-0.3175 0.40217-0.81491 0-0.80433-0.86783-0.80433-0.508 0-0.94191 0.22225-0.42333 0.21167-0.68791 0.508-0.254 0.28575-0.254 0.52916 0 0.16933 0.10583 0.29633 0.10583 0.11642 0.47625 0.16933l-0.22225 0.78316q-0.60325-0.11642-0.91016-0.41275-0.29633-0.29633-0.29633-0.75141 0-0.35983 0.21167-0.71966 0.22225-0.37042 0.60325-0.67733 0.381-0.3175 0.86783-0.508 0.49742-0.1905 1.0477-0.1905 0.81491 0 1.2594 0.41275 0.45508 0.41275 0.45508 1.1324 0 0.40217-0.16933 0.73025-0.15875 0.32808-0.4445 0.59266 0.71966 0.52916 0.71966 1.4076z"/>
</g>
</svg>
