<svg width="110.45mm" height="10.253mm" version="1.1" viewBox="0 0 110.45 10.253" xmlns="http://www.w3.org/2000/svg">
<g stroke-width=".26458" aria-label=" Moni Dziko Lapansi">
<style> @keyframes animate { 0% { filter: hue-rotate(360deg);} 100% { filter: hue-rotate(0deg);} } path {fill: url(#grad);animation: animate linear 5s infinite ;} </style> <linearGradient id="grad"> <stop offset="0%" stop-color="cyan" /> <stop offset="50%" stop-color="magenta" /> <stop offset="100%" stop-color="yellow" /> </linearGradient>
<path d="m108.16 1.5296q-0.2067 0-0.3824-0.10335t-0.27905-0.27905q-0.10336-0.1757-0.10336-0.3824 0-0.20671 0.10336-0.3824 0.10335-0.1757 0.27905-0.27905 0.1757-0.10335 0.3824-0.10335 0.20671 0 0.38241 0.10335 0.1757 0.10335 0.27905 0.27905t0.10335 0.3824q0 0.20671-0.10335 0.3824-0.10335 0.1757-0.27905 0.27905t-0.38241 0.10335zm0.60978 5.4467h1.6846v0.89917h-4.8679v-0.89917h2.0877v-3.669h-1.7777v-0.9095h2.8732zm-7.5344 1.0025q-0.63045 0-1.0749-0.036173-0.43925-0.036173-0.79581-0.11886l0.12402-0.99218q1.0542 0.16536 1.7467 0.16536 0.82682 0 1.2041-0.1602 0.37723-0.16536 0.37723-0.52193 0-0.23771-0.12919-0.36173-0.12402-0.12402-0.40824-0.19637l-1.2609-0.32039q-0.5271-0.13436-0.84233-0.31006-0.31522-0.1757-0.47025-0.44442-0.15503-0.27388-0.15503-0.68213 0-0.60461 0.28939-0.97668 0.29455-0.37724 0.9095-0.55294 0.62012-0.1757 1.6123-0.1757 0.75447 0 1.4469 0.10335l-0.11369 0.95084q-0.78031-0.072347-1.3642-0.072347-0.86817 0-1.2557 0.1602-0.38757 0.15503-0.38757 0.5116 0 0.22738 0.13436 0.34106t0.45475 0.19637l1.0128 0.24805q0.58911 0.14469 0.95085 0.34106 0.36173 0.19637 0.53743 0.49092 0.1757 0.29455 0.1757 0.72864 0 0.59428-0.28422 0.96635-0.28422 0.3669-0.88366 0.5426-0.59428 0.1757-1.5503 0.1757zm-5.364-5.6844q0.86816 0 1.3436 0.5271 0.47542 0.5271 0.47542 1.4883v3.5657h-1.0955v-3.5657q0-0.51676-0.25838-0.80098-0.25838-0.28422-0.72347-0.28422-1.2919 0-1.2919 1.571v3.0799h-1.0955v-5.4777h0.99218l0.08785 0.99218h0.11886q0.04651-0.55294 0.40308-0.82165 0.35657-0.27388 1.0439-0.27388zm-3.731 4.7025v0.8785l-1.757 0.051676-0.05168-1.2092h-0.10852q-0.05684 0.62012-0.5271 0.94051-0.46509 0.32039-1.2454 0.32039-0.85783 0-1.3281-0.40824-0.47025-0.41341-0.47025-1.1731 0-0.86816 0.63045-1.3332 0.63562-0.46509 1.7983-0.46509 0.63045 0 1.0852 0.12919v-0.29455q0-0.5581-0.3824-0.83199-0.37724-0.27388-1.1472-0.31523l-1.3126-0.062011 0.10335-0.93017 1.1059 0.041341q1.3539 0.051676 2.0154 0.61495 0.66146 0.56327 0.66146 1.6485v2.2841zm-3.514 0.10335q0.48576 0 0.83199-0.17053 0.3514-0.17053 0.5271-0.44442 0.18087-0.27388 0.18087-0.57361v-0.33073q-0.25838-0.067179-0.51676-0.082682-0.25321-0.020671-0.64078-0.020671-0.65112 0-0.98702 0.20671-0.3359 0.2067-0.3359 0.60978 0 0.39791 0.23771 0.60461 0.23771 0.20154 0.7028 0.20154zm-5.1573-4.8059q0.69246 0 1.1834 0.34106 0.49609 0.3359 0.74931 0.98702 0.25838 0.65112 0.25838 1.5658 0 0.894-0.25838 1.5193-0.25321 0.62528-0.74414 0.95084-0.48576 0.32039-1.1782 0.32039-0.63045 0-1.018-0.24288-0.38757-0.24288-0.43925-0.70796h-0.10335v3.2246h-1.0955v-7.8548h0.99218l0.08785 0.99218h0.11886q0.07235-0.55294 0.42891-0.82165 0.36173-0.27388 1.018-0.27388zm-0.16536 4.7542q0.63045 0 0.95084-0.47025 0.32039-0.47025 0.32039-1.3901 0-0.94051-0.33073-1.4521-0.32556-0.5116-0.93017-0.5116-1.3953 0-1.3953 1.571v1.3229q0 0.93017 1.3849 0.93017zm-3.5657-0.051676v0.8785l-1.757 0.051676-0.05168-1.2092h-0.10852q-0.05684 0.62012-0.5271 0.94051-0.46509 0.32039-1.2454 0.32039-0.85783 0-1.3281-0.40824-0.47025-0.41341-0.47025-1.1731 0-0.86816 0.63045-1.3332 0.63562-0.46509 1.7983-0.46509 0.63045 0 1.0852 0.12919v-0.29455q0-0.5581-0.3824-0.83199-0.37724-0.27388-1.1472-0.31523l-1.3126-0.062011 0.10335-0.93017 1.1059 0.041341q1.3539 0.051676 2.0154 0.61495 0.66146 0.56327 0.66146 1.6485v2.2841zm-3.514 0.10335q0.48576 0 0.83199-0.17053 0.3514-0.17053 0.5271-0.44442 0.18087-0.27388 0.18087-0.57361v-0.33073q-0.25838-0.067179-0.51676-0.082682-0.25321-0.020671-0.64079-0.020671-0.65112 0-0.98702 0.20671-0.3359 0.2067-0.3359 0.60978 0 0.39791 0.23771 0.60461 0.23771 0.20154 0.7028 0.20154zm-2.9869-0.20671v0.98185h-4.8576v-7.338h1.0335v6.3562zm-14.986 1.0852q-0.75447 0-1.2971-0.33073-0.53743-0.3359-0.82165-0.97151-0.27905-0.64079-0.27905-1.54 0-0.89917 0.27905-1.5348 0.28422-0.64079 0.82165-0.97151 0.5426-0.3359 1.2971-0.3359 0.75447 0 1.2919 0.3359 0.5426 0.33073 0.82165 0.97151 0.28422 0.63562 0.28422 1.5348 0 0.89917-0.28422 1.54-0.27905 0.63562-0.82165 0.97151-0.53743 0.33073-1.2919 0.33073zm0-0.98185q0.60461 0 0.93017-0.48059 0.33073-0.48576 0.33073-1.3798t-0.33073-1.3746q-0.32556-0.48576-0.93017-0.48576t-0.93534 0.48576q-0.32556 0.48059-0.32556 1.3746t0.32556 1.3798q0.33073 0.48059 0.93534 0.48059zm-4.7646 0.8785-1.3177-2.2531q-0.36173 0.072347-0.73897 0.072347h-0.5581v2.1807h-1.0955v-7.7514h1.0955v4.5889h0.29972q0.69246 0 1.1265-0.22738 0.43408-0.22738 0.68213-0.72864 0.25321-0.50126 0.37207-1.3591h1.1369q-0.26355 1.9895-1.2971 2.7698l1.6485 2.7078zm-7.338-6.3458q-0.2067 0-0.3824-0.10335-0.1757-0.10335-0.27905-0.27905-0.10335-0.1757-0.10335-0.3824 0-0.20671 0.10335-0.3824 0.10335-0.1757 0.27905-0.27905 0.1757-0.10335 0.3824-0.10335t0.3824 0.10335q0.1757 0.10335 0.27905 0.27905 0.10335 0.1757 0.10335 0.3824 0 0.20671-0.10335 0.3824-0.10335 0.1757-0.27905 0.27905t-0.3824 0.10335zm0.60978 5.4467h1.6846v0.89917h-4.8679v-0.89917h2.0877v-3.669h-1.7777v-0.9095h2.8732zm-8.0667-0.010335h3.2091v0.9095h-4.5268v-0.9095l3.1884-3.6587h-3.1884v-0.9095h4.4235v0.9095zm-5.7412-6.4285q1.6846 0 2.5218 0.96635 0.83716 0.96635 0.83716 2.9094 0 1.7363-0.83716 2.5993-0.83716 0.86299-2.5218 0.86299h-1.7777v-7.338zm0 6.3562q1.1317 0 1.7002-0.64595 0.57361-0.64595 0.57361-1.9379 0-2.7905-2.2738-2.7905h-0.74414v5.3743zm-11.606-5.364q-0.2067 0-0.3824-0.10335t-0.27905-0.27905q-0.10335-0.1757-0.10335-0.3824 0-0.20671 0.10335-0.3824 0.10335-0.1757 0.27905-0.27905 0.1757-0.10335 0.3824-0.10335t0.3824 0.10335q0.1757 0.10335 0.27905 0.27905 0.10335 0.1757 0.10335 0.3824 0 0.20671-0.10335 0.3824-0.10335 0.1757-0.27905 0.27905-0.1757 0.10335-0.3824 0.10335zm0.60978 5.4467h1.6846v0.89917h-4.8679v-0.89917h2.0877v-3.669h-1.7777v-0.9095h2.8732zm-6.6972-4.6819q0.86816 0 1.3436 0.5271 0.47542 0.5271 0.47542 1.4883v3.5657h-1.0955v-3.5657q0-0.51676-0.25838-0.80098-0.25838-0.28422-0.72347-0.28422-1.2919 0-1.2919 1.571v3.0799h-1.0955v-5.4777h0.99218l0.08785 0.99218h0.11886q0.04651-0.55294 0.40308-0.82165 0.35657-0.27388 1.0439-0.27388zm-6.6146 5.6844q-0.75447 0-1.2971-0.33073-0.53743-0.3359-0.82165-0.97151-0.27905-0.64079-0.27905-1.54 0-0.89917 0.27905-1.5348 0.28422-0.64079 0.82165-0.97151 0.5426-0.3359 1.2971-0.3359t1.2919 0.3359q0.5426 0.33073 0.82165 0.97151 0.28422 0.63562 0.28422 1.5348 0 0.89917-0.28422 1.54-0.27905 0.63562-0.82165 0.97151-0.53743 0.33073-1.2919 0.33073zm0-0.98185q0.60461 0 0.93017-0.48059 0.33073-0.48576 0.33073-1.3798t-0.33073-1.3746q-0.32556-0.48576-0.93017-0.48576-0.60461 0-0.93534 0.48576-0.32556 0.48059-0.32556 1.3746t0.32556 1.3798q0.33073 0.48059 0.93534 0.48059zm-3.762-6.4595v7.338h-0.99218v-6.0358h-0.13436l-0.78548 3.0386h-1.0542l-0.78548-3.0386h-0.13436v6.0358h-0.99218v-7.338h1.6123l0.78548 3.1523h0.082682l0.78548-3.1523z"/>
</g>
</svg>
