<svg width="41.677mm" height="9.7261mm" version="1.1" viewBox="0 0 41.677 9.7261" xmlns="http://www.w3.org/2000/svg">
<g stroke-width=".26458" aria-label="你好世界">
<style> @keyframes animate { 0% { filter: hue-rotate(360deg);} 100% { filter: hue-rotate(0deg);} } path {fill: url(#grad);animation: animate linear 5s infinite ;} </style> <linearGradient id="grad"> <stop offset="0%" stop-color="cyan" /> <stop offset="50%" stop-color="magenta" /> <stop offset="100%" stop-color="yellow" /> </linearGradient>
<path d="m34.851 6.5934c0 0.79375-0.1905 1.8203-2.032 2.4977 0.16933 0.15875 0.42333 0.43392 0.53975 0.635 2.0426-0.8255 2.286-2.0955 2.286-3.1009v-0.64558h-0.79375zm-0.84666-3.8417h2.4236v1.143h-2.4236zm0-1.7462h2.4236v1.1218h-2.4236zm5.6409 1.1218h-2.4447v-1.1218h2.4447zm0 1.7674h-2.4447v-1.143h2.4447zm0.80433 0.66675v-4.2227h-7.2178v4.2227h2.1061c-0.80433 0.8255-2.0743 1.5346-3.2914 1.8838 0.17992 0.15875 0.40217 0.4445 0.52916 0.64558 1.3864-0.48683 2.8469-1.4182 3.7147-2.5294h1.1642c0.40217 0.52916 0.94191 1.0054 1.524 1.4182h-0.78316v3.6618h0.80433v-3.6512c0.66675 0.45508 1.4076 0.8255 2.159 1.0583 0.10583-0.20108 0.33867-0.508 0.51858-0.66675-1.2594-0.32808-2.5082-1.0054-3.302-1.8203zm-11.853-1.1747v2.6141h-2.0214v-2.6141zm0.80433 3.3443v-3.3443h1.5769v-0.762h-1.5769v-2.4553h-0.80433v2.4553h-2.0214v-2.5823h-0.77258v2.5823h-1.9262v-2.3389h-0.81491v2.3389h-1.5346v0.762h1.5346v5.588h7.62v-0.77258h-6.8051v-4.8154h1.9262v3.3443zm-15.335-3.8417c-0.14817 1.3547-0.46566 2.4977-0.89958 3.4396-0.39158-0.3175-0.80433-0.61383-1.2171-0.87841 0.22225-0.75141 0.4445-1.6404 0.635-2.5612zm0.33867-0.762-0.127 0.03175h-1.5346c0.14817-0.71966 0.254-1.4499 0.34925-2.1061l-0.77258-0.052916c-0.074083 0.66675-0.20108 1.4182-0.34925 2.159h-1.1112v0.73025h0.97366c-0.23283 1.0689-0.48683 2.1061-0.74083 2.8681 0.55033 0.37042 1.1536 0.80433 1.6933 1.2806-0.55033 0.91016-1.27 1.5769-2.0955 1.9897 0.16933 0.13758 0.39158 0.42333 0.49742 0.62441 0.87841-0.48683 1.6192-1.1747 2.2013-2.0955 0.4445 0.40217 0.83608 0.80433 1.0901 1.143l0.52916-0.64558c-0.28575-0.37042-0.71966-0.79375-1.2277-1.2277 0.5715-1.1747 0.94191-2.6776 1.1112-4.5826zm6.0854 2.3283h-2.3283v-1.016c0.74083-0.64558 1.4922-1.5346 2.0108-2.3177l-0.53975-0.39158-0.17992 0.042333h-4.064v0.73025h3.5242c-0.43392 0.61383-1.0054 1.3017-1.5452 1.7462v1.2065h-2.4447v0.75141h2.4447v3.5137c0 0.14817-0.0635 0.20108-0.23283 0.20108-0.15875 0.010583-0.74083 0.010583-1.3652-0.010583 0.11642 0.22225 0.24342 0.52916 0.29633 0.75141 0.81491 0.010583 1.3229-0.010583 1.651-0.127 0.32808-0.127 0.4445-0.34925 0.4445-0.81491v-3.5137h2.3283zm-17.875-4.4238c-0.59266 1.6087-1.5769 3.1856-2.6141 4.2016 0.14817 0.17992 0.35983 0.58208 0.4445 0.77258 0.35983-0.39158 0.73025-0.8255 1.0689-1.3123v5.9372h0.75141v-7.112c0.41275-0.71966 0.78316-1.4817 1.0901-2.2648zm1.9262 4.4662c-0.28575 1.2488-0.78316 2.5082-1.4499 3.3126 0.1905 0.10583 0.52916 0.30692 0.67733 0.43392 0.64558-0.87841 1.2065-2.2119 1.5452-3.5983zm4.4767-1.7462c-0.084666 0.53975-0.17992 1.1007-0.24342 1.4817l0.65616 0.127c0.13758-0.56091 0.32808-1.4711 0.46567-2.2437l-0.53975-0.127-0.127 0.03175h-4.2862c0.21167-0.58208 0.40217-1.1959 0.56091-1.8097l-0.77258-0.16933c-0.34925 1.5452-0.96308 3.0586-1.7357 4.0322 0.16933 0.11642 0.49742 0.381 0.62441 0.49742 0.381-0.49742 0.73025-1.1218 1.0266-1.8203h1.6087v5.9478c0 0.13758-0.042333 0.17992-0.17992 0.17992-0.13758 0-0.59266 0.010583-1.0901-0.010583 0.10583 0.22225 0.23283 0.5715 0.27517 0.79375 0.66675 0 1.1112-0.021167 1.397-0.15875 0.27517-0.127 0.37042-0.35983 0.37042-0.80433v-5.9478zm-1.2171 1.8944c0.56091 1.1112 1.0901 2.5929 1.2594 3.556l0.75141-0.254c-0.17992-0.96308-0.71966-2.413-1.3229-3.5348z"/>
</g>
</svg>
