<svg width="91.488mm" height="10.356mm" version="1.1" viewBox="0 0 91.488 10.356" xmlns="http://www.w3.org/2000/svg">
<g stroke-width=".26458" aria-label=" Pozdrav svijete">
<style> @keyframes animate { 0% { filter: hue-rotate(360deg);} 100% { filter: hue-rotate(0deg);} } path {fill: url(#grad);animation: animate linear 5s infinite ;} </style> <linearGradient id="grad"> <stop offset="0%" stop-color="cyan" /> <stop offset="50%" stop-color="magenta" /> <stop offset="100%" stop-color="yellow" /> </linearGradient>
<path d="m91.488 4.9196q0 0.37724-0.031 0.7028h-3.7q0.1447 0.68213 0.65112 1.0387 0.50643 0.35657 1.3332 0.35657 0.63562 0 1.3436-0.14469l0.13435 0.96118q-0.75964 0.14469-1.602 0.14469-0.93534 0-1.5916-0.33073-0.65112-0.33073-0.99218-0.96635-0.34107-0.64079-0.34107-1.5555 0-0.88883 0.28939-1.5244 0.28939-0.63562 0.84232-0.97151 0.55811-0.3359 1.3384-0.3359 1.1162 0 1.7208 0.67696t0.60461 1.9482zm-0.99218-0.13436q0-0.7338-0.3514-1.1317-0.34623-0.39791-0.97152-0.39791-0.63561 0-1.0128 0.39791-0.37724 0.39791-0.44442 1.1317zm-5.2296 3.0696q-0.72863 0.12402-1.4366 0.12402-0.83716 0-1.3539-0.22738-0.51676-0.22738-0.75964-0.7028-0.24288-0.47542-0.24288-1.2402v-2.5011h-1.3746v-0.9095h1.3746v-1.6536h1.0955v1.6536h2.4908v0.9095h-2.4908v2.4495q0 0.65629 0.32039 0.95084 0.32039 0.28939 1.0439 0.28939 0.23771 0 0.50642-0.02584 0.27389-0.02584 0.7028-0.07751zm-6.1805-2.9352q0 0.37724-0.03101 0.7028h-3.7q0.14469 0.68213 0.65112 1.0387 0.50643 0.35657 1.3332 0.35657 0.63562 0 1.3436-0.14469l0.13436 0.96118q-0.75964 0.14469-1.602 0.14469-0.93534 0-1.5916-0.33073-0.65112-0.33073-0.99218-0.96635-0.34106-0.64079-0.34106-1.5555 0-0.88883 0.28939-1.5244 0.28939-0.63562 0.84232-0.97151 0.5581-0.3359 1.3384-0.3359 1.1162 0 1.7208 0.67696t0.60461 1.9482zm-0.99218-0.13436q0-0.7338-0.3514-1.1317-0.34623-0.39791-0.97151-0.39791-0.63562 0-1.0129 0.39791-0.37724 0.39791-0.44442 1.1317zm-6.7799-3.2556q-0.2067 0-0.3824-0.10335-0.1757-0.10335-0.27905-0.27905-0.10335-0.1757-0.10335-0.3824t0.10335-0.3824q0.10335-0.1757 0.27905-0.27905 0.1757-0.10335 0.3824-0.10335t0.3824 0.10335q0.1757 0.10335 0.27905 0.27905 0.10335 0.1757 0.10335 0.3824t-0.10335 0.3824q-0.10335 0.1757-0.27905 0.27905-0.1757 0.10335-0.3824 0.10335zm0.66146 5.8601q0 0.97668-0.28939 1.5865t-0.89917 0.925q-0.60461 0.31523-1.5916 0.39274l-0.8785 0.06201-0.05168-0.97151 1.0335-0.09302q0.83199-0.07751 1.2041-0.48576 0.37724-0.40824 0.37724-1.2506v-4.2478h-2.1291v-0.9095h3.2246zm-7.3897-5.8601q-0.2067 0-0.3824-0.10335-0.1757-0.10335-0.27905-0.27905-0.10335-0.1757-0.10335-0.3824t0.10335-0.3824q0.10335-0.1757 0.27905-0.27905 0.1757-0.10335 0.3824-0.10335t0.3824 0.10335q0.1757 0.10335 0.27905 0.27905 0.10335 0.1757 0.10335 0.3824t-0.10335 0.3824q-0.10335 0.1757-0.27905 0.27905-0.1757 0.10335-0.3824 0.10335zm0.60978 5.4467h1.6846v0.89917h-4.8679v-0.89917h2.0877v-3.669h-1.7777v-0.9095h2.8732zm-9.7978-4.5785h1.1679l1.4986 4.6509h0.09302l1.4469-4.6509h1.1679l-1.9327 5.581h-1.4573zm-3.9377 5.581q-0.63045 0-1.0749-0.03617-0.43925-0.03617-0.79582-0.11886l0.12402-0.99218q1.0542 0.16536 1.7467 0.16536 0.82682 0 1.2041-0.1602 0.37724-0.16536 0.37724-0.52193 0-0.23771-0.12919-0.36173-0.12402-0.12402-0.40824-0.19637l-1.2609-0.3204q-0.5271-0.13436-0.84232-0.31006-0.31522-0.1757-0.47025-0.44442-0.15503-0.27388-0.15503-0.68213 0-0.60461 0.28939-0.97668 0.29455-0.37724 0.9095-0.55294 0.62012-0.1757 1.6123-0.1757 0.75447 0 1.4469 0.10335l-0.11369 0.95084q-0.78031-0.07235-1.3643-0.07235-0.86816 0-1.2557 0.1602-0.38757 0.15503-0.38757 0.5116 0 0.22738 0.13436 0.34106 0.13436 0.11369 0.45475 0.19637l1.0129 0.24805q0.58911 0.14469 0.95084 0.34106t0.53743 0.49092q0.1757 0.29455 0.1757 0.72864 0 0.59428-0.28422 0.96635-0.28422 0.3669-0.88366 0.5426-0.59428 0.1757-1.5503 0.1757zm-14.666-5.581h1.1679l1.4986 4.6509h0.09302l1.4469-4.6509h1.1679l-1.9327 5.581h-1.4573zm-0.63045 4.5992v0.8785l-1.757 0.05168-0.05168-1.2092h-0.10852q-0.05684 0.62012-0.5271 0.94051-0.46509 0.32039-1.2454 0.32039-0.85783 0-1.3281-0.40824-0.47025-0.41341-0.47025-1.1731 0-0.86816 0.63045-1.3332 0.63562-0.46509 1.7983-0.46509 0.63045 0 1.0852 0.12919v-0.29456q0-0.5581-0.3824-0.83199-0.37724-0.27388-1.1472-0.31522l-1.3126-0.06201 0.10335-0.93017 1.1059 0.04134q1.3539 0.05168 2.0154 0.61495 0.66146 0.56327 0.66146 1.6485v2.2841zm-3.514 0.10335q0.48576 0 0.83199-0.17053 0.3514-0.17053 0.5271-0.44442 0.18087-0.27388 0.18087-0.57361v-0.33073q-0.25838-0.06718-0.51676-0.08268-0.25321-0.02067-0.64079-0.02067-0.65112 0-0.98702 0.2067t-0.3359 0.60978q0 0.39791 0.23771 0.60461 0.23771 0.20154 0.7028 0.20154zm-4.3305-4.8059q0.56844 0 0.91984 0.21704 0.35657 0.21187 0.52193 0.66146 0.17053 0.44958 0.17053 1.1782h-1.0852q0-0.59428-0.18087-0.85783-0.1757-0.26872-0.57361-0.26872-0.6873 0-1.0387 0.58911-0.34623 0.58911-0.34623 1.7053v1.4469h1.3436v0.9095h-3.6587v-0.9095h1.2196v-3.6587h-1.0129v-0.9095h1.9017l0.18603 1.4056h0.12402q0.04651-0.75964 0.41858-1.1317 0.37724-0.37724 1.0904-0.37724zm-5.209-2.1704v7.7514l-0.98185 0.05168-0.09302-0.89917h-0.12402q-0.05168 0.46509-0.43925 0.70796-0.38757 0.24288-1.018 0.24288-0.69246 0-1.1834-0.32039-0.48576-0.32556-0.74414-0.95084-0.25321-0.62528-0.25321-1.5193 0-0.91467 0.25321-1.5658 0.25838-0.65112 0.74931-0.98702 0.49609-0.34106 1.1886-0.34106 0.65629 0 1.0129 0.27388 0.36173 0.26872 0.43408 0.82165h0.10335v-3.2659zm-2.4805 6.9246q1.3849 0 1.3849-0.93017v-1.3229q0-1.571-1.3953-1.571-0.60461 0-0.93534 0.5116-0.32556 0.5116-0.32556 1.4521 0 0.91984 0.32039 1.3901t0.95084 0.47025zm-6.9091-0.08268h3.2091v0.9095h-4.5268v-0.9095l3.1884-3.6587h-3.1884v-0.9095h4.4235v0.9095zm-5.2451 1.0129q-0.75447 0-1.2971-0.33073-0.53743-0.3359-0.82165-0.97151-0.27905-0.64078-0.27905-1.54t0.27905-1.5348q0.28422-0.64078 0.82165-0.97151 0.5426-0.3359 1.2971-0.3359 0.75447 0 1.2919 0.3359 0.5426 0.33073 0.82165 0.97151 0.28422 0.63562 0.28422 1.5348t-0.28422 1.54q-0.27905 0.63562-0.82165 0.97151-0.53743 0.33073-1.2919 0.33073zm0-0.98185q0.60461 0 0.93017-0.48059 0.33073-0.48576 0.33073-1.3798 0-0.894-0.33073-1.3746-0.32556-0.48576-0.93017-0.48576-0.60461 0-0.93534 0.48576-0.32556 0.48059-0.32556 1.3746 0 0.894 0.32556 1.3798 0.33073 0.48059 0.93534 0.48059zm-6.3148-6.4595q0.88366 0 1.5141 0.28939 0.63045 0.28939 0.95601 0.84749 0.33073 0.5581 0.33073 1.3436 0 0.81648-0.33073 1.4004-0.32556 0.57878-0.95601 0.88366-0.63045 0.29972-1.5141 0.29972h-1.1265v2.2738h-1.0335v-7.338zm0 4.0824q0.81648 0 1.2661-0.39274 0.44958-0.39274 0.44958-1.1059 0-0.76481-0.44958-1.1834-0.44958-0.41858-1.2661-0.41858h-1.1265v3.1006z"/>
</g>
</svg>
