<svg width="60.42mm" height="10.356mm" version="1.1" viewBox="0 0 60.42 10.356" xmlns="http://www.w3.org/2000/svg">
<g stroke-width=".26458" aria-label=" Hej Verden">
<style> @keyframes animate { 0% { filter: hue-rotate(360deg);} 100% { filter: hue-rotate(0deg);} } path {fill: url(#grad);animation: animate linear 5s infinite ;} </style> <linearGradient id="grad"> <stop offset="0%" stop-color="cyan" /> <stop offset="50%" stop-color="magenta" /> <stop offset="100%" stop-color="yellow" /> </linearGradient>
<path d="m58.601 2.2944q0.86816 0 1.3436 0.5271t0.47542 1.4883v3.5657h-1.0955v-3.5657q0-0.51676-0.25838-0.80098-0.25838-0.28422-0.72347-0.28422-1.2919 0-1.2919 1.571v3.0799h-1.0955v-5.4777h0.99218l0.08785 0.99218h0.11886q0.04651-0.55294 0.40308-0.82165 0.35657-0.27388 1.0439-0.27388zm-4.2168 2.6252q0 0.37724-0.03101 0.7028h-3.7q0.14469 0.68213 0.65112 1.0387 0.50643 0.35657 1.3332 0.35657 0.63562 0 1.3436-0.14469l0.13436 0.96118q-0.75964 0.14469-1.602 0.14469-0.93534 0-1.5916-0.33073-0.65112-0.33073-0.99218-0.96635-0.34106-0.64078-0.34106-1.5555 0-0.88883 0.28939-1.5244 0.28939-0.63562 0.84232-0.97151 0.5581-0.3359 1.3384-0.3359 1.1162 0 1.7208 0.67696 0.60461 0.67696 0.60461 1.9482zm-0.99218-0.13436q0-0.7338-0.3514-1.1317-0.34623-0.39791-0.97151-0.39791-0.63562 0-1.0129 0.39791-0.37724 0.39791-0.44442 1.1317zm-5.3743-4.6612v7.7514l-0.98185 0.05168-0.09302-0.89917h-0.12402q-0.05168 0.46509-0.43925 0.70796-0.38757 0.24288-1.018 0.24288-0.69246 0-1.1834-0.32039-0.48576-0.32556-0.74414-0.95084-0.25321-0.62528-0.25321-1.5193 0-0.91467 0.25321-1.5658 0.25838-0.65112 0.74931-0.98702 0.49609-0.34106 1.1886-0.34106 0.65629 0 1.0129 0.27388 0.36173 0.26872 0.43408 0.82165h0.10335v-3.2659zm-2.4805 6.9246q1.3849 0 1.3849-0.93017v-1.3229q0-1.571-1.3953-1.571-0.60461 0-0.93534 0.5116-0.32556 0.5116-0.32556 1.4521 0 0.91984 0.32039 1.3901t0.95084 0.47025zm-4.7129-4.7542q0.56844 0 0.91984 0.21704 0.35657 0.21187 0.52193 0.66146 0.17053 0.44958 0.17053 1.1782h-1.0852q0-0.59428-0.18087-0.85783-0.1757-0.26872-0.57361-0.26872-0.68729 0-1.0387 0.58911-0.34623 0.58911-0.34623 1.7053v1.4469h1.3436v0.9095h-3.6587v-0.9095h1.2196v-3.6587h-1.0129v-0.9095h1.9017l0.18604 1.4056h0.12402q0.04651-0.75964 0.41858-1.1317 0.37724-0.37724 1.0904-0.37724zm-5.0436 2.6252q0 0.37724-0.03101 0.7028h-3.7q0.14469 0.68213 0.65112 1.0387t1.3332 0.35657q0.63562 0 1.3436-0.14469l0.13436 0.96118q-0.75964 0.14469-1.602 0.14469-0.93534 0-1.5916-0.33073-0.65112-0.33073-0.99218-0.96635-0.34106-0.64078-0.34106-1.5555 0-0.88883 0.28939-1.5244t0.84232-0.97151q0.5581-0.3359 1.3384-0.3359 1.1162 0 1.7208 0.67696 0.60461 0.67696 0.60461 1.9482zm-0.99218-0.13436q0-0.7338-0.3514-1.1317-0.34623-0.39791-0.97151-0.39791-0.63562 0-1.0129 0.39791t-0.44442 1.1317zm-10.48-4.2478h1.1059l1.7157 6.5629h0.09302l1.7157-6.5629h1.1059l-2.0671 7.4414h-1.602zm-8.7023 0.99218q-0.20671 0-0.3824-0.10335-0.1757-0.10335-0.27905-0.27905-0.10335-0.1757-0.10335-0.3824t0.10335-0.3824q0.10335-0.1757 0.27905-0.27905 0.1757-0.10335 0.3824-0.10335 0.2067 0 0.3824 0.10335 0.1757 0.10335 0.27905 0.27905 0.10335 0.1757 0.10335 0.3824t-0.10335 0.3824q-0.10335 0.1757-0.27905 0.27905-0.1757 0.10335-0.3824 0.10335zm0.66146 5.8601q0 0.97668-0.28939 1.5865t-0.89917 0.925q-0.60461 0.31522-1.5916 0.39274l-0.8785 0.06201-0.05168-0.97151 1.0335-0.09302q0.83199-0.07751 1.2041-0.48576 0.37724-0.40824 0.37724-1.2506v-4.2478h-2.1291v-0.9095h3.2246zm-5.2916-2.4701q0 0.37724-0.03101 0.7028h-3.7q0.14469 0.68213 0.65112 1.0387 0.50643 0.35657 1.3332 0.35657 0.63562 0 1.3436-0.14469l0.13436 0.96118q-0.75964 0.14469-1.602 0.14469-0.93534 0-1.5916-0.33073-0.65112-0.33073-0.99218-0.96635-0.34106-0.64078-0.34106-1.5555 0-0.88883 0.28939-1.5244t0.84232-0.97151q0.5581-0.3359 1.3384-0.3359 1.1162 0 1.7208 0.67696t0.60461 1.9482zm-0.99218-0.13436q0-0.7338-0.3514-1.1317-0.34623-0.39791-0.97151-0.39791-0.63562 0-1.0129 0.39791-0.37724 0.39791-0.44442 1.1317zm-5.24-4.2478v7.338h-1.0335v-3.1626h-2.6768v3.1626h-1.0335v-7.338h1.0335v3.1936h2.6768v-3.1936z"/>
</g>
</svg>
