<svg width="72.822mm" height="7.8548mm" version="1.1" viewBox="0 0 72.822 7.8548" xmlns="http://www.w3.org/2000/svg">
<g stroke-width=".26458" aria-label=" Hallo Wereld">
<style> @keyframes animate { 0% { filter: hue-rotate(360deg);} 100% { filter: hue-rotate(0deg);} } path {fill: url(#grad);animation: animate linear 5s infinite ;} </style> <linearGradient id="grad"> <stop offset="0%" stop-color="cyan" /> <stop offset="50%" stop-color="magenta" /> <stop offset="100%" stop-color="yellow" /> </linearGradient>
<path d="m72.822 0v7.7514l-0.98185 0.05168-0.09302-0.89917h-0.12402q-0.05168 0.46509-0.43925 0.70796-0.38757 0.24288-1.018 0.24288-0.69246 0-1.1834-0.32039-0.48576-0.32556-0.74414-0.95084-0.25321-0.62528-0.25321-1.5193 0-0.91467 0.25321-1.5658 0.25838-0.65112 0.74931-0.98702 0.49609-0.34106 1.1886-0.34106 0.65629 0 1.0129 0.27388 0.36173 0.26872 0.43408 0.82165h0.10335v-3.2659zm-2.4805 6.9246q1.3849 0 1.3849-0.93017v-1.3229q0-1.571-1.3953-1.571-0.60461 0-0.93534 0.5116-0.32556 0.5116-0.32556 1.4521 0 0.91984 0.32039 1.3901t0.95084 0.47025zm-3.5553 0.71313q-0.41341 0.11369-0.80098 0.16536-0.38757 0.05168-0.83199 0.05168-0.64078 0-1.0335-0.22738t-0.57877-0.7028q-0.18604-0.47542-0.18604-1.2402v-4.7749h-1.6123v-0.9095h2.7078v5.6327q0 0.46509 0.08268 0.72864 0.08785 0.25838 0.32556 0.38757 0.24288 0.12402 0.70796 0.12402 0.22738 0 0.48576-0.04651 0.26355-0.04651 0.60978-0.14986zm-6.2012-2.8422q0 0.37724-0.03101 0.7028h-3.7q0.14469 0.68213 0.65112 1.0387t1.3332 0.35657q0.63562 0 1.3436-0.14469l0.13436 0.96118q-0.75964 0.14469-1.602 0.14469-0.93534 0-1.5916-0.33073-0.65112-0.33073-0.99218-0.96635-0.34106-0.64078-0.34106-1.5555 0-0.88883 0.28939-1.5244 0.28939-0.63562 0.84232-0.97151 0.5581-0.3359 1.3384-0.3359 1.1162 0 1.7208 0.67696 0.60461 0.67696 0.60461 1.9482zm-0.99218-0.13436q0-0.7338-0.3514-1.1317-0.34623-0.39791-0.97151-0.39791-0.63562 0-1.0129 0.39791t-0.44442 1.1317zm-6.3665-2.4908q0.56844 0 0.91984 0.21704 0.35657 0.21187 0.52193 0.66146 0.17053 0.44958 0.17053 1.1782h-1.0852q0-0.59428-0.18087-0.85783-0.1757-0.26872-0.57361-0.26872-0.6873 0-1.0387 0.58911-0.34623 0.58911-0.34623 1.7053v1.4469h1.3436v0.9095h-3.6587v-0.9095h1.2196v-3.6587h-1.0129v-0.9095h1.9017l0.18603 1.4056h0.12402q0.04651-0.75964 0.41858-1.1317 0.37724-0.37724 1.0904-0.37724zm-5.0436 2.6252q0 0.37724-0.03101 0.7028h-3.7q0.14469 0.68213 0.65112 1.0387 0.50643 0.35657 1.3332 0.35657 0.63562 0 1.3436-0.14469l0.13436 0.96118q-0.75964 0.14469-1.602 0.14469-0.93534 0-1.5916-0.33073-0.65112-0.33073-0.99218-0.96635-0.34106-0.64078-0.34106-1.5555 0-0.88883 0.28939-1.5244 0.28939-0.63562 0.84232-0.97151 0.5581-0.3359 1.3384-0.3359 1.1162 0 1.7208 0.67696 0.60461 0.67696 0.60461 1.9482zm-0.99218-0.13436q0-0.7338-0.3514-1.1317-0.34623-0.39791-0.97151-0.39791-0.63562 0-1.0129 0.39791-0.37724 0.39791-0.44442 1.1317zm-5.5914-4.2478h0.98185l-0.72347 7.4414h-1.6743l-0.56844-4.2478h-0.06201l-0.56844 4.2478h-1.6743l-0.72347-7.4414h0.98185l0.62012 6.6146h0.10335l0.75447-4.4442h1.0852l0.74414 4.4442h0.10335zm-14.418 7.4414q-0.75447 0-1.2971-0.33073-0.53743-0.3359-0.82165-0.97151-0.27905-0.64079-0.27905-1.54t0.27905-1.5348q0.28422-0.64079 0.82165-0.97151 0.5426-0.3359 1.2971-0.3359 0.75447 0 1.2919 0.3359 0.5426 0.33073 0.82165 0.97151 0.28422 0.63562 0.28422 1.5348t-0.28422 1.54q-0.27905 0.63562-0.82165 0.97151-0.53743 0.33073-1.2919 0.33073zm0-0.98185q0.60461 0 0.93017-0.48059 0.33073-0.48576 0.33073-1.3798 0-0.894-0.33073-1.3746-0.32556-0.48576-0.93017-0.48576-0.60461 0-0.93534 0.48576-0.32556 0.48059-0.32556 1.3746 0 0.894 0.32556 1.3798 0.33073 0.48059 0.93534 0.48059zm-3.8034 0.76481q-0.41341 0.11369-0.80098 0.16536-0.38757 0.05168-0.83199 0.05168-0.64079 0-1.0335-0.22738-0.39274-0.22738-0.57877-0.7028-0.18604-0.47542-0.18604-1.2402v-4.7749h-1.6123v-0.9095h2.7078v5.6327q0 0.46509 0.08268 0.72864 0.08785 0.25838 0.32556 0.38757 0.24288 0.12402 0.70796 0.12402 0.22738 0 0.48576-0.04651 0.26355-0.04651 0.60978-0.14986zm-6.2012 0q-0.41341 0.11369-0.80098 0.16536-0.38757 0.05168-0.83199 0.05168-0.64079 0-1.0335-0.22738-0.39274-0.22738-0.57877-0.7028-0.18603-0.47542-0.18603-1.2402v-4.7749h-1.6123v-0.9095h2.7078v5.6327q0 0.46509 0.08268 0.72864 0.08785 0.25838 0.32556 0.38757 0.24288 0.12402 0.70796 0.12402 0.22738 0 0.48576-0.04651 0.26355-0.04651 0.60978-0.14986zm-5.7154-0.76481v0.8785l-1.757 0.05168-0.05168-1.2092h-0.10852q-0.05684 0.62012-0.5271 0.94051-0.46509 0.32039-1.2454 0.32039-0.85783 0-1.3281-0.40824-0.47025-0.41341-0.47025-1.1731 0-0.86816 0.63045-1.3332 0.63562-0.46509 1.7983-0.46509 0.63045 0 1.0852 0.12919v-0.29455q0-0.5581-0.3824-0.83199-0.37724-0.27388-1.1472-0.31522l-1.3126-0.062012 0.10335-0.93017 1.1059 0.041341q1.3539 0.051676 2.0154 0.61495 0.66146 0.56327 0.66146 1.6485v2.2841zm-3.514 0.10335q0.48576 0 0.83199-0.17053 0.3514-0.17053 0.5271-0.44442 0.18087-0.27388 0.18087-0.57361v-0.33073q-0.25838-0.06718-0.51676-0.08268-0.25321-0.02067-0.64079-0.02067-0.65112 0-0.98702 0.2067-0.3359 0.2067-0.3359 0.60978 0 0.39791 0.23771 0.60461 0.23771 0.20154 0.7028 0.20154zm-3.2039-6.5629v7.338h-1.0335v-3.1626h-2.6768v3.1626h-1.0335v-7.338h1.0335v3.1936h2.6768v-3.1936z"/>
</g>
</svg>
