<svg width="67.272mm" height="7.9788mm" version="1.1" viewBox="0 0 67.272 7.9788" xmlns="http://www.w3.org/2000/svg">
<g stroke-width=".26458" aria-label=" Hei maailma">
<style> @keyframes animate { 0% { filter: hue-rotate(360deg);} 100% { filter: hue-rotate(0deg);} } path {fill: url(#grad);animation: animate linear 5s infinite ;} </style> <linearGradient id="grad"> <stop offset="0%" stop-color="cyan" /> <stop offset="50%" stop-color="magenta" /> <stop offset="100%" stop-color="yellow" /> </linearGradient>
<path d="m67.272 6.997v0.8785l-1.757 0.051676-0.05168-1.2092h-0.10852q-0.05684 0.62012-0.5271 0.94051-0.46509 0.32039-1.2454 0.32039-0.85783 0-1.3281-0.40824-0.47025-0.41341-0.47025-1.1731 0-0.86816 0.63045-1.3332 0.63562-0.46509 1.7983-0.46509 0.63045 0 1.0852 0.12919v-0.29455q0-0.5581-0.3824-0.83199-0.37724-0.27388-1.1472-0.31523l-1.3126-0.062011 0.10335-0.93017 1.1059 0.041341q1.3539 0.051676 2.0154 0.61495 0.66146 0.56327 0.66146 1.6485v2.2841zm-3.514 0.10335q0.48576 0 0.83199-0.17053 0.3514-0.17053 0.5271-0.44442 0.18087-0.27388 0.18087-0.57361v-0.33073q-0.25838-0.067179-0.51676-0.082682-0.25321-0.020671-0.64079-0.020671-0.65112 0-0.98702 0.20671-0.3359 0.2067-0.3359 0.60978 0 0.39791 0.23771 0.60461 0.23771 0.20154 0.7028 0.20154zm-4.1341-4.8059q0.56844 0 0.82682 0.30489 0.25838 0.30489 0.25838 0.98702v4.2891h-1.0955v-4.1858q0-0.28939-0.10335-0.42891-0.10335-0.13953-0.32039-0.13953-0.53743 0-0.53743 0.74414v4.0101h-0.93017v-4.2891q0-0.46509-0.43408-0.46509-0.5271 0-0.5271 0.74414v4.0101h-1.0955v-5.4777h0.97151l0.07235 0.68213h0.08268q0.03101-0.39791 0.25838-0.58911 0.23254-0.19637 0.68213-0.19637 0.3514 0 0.57877 0.20154 0.22738 0.19637 0.30489 0.58394h0.08785q0.025837-0.3359 0.26355-0.5581 0.24288-0.22738 0.65629-0.22738zm-5.24 5.4673q-0.41341 0.11369-0.80098 0.16536-0.38757 0.051676-0.83199 0.051676-0.64079 0-1.0335-0.22738-0.39274-0.22738-0.57877-0.7028-0.18604-0.47542-0.18604-1.2402v-4.7749h-1.6123v-0.9095h2.7078v5.6327q0 0.46509 0.08268 0.72864 0.08785 0.25838 0.32556 0.38757 0.24288 0.12402 0.70796 0.12402 0.22738 0 0.48576-0.046509 0.26355-0.046509 0.60978-0.14986zm-8.2992-6.2322q-0.2067 0-0.3824-0.10335-0.1757-0.10335-0.27905-0.27905-0.10335-0.1757-0.10335-0.3824 0-0.20671 0.10335-0.3824 0.10335-0.1757 0.27905-0.27905 0.1757-0.10335 0.3824-0.10335t0.3824 0.10335q0.1757 0.10335 0.27905 0.27905 0.10335 0.1757 0.10335 0.3824 0 0.20671-0.10335 0.3824-0.10335 0.1757-0.27905 0.27905-0.1757 0.10335-0.3824 0.10335zm0.60978 5.4467h1.6846v0.89917h-4.8679v-0.89917h2.0877v-3.669h-1.7777v-0.9095h2.8732zm-4.2271 0.020671v0.8785l-1.757 0.051676-0.05168-1.2092h-0.10852q-0.05684 0.62012-0.5271 0.94051-0.46509 0.32039-1.2454 0.32039-0.85783 0-1.3281-0.40824-0.47025-0.41341-0.47025-1.1731 0-0.86816 0.63045-1.3332 0.63562-0.46509 1.7983-0.46509 0.63045 0 1.0852 0.12919v-0.29455q0-0.5581-0.3824-0.83199-0.37724-0.27388-1.1472-0.31523l-1.3126-0.062011 0.10335-0.93017 1.1059 0.041341q1.3539 0.051676 2.0154 0.61495 0.66146 0.56327 0.66146 1.6485v2.2841zm-3.514 0.10335q0.48576 0 0.83199-0.17053 0.3514-0.17053 0.5271-0.44442 0.18087-0.27388 0.18087-0.57361v-0.33073q-0.25838-0.067179-0.51676-0.082682-0.25321-0.020671-0.64078-0.020671-0.65112 0-0.98702 0.20671-0.3359 0.2067-0.3359 0.60978 0 0.39791 0.23771 0.60461 0.23771 0.20154 0.7028 0.20154zm-2.6872-0.10335v0.8785l-1.757 0.051676-0.05168-1.2092h-0.10852q-0.05684 0.62012-0.5271 0.94051-0.46509 0.32039-1.2454 0.32039-0.85783 0-1.3281-0.40824-0.47025-0.41341-0.47025-1.1731 0-0.86816 0.63045-1.3332 0.63562-0.46509 1.7983-0.46509 0.63045 0 1.0852 0.12919v-0.29455q0-0.5581-0.3824-0.83199-0.37723-0.27388-1.1472-0.31523l-1.3126-0.062011 0.10335-0.93017 1.1059 0.041341q1.3539 0.051676 2.0154 0.61495 0.66146 0.56327 0.66146 1.6485v2.2841zm-3.514 0.10335q0.48576 0 0.83199-0.17053 0.3514-0.17053 0.5271-0.44442 0.18087-0.27388 0.18087-0.57361v-0.33073q-0.25838-0.067179-0.51676-0.082682-0.25321-0.020671-0.64079-0.020671-0.65112 0-0.98702 0.20671-0.3359 0.2067-0.3359 0.60978 0 0.39791 0.23771 0.60461 0.23771 0.20154 0.7028 0.20154zm-4.1341-4.8059q0.56844 0 0.82682 0.30489 0.25838 0.30489 0.25838 0.98702v4.2891h-1.0955v-4.1858q0-0.28939-0.10335-0.42891-0.10335-0.13953-0.32039-0.13953-0.53743 0-0.53743 0.74414v4.0101h-0.93017v-4.2891q0-0.46509-0.43408-0.46509-0.5271 0-0.5271 0.74414v4.0101h-1.0955v-5.4777h0.97151l0.07235 0.68213h0.08268q0.03101-0.39791 0.25838-0.58911 0.23254-0.19637 0.68213-0.19637 0.3514 0 0.57877 0.20154 0.22738 0.19637 0.30489 0.58394h0.08785q0.02584-0.3359 0.26355-0.5581 0.24288-0.22738 0.65629-0.22738zm-13.539-0.76481q-0.2067 0-0.3824-0.10335-0.1757-0.10335-0.27905-0.27905-0.10335-0.1757-0.10335-0.3824 0-0.20671 0.10335-0.3824 0.10335-0.1757 0.27905-0.27905 0.1757-0.10335 0.3824-0.10335t0.3824 0.10335q0.1757 0.10335 0.27905 0.27905t0.10335 0.3824q0 0.20671-0.10335 0.3824-0.10335 0.1757-0.27905 0.27905t-0.3824 0.10335zm0.60978 5.4467h1.6846v0.89917h-4.8679v-0.89917h2.0877v-3.669h-1.7777v-0.9095h2.8732zm-4.7129-2.0567q0 0.37724-0.03101 0.7028h-3.7q0.14469 0.68213 0.65112 1.0387 0.50643 0.35657 1.3332 0.35657 0.63562 0 1.3436-0.14469l0.13436 0.96118q-0.75964 0.14469-1.602 0.14469-0.93534 0-1.5916-0.33073-0.65112-0.33073-0.99218-0.96635-0.34106-0.64079-0.34106-1.5555 0-0.88883 0.28939-1.5244t0.84232-0.97151q0.5581-0.3359 1.3384-0.3359 1.1162 0 1.7208 0.67696 0.60461 0.67696 0.60461 1.9482zm-0.99218-0.13436q0-0.7338-0.3514-1.1317-0.34623-0.39791-0.97151-0.39791-0.63562 0-1.0129 0.39791-0.37724 0.39791-0.44442 1.1317zm-5.24-4.2478v7.338h-1.0335v-3.1626h-2.6768v3.1626h-1.0335v-7.338h1.0335v3.1936h2.6768v-3.1936z"/>
</g>
</svg>
