<svg width="66.357mm" height="8.2126mm" version="1.1" viewBox="0 0 66.357 8.2126" xmlns="http://www.w3.org/2000/svg">
<g stroke-width=".26458" aria-label=" Hallo wrâld">
<style> @keyframes animate { 0% { filter: hue-rotate(360deg);} 100% { filter: hue-rotate(0deg);} } path {fill: url(#grad);animation: animate linear 5s infinite ;} </style> <linearGradient id="grad"> <stop offset="0%" stop-color="cyan" /> <stop offset="50%" stop-color="magenta" /> <stop offset="100%" stop-color="yellow" /> </linearGradient>
<path d="m66.357 0.35537v7.7514l-0.98185 0.051676-0.093017-0.89917h-0.12402q-0.05168 0.46509-0.43925 0.70796-0.38757 0.24288-1.018 0.24288-0.69246 0-1.1834-0.32039-0.48576-0.32556-0.74414-0.95084-0.25321-0.62528-0.25321-1.5193 0-0.91467 0.25321-1.5658 0.25838-0.65112 0.74931-0.98702 0.49609-0.34106 1.1886-0.34106 0.65629 0 1.0129 0.27388 0.36173 0.26872 0.43408 0.82165h0.10335v-3.2659zm-2.4805 6.9246q1.3849 0 1.3849-0.93017v-1.3229q0-1.571-1.3953-1.571-0.60461 0-0.93534 0.5116-0.32556 0.5116-0.32556 1.4521 0 0.91984 0.32039 1.3901t0.95084 0.47025zm-3.5553 0.71313q-0.41341 0.11369-0.80098 0.16536-0.38757 0.051676-0.83199 0.051676-0.64079 0-1.0335-0.22738-0.39274-0.22738-0.57877-0.7028-0.18603-0.47542-0.18603-1.2402v-4.7749h-1.6123v-0.9095h2.7078v5.6327q0 0.46509 0.08268 0.72864 0.08785 0.25838 0.32556 0.38757 0.24288 0.12402 0.70796 0.12402 0.22738 0 0.48576-0.046509 0.26355-0.046509 0.60978-0.14986zm-8.3876-5.6542q1.0372 0 1.5346 0.45508t0.49742 1.4499v3.8629h-0.67733l-0.17992-0.80433h-0.04233q-0.37042 0.46567-0.78316 0.68791-0.40216 0.22225-1.1218 0.22225-0.77258 0-1.2806-0.40217-0.508-0.41275-0.508-1.2806 0-0.84666 0.66675-1.3017 0.66675-0.46567 2.0532-0.508l0.96308-0.03175v-0.33867q0-0.70908-0.30692-0.98425-0.30692-0.27517-0.86783-0.27517-0.4445 0-0.84666 0.13758-0.40216 0.127-0.75141 0.29633l-0.28575-0.6985q0.37042-0.20108 0.87841-0.33867 0.508-0.14817 1.0583-0.14817zm1.1112 2.9951-0.83608 0.03175q-1.0583 0.042333-1.4711 0.33867-0.40217 0.29633-0.40217 0.83608 0 0.47625 0.28575 0.6985 0.29633 0.22225 0.75142 0.22225 0.71966 0 1.1959-0.39158 0.47625-0.40217 0.47625-1.2277zm-0.6985-5.334q0.127 0.23283 0.35983 0.52916 0.24342 0.28575 0.49742 0.5715 0.26458 0.27517 0.46567 0.47625v0.11642h-0.65616q-0.27517-0.16933-0.5715-0.41275-0.29633-0.254-0.58208-0.53975-0.28575 0.28575-0.5715 0.52916-0.28575 0.24342-0.56092 0.42333h-0.635v-0.11642q0.20108-0.21167 0.4445-0.48683 0.254-0.27517 0.48683-0.56091 0.23283-0.29633 0.37042-0.52916zm-5.3211 2.5258q0.56844 0 0.91984 0.21704 0.35657 0.21187 0.52193 0.66146 0.17053 0.44958 0.17053 1.1782h-1.0852q0-0.59428-0.18087-0.85783-0.1757-0.26872-0.57361-0.26872-0.68729 0-1.0387 0.58911-0.34623 0.58911-0.34623 1.7053v1.4469h1.3436v0.9095h-3.6587v-0.9095h1.2196v-3.6587h-1.0129v-0.9095h1.9017l0.18604 1.4056h0.12402q0.04651-0.75964 0.41858-1.1317 0.37724-0.37724 1.0904-0.37724zm-5.7361 0.10335h1.0335l-0.62012 5.581h-1.3953l-0.74414-4.4545h-0.062011l-0.74414 4.4545h-1.3953l-0.51676-5.581h1.0335l0.31006 4.7542h0.09302l0.67179-4.7542h1.1575l0.67179 4.7542h0.09302zm-14.108 5.581q-0.75447 0-1.2971-0.33073-0.53743-0.3359-0.82165-0.97151-0.27905-0.64079-0.27905-1.54 0-0.89917 0.27905-1.5348 0.28422-0.64079 0.82165-0.97151 0.5426-0.3359 1.2971-0.3359 0.75447 0 1.2919 0.3359 0.5426 0.33073 0.82165 0.97151 0.28422 0.63562 0.28422 1.5348 0 0.89917-0.28422 1.54-0.27905 0.63562-0.82165 0.97151-0.53743 0.33073-1.2919 0.33073zm0-0.98185q0.60461 0 0.93017-0.48059 0.33073-0.48576 0.33073-1.3798t-0.33073-1.3746q-0.32556-0.48576-0.93017-0.48576t-0.93534 0.48576q-0.32556 0.48059-0.32556 1.3746t0.32556 1.3798q0.33073 0.48059 0.93534 0.48059zm-3.8034 0.76481q-0.41341 0.11369-0.80098 0.16536-0.38757 0.051676-0.83199 0.051676-0.64079 0-1.0335-0.22738-0.39274-0.22738-0.57878-0.7028-0.18603-0.47542-0.18603-1.2402v-4.7749h-1.6123v-0.9095h2.7078v5.6327q0 0.46509 0.08268 0.72864 0.08785 0.25838 0.32556 0.38757 0.24288 0.12402 0.70796 0.12402 0.22738 0 0.48576-0.046509 0.26355-0.046509 0.60978-0.14986zm-6.2012 0q-0.41341 0.11369-0.80098 0.16536-0.38757 0.051676-0.83199 0.051676-0.64079 0-1.0335-0.22738-0.39274-0.22738-0.57877-0.7028-0.18604-0.47542-0.18604-1.2402v-4.7749h-1.6123v-0.9095h2.7078v5.6327q0 0.46509 0.08268 0.72864 0.08785 0.25838 0.32556 0.38757 0.24288 0.12402 0.70796 0.12402 0.22738 0 0.48576-0.046509 0.26355-0.046509 0.60978-0.14986zm-5.7154-0.76481v0.8785l-1.757 0.051676-0.051676-1.2092h-0.10852q-0.056844 0.62012-0.5271 0.94051-0.46509 0.32039-1.2454 0.32039-0.85783 0-1.3281-0.40824-0.47025-0.41341-0.47025-1.1731 0-0.86816 0.63045-1.3332 0.63562-0.46509 1.7983-0.46509 0.63045 0 1.0852 0.12919v-0.29455q0-0.5581-0.3824-0.83199-0.37724-0.27388-1.1472-0.31523l-1.3126-0.062012 0.10335-0.93017 1.1059 0.041341q1.3539 0.051676 2.0154 0.61495 0.66146 0.56327 0.66146 1.6485v2.2841zm-3.514 0.10335q0.48576 0 0.83199-0.17053 0.3514-0.17053 0.5271-0.44442 0.18087-0.27388 0.18087-0.57361v-0.33073q-0.25838-0.067179-0.51676-0.082682-0.25321-0.02067-0.64079-0.02067-0.65112 0-0.98702 0.20671-0.3359 0.2067-0.3359 0.60978 0 0.39791 0.23771 0.60461 0.23771 0.20154 0.7028 0.20154zm-3.2039-6.5629v7.338h-1.0335v-3.1626h-2.6768v3.1626h-1.0335v-7.338h1.0335v3.1936h2.6768v-3.1936z"/>
</g>
</svg>
