<svg width="117.39mm" height="10.795mm" version="1.1" viewBox="0 0 117.39 10.795" xmlns="http://www.w3.org/2000/svg">
<g stroke-width=".26458" aria-label=" გამარჯობა მსოფლიო">
<style> @keyframes animate { 0% { filter: hue-rotate(360deg);} 100% { filter: hue-rotate(0deg);} } path {fill: url(#grad);animation: animate linear 5s infinite ;} </style> <linearGradient id="grad"> <stop offset="0%" stop-color="cyan" /> <stop offset="50%" stop-color="magenta" /> <stop offset="100%" stop-color="yellow" /> </linearGradient>
<path d="m110.69 8.1491q-0.32808-0.74083-0.48683-1.4182t-0.15875-1.5028q0-0.85725 0.24342-1.4922 0.24341-0.64558 0.71966-1.0054 0.47625-0.35983 1.1853-0.35983 0.59267 0 0.9525 0.27517 0.37041 0.26458 0.53975 0.73025h0.0529q0.17992-0.46567 0.56092-0.73025 0.381-0.27517 0.94191-0.27517 0.70908 0 1.1853 0.35983 0.47625 0.35983 0.71967 1.0054 0.24341 0.635 0.24341 1.4922 0 0.8255-0.15875 1.5028t-0.48683 1.4182h-0.9525q0.33867-0.75141 0.48684-1.4182 0.15875-0.67733 0.15875-1.5134 0-1.0266-0.32809-1.5452-0.32808-0.52916-0.94191-0.52916-0.47625 0-0.74083 0.35983t-0.26458 1.016v1.7039h-0.889v-1.7039q0-0.59266-0.24342-0.98425-0.24341-0.39158-0.77258-0.39158-0.60325 0-0.93133 0.52916-0.32808 0.51858-0.32808 1.5452 0 0.83608 0.15875 1.5134 0.15875 0.66675 0.48683 1.4182zm-6.0748 0q-0.32808-0.74083-0.48683-1.4182t-0.15875-1.5028q0-1.3017 0.62441-2.0743 0.635-0.78316 1.8309-0.78316 1.2171 0 1.8309 0.78316 0.62442 0.77258 0.62442 2.0743 0 0.8255-0.15875 1.5028t-0.48683 1.4182h-0.9525q0.33866-0.75141 0.48683-1.4182 0.15875-0.67733 0.15875-1.5134 0-1.0266-0.40216-1.5452-0.39159-0.52916-1.1007-0.52916t-1.1112 0.52916q-0.39159 0.51858-0.39159 1.5452 0 0.83608 0.15875 1.5134 0.15875 0.66675 0.48683 1.4182zm-5.3657 2.6458q-0.48683-0.79375-1.3441-1.2065-0.84666-0.41275-1.7886-0.41275-0.51858 0-1.016 0.13758-0.49742 0.14817-0.96308 0.41275l-0.37042-0.67733q0.32808-0.15875 0.70908-0.27517t0.74083-0.13758v-0.03175q-0.762-0.24342-1.397-0.68791-0.62441-0.45508-1.0054-1.1642-0.37042-0.70908-0.37042-1.7145 0-1.2065 0.52916-1.9367 0.53975-0.73025 1.5663-0.73025 0.59266 0 0.9525 0.27517 0.37042 0.26458 0.53975 0.73025h0.05292q0.17992-0.46567 0.56091-0.73025 0.39158-0.27517 0.97366-0.27517 0.62442 0 0.99483 0.27517 0.37042 0.26458 0.53975 0.73025h0.05292q0.17992-0.46567 0.56092-0.73025 0.381-0.27517 0.94191-0.27517 0.68792 0 1.1536 0.35983 0.46567 0.35983 0.6985 1.0054 0.24342 0.635 0.24342 1.4922 0 0.67733-0.14817 1.2594-0.13758 0.58208-0.43391 1.143l-0.80434-0.29633q0.24342-0.51858 0.33867-1.0054 0.0952-0.49742 0.0952-1.1112 0-1.0266-0.32808-1.5452-0.3175-0.52916-0.889-0.52916-0.47625 0-0.74084 0.35983-0.26458 0.35983-0.26458 1.016v1.7039h-0.88895v-1.7039q0-0.59266-0.26458-0.98425-0.254-0.39158-0.85725-0.39158-0.55033 0-0.83608 0.35983-0.27516 0.35983-0.27516 1.016v1.7039h-0.889v-1.7039q0-0.59266-0.24342-0.98425-0.24342-0.39158-0.77258-0.39158-0.56092 0-0.889 0.46567-0.3175 0.46567-0.3175 1.4287 0 0.74083 0.23283 1.2912 0.24342 0.53975 0.65616 0.92075 0.41275 0.381 0.93133 0.62441 0.52916 0.23283 1.1007 0.35983 0.71966 0.14817 1.4287 0.40217 0.71966 0.26458 1.3017 0.68791 0.59266 0.43392 0.91016 1.0901zm-10.975 0q-0.85725 0-1.5134-0.23283-0.64558-0.23283-1.016-0.66675-0.35983-0.43392-0.35983-1.0477 0-0.10583 0.01058-0.21167t0.03175-0.21167h0.87841q-0.01058 0.074083-0.02117 0.14817 0 0.084666 0 0.15875 0 0.66675 0.53975 0.97366 0.55033 0.3175 1.4499 0.3175 0.91016 0 1.3652-0.45508 0.46566-0.45508 0.46566-1.1007 0-0.33867-0.127-0.635-0.127-0.30692-0.41275-0.49742-0.27516-0.20108-0.74082-0.20108h-0.26458v-0.77258h0.48683q0.34925 0 0.64558-0.20108 0.29633-0.21167 0.47625-0.58208 0.17992-0.381 0.17992-0.889 0-0.70908-0.29633-1.1218-0.28575-0.42333-0.80433-0.42333-0.53975 0-0.87841 0.39158-0.33866 0.381-0.33866 1.1959v0.254q0 0.78316-0.29633 1.3758-0.29633 0.59266-0.8255 0.93133-0.52916 0.32808-1.2277 0.32808t-1.2277-0.32808q-0.51858-0.33867-0.81491-0.93133-0.28575-0.59266-0.28575-1.3758 0-0.78316 0.28575-1.3652 0.29633-0.59266 0.8255-0.92075 0.52916-0.32808 1.2277-0.32808 0.56091 0 1.0689 0.29633 0.51858 0.29633 0.74083 0.89958h0.0635q0.17992-0.55033 0.60325-0.86783 0.43392-0.32808 1.1112-0.32808 0.635 0 1.0795 0.3175 0.45508 0.30692 0.68791 0.80433 0.23283 0.49742 0.23283 1.0795 0 0.97366-0.41275 1.4922-0.40216 0.508-1.0689 0.65616v0.042333q1.27 0.32808 1.27 1.7462 0 0.64558-0.34925 1.1642t-0.97366 0.81491q-0.62441 0.30692-1.4711 0.30692zm-2.5717-3.9476q0.46566 0 0.77258-0.254 0.30692-0.254 0.45508-0.67733 0.15875-0.42333 0.15875-0.93133 0-0.51858-0.15875-0.93133-0.14817-0.41275-0.45508-0.65616-0.30692-0.24342-0.78316-0.24342-0.47625 0-0.78316 0.24342-0.30692 0.24342-0.46566 0.65616-0.14817 0.41275-0.14817 0.93133 0 0.508 0.14817 0.93133 0.15875 0.42333 0.46566 0.67733 0.3175 0.254 0.79375 0.254zm-10.213 1.3017q-0.32808-0.74083-0.48683-1.4182-0.15875-0.67733-0.15875-1.5028 0-0.85725 0.24342-1.4922 0.24342-0.64558 0.71966-1.0054 0.47625-0.35983 1.1853-0.35983 0.59266 0 0.9525 0.27517 0.37042 0.26458 0.53975 0.73025h0.05292q0.17992-0.46567 0.56092-0.73025 0.381-0.27517 0.94191-0.27517 0.70908 0 1.1853 0.35983 0.47625 0.35983 0.71966 1.0054 0.24342 0.635 0.24342 1.4922 0 0.8255-0.15875 1.5028-0.15875 0.67733-0.48683 1.4182h-0.9525q0.33867-0.75141 0.48683-1.4182 0.15875-0.67733 0.15875-1.5134 0-1.0266-0.32808-1.5452-0.32808-0.52916-0.94191-0.52916-0.47625 0-0.74083 0.35983-0.26458 0.35983-0.26458 1.016v1.7039h-0.889v-1.7039q0-0.59266-0.24342-0.98425t-0.77258-0.39158q-0.60325 0-0.93133 0.52916-0.32808 0.51858-0.32808 1.5452 0 0.83608 0.15875 1.5134 0.15875 0.66675 0.48683 1.4182zm-4.3286 0.10583q-1.2171 0-1.8627-0.71966-0.64558-0.73025-0.64558-2.1272v-5.3022h0.93133v5.3975q0 0.89958 0.37042 1.4393 0.37042 0.53975 1.2065 0.53975 0.52916 0 0.86783-0.23283 0.34925-0.24342 0.51858-0.64558 0.16933-0.40217 0.16933-0.89958 0-0.43392-0.14817-0.75141-0.13758-0.3175-0.34925-0.61383-0.254-0.37042-0.47625-0.79375-0.21167-0.42333-0.21167-1.0689h0.93133q0 0.47625 0.1905 0.83608 0.1905 0.34925 0.4445 0.70908 0.24342 0.33867 0.41275 0.75141 0.16933 0.40217 0.16933 0.96308 0 0.762-0.3175 1.3335-0.3175 0.56091-0.889 0.87841-0.56092 0.30692-1.3123 0.30692zm-6.604 0q-1.1218 0-1.8203-0.73025-0.6985-0.74083-0.6985-2.2013 0-1.3864 0.635-2.1167 0.64558-0.73025 1.7039-0.73025 0.65616 0 1.0689 0.24342 0.42333 0.24342 0.68791 0.59266h0.0635q-0.010583-0.11642-0.042333-0.32808-0.021167-0.22225-0.021167-0.39158v-0.48683q0-0.58208-0.33866-0.97366-0.33867-0.39158-1.1218-0.39158-0.60325 0-0.98425 0.26458-0.381 0.26458-0.381 0.6985 0 0.0635 0 0.127 0.01058 0.0635 0.02117 0.127h-0.89958q-0.03175-0.10583-0.04233-0.20108-0.01058-0.09525-0.01058-0.17992 0-0.46567 0.30692-0.81491 0.30691-0.35983 0.82549-0.56091 0.52916-0.20108 1.1642-0.20108 1.1324 0 1.7568 0.60325 0.635 0.60325 0.635 1.5875v3.1327q0 1.4605-0.64558 2.2013-0.64558 0.73025-1.8627 0.73025zm0-0.77258q0.86783 0 1.2277-0.53975 0.35983-0.53975 0.35983-1.4393v-0.16933q0-0.97366-0.34925-1.524-0.34925-0.56091-1.2912-0.56091-0.75141 0-1.1324 0.58208-0.37042 0.58208-0.37042 1.5134 0 1.016 0.381 1.5769 0.381 0.56091 1.1747 0.56091zm-8.7841 0.77258q-0.65616 0-1.1959-0.24342-0.52916-0.24342-0.84666-0.71966-0.30692-0.47625-0.30692-1.1853 0-0.23283 0.04233-0.4445 0.05292-0.22225 0.09525-0.34925h0.889q-0.04233 0.13758-0.07408 0.34925-0.02117 0.20108-0.02117 0.4445 0 0.67733 0.381 1.0266 0.39158 0.34925 1.0372 0.34925 0.64558 0 1.016-0.35983 0.37042-0.35983 0.37042-1.0689 0-0.55033-0.23283-0.889-0.23283-0.34925-0.53974-0.64558-0.254-0.254-0.508-0.52916-0.24342-0.28575-0.41275-0.64558-0.16933-0.37042-0.16933-0.86783h0.93133q0 0.45508 0.24342 0.80433 0.254 0.33867 0.58208 0.66675 0.26458 0.254 0.508 0.55033t0.40217 0.67733q0.15875 0.37042 0.15875 0.87841 0 0.65616-0.30692 1.1536-0.30692 0.49742-0.83608 0.77258t-1.2065 0.27517zm-5.4821-5.8314q0.91016 0.17992 1.4605 0.92075 0.56092 0.74083 0.56092 1.9579 0 1.4076-0.71966 2.1802-0.70908 0.77258-1.9262 0.77258-0.75141 0-1.3441-0.33867-0.58208-0.34925-0.92075-1.0054-0.33867-0.66675-0.33867-1.6087 0-1.3229 0.62442-2.0743 0.62442-0.75141 1.7145-0.84666 0.05292-0.09525 0.08467-0.22225 0.04233-0.13758 0.04233-0.30692 0-0.20108-0.10583-0.32808-0.095251-0.13758-0.24342-0.254-0.22225-0.17992-0.43392-0.42333-0.21167-0.254-0.21167-0.74083h0.93133q0 0.24342 0.11642 0.41275 0.11642 0.16933 0.28575 0.3175 0.21167 0.17992 0.39158 0.40217 0.17992 0.21167 0.17992 0.55033 0 0.35983-0.14817 0.635zm-0.60325 5.0588q0.85725 0 1.2594-0.58208 0.40217-0.59266 0.40217-1.5981 0-1.0054-0.40217-1.5769-0.40216-0.5715-1.27-0.5715-0.86783 0-1.2594 0.5715t-0.39158 1.5769q0 1.0054 0.39158 1.5981 0.40216 0.58208 1.27 0.58208zm-10.488 0.66675q-0.32808-0.74083-0.48683-1.4182-0.15875-0.67733-0.15875-1.5028 0-0.85725 0.24342-1.4922 0.24342-0.64558 0.71966-1.0054 0.47625-0.35983 1.1853-0.35983 0.59266 0 0.9525 0.27517 0.37042 0.26458 0.53975 0.73025h0.05292q0.17992-0.46567 0.56092-0.73025 0.381-0.27517 0.94191-0.27517 0.70908 0 1.1853 0.35983 0.47625 0.35983 0.71966 1.0054 0.24342 0.635 0.24342 1.4922 0 0.8255-0.15875 1.5028-0.15875 0.67733-0.48683 1.4182h-0.9525q0.33867-0.75141 0.48683-1.4182 0.15875-0.67733 0.15875-1.5134 0-1.0266-0.32808-1.5452-0.32808-0.52916-0.94191-0.52916-0.47625 0-0.74083 0.35983-0.26458 0.35983-0.26458 1.016v1.7039h-0.889v-1.7039q0-0.59266-0.24342-0.98425t-0.77258-0.39158q-0.60325 0-0.93133 0.52916-0.32808 0.51858-0.32808 1.5452 0 0.83608 0.15875 1.5134 0.15875 0.66675 0.48683 1.4182zm-3.7571-3.4078q0 0.55033 0.30692 0.96308 0.30692 0.41275 0.68792 0.8255t0.68791 0.89958q0.3175 0.47625 0.3175 1.1536 0 0.68791-0.3175 1.1853-0.3175 0.49741-0.87841 0.762-0.56092 0.26458-1.3017 0.26458-0.71966 0-1.2806-0.27517-0.55033-0.27516-0.85725-0.77258-0.30692-0.48683-0.30692-1.143 0-0.30692 0.04233-0.51858 0.04233-0.22225 0.11642-0.40217h0.889q-0.11642 0.34925-0.11642 0.83608 0 0.61383 0.37042 1.0583 0.381 0.4445 1.143 0.4445 0.64558 0 1.0901-0.37042 0.4445-0.35983 0.4445-1.0054 0-0.5715-0.27517-0.97366-0.26458-0.41275-0.61383-0.78316-0.254-0.28575-0.508-0.59266-0.24342-0.3175-0.41275-0.68791-0.15875-0.37042-0.15875-0.80433v-0.39158l-1.905-0.33867v-0.77258l1.905 0.33867v-1.2594h0.93133v1.4287l1.8944 0.33867v0.77258l-1.8944-0.33867zm-10.647 3.4078q-0.32808-0.74083-0.47625-1.4182-0.14817-0.67733-0.14817-1.5028v-0.40217q0-1.9579 0.6985-3.0268 0.6985-1.0689 2.1061-1.3652 0.59266-0.127 1.1853-0.23283 0.59266-0.10583 1.1642-0.20108l0.15875 0.81491q-0.37042 0.052916-0.81491 0.127-0.43392 0.0635-0.83608 0.13758-0.40216 0.0635-0.67733 0.127-0.43392 0.09525-0.84666 0.29633-0.41275 0.1905-0.74083 0.56091-0.3175 0.37042-0.51858 1.016h0.03175q0.30692-0.4445 0.62442-0.5715 0.3175-0.13758 0.65616-0.13758 0.53975 0 0.89958 0.27517 0.35983 0.26458 0.52916 0.73025h0.05292q0.17992-0.46567 0.56092-0.73025 0.381-0.27517 0.94191-0.27517 0.70908 0 1.1853 0.35983 0.47625 0.35983 0.71966 1.0054 0.24342 0.635 0.24342 1.4922 0 0.8255-0.15875 1.5028-0.15875 0.67733-0.48683 1.4182h-0.9525q0.33866-0.75141 0.48683-1.4182 0.15875-0.67733 0.15875-1.5134 0-1.0266-0.32808-1.5452-0.32808-0.52916-0.94191-0.52916-0.47625 0-0.74083 0.35983-0.26458 0.35983-0.26458 1.016v1.7039h-0.889v-1.7039q0-0.59266-0.24342-0.98425t-0.77258-0.39158q-0.60325 0-0.93133 0.52916-0.32808 0.51858-0.32808 1.5452 0 0.83608 0.15875 1.5134 0.15875 0.66675 0.48683 1.4182zm-4.1381 0.10583q-0.65616 0-1.1959-0.24342-0.52916-0.24342-0.84666-0.71966-0.30692-0.47625-0.30692-1.1853 0-0.23283 0.04233-0.4445 0.05292-0.22225 0.09525-0.34925h0.889q-0.04233 0.13758-0.07408 0.34925-0.02117 0.20108-0.02117 0.4445 0 0.67733 0.381 1.0266 0.39158 0.34925 1.0372 0.34925t1.016-0.35983q0.37042-0.35983 0.37042-1.0689 0-0.55033-0.23283-0.889-0.23283-0.34925-0.53974-0.64558-0.254-0.254-0.508-0.52916-0.24342-0.28575-0.41275-0.64558-0.16933-0.37042-0.16933-0.86783h0.93133q0 0.45508 0.24342 0.80433 0.254 0.33867 0.58208 0.66675 0.26458 0.254 0.508 0.55033t0.40216 0.67733q0.15875 0.37042 0.15875 0.87841 0 0.65616-0.30692 1.1536t-0.83608 0.77258-1.2065 0.27517zm-6.1806 0q-1.1218 0-1.8203-0.73025-0.6985-0.74083-0.6985-2.2013 0-1.3864 0.635-2.1167 0.64558-0.73025 1.7039-0.73025 0.65616 0 1.0689 0.24342 0.42333 0.24342 0.68792 0.59266h0.0635q-0.010584-0.11642-0.042333-0.32808-0.021167-0.22225-0.021167-0.39158v-0.48683q0-0.58208-0.33867-0.97366-0.33866-0.39158-1.1218-0.39158-0.60325 0-0.98425 0.26458-0.381 0.26458-0.381 0.6985 0 0.0635 0 0.127 0.01058 0.0635 0.02117 0.127h-0.89958q-0.03175-0.10583-0.04233-0.20108-0.01058-0.09525-0.01058-0.17992 0-0.46567 0.30692-0.81491 0.30691-0.35983 0.82549-0.56091 0.52916-0.20108 1.1642-0.20108 1.1324 0 1.7568 0.60325 0.635 0.60325 0.635 1.5875v3.1327q0 1.4605-0.64558 2.2013-0.64558 0.73025-1.8627 0.73025zm0-0.77258q0.86783 0 1.2277-0.53975t0.35983-1.4393v-0.16933q0-0.97366-0.34925-1.524-0.34925-0.56091-1.2912-0.56091-0.75141 0-1.1324 0.58208-0.37042 0.58208-0.37042 1.5134 0 1.016 0.381 1.5769t1.1747 0.56091zm-6.0325 0.77258q-0.65616 0-1.1959-0.24342-0.52916-0.24342-0.84666-0.71966-0.30692-0.47625-0.30692-1.1853 0-0.23283 0.042333-0.4445 0.052917-0.22225 0.09525-0.34925h0.889q-0.042333 0.13758-0.074083 0.34925-0.021167 0.20108-0.021167 0.4445 0 0.67733 0.381 1.0266 0.39158 0.34925 1.0372 0.34925 0.64558 0 1.016-0.35983 0.37042-0.35983 0.37042-1.0689 0-0.55033-0.23283-0.889-0.23283-0.34925-0.53975-0.64558-0.254-0.254-0.508-0.52916-0.24342-0.28575-0.41275-0.64558-0.16933-0.37042-0.16933-0.86783h0.93133q0 0.45508 0.24342 0.80433 0.254 0.33867 0.58208 0.66675 0.26458 0.254 0.508 0.55033 0.24342 0.29633 0.40217 0.67733 0.15875 0.37042 0.15875 0.87841 0 0.65616-0.30692 1.1536-0.30692 0.49742-0.83608 0.77258-0.52916 0.27517-1.2065 0.27517zm-5.842 2.54q-0.75141 0-1.3441-0.34925-0.58208-0.33866-0.92075-0.97366-0.33867-0.635-0.33867-1.524 0-1.3229 0.65616-2.0108 0.66675-0.6985 1.8097-0.84666 0.61383-0.084666 0.87841-0.35983t0.26458-0.68791-0.26458-0.66675q-0.26458-0.26458-0.75141-0.26458t-0.74083 0.24342-0.254 0.66675q0 0.074083 0.010583 0.16933 0.021167 0.084666 0.03175 0.17992h-0.91016q-0.0635-0.254-0.0635-0.49742 0-0.65616 0.52916-1.0795 0.52916-0.42333 1.397-0.42333 0.5715 0 1.0054 0.20108 0.4445 0.20108 0.68791 0.56091 0.254 0.35983 0.254 0.8255 0 0.48683-0.24342 0.85725-0.24342 0.35983-0.762 0.51858v0.03175q0.60325 0.16933 0.97366 0.56091 0.381 0.381 0.56091 0.91016 0.17992 0.51858 0.17992 1.1112 0 1.3335-0.70908 2.0849-0.70908 0.762-1.9367 0.762zm0.021167-0.77258q0.85725 0 1.2594-0.5715 0.40217-0.5715 0.40217-1.5028 0-0.93133-0.40217-1.4817-0.40217-0.56091-1.27-0.56091t-1.2594 0.56091q-0.39158 0.55033-0.39158 1.4817 0 0.93133 0.39158 1.5028 0.40217 0.5715 1.27 0.5715z"/>
</g>
</svg>
