<svg width="75.025mm" height="11.06mm" version="1.1" viewBox="0 0 75.025 11.06" xmlns="http://www.w3.org/2000/svg">
<g stroke-width=".26458" aria-label=" Γειά σου Κόσμε">
<style> @keyframes animate { 0% { filter: hue-rotate(360deg);} 100% { filter: hue-rotate(0deg);} } path {fill: url(#grad);animation: animate linear 5s infinite ;} </style> <linearGradient id="grad"> <stop offset="0%" stop-color="cyan" /> <stop offset="50%" stop-color="magenta" /> <stop offset="100%" stop-color="yellow" /> </linearGradient>
<path d="m74.03 5.1858v0.762h-0.77258q-1.5981 0-1.5981 0.97366 0 0.51858 0.43392 0.73025 0.43392 0.21167 1.0689 0.21167 0.59266 0 1.0372-0.13758 0.45508-0.13758 0.80433-0.30692v0.81491q-0.32808 0.16933-0.78316 0.28575-0.45508 0.10583-1.1112 0.10583-1.2171 0-1.7992-0.46567-0.58208-0.47625-0.58208-1.1853 0-0.42333 0.16933-0.68791 0.17992-0.27517 0.46566-0.43392 0.28575-0.16933 0.62442-0.26458v-0.052916q-0.47625-0.14817-0.77258-0.45508-0.28575-0.3175-0.28575-0.83608 0-0.71966 0.60325-1.1112 0.61383-0.39158 1.5769-0.39158 0.61383 0 1.0477 0.10583 0.4445 0.10583 0.86783 0.29633l-0.34925 0.74083q-0.34925-0.15875-0.71966-0.26458-0.35983-0.10583-0.85725-0.10583-1.2806 0-1.2806 0.80433 0 0.46567 0.43392 0.66675 0.4445 0.20108 1.1853 0.20108zm-4.6566-2.3389v5.6726h-0.75141l-0.14817-0.762h-0.05292q-0.26458 0.42333-0.68791 0.64558-0.42333 0.22225-1.016 0.22225-0.41275 0-0.70908-0.127-0.29633-0.13758-0.508-0.34925h-0.04233q0.02117 0.1905 0.03175 0.508 0.02117 0.3175 0.02117 0.75141v1.651h-0.93133v-8.2126h0.93133v3.6618q0 1.3441 1.27 1.3441 0.94191 0 1.3017-0.52916 0.35983-0.52916 0.35983-1.524v-2.9527zm-6.4029 3.0692q0 0.762-0.29633 1.3758-0.29633 0.61383-0.889 0.97366-0.58208 0.35983-1.4499 0.35983-1.1747 0-1.8944-0.71966-0.70908-0.71966-0.70908-2.0955 0-1.0689 0.37042-1.7145 0.381-0.65616 1.0689-0.9525 0.6985-0.29633 1.6404-0.29633h2.6141v0.77258h-1.3758q0.41275 0.39158 0.66675 0.96308t0.254 1.3335zm-4.2757-0.10583q0 0.89958 0.39158 1.4711t1.27 0.5715 1.27-0.53975 0.39158-1.3758q0-0.68791-0.23283-1.27-0.22225-0.59266-0.64558-1.0477h-0.32808q-1.0583 0-1.5875 0.49742t-0.52916 1.6933zm-2.1167-0.13758q0 1.4076-0.71966 2.1802-0.70908 0.77258-1.9262 0.77258-0.75141 0-1.3441-0.33867-0.58208-0.34925-0.92075-1.0054-0.33867-0.66675-0.33867-1.6087 0-1.4076 0.70908-2.1696 0.70908-0.762 1.9262-0.762 0.77258 0 1.3547 0.34925 0.59266 0.33867 0.92075 0.99483 0.33866 0.64558 0.33866 1.5875zm-4.2862 0q0 1.0054 0.39158 1.5981 0.40216 0.58208 1.27 0.58208 0.85725 0 1.2594-0.58208 0.40217-0.59266 0.40217-1.5981 0-1.0054-0.40217-1.5769-0.40216-0.5715-1.27-0.5715-0.86783 0-1.2594 0.5715t-0.39158 1.5769zm1.2488-3.5666v-0.14817q0.09525-0.26458 0.1905-0.60325 0.09525-0.34925 0.16933-0.70908 0.074083-0.35983 0.11642-0.64558h0.99483v0.11642q-0.052917 0.23283-0.20108 0.59266-0.14817 0.34925-0.33867 0.73025-0.17992 0.37042-0.37042 0.66675zm-2.794 6.4135h-1.1218l-2.6776-3.6089-0.77258 0.67733v2.9316h-0.9525v-7.5565h0.9525v3.7253q0.3175-0.35983 0.64558-0.71966 0.32808-0.35983 0.65616-0.71966l2.0426-2.286h1.1112l-2.9951 3.2914zm-12.541 0.10583q-0.94191 0-1.4711-0.34925-0.51858-0.35983-0.73025-0.96308-0.21167-0.61383-0.21167-1.3652v-3.1009h0.93133v3.0692q0 0.89958 0.37042 1.4287 0.37042 0.51858 1.1853 0.51858 0.84666 0 1.2488-0.60325 0.40216-0.60325 0.40216-1.8732 0-0.74083-0.08467-1.3229t-0.24342-1.2171h0.93133q0.16933 0.62441 0.254 1.2171 0.08467 0.58208 0.08467 1.3652 0 1.6404-0.67733 2.4236-0.66675 0.77258-1.9897 0.77258zm-3.8206-2.9527q0 1.4076-0.71966 2.1802-0.70908 0.77258-1.9262 0.77258-0.75141 0-1.3441-0.33867-0.58208-0.34925-0.92075-1.0054-0.33866-0.66675-0.33866-1.6087 0-1.4076 0.70908-2.1696t1.9262-0.762q0.77258 0 1.3547 0.34925 0.59266 0.33867 0.92075 0.99483 0.33866 0.64558 0.33866 1.5875zm-4.2862 0q0 1.0054 0.39158 1.5981 0.40216 0.58208 1.27 0.58208 0.85725 0 1.2594-0.58208 0.40216-0.59266 0.40216-1.5981 0-1.0054-0.40216-1.5769-0.40217-0.5715-1.27-0.5715-0.86783 0-1.2594 0.5715t-0.39158 1.5769zm-2.2542 0.24342q0 0.762-0.29633 1.3758t-0.889 0.97366q-0.58208 0.35983-1.4499 0.35983-1.1747 0-1.8944-0.71966-0.70908-0.71966-0.70908-2.0955 0-1.0689 0.37042-1.7145 0.381-0.65616 1.0689-0.9525 0.6985-0.29633 1.6404-0.29633h2.6141v0.77258h-1.3758q0.41275 0.39158 0.66675 0.96308t0.254 1.3335zm-4.2757-0.10583q0 0.89958 0.39158 1.4711t1.27 0.5715 1.27-0.53975 0.39158-1.3758q0-0.68791-0.23283-1.27-0.22225-0.59266-0.64558-1.0477h-0.32808q-1.0583 0-1.5875 0.49742t-0.52916 1.6933zm-7.8951 2.8152q-1.0372 0-1.6827-0.73025-0.64558-0.74083-0.64558-2.1907 0-1.4393 0.635-2.2013t1.778-0.762q0.62442 0 1.0372 0.22225 0.42333 0.21167 0.6985 0.64558h0.0635q0.05292-0.17992 0.13758-0.39158 0.08467-0.21167 0.20108-0.37042h0.73025q-0.07408 0.23283-0.13758 0.61383-0.0635 0.381-0.09525 0.80433t-0.03175 0.80433v2.2013q0 0.32808 0.127 0.46567 0.127 0.127 0.30692 0.127 0.08467 0 0.17992-0.021167 0.09525-0.021167 0.13758-0.03175v0.67733q-0.07408 0.042333-0.24342 0.084666-0.16933 0.052917-0.34925 0.052917-0.39158 0-0.64558-0.1905-0.24342-0.1905-0.35983-0.67733h-0.07408q-0.24342 0.35983-0.64558 0.61383-0.40216 0.254-1.1218 0.254zm0.15875-0.77258q0.87841 0 1.2382-0.49742 0.37042-0.508 0.37042-1.5981v-0.0635q0-1.0583-0.34925-1.6087-0.33867-0.56091-1.27-0.56091-0.77258 0-1.143 0.56091-0.37042 0.56091-0.37042 1.6298 0 1.0583 0.35983 1.5981 0.37042 0.53975 1.1642 0.53975zm-0.1905-5.7467v-0.14817q0.095249-0.26458 0.1905-0.60325 0.09525-0.34925 0.16933-0.70908 0.074083-0.35983 0.11642-0.64558h0.99483v0.11642q-0.052916 0.23283-0.20108 0.59266-0.14817 0.34925-0.33867 0.73025-0.17992 0.37042-0.37042 0.66675zm-4.7519 0.74083v4.0005q0 0.508 0.1905 0.762 0.20108 0.254 0.62442 0.254 0.23283 0 0.47625-0.03175 0.254-0.042333 0.39158-0.084666v0.70908q-0.14817 0.074083-0.43392 0.11642-0.28575 0.052917-0.56092 0.052917-0.46566 0-0.83608-0.14817-0.35983-0.15875-0.5715-0.53975-0.20108-0.39158-0.20108-1.0795v-4.0111zm-3.1432 2.3389v0.762h-0.77258q-1.5981 0-1.5981 0.97366 0 0.51858 0.43392 0.73025t1.0689 0.21167q0.59266 0 1.0372-0.13758 0.45508-0.13758 0.80433-0.30692v0.81491q-0.32808 0.16933-0.78316 0.28575-0.45508 0.10583-1.1112 0.10583-1.2171 0-1.7992-0.46567-0.58208-0.47625-0.58208-1.1853 0-0.42333 0.16933-0.68791 0.17992-0.27517 0.46567-0.43392 0.28575-0.16933 0.62441-0.26458v-0.052916q-0.47625-0.14817-0.77258-0.45508-0.28575-0.3175-0.28575-0.83608 0-0.71966 0.60325-1.1112 0.61383-0.39158 1.5769-0.39158 0.61383 0 1.0477 0.10583 0.4445 0.10583 0.86783 0.29633l-0.34925 0.74083q-0.34925-0.15875-0.71966-0.26458-0.35983-0.10583-0.85725-0.10583-1.2806 0-1.2806 0.80433 0 0.46567 0.43392 0.66675 0.4445 0.20108 1.1853 0.20108zm-3.4819-4.2227v0.84666h-3.3126v6.7098h-0.9525v-7.5565z"/>
</g>
</svg>
