<svg width="73.556mm" height="10.356mm" version="1.1" viewBox="0 0 73.556 10.356" xmlns="http://www.w3.org/2000/svg">
<g stroke-width=".26458" aria-label=" Sannu Duniya">
<style> @keyframes animate { 0% { filter: hue-rotate(360deg);} 100% { filter: hue-rotate(0deg);} } path {fill: url(#grad);animation: animate linear 5s infinite ;} </style> <linearGradient id="grad"> <stop offset="0%" stop-color="cyan" /> <stop offset="50%" stop-color="magenta" /> <stop offset="100%" stop-color="yellow" /> </linearGradient>
<path d="m73.556 6.997v0.8785l-1.757 0.05168-0.05168-1.2092h-0.10852q-0.05684 0.62012-0.5271 0.94051-0.46509 0.32039-1.2454 0.32039-0.85783 0-1.3281-0.40824-0.47025-0.41341-0.47025-1.1731 0-0.86816 0.63045-1.3332 0.63562-0.46509 1.7983-0.46509 0.63045 0 1.0852 0.12919v-0.29456q0-0.5581-0.3824-0.83199-0.37724-0.27388-1.1472-0.31522l-1.3126-0.06201 0.10335-0.93017 1.1059 0.04134q1.3539 0.05168 2.0154 0.61495 0.66146 0.56327 0.66146 1.6485v2.2841zm-3.514 0.10335q0.48576 0 0.83199-0.17053 0.3514-0.17053 0.5271-0.44442 0.18087-0.27388 0.18087-0.57361v-0.33073q-0.25838-0.06718-0.51676-0.08268-0.25321-0.02067-0.64079-0.02067-0.65112 0-0.98702 0.2067t-0.3359 0.60978q0 0.39791 0.23771 0.60461 0.23771 0.20154 0.7028 0.20154zm-2.9352-4.7025-1.5813 4.9919q-0.31006 0.98702-0.69246 1.5813-0.3824 0.59944-0.90434 0.89917-0.52193 0.30489-1.2661 0.3824l-0.93017 0.10335-0.05168-0.98185 0.85783-0.10335q0.64079-0.07752 1.0542-0.37724 0.41858-0.29972 0.70796-0.91467h-0.5426l-2.1291-5.581h1.1369l1.7363 4.7542h0.09819l0.0052-0.02067 1.3643-4.7335zm-8.5369-0.86816q-0.2067 0-0.3824-0.10335-0.1757-0.10335-0.27905-0.27905-0.10335-0.1757-0.10335-0.3824t0.10335-0.3824q0.10335-0.1757 0.27905-0.27905 0.1757-0.10335 0.3824-0.10335 0.20671 0 0.3824 0.10335 0.1757 0.10335 0.27905 0.27905 0.10335 0.1757 0.10335 0.3824t-0.10335 0.3824q-0.10335 0.1757-0.27905 0.27905-0.1757 0.10335-0.3824 0.10335zm0.60978 5.4467h1.6846v0.89917h-4.8679v-0.89917h2.0877v-3.669h-1.7777v-0.9095h2.8732zm-6.6972-4.6819q0.86816 0 1.3436 0.5271 0.47542 0.5271 0.47542 1.4883v3.5657h-1.0955v-3.5657q0-0.51676-0.25838-0.80098-0.25838-0.28422-0.72347-0.28422-1.2919 0-1.2919 1.571v3.0799h-1.0955v-5.4777h0.99218l0.08785 0.99218h0.11886q0.04651-0.55294 0.40308-0.82165 0.35657-0.27388 1.0439-0.27388zm-3.731 4.7025v0.8785l-1.757 0.05168-0.07751-1.1059h-0.09818q-0.12402 0.5581-0.47542 0.85783-0.34623 0.29972-0.85783 0.29972-0.91467 0-1.4159-0.5116-0.49609-0.5116-0.49609-1.4521v-3.7207h1.0749v3.7207q0 0.49609 0.27388 0.76481 0.27388 0.26872 0.76998 0.26872 0.60978 0 0.9095-0.39791 0.29972-0.40308 0.29972-1.3074v-3.0489h1.0955v4.5889zm-9.5808-6.4595q1.6846 0 2.5218 0.96635 0.83716 0.96635 0.83716 2.9094 0 1.7363-0.83716 2.5993-0.83716 0.86299-2.5218 0.86299h-1.7777v-7.338zm0 6.3562q1.1317 0 1.7001-0.64595 0.57361-0.64595 0.57361-1.9379 0-2.7905-2.2738-2.7905h-0.74414v5.3743zm-9.0227 0.10335v0.8785l-1.757 0.05168-0.07751-1.1059h-0.09819q-0.12402 0.5581-0.47542 0.85783-0.34623 0.29972-0.85783 0.29972-0.91467 0-1.4159-0.5116-0.49609-0.5116-0.49609-1.4521v-3.7207h1.0749v3.7207q0 0.49609 0.27388 0.76481 0.27388 0.26872 0.76998 0.26872 0.60978 0 0.9095-0.39791 0.29972-0.40308 0.29972-1.3074v-3.0489h1.0955v4.5889zm-8.6713-4.7025q0.86816 0 1.3436 0.5271 0.47542 0.5271 0.47542 1.4883v3.5657h-1.0955v-3.5657q0-0.51676-0.25838-0.80098-0.25838-0.28422-0.72347-0.28422-1.2919 0-1.2919 1.571v3.0799h-1.0955v-5.4777h0.99218l0.08785 0.99218h0.11886q0.04651-0.55294 0.40308-0.82165 0.35657-0.27388 1.0439-0.27388zm-6.2012 0q0.86816 0 1.3436 0.5271 0.47542 0.5271 0.47542 1.4883v3.5657h-1.0955v-3.5657q0-0.51676-0.25838-0.80098-0.25838-0.28422-0.72347-0.28422-1.2919 0-1.2919 1.571v3.0799h-1.0955v-5.4777h0.99218l0.08785 0.99218h0.11886q0.04651-0.55294 0.40308-0.82165 0.35657-0.27388 1.0439-0.27388zm-3.731 4.7025v0.8785l-1.757 0.05168-0.05168-1.2092h-0.10852q-0.05684 0.62012-0.5271 0.94051-0.46509 0.32039-1.2454 0.32039-0.85783 0-1.3281-0.40824-0.47025-0.41341-0.47025-1.1731 0-0.86816 0.63045-1.3332 0.63562-0.46509 1.7983-0.46509 0.63045 0 1.0852 0.12919v-0.29456q0-0.5581-0.3824-0.83199-0.37724-0.27388-1.1472-0.31522l-1.3126-0.06201 0.10335-0.93017 1.1059 0.04134q1.3539 0.05168 2.0154 0.61495 0.66146 0.56327 0.66146 1.6485v2.2841zm-3.514 0.10335q0.48576 0 0.83199-0.17053 0.3514-0.17053 0.5271-0.44442 0.18087-0.27388 0.18087-0.57361v-0.33073q-0.25838-0.06718-0.51676-0.08268-0.25321-0.02067-0.64079-0.02067-0.65112 0-0.98702 0.2067-0.3359 0.2067-0.3359 0.60978 0 0.39791 0.23771 0.60461 0.23771 0.20154 0.7028 0.20154zm-4.8989-3.2143q0.84749 0.39791 1.2557 0.88883 0.40824 0.48576 0.40824 1.2092 0 1.0232-0.65112 1.5348-0.64595 0.5116-1.9637 0.5116-1.2506 0-2.1807-0.40308l0.13436-1.0025q1.1472 0.45475 2.1291 0.45475 0.7183 0 1.0697-0.26355 0.35657-0.26872 0.35657-0.81132 0-0.65629-0.67179-0.96118l-1.2712-0.57877q-0.77514-0.3514-1.1627-0.83716t-0.38757-1.1782q0-0.63562 0.27388-1.0852 0.27388-0.45475 0.79581-0.69246 0.52193-0.23771 1.2557-0.23771 0.66146 0 1.1317 0.2067 0.47542 0.2067 0.7183 0.59944 0.24805 0.38757 0.24805 0.94051h-1.0129q0-0.3824-0.28422-0.58911-0.28422-0.2067-0.80098-0.2067-0.57877 0-0.89917 0.26872-0.32039 0.26355-0.32039 0.74414 0 0.34623 0.18087 0.57361 0.18603 0.22221 0.57361 0.40824z"/>
</g>
</svg>
