<svg width="45.667mm" height="8.0433mm" version="1.1" viewBox="0 0 45.667 8.0433" xmlns="http://www.w3.org/2000/svg">
<g stroke-width=".26458" aria-label=" שלום עולם">
<style> @keyframes animate { 0% { filter: hue-rotate(360deg);} 100% { filter: hue-rotate(0deg);} } path {fill: url(#grad);animation: animate linear 5s infinite ;} </style> <linearGradient id="grad"> <stop offset="0%" stop-color="cyan" /> <stop offset="50%" stop-color="magenta" /> <stop offset="100%" stop-color="yellow" /> </linearGradient>
<path d="m0 8.0433v-6.2653h3.1856q1.0795 0 1.5981 0.47625 0.52916 0.47625 0.52916 1.524v4.2651zm0.9525-0.87841h3.4078v-3.1962q0-0.74083-0.32808-1.0266-0.32808-0.28575-0.91016-0.28575h-2.1696zm6.3182-5.3869h3.9158v0.71966l-1.9791 5.5456h-1.0054l1.9897-5.3869h-3.8735v-2.6564h0.9525zm5.1858 6.2653v-6.2653h0.9525v6.2653zm2.1166 0v-0.87841h1.7145l-1.2488-5.3869h0.9525l1.2171 5.334q0.91016-0.16933 1.4076-0.83608 0.508-0.66675 0.62442-1.9897l0.23283-2.5082h0.9525l-0.23283 2.5082q-0.04233 0.47625-0.14817 0.99483-0.10583 0.51858-0.33867 1.016-0.23283 0.48683-0.64558 0.889-0.40216 0.39158-1.0372 0.62442-0.62442 0.23283-1.5346 0.23283zm9.6625 0v-6.2653h3.1856q1.0795 0 1.5981 0.47625 0.52916 0.47625 0.52916 1.524v4.2651zm0.9525-0.87841h3.4078v-3.1962q0-0.74083-0.32808-1.0266-0.32808-0.28575-0.91016-0.28575h-2.1696zm6.1065 0.87841v-6.2653h0.9525v6.2653zm2.9633-6.2653h3.9158v0.71966l-1.9791 5.5456h-1.0054l1.9897-5.3869h-3.8735v-2.6564h0.9525zm5.2599 6.2653-0.55033-6.2653h0.9525l0.28575 3.2173 0.73025-0.22225q0.43392-0.13758 0.64558-0.45508 0.22225-0.32808 0.27517-0.92075l0.14817-1.6192h0.9525l-0.127 1.4287q-0.05292 0.59266-0.17992 1.0583-0.11642 0.46567-0.47625 0.80433-0.34925 0.32808-1.1007 0.55033l-0.79375 0.23283 0.11642 1.3123h1.3335q0.70908 0 1.3017-0.29633t0.97366-0.93133q0.39158-0.635 0.47625-1.651l0.23283-2.5082h0.9525l-0.23283 2.5082q-0.03175 0.40216-0.14817 0.91016-0.11642 0.49742-0.35983 0.99483-0.24342 0.49742-0.65616 0.92075t-1.0372 0.67733q-0.62442 0.254-1.5028 0.254z"/>
</g>
</svg>
