<svg width="48.249mm" height="12.319mm" version="1.1" viewBox="0 0 48.249 12.319" xmlns="http://www.w3.org/2000/svg">
<g stroke-width=".26458" aria-label=" नमस्ते दुनिया">
<style> @keyframes animate { 0% { filter: hue-rotate(360deg);} 100% { filter: hue-rotate(0deg);} } path {fill: url(#grad);animation: animate linear 5s infinite ;} </style> <linearGradient id="grad"> <stop offset="0%" stop-color="cyan" /> <stop offset="50%" stop-color="magenta" /> <stop offset="100%" stop-color="yellow" /> </linearGradient>
<path d="m47.159 3.6512v5.8314h-0.85725v-5.8314h-0.94191v-0.75141h2.8892v0.75141zm-1.6404-0.75141v0.75141h-1.1007v5.8314h-0.85725v-1.8944q-0.29633 0.1905-0.70908 0.34925-0.41275 0.14817-0.9525 0.14817-0.9525 0-1.5452-0.635-0.58208-0.64558-0.73025-1.7039 0.65616-0.13758 0.97366-0.381 0.3175-0.254 0.3175-0.71966 0-0.29633-0.127-0.55033-0.11642-0.254-0.26458-0.4445h-1.3017v-0.75141zm-4.9318 3.3972q0.21167 0.51858 0.52916 0.78316 0.32808 0.254 0.84666 0.254 0.52916 0 0.92075-0.22225t0.67733-0.52916v-2.9316h-2.1061q0.30692 0.55033 0.30692 1.1218 0 1.143-1.1747 1.524zm-7.239-3.3972h6.0219v0.75141h-1.0901v5.8314h-0.85725v-3.1538h-1.9156v0.5715q0 0.29633-0.14817 0.4445-0.14817 0.14817-0.39158 0.14817-0.254 0-0.53975-0.22225t-0.48683-0.53975q-0.20108-0.3175-0.20108-0.61383 0-0.24342 0.13758-0.39158 0.14817-0.14817 0.508-0.14817h3.0374v-1.9262h-4.0746zm-1.7991 0.75141h-0.94191v-0.75141h0.84666q-0.127-0.23283-0.21167-0.49742-0.07408-0.26458-0.07408-0.58208 0-0.8255 0.61383-1.3229 0.61383-0.49742 1.6404-0.49742 1.4922 0 2.6458 0.81491 1.1536 0.80433 1.9897 2.159h-0.889q-1.6192-2.2119-3.5666-2.2119-0.74083 0-1.1642 0.3175-0.41275 0.30692-0.41275 0.84666 0 0.3175 0.09525 0.56091 0.10583 0.23283 0.23283 0.41275h1.143v0.75141h-1.0901v5.8314h-0.85725zm-3.3126 5.9584q0.41275-0.17992 0.86783-0.22225-0.11642-0.1905-0.21167-0.35983t-0.16933-0.3175q-0.127 0.021167-0.27517 0.042333-0.14817 0.010583-0.30692 0.010583-0.4445 0-0.89958-0.10583-0.4445-0.11642-0.8255-0.35983-0.37042-0.254-0.60325-0.66675-0.22225-0.42333-0.22225-1.0266 0-0.46567 0.15875-0.79375 0.16933-0.33867 0.43392-0.5715 0.34925-0.30692 0.85725-0.4445 0.508-0.13758 1.1324-0.13758h0.05292v-1.0054h-3.1221v-0.75141h5.6515v0.75141h-1.6722v1.7568h-0.51858q-0.61383 0-0.99483 0.074083-0.37042 0.074083-0.635 0.24342-0.23283 0.15875-0.37042 0.40217-0.127 0.24342-0.127 0.58208 0 0.56091 0.41275 0.93133 0.42333 0.35983 1.2912 0.35983 0.0635 0 0.127 0 0.0635 0 0.13758-0.010583-0.0635-0.21167-0.0635-0.37042 0-0.37042 0.22225-0.51858 0.22225-0.15875 0.48683-0.15875 0.45508 0 0.68791 0.26458 0.24342 0.254 0.24342 0.56091 0 0.33867-0.15875 0.52916-0.14817 0.17992-0.381 0.27517 0.10583 0.1905 0.22225 0.40217 0.127 0.20108 0.29633 0.45508 0.53975 0.127 0.83608 0.49742 0.29633 0.381 0.29633 0.92075 0 0.64558-0.49742 1.0583-0.48683 0.41275-1.397 0.41275-1.0266 0-1.778-0.48683-0.74083-0.48683-1.3758-1.2912l0.64558-0.45508q0.41275 0.508 0.78316 0.83608 0.37042 0.32808 0.78316 0.47625 0.42333 0.15875 0.94191 0.15875 1.1218 0 1.1218-0.78316 0-0.34925-0.26458-0.51858-0.254-0.16933-0.58208-0.16933-0.28575 0-0.51858 0.05292-0.22225 0.0635-0.4445 0.17992zm-7.6729-6.6357q-0.22225-0.83608-0.43392-1.3123-0.22225-0.48683-0.48683-0.68791-0.26458-0.20108-0.62442-0.20108-0.23283 0-0.41275 0.052916-0.17992 0.042333-0.32808 0.09525l-0.254-0.77258q0.41275-0.14817 0.96308-0.14817 0.5715 0 0.99483 0.27517 0.41275 0.26458 0.75142 0.92075 0.32808 0.64558 0.62441 1.778zm0.84667 0.67733v5.8314h-0.85725v-3.4713h-1.1536q-0.64558 0-0.97366 0.0635-0.3175 0.0635-0.51858 0.24342-0.254 0.20108-0.254 0.65616 0 0.51858 0.39158 1.0054 0.39158 0.47625 1.143 1.0795l-0.5715 0.55033q-0.48683-0.42333-0.91016-0.84666-0.41275-0.42333-0.66675-0.87841-0.24342-0.45508-0.24342-0.96308 0-0.37042 0.13758-0.66675 0.14817-0.29633 0.37042-0.48683 0.30692-0.26458 0.74083-0.381 0.43392-0.127 1.1536-0.127h1.3547v-1.6087h-4.2333v-0.75141h6.1806v0.75141zm-5.3022 2.4236q0.32808 0 0.59266-0.021167 0.26458-0.03175 0.56092-0.084666l0.08467 0.762q-0.26458 0.052917-0.53975 0.074083-0.27517 0.021167-0.58208 0.021167-0.4445 0-0.94191-0.074083-0.48683-0.084666-0.83608-0.20108-0.21167 0.13758-0.47625 0.254 0.43392 0.55033 1.016 1.1324 0.59266 0.58208 1.2382 1.1007l-0.5715 0.5715q-0.59266-0.51858-1.1218-1.0477-0.51858-0.52916-0.92075-0.99483-0.40217-0.46567-0.635-0.79375-0.23283-0.32808-0.29633-0.51858-0.05292-0.1905-0.05292-0.37042 0-0.20108 0.15875-0.381 0.15875-0.17992 0.51858-0.17992 0.26458 0 0.45508 0.127 0.20108 0.11642 0.35983 0.32808 0.22225-0.20108 0.29633-0.508 0.08467-0.3175 0.08467-0.635t-0.05292-0.5715q-0.042329-0.254-0.11641-0.41275h-2.1272v-0.75141h4.2651v0.75141h-1.2912q0.07408 0.17992 0.127 0.42333t0.05292 0.56091q0 0.4445-0.10583 0.77258-0.09525 0.32808-0.27517 0.55033 0.55033 0.11642 1.1324 0.11642zm-4.8471-2.4236v5.8314h-0.85725v-2.6458h-2.3389v0.39158q0 0.34925-0.15875 0.508-0.14817 0.14817-0.34925 0.14817t-0.42333-0.127q-0.22225-0.13758-0.41275-0.33867-0.1905-0.21167-0.3175-0.4445-0.11642-0.23283-0.11642-0.43392 0-0.1905 0.13758-0.3175 0.14817-0.13758 0.508-0.13758h0.27517v-2.4342h-1.3335v-0.75141h6.477v0.75141zm-0.85725 0h-2.3389v2.4342h2.3389zm-10.403-0.75141h6.0219v0.75141h-1.0901v5.8314h-0.85725v-3.1538h-1.9156v0.5715q0 0.29633-0.14817 0.4445t-0.39158 0.14817q-0.254 0-0.53975-0.22225-0.28575-0.22225-0.48683-0.53975-0.20108-0.3175-0.20108-0.61383 0-0.24342 0.13758-0.39158 0.14817-0.14817 0.508-0.14817h3.0374v-1.9262h-4.0746z"/>
</g>
</svg>
