<svg width="63.109mm" height="10.577mm" version="1.1" viewBox="0 0 63.109 10.577" xmlns="http://www.w3.org/2000/svg">
<g stroke-width=".26458" aria-label="Helló Világ">
<style> @keyframes animate { 0% { filter: hue-rotate(360deg);} 100% { filter: hue-rotate(0deg);} } path {fill: url(#grad);animation: animate linear 5s infinite ;} </style> <linearGradient id="grad"> <stop offset="0%" stop-color="cyan" /> <stop offset="50%" stop-color="magenta" /> <stop offset="100%" stop-color="yellow" /> </linearGradient>
<path d="m63.109 2.6291v4.9919q0 0.98185-0.29456 1.6071-0.28939 0.62528-0.90434 0.94051-0.61495 0.32039-1.5916 0.35657l-1.602 0.05168-0.05168-0.97151 1.757-0.08268q0.82165-0.03617 1.1989-0.45992 0.3824-0.42375 0.3824-1.2764v-0.5271h-0.09302q-0.05168 0.46509-0.43925 0.70796-0.38757 0.24288-1.018 0.24288-0.69246 0-1.1834-0.32039-0.48576-0.32556-0.74414-0.95084-0.25321-0.62528-0.25321-1.5193 0-0.91467 0.25321-1.5658 0.25838-0.65112 0.74931-0.98702 0.49609-0.34106 1.1886-0.34106 0.65629 0 1.0129 0.27388 0.36173 0.26872 0.43408 0.82165h0.11886l0.08785-0.99218zm-2.4805 4.6509q1.3849 0 1.3849-0.93017v-1.3229q0-1.571-1.3953-1.571-0.60461 0-0.93534 0.5116-0.32556 0.5116-0.32556 1.4521 0 0.91984 0.32039 1.3901 0.32039 0.47025 0.95084 0.47025zm-5.7418-4.9411q1.0372 0 1.5346 0.45508 0.49742 0.45508 0.49742 1.4499v3.8629h-0.67733l-0.17992-0.80433h-0.04233q-0.37042 0.46566-0.78316 0.68792-0.40216 0.22225-1.1218 0.22225-0.77258 0-1.2806-0.40217-0.508-0.41275-0.508-1.2806 0-0.84666 0.66675-1.3017 0.66675-0.46566 2.0532-0.508l0.96308-0.03175v-0.33867q0-0.70908-0.30692-0.98425-0.30692-0.27517-0.86783-0.27517-0.4445 0-0.84666 0.13758-0.40216 0.127-0.75141 0.29633l-0.28575-0.6985q0.37042-0.20108 0.87841-0.33866 0.508-0.14817 1.0583-0.14817zm1.1112 2.9951-0.83608 0.03175q-1.0583 0.04233-1.4711 0.33867-0.40217 0.29633-0.40217 0.83608 0 0.47625 0.28575 0.6985 0.29633 0.22225 0.75142 0.22225 0.71966 0 1.1959-0.39158 0.47625-0.40216 0.47625-1.2277zm0.30692-5.334v0.10583q-0.127 0.1905-0.39158 0.49742-0.26458 0.29633-0.5715 0.60325-0.29633 0.29633-0.55033 0.48683h-0.61383v-0.127q0.15875-0.20108 0.33867-0.47625 0.1905-0.27517 0.37042-0.56092 0.17992-0.29633 0.29633-0.52916zm-5.169 7.9931q-0.41341 0.11369-0.80098 0.16536-0.38757 0.05168-0.83199 0.05168-0.64079 0-1.0335-0.22738-0.39274-0.22738-0.57877-0.7028-0.18604-0.47542-0.18604-1.2402v-4.7749h-1.6123v-0.9095h2.7078v5.6327q0 0.46509 0.08268 0.72864 0.08785 0.25838 0.32556 0.38757 0.24288 0.12402 0.70796 0.12402 0.22738 0 0.48576-0.04651 0.26355-0.04651 0.60978-0.14986zm-8.2992-6.2322q-0.2067 0-0.3824-0.10335-0.1757-0.10335-0.27905-0.27905-0.10335-0.1757-0.10335-0.3824t0.10335-0.3824q0.10335-0.1757 0.27905-0.27905 0.1757-0.10335 0.3824-0.10335t0.3824 0.10335q0.1757 0.10335 0.27905 0.27905 0.10335 0.1757 0.10335 0.3824t-0.10335 0.3824q-0.10335 0.1757-0.27905 0.27905-0.1757 0.10335-0.3824 0.10335zm0.60978 5.4467h1.6846v0.89917h-4.8679v-0.89917h2.0877v-3.669h-1.7777v-0.9095h2.8732zm-9.9839-6.4389h1.1059l1.7157 6.5629h0.09302l1.7157-6.5629h1.1059l-2.0671 7.4414h-1.602zm-3.5505 4.4911q0 1.4076-0.71966 2.1802-0.70908 0.77258-1.9262 0.77258-0.75141 0-1.3441-0.33867-0.58208-0.34925-0.92075-1.0054-0.33866-0.66675-0.33866-1.6087 0-1.4076 0.70908-2.1696 0.70908-0.762 1.9262-0.762 0.77258 0 1.3547 0.34925 0.59266 0.33867 0.92075 0.99483 0.33866 0.64558 0.33866 1.5875zm-4.2862 0q0 1.0054 0.39158 1.5981 0.40216 0.58208 1.27 0.58208 0.85725 0 1.2594-0.58208 0.40216-0.59266 0.40216-1.5981 0-1.0054-0.40216-1.5769-0.40217-0.5715-1.27-0.5715-0.86783 0-1.2594 0.5715-0.39158 0.5715-0.39158 1.5769zm3.1538-5.2599v0.10583q-0.127 0.1905-0.39158 0.49742-0.26458 0.29633-0.5715 0.60325-0.29633 0.29633-0.55033 0.48683h-0.61383v-0.127q0.15875-0.20108 0.33867-0.47625 0.1905-0.27517 0.37042-0.56092 0.17992-0.29633 0.29633-0.52916zm-5.4018 7.9931q-0.41341 0.11369-0.80098 0.16536-0.38757 0.05168-0.83199 0.05168-0.64078 0-1.0335-0.22738-0.39274-0.22738-0.57877-0.7028-0.18604-0.47542-0.18604-1.2402v-4.7749h-1.6123v-0.9095h2.7078v5.6327q0 0.46509 0.08268 0.72864 0.08785 0.25838 0.32556 0.38757 0.24288 0.12402 0.70796 0.12402 0.22738 0 0.48576-0.04651 0.26355-0.04651 0.60978-0.14986zm-6.2012 0q-0.41341 0.11369-0.80098 0.16536-0.38757 0.05168-0.83199 0.05168-0.64078 0-1.0335-0.22738-0.39274-0.22738-0.57877-0.7028-0.18604-0.47542-0.18604-1.2402v-4.7749h-1.6123v-0.9095h2.7078v5.6327q0 0.46509 0.08268 0.72864 0.08785 0.25838 0.32556 0.38757 0.24288 0.12402 0.70796 0.12402 0.22738 0 0.48576-0.04651 0.26355-0.04651 0.60978-0.14986zm-6.2012-2.8422q0 0.37724-0.03101 0.7028h-3.7q0.14469 0.68213 0.65112 1.0387 0.50643 0.35657 1.3332 0.35657 0.63562 0 1.3436-0.14469l0.13436 0.96118q-0.75964 0.14469-1.602 0.14469-0.93534 0-1.5916-0.33073-0.65112-0.33073-0.99218-0.96635-0.34106-0.64079-0.34106-1.5555 0-0.88883 0.28939-1.5244 0.28939-0.63562 0.84232-0.97151 0.5581-0.3359 1.3384-0.3359 1.1162 0 1.7208 0.67696 0.60461 0.67696 0.60461 1.9482zm-0.99218-0.13436q0-0.7338-0.3514-1.1317-0.34623-0.39791-0.97151-0.39791-0.63562 0-1.0129 0.39791-0.37724 0.39791-0.44442 1.1317zm-5.24-4.2478v7.338h-1.0335v-3.1626h-2.6768v3.1626h-1.0335v-7.338h1.0335v3.1936h2.6768v-3.1936z"/>
</g>
</svg>
