<svg width="56.364mm" height="9.6141mm" version="1.1" viewBox="0 0 56.364 9.6141" xmlns="http://www.w3.org/2000/svg">
<g stroke-width=".26458" aria-label=" Ndewo Ụwa">
<style> @keyframes animate { 0% { filter: hue-rotate(360deg);} 100% { filter: hue-rotate(0deg);} } path {fill: url(#grad);animation: animate linear 5s infinite ;} </style> <linearGradient id="grad"> <stop offset="0%" stop-color="cyan" /> <stop offset="50%" stop-color="magenta" /> <stop offset="100%" stop-color="yellow" /> </linearGradient>
<path d="m56.364 6.8729v0.8785l-1.757 0.05168-0.05168-1.2092h-0.10852q-0.05684 0.62012-0.5271 0.94051-0.46509 0.32039-1.2454 0.32039-0.85783 0-1.3281-0.40824-0.47026-0.41341-0.47026-1.1731 0-0.86816 0.63045-1.3332 0.63562-0.46509 1.7983-0.46509 0.63045 0 1.0852 0.12919v-0.29456q0-0.5581-0.3824-0.83199-0.37724-0.27388-1.1472-0.31523l-1.3126-0.06201 0.10335-0.93017 1.1059 0.04134q1.3539 0.05168 2.0154 0.61495 0.66146 0.56327 0.66146 1.6485v2.2841zm-3.514 0.10335q0.48576 0 0.83199-0.17053 0.3514-0.17053 0.5271-0.44442 0.18087-0.27388 0.18087-0.57361v-0.33073q-0.25838-0.06718-0.51676-0.08268-0.25321-0.02067-0.64079-0.02067-0.65112 0-0.98702 0.2067-0.3359 0.2067-0.3359 0.60978 0 0.39791 0.23771 0.60461 0.23771 0.20154 0.7028 0.20154zm-3.8654-4.7025h1.0335l-0.62012 5.581h-1.3953l-0.74414-4.4545h-0.06201l-0.74414 4.4545h-1.3953l-0.51676-5.581h1.0335l0.31006 4.7542h0.09302l0.67179-4.7542h1.1575l0.67179 4.7542h0.09302zm-5.769-2.0788v4.8895q0 0.78316-0.3175 1.4182-0.3175 0.62441-0.97366 0.99483-0.64558 0.35983-1.651 0.35983-1.4076 0-2.1484-0.762-0.73025-0.77258-0.73025-2.032v-4.8683h0.9525v4.9001q0 0.92075 0.48683 1.4287 0.49742 0.508 1.4922 0.508 1.0266 0 1.4817-0.53975 0.46566-0.55033 0.46566-1.4076v-4.8895zm-2.9316 9.4191q-0.22225 0-0.39158-0.14817-0.15875-0.14817-0.15875-0.4445 0-0.30692 0.15875-0.45508 0.16933-0.13758 0.39158-0.13758 0.22225 0 0.381 0.13758 0.16933 0.14817 0.16933 0.45508 0 0.29633-0.16933 0.4445-0.15875 0.14817-0.381 0.14817zm-13.143-1.7593q-0.75447 0-1.2971-0.33073-0.53743-0.3359-0.82165-0.97151-0.27905-0.64078-0.27905-1.54t0.27905-1.5348q0.28422-0.64079 0.82165-0.97151 0.5426-0.3359 1.2971-0.3359 0.75447 0 1.2919 0.3359 0.5426 0.33073 0.82165 0.97151 0.28422 0.63562 0.28422 1.5348t-0.28422 1.54q-0.27905 0.63562-0.82165 0.97151-0.53743 0.33073-1.2919 0.33073zm0-0.98185q0.60461 0 0.93017-0.48059 0.33073-0.48576 0.33073-1.3798 0-0.894-0.33073-1.3746-0.32556-0.48576-0.93017-0.48576-0.60461 0-0.93534 0.48576-0.32556 0.48059-0.32556 1.3746 0 0.894 0.32556 1.3798 0.33073 0.48059 0.93534 0.48059zm-4.4958-4.5992h1.0335l-0.62012 5.581h-1.3953l-0.74414-4.4545h-0.06201l-0.74414 4.4545h-1.3953l-0.51676-5.581h1.0335l0.31006 4.7542h0.09302l0.67179-4.7542h1.1575l0.67179 4.7542h0.09302zm-5.5087 2.5218q0 0.37724-0.03101 0.7028h-3.7q0.14469 0.68213 0.65112 1.0387 0.50643 0.35657 1.3332 0.35657 0.63562 0 1.3436-0.14469l0.13436 0.96118q-0.75964 0.14469-1.602 0.14469-0.93534 0-1.5916-0.33073-0.65112-0.33073-0.99218-0.96635-0.34106-0.64079-0.34106-1.5555 0-0.88883 0.28939-1.5244 0.28939-0.63562 0.84232-0.97151 0.5581-0.3359 1.3384-0.3359 1.1162 0 1.7208 0.67696 0.60461 0.67696 0.60461 1.9482zm-0.99218-0.13436q0-0.7338-0.3514-1.1317-0.34623-0.39791-0.97151-0.39791-0.63562 0-1.0129 0.39791t-0.44442 1.1317zm-5.3743-4.6612v7.7514l-0.98185 0.05168-0.09302-0.89917h-0.12402q-0.05168 0.46509-0.43925 0.70796-0.38757 0.24288-1.018 0.24288-0.69246 0-1.1834-0.32039-0.48576-0.32556-0.74414-0.95084-0.25321-0.62528-0.25321-1.5193 0-0.91467 0.25321-1.5658 0.25838-0.65112 0.74931-0.98702 0.49609-0.34106 1.1886-0.34106 0.65629 0 1.0129 0.27388 0.36173 0.26872 0.43408 0.82165h0.10335v-3.2659zm-2.4805 6.9246q1.3849 0 1.3849-0.93017v-1.3229q0-1.571-1.3953-1.571-0.60461 0-0.93534 0.5116-0.32556 0.5116-0.32556 1.4521 0 0.91984 0.32039 1.3901 0.32039 0.47025 0.95084 0.47025zm-4.6095-6.5112h0.99218v7.338h-1.3022l-2.2738-5.426h-0.10335v5.426h-0.99218v-7.338h1.3022l2.2738 5.6741h0.10335z"/>
</g>
</svg>
