<svg width="71.808mm" height="9.6837mm" version="1.1" viewBox="0 0 71.808 9.6837" xmlns="http://www.w3.org/2000/svg">
<g stroke-width=".26458" aria-label="こんにちは世界">
<style> @keyframes animate { 0% { filter: hue-rotate(360deg);} 100% { filter: hue-rotate(0deg);} } path {fill: url(#grad);animation: animate linear 5s infinite ;} </style> <linearGradient id="grad"> <stop offset="0%" stop-color="cyan" /> <stop offset="50%" stop-color="magenta" /> <stop offset="100%" stop-color="yellow" /> </linearGradient>
<path d="m64.981 6.5511c0 0.79375-0.1905 1.8203-2.032 2.4977 0.16933 0.15875 0.42333 0.43392 0.53975 0.635 2.0426-0.8255 2.286-2.0955 2.286-3.1009v-0.64558h-0.79375zm-0.84666-3.8417h2.4236v1.143h-2.4236zm0-1.7462h2.4236v1.1218h-2.4236zm5.6409 1.1218h-2.4447v-1.1218h2.4447zm0 1.7674h-2.4447v-1.143h2.4447zm0.80433 0.66675v-4.2227h-7.2178v4.2227h2.1061c-0.80433 0.8255-2.0743 1.5346-3.2914 1.8838 0.17992 0.15875 0.40217 0.4445 0.52916 0.64558 1.3864-0.48683 2.8469-1.4182 3.7147-2.5294h1.1642c0.40217 0.52916 0.94191 1.0054 1.524 1.4182h-0.78316v3.6618h0.80433v-3.6512c0.66675 0.45508 1.4076 0.8255 2.159 1.0583 0.10583-0.20108 0.33867-0.508 0.51858-0.66675-1.2594-0.32808-2.5082-1.0054-3.302-1.8203zm-11.853-1.1747v2.6141h-2.0214v-2.6141zm0.80433 3.3443v-3.3443h1.5769v-0.762h-1.5769v-2.4553h-0.80433v2.4553h-2.0214v-2.5823h-0.77258v2.5823h-1.9262v-2.3389h-0.81491v2.3389h-1.5346v0.762h1.5346v5.588h7.62v-0.77258h-6.8051v-4.8154h1.9262v3.3443zm-14.309 0.84666c0-0.51858 0.56092-0.85725 1.3547-0.85725 0.381 0 0.74083 0.0635 1.0795 0.16933 0.01058 0.13758 0.01058 0.26458 0.01058 0.37042 0 0.6985-0.26458 1.1536-1.1536 1.1536-0.762 0-1.2912-0.29633-1.2912-0.83608zm3.2067-6.8791h-0.9525c0.02117 0.17992 0.04233 0.46567 0.04233 0.64558v1.3123c-0.32808 0.010583-0.66675 0.021167-0.99483 0.021167-0.635 0-1.1959-0.03175-1.7992-0.084666v0.79375c0.62442 0.042333 1.1747 0.074083 1.778 0.074083 0.33866 0 0.67733-0.010583 1.016-0.021167 0.01058 0.86783 0.07408 1.905 0.10583 2.7199-0.30692-0.0635-0.635-0.09525-0.98425-0.09525-1.3864 0-2.1802 0.70908-2.1802 1.5981 0 0.9525 0.78316 1.5134 2.2013 1.5134 1.4287 0 1.8309-0.83608 1.8309-1.7039v-0.22225c0.53975 0.30692 1.0689 0.73025 1.5981 1.2277l0.46566-0.70908c-0.55033-0.49742-1.2382-1.0266-2.0955-1.3652-0.04233-0.889-0.11642-1.9473-0.127-3.0162 0.635-0.042333 1.2488-0.10583 1.8309-0.20108v-0.81491c-0.56092 0.10583-1.1853 0.1905-1.8309 0.24342 0.01058-0.49742 0.02117-0.99483 0.03175-1.2806 0.01058-0.21167 0.03175-0.42333 0.0635-0.635zm-5.2282 0.0635-0.93133-0.074083c0 0.22225-0.03175 0.508-0.0635 0.75141-0.13758 0.87841-0.48683 2.8998-0.48683 4.4556 0 1.4287 0.1905 2.5929 0.40216 3.3443l0.74083-0.052917c-0.010583-0.11642-0.021166-0.26458-0.021166-0.37042-0.010583-0.127 0.010583-0.32808 0.042333-0.47625 0.10583-0.51858 0.49742-1.5981 0.75141-2.3389l-0.43392-0.33867c-0.17992 0.43392-0.43392 1.0795-0.60325 1.5557-0.07408-0.51858-0.10583-0.96308-0.10583-1.4711 0-1.1853 0.3175-3.2808 0.52916-4.2651 0.03175-0.1905 0.11642-0.53975 0.17992-0.71966zm-8.8053-0.20108-0.94191-0.052916c0.01058 0.29633 0 0.53975-0.04233 0.87841-0.02117 0.1905-0.0635 0.42333-0.11642 0.6985h-0.17992c-0.635 0-1.4499-0.084666-2.0108-0.17992l0.01058 0.8255c0.61383 0.0635 1.2912 0.10583 2.0108 0.10583h0.01058c-0.26458 1.1959-0.68791 2.7093-1.2277 3.7677l0.79375 0.28575c0.09525-0.1905 0.1905-0.32808 0.32808-0.48683 0.6985-0.84666 1.8627-1.2806 3.1221-1.2806 1.2382 0 1.8944 0.61383 1.8944 1.4076 0 1.7357-2.3812 2.159-4.826 1.8203l0.21167 0.83608c3.2173 0.34925 5.4822-0.47625 5.4822-2.6776 0-1.2382-0.98425-2.0955-2.667-2.0955-1.1112 0-2.0637 0.254-2.9845 0.89958 0.23283-0.60325 0.47625-1.6087 0.66675-2.4977 1.3758-0.052916 3.0586-0.23283 4.2968-0.4445l-0.010583-0.81491c-1.3017 0.28575-2.8575 0.45508-4.1275 0.508 0.05292-0.24342 0.08467-0.4445 0.11642-0.61383 0.05292-0.27517 0.11642-0.60325 0.1905-0.889zm-10.234 1.143v0.84666c1.1642 0.127 3.2173 0.127 4.3497 0v-0.85725c-1.0583 0.15875-3.1962 0.20108-4.3497 0.010583zm0.41275 4.3074-0.762-0.074083c-0.11642 0.51858-0.17992 0.889-0.17992 1.2488 0 0.99483 0.79375 1.5875 2.5717 1.5875 1.0901 0 1.9791-0.09525 2.6458-0.22225l-0.02117-0.889c-0.85725 0.1905-1.6722 0.27517-2.6247 0.27517-1.4393 0-1.7886-0.46567-1.7886-0.9525 0-0.28575 0.05292-0.58208 0.15875-0.97366zm-2.4342-5.1223-0.94191-0.084666c0 0.23283-0.03175 0.508-0.07408 0.75141-0.127 0.87841-0.47625 2.6882-0.47625 4.2439 0 1.4287 0.17992 2.6458 0.39158 3.3972l0.762-0.052917c-0.01058-0.10583-0.02117-0.254-0.03175-0.37042s0.02117-0.3175 0.05292-0.47625c0.09525-0.49742 0.47625-1.6192 0.75141-2.3707l-0.4445-0.33867c-0.17992 0.43392-0.43392 1.0689-0.61383 1.5452-0.0635-0.51858-0.09525-0.96308-0.09525-1.4817 0-1.1853 0.32808-3.0797 0.52916-4.0534 0.04233-0.1905 0.13758-0.52916 0.1905-0.70908zm-7.5988 0.10583-0.93133-0.381c-0.127 0.30692-0.26458 0.5715-0.39158 0.81491-0.5715 1.0266-2.8892 5.3657-3.6618 7.5036l0.91016 0.3175c0.13758-0.52916 0.59266-1.778 0.91016-2.413 0.41275-0.8255 1.2065-1.6933 2.0637-1.6933 0.47625 0 0.74083 0.27517 0.77258 0.74083 0.03175 0.58208 0.01058 1.397 0.04233 2.0108 0.04233 0.62441 0.40216 1.3441 1.5346 1.3441 1.5346 0 2.4236-1.1853 2.9845-2.8892l-0.69849-0.5715c-0.27517 1.1218-0.97366 2.5823-2.1484 2.5823-0.46566 0-0.8255-0.22225-0.85725-0.75141-0.03175-0.51858-0.02117-1.3335-0.04233-1.9579-0.03175-0.83608-0.53975-1.2806-1.2382-1.2806-0.508 0-1.0689 0.1905-1.5769 0.65616 0.55033-1.0266 1.524-2.7834 1.9897-3.5137 0.127-0.20108 0.24342-0.39158 0.33867-0.51858zm-13.885 0.42333v0.86783c0.83608 0.0635 1.7357 0.11642 2.794 0.11642 0.98425 0 2.1378-0.074083 2.8575-0.127v-0.86783c-0.762 0.074083-1.8415 0.14817-2.8575 0.14817-1.0583 0-2.032-0.042333-2.794-0.13758zm0.42333 4.2651-0.85725-0.084666c-0.09525 0.43392-0.22225 0.93133-0.22225 1.4711 0 1.3335 1.2488 2.0426 3.3972 2.0426 1.5028 0 2.8469-0.15875 3.6089-0.37042l-0.010583-0.91016c-0.79375 0.26458-2.159 0.42333-3.6195 0.42333-1.6933 0-2.5188-0.56091-2.5188-1.3652 0-0.39158 0.084666-0.78316 0.22225-1.2065z"/>
</g>
</svg>
