<svg width="61.531mm" height="7.7787mm" version="1.1" viewBox="0 0 61.531 7.7787" xmlns="http://www.w3.org/2000/svg">
<g stroke-width=".26458" aria-label=" Сәлем Әлем">
<style> @keyframes animate { 0% { filter: hue-rotate(360deg);} 100% { filter: hue-rotate(0deg);} } path {fill: url(#grad);animation: animate linear 5s infinite ;} </style> <linearGradient id="grad"> <stop offset="0%" stop-color="cyan" /> <stop offset="50%" stop-color="magenta" /> <stop offset="100%" stop-color="yellow" /> </linearGradient>
<path d="m61.531 2.0002v5.6726h-0.83608v-3.6195q0-0.22225 0.01058-0.46567 0.02117-0.24342 0.04233-0.47625h-0.03175l-1.8521 4.5614h-0.78316l-1.7992-4.5614h-0.03175q0.03175 0.47625 0.03175 0.97366v3.5877h-0.83608v-5.6726h1.2382l1.7886 4.5614 1.8203-4.5614zm-9.8636-0.10583q0.73025 0 1.2488 0.3175 0.52916 0.3175 0.80433 0.89958 0.28575 0.5715 0.28575 1.3441v0.56091h-3.8841q0.02117 0.96308 0.48683 1.4711 0.47625 0.49742 1.3229 0.49742 0.53975 0 0.9525-0.09525 0.42333-0.10583 0.86783-0.29633v0.81491q-0.43392 0.1905-0.85725 0.27517-0.42333 0.09525-1.0054 0.09525-0.80433 0-1.4287-0.32808-0.61383-0.32808-0.96308-0.97366-0.33866-0.65616-0.33866-1.5981 0-0.93133 0.30692-1.5981 0.3175-0.66675 0.87841-1.0266 0.5715-0.35983 1.3229-0.35983zm-0.01058 0.762q-0.66675 0-1.0583 0.43392-0.381 0.42333-0.45508 1.1853h2.8892q-0.010587-0.71966-0.33867-1.1642-0.32808-0.45508-1.0372-0.45508zm-3.9793 5.0165h-0.94191v-4.9001h-1.6722q-0.13758 1.7886-0.381 2.8892-0.24342 1.0901-0.64558 1.5875t-1.016 0.49742q-0.13758 0-0.27517-0.021167-0.127-0.010583-0.21167-0.052916v-0.6985q0.0635 0.021167 0.13758 0.03175 0.07408 0.010583 0.14817 0.010583 0.5715 0 0.91016-1.2171 0.34925-1.2171 0.52916-3.7994h3.4184zm-9.4191-6.8368q-0.70908 0-1.3123 0.127-0.59266 0.127-1.1007 0.30692v-0.86783q0.46567-0.16933 1.0266-0.28575 0.5715-0.11642 1.4076-0.11642 1.1959 0 2.0002 0.48683 0.80433 0.48683 1.2171 1.3652 0.41275 0.86783 0.41275 2.0532 0 1.1747-0.39158 2.0426-0.39158 0.86783-1.1536 1.3547-0.75141 0.47625-1.8627 0.47625-1.1218 0-1.8203-0.47625-0.68791-0.48683-1.0054-1.3547-0.30692-0.87841-0.30692-2.0532v-0.35983h5.5351q-0.074084-1.2806-0.71966-1.9897-0.64558-0.70908-1.9262-0.70908zm0.24342 6.1066q1.0372 0 1.6827-0.65616 0.64558-0.66675 0.71966-1.9156h-4.5191q0 0.79375 0.20108 1.3758 0.20108 0.5715 0.66675 0.889 0.46566 0.30692 1.2488 0.30692zm-7.4189-4.9424v5.6726h-0.83608v-3.6195q0-0.22225 0.01058-0.46567 0.02117-0.24342 0.04233-0.47625h-0.03175l-1.8521 4.5614h-0.78316l-1.7992-4.5614h-0.03175q0.03175 0.47625 0.03175 0.97366v3.5877h-0.83608v-5.6726h1.2382l1.7886 4.5614 1.8203-4.5614zm-9.8636-0.10583q0.73025 0 1.2488 0.3175 0.52916 0.3175 0.80433 0.89958 0.28575 0.5715 0.28575 1.3441v0.56091h-3.8841q0.02117 0.96308 0.48683 1.4711 0.47625 0.49742 1.3229 0.49742 0.53975 0 0.9525-0.09525 0.42333-0.10583 0.86783-0.29633v0.81491q-0.43392 0.1905-0.85725 0.27517-0.42333 0.09525-1.0054 0.09525-0.80433 0-1.4287-0.32808-0.61383-0.32808-0.96308-0.97366-0.33866-0.65616-0.33866-1.5981 0-0.93133 0.30692-1.5981 0.3175-0.66675 0.87841-1.0266 0.5715-0.35983 1.3229-0.35983zm-0.01058 0.762q-0.66675 0-1.0583 0.43392-0.381 0.42333-0.45508 1.1853h2.8892q-0.010587-0.71966-0.33867-1.1642-0.32808-0.45508-1.0372-0.45508zm-3.9793 5.0165h-0.94191v-4.9001h-1.6722q-0.13758 1.7886-0.381 2.8892-0.24342 1.0901-0.64558 1.5875t-1.016 0.49742q-0.13758 0-0.27517-0.021167-0.127-0.010583-0.21167-0.052916v-0.6985q0.0635 0.021167 0.13758 0.03175 0.07408 0.010583 0.14817 0.010583 0.5715 0 0.91016-1.2171 0.34925-1.2171 0.52916-3.7994h3.4184zm-8.5301-5.7785q0.81491 0 1.4287 0.32808 0.61383 0.32808 0.9525 0.97366 0.34925 0.64558 0.34925 1.5981 0 0.93133-0.3175 1.5981-0.30692 0.66675-0.87841 1.0266-0.56091 0.35983-1.3123 0.35983-0.71966 0-1.2488-0.3175t-0.81491-0.889q-0.27517-0.58208-0.27517-1.3547v-0.56091h3.8841q-0.021167-0.96308-0.49742-1.4605-0.46567-0.508-1.3123-0.508-0.53975 0-0.96308 0.10583-0.41275 0.09525-0.85725 0.28575v-0.81491q0.43392-0.1905 0.85725-0.27517 0.42333-0.09525 1.0054-0.09525zm1.7462 3.5031h-2.8892q0.010583 0.71966 0.33867 1.1747 0.32808 0.4445 1.0372 0.4445 0.66675 0 1.0477-0.42333 0.39158-0.43392 0.46566-1.1959zm-6.8262-4.5508q-1.2171 0-1.9156 0.81491-0.6985 0.81491-0.6985 2.2331 0 1.4076 0.64558 2.2331 0.65616 0.81491 1.9579 0.81491 0.49742 0 0.94191-0.084666t0.86783-0.21167v0.8255q-0.42333 0.15875-0.87841 0.23283-0.4445 0.074083-1.0689 0.074083-1.1536 0-1.9262-0.47625-0.77258-0.47625-1.1642-1.3547-0.381-0.87841-0.381-2.0637 0-1.143 0.41275-2.0108 0.42333-0.87841 1.2382-1.3652 0.81491-0.49742 1.9791-0.49742 1.1959 0 2.0849 0.4445l-0.381 0.80433q-0.34925-0.15875-0.78316-0.28575-0.42333-0.127-0.93133-0.127z"/>
</g>
</svg>
