<svg width="60.378mm" height="12.107mm" version="1.1" viewBox="0 0 60.378 12.107" xmlns="http://www.w3.org/2000/svg">
<g stroke-width=".26458" aria-label=" សួស្តី​ពិភពលោក">
<style> @keyframes animate { 0% { filter: hue-rotate(360deg);} 100% { filter: hue-rotate(0deg);} } path {fill: url(#grad);animation: animate linear 5s infinite ;} </style> <linearGradient id="grad"> <stop offset="0%" stop-color="cyan" /> <stop offset="50%" stop-color="magenta" /> <stop offset="100%" stop-color="yellow" /> </linearGradient>
<path d="m55.721 3.7571v-0.70908h4.6567v0.70908zm0 5.4927v-3.1009q0-1.6722 2.3283-1.6722t2.3283 1.6722v3.1009h-0.97366v-3.1009q0-0.96308-1.3547-0.96308t-1.3547 0.96308v3.1009zm-3.048 0v-4.8472q0-0.37042-0.16933-0.508-0.15875-0.13758-0.65616-0.13758h-2.2754v0.010583l1.0266 1.143v2.667q0 1.6722-2.1696 1.6722-2.159 0-2.159-1.6722v-2.8575q0-0.96308-1.2277-0.96308-1.2171 0-1.2171 0.96308v2.2119q0.48683 0 0.80433 0.26458 0.3175 0.26458 0.3175 0.85725 0 0.55033-0.3175 0.87841-0.3175 0.3175-0.78316 0.3175h-0.29633q-0.28575 0-0.49742-0.15875-0.20108-0.15875-0.20108-0.47625v-3.8947q0-1.6722 2.1907-1.6722 2.2013 0 2.2013 1.6722v2.8575q0 0.96308 1.1853 0.96308 1.1959 0 1.1959-0.96308v-2.4977q-0.32808-0.41275-0.48683-0.60325-0.15875-0.1905-0.20108-0.27517-0.04233-0.084666-0.04233-0.14817 0-0.0635 0.05292-0.14817 0.05292-0.09525 0.1905-0.28575 0.14817-0.20108 0.43392-0.5715h2.7622q0.53975 0 0.81491 0.15875 0.28575 0.14817 0.39158 0.4445t0.10583 0.75141v4.8472zm-8.8476-0.70908q0.46566 0 0.46566-0.47625 0-0.40217-0.46566-0.41275zm-4.0851-4.7731 1.0266 1.143v3.2597q0 0.21167 0.07408 0.29633 0.07408 0.074083 0.26458 0.074083h0.49742v0.70908h-1.0266q-0.78316 0-0.78316-0.52916v-3.6407q-0.32808-0.41275-0.48683-0.60325-0.15875-0.1905-0.20108-0.27517-0.04233-0.084666-0.04233-0.14817 0-0.0635 0.05292-0.14817 0.05292-0.09525 0.1905-0.28575 0.14817-0.20108 0.43392-0.5715h1.2806v0.70908h-1.2806zm-5.3128 0.052916q-0.37042 0-0.37042 0.65616v2.4553q0.48683 0 0.80433 0.26458 0.3175 0.26458 0.3175 0.85725 0 0.55033-0.3175 0.87841-0.3175 0.3175-0.78316 0.3175h-0.29633q-0.28575 0-0.49742-0.15875-0.20108-0.15875-0.20108-0.47625v-4.1381q0-0.39158 0.11642-0.70908 0.11642-0.32808 0.381-0.51858 0.27517-0.20108 0.73025-0.20108 0.51858 0 1.0901 0.64558h0.02117q0.29633-0.3175 0.5715-0.47625 0.28575-0.16933 0.67733-0.16933 0.39158 0 0.62442 0.20108 0.23283 0.1905 0.32808 0.51858 0.10583 0.3175 0.10583 0.70908v4.7731h-0.97367v-4.7731q0-0.65616-0.37042-0.65616-0.21167 0-0.37042 0.15875-0.15875 0.15875-0.29633 0.32808-0.13758 0.15875-0.3175 0.15875-0.15875 0-0.3175-0.15875-0.14817-0.16933-0.30692-0.32808-0.14817-0.15875-0.34925-0.15875zm-0.37042 4.7202q0.46567 0 0.46567-0.47625 0-0.40217-0.46567-0.41275zm-7.694-4.7837v-0.70908h4.6461v0.70908zm0.27517 5.5351q-0.89958 0-1.1007-1.1536l0.55033-0.21167q0.17992 0.46567 0.43392 0.46567 0.20108 0 0.20108-0.26458 0-0.24342-0.09525-0.53975-0.08467-0.29633-0.17992-0.62441-0.08467-0.32808-0.08467-0.66675 0-0.83608 0.58208-1.3229 0.58208-0.49742 1.7357-0.49742 2.3283 0 2.3283 1.6722v3.1009h-0.97366v-3.1009q0-0.9525-1.3547-0.9525-0.67733 0-1.016 0.3175-0.33867 0.30692-0.33867 0.78316 0 0.3175 0.09525 0.5715 0.09525 0.254 0.17992 0.55033 0.09525 0.28575 0.09525 0.71966 0 0.61383-0.30692 0.889-0.30692 0.26458-0.75141 0.26458zm-6.3288-6.9744q-0.51858 0-0.51858-0.77258 0-0.51858 0.42333-0.89958 0.41275-0.39158 1.1853-0.39158t1.5028 0.39158q0.71966 0.381 1.2806 0.89958v0.77258zm0.26458-0.66675h2.6247q-0.58208-0.41275-1.0372-0.5715-0.45508-0.15875-0.762-0.15875-0.39158 0-0.60325 0.15875-0.22225 0.15875-0.22225 0.5715zm0.41275 2.1696q-0.37042 0-0.37042 0.65616v2.4553q0.48683 0 0.80433 0.26458 0.3175 0.26458 0.3175 0.85725 0 0.55033-0.3175 0.87841-0.3175 0.3175-0.78316 0.3175h-0.29633q-0.28575 0-0.49742-0.15875-0.20108-0.15875-0.20108-0.47625v-4.1381q0-0.39158 0.11642-0.70908 0.11642-0.32808 0.381-0.51858 0.27517-0.20108 0.73025-0.20108 0.51858 0 1.0901 0.64558h0.02117q0.29633-0.3175 0.5715-0.47625 0.28575-0.16933 0.67733-0.16933t0.62441 0.20108q0.23283 0.1905 0.32808 0.51858 0.10583 0.3175 0.10583 0.70908v4.7731h-0.97367v-4.7731q0-0.65616-0.37042-0.65616-0.21167 0-0.37042 0.15875-0.15875 0.15875-0.29633 0.32808-0.13758 0.15875-0.3175 0.15875-0.15875 0-0.3175-0.15875-0.14817-0.16933-0.30692-0.32808-0.14817-0.15875-0.34925-0.15875zm-0.37042 4.7202q0.46566 0 0.46566-0.47625 0-0.40217-0.46566-0.41275zm-7.1226-6.223q-0.51858 0-0.51858-0.77258 0-0.51858 0.42333-0.89958 0.41275-0.39158 1.1853-0.39158 0.55033 0 1.0795 0.21167 0.52916 0.20108 0.99483 0.51858v-0.98425h0.70908v2.3177zm0.26458-0.66675h2.6247q-0.58208-0.41275-1.0372-0.5715-0.45508-0.15875-0.762-0.15875-0.39158 0-0.60325 0.15875-0.22225 0.15875-0.22225 0.5715zm0.25399 10.456q-0.68791 0-0.68791-0.59266v-0.52916q0-0.33866 0.20108-0.61383 0.20108-0.27517 0.65616-0.43392 0.45508-0.15875 1.2171-0.15875 0.762 0 1.2171 0.15875 0.45508 0.15875 0.65616 0.43392 0.1905 0.27517 0.1905 0.61383v1.1218h-0.86783v-1.1218q0-0.33866-0.26458-0.51858-0.26458-0.16933-0.93133-0.16933-0.66675 0-0.93133 0.16933-0.27517 0.17992-0.27517 0.51858v0.43392q0 0.16933 0.27517 0.16933h0.68792v0.51858zm-2.0002-6.9109q-1.2171 0-1.2171 0.9525v0.78316q0.48683 0 0.80433 0.26458 0.3175 0.26458 0.3175 0.85725 0 0.55033-0.3175 0.87841-0.3175 0.3175-0.78316 0.3175h-0.29633q-0.28575 0-0.49742-0.15875-0.20108-0.15875-0.20108-0.47625v-2.4659q0-0.99483 0.70908-1.3864-0.20108-0.254-0.29633-0.381t-0.127-0.1905q-0.03175-0.074083-0.03175-0.13758 0-0.0635 0.05292-0.14817 0.05292-0.09525 0.1905-0.28575 0.14817-0.20108 0.43392-0.5715h2.9422v0.70908h-2.9422v0.010583l0.65616 0.74083q0.27517-0.03175 0.60325-0.03175 2.2013 0 2.2013 1.6722v1.4287q0 0.96308 1.1853 0.96308 1.1959 0 1.1959-0.96308v-2.4977q-0.32808-0.41275-0.48684-0.60325-0.15875-0.1905-0.20108-0.27517-0.042334-0.084666-0.042334-0.14817 0-0.0635 0.05292-0.14817 0.05292-0.09525 0.1905-0.28575 0.14817-0.20108 0.43392-0.5715h1.2806v0.70908h-1.2806v0.010583l1.0266 1.143v2.667q0 1.6722-2.1696 1.6722-2.159 0-2.159-1.6722v-1.4287q0-0.9525-1.2277-0.9525zm-1.2171 3.3443q0.46566 0 0.46566-0.47625 0-0.40217-0.46566-0.41275zm-6.9003 3.5666v-2.2225h0.92075v1.6087l0.762-0.67733 0.75141 0.66675v-1.5981h0.92075v2.2225h-1.0266l-0.64558-0.56092-0.64558 0.56092zm-1.7039-6.9109q-1.2171 0-1.2171 0.9525v0.78316q0.48683 0 0.80433 0.26458 0.3175 0.26458 0.3175 0.85725 0 0.55033-0.3175 0.87841-0.3175 0.3175-0.78316 0.3175h-0.29633q-0.28575 0-0.49742-0.15875-0.20108-0.15875-0.20108-0.47625v-2.4659q0-0.99483 0.70908-1.3864-0.20108-0.254-0.29633-0.381-0.09525-0.127-0.127-0.1905-0.03175-0.074083-0.03175-0.13758 0-0.0635 0.052916-0.14817 0.052916-0.09525 0.1905-0.28575 0.14817-0.20108 0.43392-0.5715h2.9422v0.70908h-2.9422v0.010583l0.65616 0.74083q0.27517-0.03175 0.60325-0.03175 2.2013 0 2.2013 1.6722v1.4287q0 0.96308 1.1853 0.96308 1.1959 0 1.1959-0.96308v-2.4977q-0.32808-0.41275-0.48683-0.60325t-0.20108-0.27517-0.042333-0.14817q0-0.0635 0.052917-0.14817 0.052917-0.09525 0.1905-0.28575 0.14817-0.20108 0.43391-0.5715h1.2806v0.70908h-1.2806v0.010583l1.0266 1.143v2.667q0 1.6722-2.1696 1.6722-2.159 0-2.159-1.6722v-1.4287q0-0.9525-1.2277-0.9525zm-1.2171 3.3443q0.46567 0 0.46567-0.47625 0-0.40217-0.46567-0.41275z"/>
</g>
</svg>
