<svg width="65.585mm" height="10.562mm" version="1.1" viewBox="0 0 65.585 10.562" xmlns="http://www.w3.org/2000/svg">
<g transform="translate(-22.55 -19.18)" stroke-width=".26458" aria-label=" Салам дүйнө">
<style> @keyframes animate { 0% { filter: hue-rotate(360deg);} 100% { filter: hue-rotate(0deg);} } path {fill: url(#grad);animation: animate linear 5s infinite ;} </style> <linearGradient id="grad"> <stop offset="0%" stop-color="cyan" /> <stop offset="50%" stop-color="magenta" /> <stop offset="100%" stop-color="yellow" /> </linearGradient>
<path d="m88.135 24.355q0 1.4076-0.71966 2.1802-0.70908 0.77258-1.9262 0.77258-0.75141 0-1.3441-0.33867-0.58208-0.34925-0.92075-1.0054-0.33866-0.66675-0.33866-1.6087 0-1.4076 0.70908-2.1696t1.9262-0.762q0.77258 0 1.3547 0.34925 0.59266 0.33867 0.92075 0.99483 0.33866 0.64558 0.33866 1.5875zm-2.6352-2.1484q-0.78316 0-1.1747 0.43392-0.39158 0.42333-0.46567 1.2594h3.302q-0.07408-0.83608-0.48683-1.2594-0.40216-0.43392-1.1747-0.43392zm0.01058 4.3286q0.81491 0 1.2065-0.47625 0.39158-0.47625 0.4445-1.3864h-3.3126q0.05292 0.91016 0.45508 1.3864 0.40216 0.47625 1.2065 0.47625zm-8.1174-5.0059v2.3601h3.0797v-2.3601h0.93133v5.6726h-0.93133v-2.5294h-3.0797v2.5294h-0.93133v-5.6726zm-3.1432-2.3495q-0.07408 0.79375-0.53975 1.2065-0.45508 0.40216-1.4605 0.40216-1.0372 0-1.4711-0.40216-0.42333-0.40216-0.47625-1.2065h0.86783q0.05292 0.5715 0.29633 0.77258 0.254 0.1905 0.80433 0.1905 0.48683 0 0.762-0.20108 0.28575-0.21167 0.33867-0.762zm-3.7147 2.3495v3.4607q0 0.127-0.01058 0.381t-0.03175 0.508q-0.01058 0.254-0.02117 0.40216l3.0374-4.7519h1.143v5.6726h-0.86783v-3.3443q0-0.16933 0-0.4445 0.01058-0.27517 0.02117-0.53975 0.01058-0.27516 0.02117-0.41275l-3.0162 4.7413h-1.1536v-5.6726zm-4.0005 8.2126h-0.93133v-2.5188l-2.2225-5.6938h0.97366l1.1853 3.1115q0.15875 0.42333 0.30692 0.89958 0.14817 0.46566 0.20108 0.73025h0.05292q0.0635-0.26458 0.20108-0.73025t0.30692-0.89958l1.1747-3.1115h0.97366l-2.2225 5.6938zm-4.191-8.2126v4.8895h0.8255v2.7517h-0.89958v-1.9685h-3.9476v1.9685h-0.889v-2.7517h0.45508q0.73025-1.0054 1.0901-2.286 0.37042-1.2912 0.381-2.6035zm-0.89958 0.73025h-1.2594q-0.04233 0.71966-0.22225 1.4922-0.17992 0.762-0.46566 1.4605-0.27517 0.6985-0.64558 1.2065h2.5929zm-7.8739-0.73025v5.6726h-0.83608v-3.6195q0-0.22225 0.01058-0.46566 0.02117-0.24342 0.04233-0.47625h-0.03175l-1.8521 4.5614h-0.78316l-1.7992-4.5614h-0.03175q0.03175 0.47625 0.03175 0.97366v3.5877h-0.83608v-5.6726h1.2382l1.7886 4.5614 1.8203-4.5614zm-9.8742-0.09525q1.0372 0 1.5346 0.45508 0.49742 0.45508 0.49742 1.4499v3.8629h-0.67733l-0.17992-0.80433h-0.04233q-0.37042 0.46566-0.78316 0.68792-0.40216 0.22225-1.1218 0.22225-0.77258 0-1.2806-0.40216-0.508-0.41275-0.508-1.2806 0-0.84666 0.66675-1.3017 0.66675-0.46566 2.0532-0.508l0.96308-0.03175v-0.33866q0-0.70908-0.30692-0.98425-0.30692-0.27517-0.86783-0.27517-0.4445 0-0.84666 0.13758-0.40216 0.127-0.75141 0.29633l-0.28575-0.6985q0.37042-0.20108 0.87841-0.33866 0.508-0.14817 1.0583-0.14817zm1.1112 2.9951-0.83608 0.03175q-1.0583 0.04233-1.4711 0.33867-0.40217 0.29633-0.40217 0.83608 0 0.47625 0.28575 0.6985 0.29633 0.22225 0.75142 0.22225 0.71966 0 1.1959-0.39158 0.47625-0.40217 0.47625-1.2277zm-5.0588 2.7728h-0.94191v-4.9001h-1.6722q-0.13758 1.7886-0.381 2.8892-0.24342 1.0901-0.64558 1.5875t-1.016 0.49742q-0.13758 0-0.27517-0.02117-0.127-0.01058-0.21167-0.05292v-0.6985q0.0635 0.02117 0.13758 0.03175 0.07408 0.01058 0.14817 0.01058 0.5715 0 0.91016-1.2171 0.34925-1.2171 0.52916-3.7994h3.4184zm-8.1068-5.7679q1.0372 0 1.5346 0.45508 0.49742 0.45508 0.49742 1.4499v3.8629h-0.67733l-0.17992-0.80433h-0.04233q-0.37042 0.46566-0.78316 0.68792-0.40216 0.22225-1.1218 0.22225-0.77258 0-1.2806-0.40216-0.508-0.41275-0.508-1.2806 0-0.84666 0.66675-1.3017 0.66675-0.46566 2.0532-0.508l0.96308-0.03175v-0.33866q0-0.70908-0.30692-0.98425-0.30692-0.27517-0.86783-0.27517-0.4445 0-0.84666 0.13758-0.40216 0.127-0.75141 0.29633l-0.28575-0.6985q0.37042-0.20108 0.87841-0.33866 0.508-0.14817 1.0583-0.14817zm1.1112 2.9951-0.83608 0.03175q-1.0583 0.04233-1.4711 0.33867-0.40217 0.29633-0.40217 0.83608 0 0.47625 0.28575 0.6985 0.29633 0.22225 0.75142 0.22225 0.71966 0 1.1959-0.39158 0.47625-0.40217 0.47625-1.2277zm-6.5828-4.0534q-1.2171 0-1.9156 0.81491t-0.6985 2.2331q0 1.4076 0.64558 2.2331 0.65616 0.81491 1.9579 0.81491 0.49742 0 0.94191-0.08467 0.4445-0.08467 0.86783-0.21167v0.8255q-0.42333 0.15875-0.87841 0.23283-0.4445 0.07408-1.0689 0.07408-1.1536 0-1.9262-0.47625-0.77258-0.47625-1.1642-1.3547-0.381-0.87841-0.381-2.0637 0-1.143 0.41275-2.0108 0.42333-0.87841 1.2382-1.3652 0.81491-0.49742 1.9791-0.49742 1.1959 0 2.0849 0.4445l-0.381 0.80433q-0.34925-0.15874-0.78316-0.28574-0.42333-0.127-0.93133-0.127z"/>
</g>
</svg>
