<svg width="64.537mm" height="10.933mm" version="1.1" viewBox="0 0 64.537 10.933" xmlns="http://www.w3.org/2000/svg">
<g stroke-width=".26458" aria-label=" ສະ​ບາຍ​ດີ​ຊາວ​ໂລກ">
<style> @keyframes animate { 0% { filter: hue-rotate(360deg);} 100% { filter: hue-rotate(0deg);} } path {fill: url(#grad);animation: animate linear 5s infinite ;} </style> <linearGradient id="grad"> <stop offset="0%" stop-color="cyan" /> <stop offset="50%" stop-color="magenta" /> <stop offset="100%" stop-color="yellow" /> </linearGradient>
<path d="m59.88 9.1546q-0.37042 0-0.762-0.14817l0.13758-0.65616q0.1905 0.0635 0.35983 0.0635 0.17992 0 0.29633-0.09525 0.127-0.10583 0.127-0.34925v-2.7517q0-0.58208-0.17992-0.94191t-0.40217-0.5715l0.67733-0.51858q0.14817 0.127 0.30692 0.37042 0.15875 0.24342 0.254 0.48683h0.03175q0.37042-0.48683 0.8255-0.66675 0.46566-0.1905 0.98425-0.1905 0.96308 0 1.4817 0.55033 0.51858 0.53975 0.51858 1.6192v3.7359h-0.93133v-3.6724q0-0.68791-0.28575-1.0689-0.28575-0.39158-0.96308-0.39158-0.3175 0-0.64558 0.11642-0.3175 0.10583-0.52916 0.40217t-0.21167 0.83608v2.6141q0 0.58208-0.28575 0.91016-0.28575 0.3175-0.80433 0.3175zm-5.6832 0.042333q-0.6985 0-1.0266-0.41275-0.32808-0.42333-0.32808-1.1324 0-0.762 0.381-1.2594 0.381-0.508 1.2488-0.508 0.62441 0 0.9525 0.27517 0.33866 0.27517 0.48683 0.74083l0.41275 1.3017q0.0635 0.20108 0.16933 0.28575 0.10583 0.074083 0.254 0.074083 0.35983 0 0.35983-0.42333v-2.8046q0-0.68791-0.49742-1.0266-0.48683-0.34925-1.3229-0.34925-0.48683 0-1.0901 0.11642-0.59266 0.11642-1.0266 0.33867v-0.79375q0.20108-0.10583 0.56092-0.20108 0.35983-0.10583 0.79375-0.16933 0.4445-0.0635 0.889-0.0635 0.75142 0 1.3441 0.22225 0.59266 0.22225 0.93133 0.68791 0.34925 0.45508 0.34925 1.1747v2.6882q0 0.64558-0.35983 0.94191-0.34925 0.29633-0.94191 0.29633-0.51858 0-0.79375-0.22225-0.27516-0.22225-0.42333-0.65616l-0.39158-1.2171q-0.15875-0.48683-0.68791-0.48683-0.34925 0-0.56092 0.24342-0.20108 0.23283-0.20108 0.762 0 0.889 0.67733 0.889 0.1905 0 0.34925-0.052917l0.13758 0.635q-0.10583 0.042333-0.27517 0.074083-0.15875 0.03175-0.37042 0.03175zm-2.8575 0q-0.47625 0-0.83608-0.254-0.35983-0.26458-0.35983-0.91016v-4.572q0-0.30692-0.127-0.508-0.11642-0.21167-0.29633-0.37042-0.16933-0.16933-0.34925-0.32808-0.16933-0.16933-0.28575-0.381-0.127-0.21167-0.127-0.52916 0-0.49742 0.35983-0.8255 0.35983-0.32808 1.1007-0.32808h1.651v0.71966h-1.6298q-0.254 0-0.381 0.10583-0.127 0.09525-0.16933 0.22225-0.04233 0.11642-0.04233 0.1905 0 0.20108 0.17992 0.381 0.1905 0.17992 0.43392 0.40217 0.24342 0.21167 0.42333 0.52916 0.1905 0.3175 0.1905 0.79375v4.445q0 0.23283 0.10583 0.34925 0.10583 0.10583 0.37042 0.10583 0.22225 0 0.39158-0.0635l0.13758 0.67733q-0.20108 0.084666-0.40217 0.11642-0.1905 0.03175-0.33866 0.03175zm-5.3975 0q-0.6985 0-1.2488-0.20108-0.53975-0.21167-0.85725-0.60325-0.30692-0.40217-0.30692-0.96308 0-0.20108 0.03175-0.33867 0.04233-0.13758 0.09525-0.254l0.86783 0.24342q-0.03175 0.074083-0.05292 0.15875-0.02117 0.084666-0.02117 0.20108 0 0.4445 0.37042 0.71966 0.37042 0.26458 1.0583 0.26458 0.8255 0 1.2912-0.48683t0.46566-1.7251q0-0.89958-0.24342-1.3864-0.24341-0.48683-0.67732-0.67733t-1.016-0.1905q-0.55033 0-1.0372 0.127-0.47625 0.127-0.92075 0.35983v-0.8255q0.34925-0.17992 0.86783-0.30692 0.51858-0.127 1.1642-0.127 0.59266 0 1.1007 0.14817 0.508 0.13758 0.889 0.47625 0.381 0.32808 0.59266 0.91016t0.21167 1.4711q0 1.143-0.34925 1.7992-0.34925 0.65616-0.94191 0.93133t-1.3335 0.27517zm-4.6249-0.10583v-4.4979q0-0.37042-0.15875-0.51858-0.15875-0.14817-0.49742-0.14817-0.254 0-0.46566 0.0635-0.20108 0.052916-0.34925 0.11642l-0.14817-0.68791q0.21167-0.09525 0.52916-0.15875 0.3175-0.074083 0.635-0.074083 0.60325 0 0.99483 0.30692 0.39158 0.29633 0.39158 0.96308v4.6355zm-3.3232 1.8415v-2.0743q0-0.39158-0.35983-0.39158-0.20108 0-0.4445 0.11642-0.24342 0.10583-0.52916 0.254-0.27517 0.13758-0.60325 0.254-0.32808 0.10583-0.70908 0.10583-0.37042 0-0.70908-0.127-0.32808-0.13758-0.53975-0.41275-0.20108-0.28575-0.20108-0.71966t0.21167-0.73025q0.21167-0.30692 0.55033-0.508 0.34925-0.20108 0.762-0.33867 0.42333-0.14817 0.84666-0.27517 0.49742-0.14817 0.889-0.27517 0.39158-0.13758 0.61383-0.33867 0.23283-0.20108 0.23283-0.53975t-0.22225-0.55033q-0.21167-0.22225-0.5715-0.3175-0.34925-0.10583-0.78316-0.10583-0.43392 0-0.79375 0.10583t-0.58208 0.32808q-0.21167 0.21167-0.21167 0.55033 0 0.16933 0.05292 0.27517t0.127 0.20108l-0.74083 0.37042q-0.16933-0.14817-0.254-0.381-0.074083-0.23283-0.074083-0.47625 0-0.4445 0.254-0.84666 0.254-0.40217 0.79375-0.64558 0.55033-0.254 1.4182-0.254 0.85725 0 1.4076 0.24342 0.55033 0.24342 0.81491 0.64558 0.26458 0.40217 0.26458 0.86783 0 0.4445-0.21167 0.75141-0.21167 0.29633-0.56091 0.508-0.34925 0.21167-0.77258 0.35983-0.42333 0.14817-0.84666 0.27517-0.41275 0.127-0.81491 0.26458-0.39158 0.127-0.64558 0.3175-0.254 0.1905-0.254 0.49742 0 0.22225 0.14817 0.381 0.15875 0.15875 0.4445 0.15875 0.254 0 0.53975-0.11642t0.59266-0.26458q0.3175-0.14817 0.64558-0.26458 0.32808-0.11642 0.66675-0.11642 0.27517 0 0.51858 0.10583 0.254 0.10583 0.40216 0.35983 0.15875 0.24342 0.15875 0.67733v2.0955zm-8.9746-8.4772q-0.37042 0-0.70908-0.127-0.33867-0.127-0.55033-0.37042t-0.21167-0.60325q0-0.4445 0.32808-0.74083 0.3175-0.30692 0.84666-0.45508 0.51858-0.15875 1.1112-0.15875 0.62441 0 1.1536 0.15875 0.51858 0.15875 0.83608 0.45508t0.3175 0.6985q0 0.32808-0.30692 0.52916v0.021167q0.09525-0.03175 0.254-0.042333 0.14817-0.010583 0.24342-0.010583h0.35983v0.64558h-2.0214l-0.14817-0.53975q0.02117 0 0.13758-0.021167 0.11642-0.03175 0.254-0.084666 0.13758-0.0635 0.24342-0.16933 0.10583-0.11642 0.10583-0.30692 0-0.30692-0.35983-0.48683-0.35983-0.1905-1.0583-0.1905t-1.0583 0.1905q-0.37042 0.17992-0.37042 0.48683 0 0.1905 0.10583 0.30692 0.10583 0.10583 0.254 0.16933 0.13758 0.052917 0.254 0.084666 0.11642 0.021167 0.127 0.021167zm0.27517 6.7416q-0.77258 0-1.27-0.35983-0.48683-0.37042-0.71966-1.016-0.22225-0.64558-0.22225-1.5028 0-1.6404 0.74083-2.3812 0.75141-0.75141 2.0002-0.75141 1.1324 0 1.8097 0.5715 0.67733 0.56091 0.67733 1.6404v3.6936h-0.93133v-3.6724q0-0.68791-0.381-1.0689-0.381-0.39158-1.1747-0.39158-0.96308 0-1.3864 0.59266-0.42333 0.58208-0.42333 1.7568 0 1.0689 0.33867 1.6087 0.34925 0.53975 1.0795 0.53975 0.27516 0 0.55033-0.084666l0.11642 0.6985q-0.32808 0.127-0.80433 0.127zm-6.1489 0q-1.2277 0-1.8521-0.47625-0.62441-0.48683-0.62441-1.3547 0-0.67733 0.3175-0.99483 0.3175-0.3175 0.67733-0.37042v-0.042333q-0.21167-0.0635-0.4445-0.21167-0.23283-0.15875-0.39158-0.42333-0.15875-0.27517-0.15875-0.67733 0-0.37042 0.16933-0.6985 0.16933-0.33867 0.53975-0.55033 0.381-0.21167 0.98425-0.21167 0.29633 0 0.56091 0.052916 0.26458 0.042333 0.42333 0.11642l-0.15875 0.71966q-0.11642-0.042333-0.30692-0.074083-0.17992-0.042333-0.39158-0.042333-0.43392 0-0.66675 0.21167-0.22225 0.20108-0.22225 0.5715 0 0.34925 0.17992 0.53975 0.1905 0.1905 0.47625 0.26458 0.29633 0.074083 0.60325 0.074083h0.51858v0.68791h-0.51858q-0.61383 0-0.94191 0.24342-0.3175 0.23283-0.3175 0.75141 0 0.52916 0.35983 0.8255 0.37042 0.29633 1.1959 0.29633 0.78316 0 1.1324-0.28575 0.35983-0.29633 0.35983-0.94191v-3.9052h0.93133v3.7994q0 1.1007-0.62442 1.6087-0.61383 0.49742-1.8097 0.49742zm-4.9953-0.10583v-4.4979q0-0.37042-0.15875-0.51858-0.15875-0.14817-0.49742-0.14817-0.254 0-0.46566 0.0635-0.20108 0.052916-0.34925 0.11642l-0.14817-0.68791q0.21167-0.09525 0.52916-0.15875 0.3175-0.074083 0.635-0.074083 0.60325 0 0.99483 0.30692 0.39158 0.29633 0.39158 0.96308v4.6355zm-4.9001 0.10583q-1.2806 0-1.8415-0.61383t-0.56092-1.6933v-3.5983h0.93133v3.6724q0 0.68791 0.34925 1.0795 0.34925 0.381 1.1218 0.381 0.78316 0 1.1218-0.381 0.34925-0.39158 0.34925-1.0795v-3.6724h0.93133v3.5983q0 1.0795-0.56092 1.6933t-1.8415 0.61383zm-5.5986-3.9052q-0.65616 0-0.93133-0.27517-0.27517-0.28575-0.27517-0.635 0-0.15875 0.042333-0.32808 0.052917-0.16933 0.127-0.27517h0.81491q-0.09525 0.1905-0.09525 0.41275 0 0.13758 0.074083 0.24342t0.26458 0.10583h1.7251v0.75141zm0 3.3337q-0.65616 0-0.93133-0.27517-0.27517-0.28575-0.27517-0.635 0-0.35983 0.16933-0.61383h0.81491q-0.042333 0.084666-0.074083 0.1905-0.021167 0.10583-0.021167 0.22225 0 0.14817 0.074083 0.254 0.074083 0.09525 0.26458 0.09525h1.7251v0.762zm-6.2547 0.5715q-0.74083 0-1.0689-0.4445-0.32808-0.4445-0.32808-1.0689 0-0.41275 0.14817-0.77258 0.14817-0.35983 0.49742-0.58208 0.34925-0.23283 0.9525-0.23283 0.65616 0 1.0266 0.27517 0.381 0.27517 0.51858 0.74083l0.33867 1.0901q0.0635 0.20108 0.17992 0.28575 0.11642 0.074083 0.26458 0.074083 0.35983 0 0.35983-0.42333v-2.7199q0-0.23283-0.0635-0.43392-0.40217 0.26458-0.94191 0.42333-0.52916 0.15875-1.1536 0.15875-0.56091 0-1.0266-0.127-0.46566-0.13758-0.74083-0.40217t-0.27517-0.65616q0-0.49742 0.51858-0.84666 0.51858-0.34925 1.6298-0.34925 0.6985 0 1.2277 0.14817t0.89958 0.40217q0.127-0.26458 0.127-0.55033v-0.074083h0.8255v0.074083q0 0.60325-0.39158 1.143 0.29633 0.47625 0.29633 1.0901v2.54q0 0.64558-0.35983 0.94191-0.34925 0.29633-0.94191 0.29633-0.51858 0-0.81491-0.22225-0.28575-0.22225-0.42333-0.65616l-0.30692-1.0054q-0.074083-0.27517-0.28575-0.40217-0.20108-0.127-0.49742-0.127-0.35983 0-0.56091 0.21167-0.20108 0.20108-0.20108 0.67733 0 0.83608 0.68791 0.83608 0.09525 0 0.16933-0.010583 0.084666-0.021167 0.16933-0.042333l0.14817 0.635q-0.11642 0.042333-0.27517 0.074083-0.14817 0.03175-0.32808 0.03175zm-0.52916-4.8048q0 0.17992 0.16933 0.28575 0.17992 0.10583 0.45508 0.15875 0.28575 0.042333 0.59266 0.042333 0.58208 0 1.016-0.13758 0.43392-0.13758 0.73025-0.35983-0.30692-0.26458-0.75141-0.381-0.4445-0.127-0.9525-0.127-0.52916 0-0.89958 0.127-0.35983 0.127-0.35983 0.39158z"/>
</g>
</svg>
