<svg width="79.282mm" height="10.253mm" version="1.1" viewBox="0 0 79.282 10.253" xmlns="http://www.w3.org/2000/svg">
<g stroke-width=".26458" aria-label="Labas pasauli">
<style> @keyframes animate { 0% { filter: hue-rotate(360deg);} 100% { filter: hue-rotate(0deg);} } path {fill: url(#grad);animation: animate linear 5s infinite ;} </style> <linearGradient id="grad"> <stop offset="0%" stop-color="cyan" /> <stop offset="50%" stop-color="magenta" /> <stop offset="100%" stop-color="yellow" /> </linearGradient>
<path d="m76.987 1.5296q-0.2067 0-0.3824-0.10335-0.1757-0.10335-0.27905-0.27905-0.10335-0.1757-0.10335-0.3824 0-0.20671 0.10335-0.3824 0.10335-0.1757 0.27905-0.27905 0.1757-0.10335 0.3824-0.10335t0.3824 0.10335q0.1757 0.10335 0.27905 0.27905 0.10335 0.1757 0.10335 0.3824 0 0.20671-0.10335 0.3824-0.10335 0.1757-0.27905 0.27905-0.1757 0.10335-0.3824 0.10335zm0.60978 5.4467h1.6846v0.89917h-4.8679v-0.89917h2.0877v-3.669h-1.7777v-0.9095h2.8732zm-4.7129 0.78548q-0.41341 0.11369-0.80098 0.16536-0.38757 0.051676-0.83199 0.051676-0.64079 0-1.0335-0.22738-0.39274-0.22738-0.57877-0.7028-0.18604-0.47542-0.18604-1.2402v-4.7749h-1.6123v-0.9095h2.7078v5.6327q0 0.46509 0.08268 0.72864 0.08785 0.25838 0.32556 0.38757 0.24288 0.12402 0.70796 0.12402 0.22738 0 0.48576-0.046509 0.26355-0.046509 0.60978-0.14986zm-5.7154-0.76481v0.8785l-1.757 0.051676-0.07752-1.1059h-0.09818q-0.12402 0.5581-0.47542 0.85783-0.34623 0.29972-0.85783 0.29972-0.91467 0-1.4159-0.5116-0.49609-0.51159-0.49609-1.4521v-3.7207h1.0749v3.7207q0 0.49609 0.27388 0.76481 0.27388 0.26872 0.76998 0.26872 0.60978 0 0.9095-0.39791 0.29972-0.40307 0.29972-1.3074v-3.0489h1.0955v4.5889zm-6.2012 0v0.8785l-1.757 0.051676-0.05168-1.2092h-0.10852q-0.05684 0.62012-0.5271 0.94051-0.46509 0.32039-1.2454 0.32039-0.85783 0-1.3281-0.40824-0.47025-0.41341-0.47025-1.1731 0-0.86816 0.63045-1.3332 0.63562-0.46509 1.7983-0.46509 0.63045 0 1.0852 0.12919v-0.29455q0-0.5581-0.3824-0.83199-0.37724-0.27388-1.1472-0.31523l-1.3126-0.062011 0.10335-0.93017 1.1059 0.041341q1.3539 0.051676 2.0154 0.61495 0.66146 0.56327 0.66146 1.6485v2.2841zm-3.514 0.10335q0.48576 0 0.83199-0.17053 0.3514-0.17053 0.5271-0.44442 0.18087-0.27388 0.18087-0.57361v-0.33073q-0.25838-0.067179-0.51676-0.082682-0.25321-0.020671-0.64079-0.020671-0.65112 0-0.98702 0.20671-0.3359 0.2067-0.3359 0.60978 0 0.39791 0.23771 0.60461 0.23771 0.20154 0.7028 0.20154zm-5.9944 0.8785q-0.63045 0-1.0749-0.036173-0.43925-0.036173-0.79582-0.11886l0.12402-0.99218q1.0542 0.16536 1.7467 0.16536 0.82682 0 1.2041-0.1602 0.37724-0.16536 0.37724-0.52193 0-0.23771-0.12919-0.36173-0.12402-0.12402-0.40824-0.19637l-1.2609-0.32039q-0.5271-0.13436-0.84232-0.31006-0.31523-0.1757-0.47026-0.44442-0.15503-0.27388-0.15503-0.68213 0-0.60461 0.28939-0.97668 0.29456-0.37724 0.9095-0.55294 0.62012-0.1757 1.6123-0.1757 0.75447 0 1.4469 0.10335l-0.11369 0.95084q-0.78031-0.072347-1.3643-0.072347-0.86816 0-1.2557 0.1602-0.38757 0.15503-0.38757 0.5116 0 0.22738 0.13436 0.34106t0.45475 0.19637l1.0129 0.24805q0.58911 0.14469 0.95084 0.34106t0.53743 0.49092q0.1757 0.29455 0.1757 0.72864 0 0.59428-0.28422 0.96635-0.28422 0.3669-0.88366 0.5426-0.59428 0.1757-1.5503 0.1757zm-2.8939-0.98185v0.8785l-1.757 0.051676-0.05168-1.2092h-0.10852q-0.05684 0.62012-0.5271 0.94051-0.46509 0.32039-1.2454 0.32039-0.85783 0-1.3281-0.40824-0.47025-0.41341-0.47025-1.1731 0-0.86816 0.63045-1.3332 0.63562-0.46509 1.7983-0.46509 0.63045 0 1.0852 0.12919v-0.29455q0-0.5581-0.3824-0.83199-0.37724-0.27388-1.1472-0.31523l-1.3126-0.062011 0.10335-0.93017 1.1059 0.041341q1.3539 0.051676 2.0154 0.61495 0.66146 0.56327 0.66146 1.6485v2.2841zm-3.514 0.10335q0.48576 0 0.83199-0.17053 0.3514-0.17053 0.5271-0.44442 0.18087-0.27388 0.18087-0.57361v-0.33073q-0.25838-0.067179-0.51676-0.082682-0.25321-0.020671-0.64078-0.020671-0.65112 0-0.98702 0.20671-0.3359 0.2067-0.3359 0.60978 0 0.39791 0.23771 0.60461 0.23771 0.20154 0.7028 0.20154zm-5.1573-4.8059q0.69246 0 1.1834 0.34106 0.49609 0.3359 0.74931 0.98702 0.25838 0.65112 0.25838 1.5658 0 0.894-0.25838 1.5193-0.25321 0.62528-0.74414 0.95084-0.48576 0.32039-1.1782 0.32039-0.63045 0-1.018-0.24288-0.38757-0.24288-0.43925-0.70796h-0.10335v3.2246h-1.0955v-7.8548h0.99218l0.08785 0.99218h0.11886q0.072347-0.55294 0.42891-0.82165 0.36173-0.27388 1.018-0.27388zm-0.16536 4.7542q0.63045 0 0.95084-0.47025t0.32039-1.3901q0-0.94051-0.33073-1.4521-0.32556-0.5116-0.93017-0.5116-1.3953 0-1.3953 1.571v1.3229q0 0.93017 1.3849 0.93017zm-13.074 0.93017q-0.63045 0-1.0749-0.036173-0.43925-0.036173-0.79581-0.11886l0.12402-0.99218q1.0542 0.16536 1.7467 0.16536 0.82682 0 1.2041-0.1602 0.37724-0.16536 0.37724-0.52193 0-0.23771-0.12919-0.36173-0.12402-0.12402-0.40824-0.19637l-1.2609-0.32039q-0.5271-0.13436-0.84232-0.31006t-0.47025-0.44442q-0.15503-0.27388-0.15503-0.68213 0-0.60461 0.28939-0.97668 0.29456-0.37724 0.9095-0.55294 0.62012-0.1757 1.6123-0.1757 0.75447 0 1.4469 0.10335l-0.11369 0.95084q-0.78031-0.072347-1.3643-0.072347-0.86816 0-1.2557 0.1602-0.38757 0.15503-0.38757 0.5116 0 0.22738 0.13436 0.34106 0.13436 0.11369 0.45475 0.19637l1.0129 0.24805q0.58911 0.14469 0.95084 0.34106t0.53743 0.49092q0.1757 0.29455 0.1757 0.72864 0 0.59428-0.28422 0.96635-0.28422 0.3669-0.88366 0.5426-0.59428 0.1757-1.5503 0.1757zm-2.8939-0.98185v0.8785l-1.757 0.051676-0.05168-1.2092h-0.10852q-0.05684 0.62012-0.5271 0.94051-0.46509 0.32039-1.2454 0.32039-0.85783 0-1.3281-0.40824-0.47025-0.41341-0.47025-1.1731 0-0.86816 0.63045-1.3332 0.63562-0.46509 1.7983-0.46509 0.63045 0 1.0852 0.12919v-0.29455q0-0.5581-0.3824-0.83199-0.37724-0.27388-1.1472-0.31523l-1.3126-0.062011 0.10335-0.93017 1.1059 0.041341q1.3539 0.051676 2.0154 0.61495 0.66146 0.56327 0.66146 1.6485v2.2841zm-3.514 0.10335q0.48576 0 0.83199-0.17053 0.3514-0.17053 0.5271-0.44442 0.18087-0.27388 0.18087-0.57361v-0.33073q-0.25838-0.067179-0.51676-0.082682-0.25321-0.020671-0.64079-0.020671-0.65112 0-0.98702 0.20671-0.3359 0.2067-0.3359 0.60978 0 0.39791 0.23771 0.60461 0.23771 0.20154 0.7028 0.20154zm-5.2606-4.8059q0.72347 0 1.2402 0.33073 0.51676 0.32556 0.78548 0.95084 0.26872 0.62528 0.26872 1.5089 0 0.91467-0.35657 1.5658-0.3514 0.64595-1.0284 0.98702-0.67179 0.34106-1.6226 0.34106-0.79582 0-1.8293-0.10335v-7.7514h1.0955v3.2659h0.10335q0.07752-1.0955 1.3436-1.0955zm-0.49609 4.7542q0.81648 0 1.2609-0.5116 0.44442-0.51676 0.44442-1.4521 0-0.894-0.33073-1.3746-0.32556-0.48576-0.93017-0.48576-1.3953 0-1.3953 1.571v2.2221q0.31006 0.031006 0.95084 0.031006zm-3.1316-0.051676v0.8785l-1.757 0.051676-0.051676-1.2092h-0.10852q-0.056844 0.62012-0.5271 0.94051-0.46509 0.32039-1.2454 0.32039-0.85783 0-1.3281-0.40824-0.47025-0.41341-0.47025-1.1731 0-0.86816 0.63045-1.3332 0.63562-0.46509 1.7983-0.46509 0.63045 0 1.0852 0.12919v-0.29455q0-0.5581-0.3824-0.83199-0.37724-0.27388-1.1472-0.31523l-1.3126-0.062012 0.10335-0.93017 1.1059 0.041341q1.3539 0.051676 2.0154 0.61495t0.66146 1.6485v2.2841zm-3.514 0.10335q0.48576 0 0.83199-0.17053 0.3514-0.17053 0.5271-0.44442 0.18087-0.27388 0.18087-0.57361v-0.33073q-0.25838-0.067179-0.51676-0.082682-0.25321-0.02067-0.64079-0.02067-0.65112 0-0.98702 0.20671-0.3359 0.2067-0.3359 0.60978 0 0.39791 0.23771 0.60461 0.23771 0.20154 0.7028 0.20154zm-2.9869-0.20671v0.98185h-4.8576v-7.338h1.0335v6.3562z"/>
</g>
</svg>
