<svg width="60.627mm" height="7.9788mm" version="1.1" viewBox="0 0 60.627 7.9788" xmlns="http://www.w3.org/2000/svg">
<g stroke-width=".26458" aria-label=" Moien Welt">
<style> @keyframes animate { 0% { filter: hue-rotate(360deg);} 100% { filter: hue-rotate(0deg);} } path {fill: url(#grad);animation: animate linear 5s infinite ;} </style> <linearGradient id="grad"> <stop offset="0%" stop-color="cyan" /> <stop offset="50%" stop-color="magenta" /> <stop offset="100%" stop-color="yellow" /> </linearGradient>
<path d="m60.627 7.8548q-0.72864 0.12402-1.4366 0.12402-0.83716 0-1.3539-0.22738-0.51676-0.22738-0.75964-0.7028-0.24288-0.47542-0.24288-1.2402v-2.5011h-1.3746v-0.9095h1.3746v-1.6536h1.0955v1.6536h2.4908v0.9095h-2.4908v2.4495q0 0.65629 0.32039 0.95084 0.32039 0.28939 1.0439 0.28939 0.23771 0 0.50643-0.02584 0.27388-0.02584 0.7028-0.07752zm-6.1805-0.09302q-0.41341 0.11369-0.80098 0.16536-0.38757 0.05168-0.83199 0.05168-0.64079 0-1.0335-0.22738-0.39274-0.22738-0.57877-0.7028t-0.18604-1.2402v-4.7749h-1.6123v-0.9095h2.7078v5.6327q0 0.46509 0.08268 0.72864 0.08785 0.25838 0.32556 0.38757 0.24288 0.12402 0.70796 0.12402 0.22738 0 0.48576-0.04651 0.26355-0.04651 0.60978-0.14986zm-6.2012-2.8422q0 0.37724-0.03101 0.7028h-3.7q0.14469 0.68213 0.65112 1.0387 0.50643 0.35657 1.3332 0.35657 0.63562 0 1.3436-0.14469l0.13436 0.96118q-0.75964 0.14469-1.602 0.14469-0.93534 0-1.5916-0.33073-0.65112-0.33073-0.99218-0.96635-0.34106-0.64079-0.34106-1.5555 0-0.88883 0.28939-1.5244t0.84232-0.97151q0.5581-0.3359 1.3384-0.3359 1.1162 0 1.7208 0.67696 0.60461 0.67696 0.60461 1.9482zm-0.99218-0.13436q0-0.7338-0.3514-1.1317-0.34623-0.39791-0.97151-0.39791-0.63562 0-1.0129 0.39791-0.37724 0.39791-0.44442 1.1317zm-5.5914-4.2478h0.98185l-0.72347 7.4414h-1.6743l-0.56844-4.2478h-0.06201l-0.56844 4.2478h-1.6743l-0.72347-7.4414h0.98185l0.62012 6.6146h0.10335l0.75447-4.4442h1.0852l0.74414 4.4442h0.10335zm-14.004 1.757q0.86816 0 1.3436 0.5271 0.47542 0.5271 0.47542 1.4883v3.5657h-1.0955v-3.5657q0-0.51676-0.25838-0.80098-0.25838-0.28422-0.72347-0.28422-1.2919 0-1.2919 1.571v3.0799h-1.0955v-5.4777h0.99218l0.08785 0.99218h0.11886q0.04651-0.55294 0.40308-0.82165 0.35657-0.27388 1.0439-0.27388zm-4.2168 2.6252q0 0.37724-0.03101 0.7028h-3.7q0.14469 0.68213 0.65112 1.0387 0.50643 0.35657 1.3332 0.35657 0.63562 0 1.3436-0.14469l0.13436 0.96118q-0.75964 0.14469-1.602 0.14469-0.93534 0-1.5916-0.33073-0.65112-0.33073-0.99218-0.96635-0.34106-0.64079-0.34106-1.5555 0-0.88883 0.28939-1.5244t0.84232-0.97151q0.5581-0.3359 1.3384-0.3359 1.1162 0 1.7208 0.67696 0.60461 0.67696 0.60461 1.9482zm-0.99218-0.13436q0-0.7338-0.3514-1.1317-0.34623-0.39791-0.97151-0.39791-0.63562 0-1.0129 0.39791-0.37724 0.39791-0.44442 1.1317zm-7.307-3.2556q-0.2067 0-0.3824-0.10335-0.1757-0.10335-0.27905-0.27905-0.10335-0.1757-0.10335-0.3824t0.10335-0.3824q0.10335-0.1757 0.27905-0.27905 0.1757-0.10335 0.3824-0.10335t0.3824 0.10335q0.1757 0.10335 0.27905 0.27905 0.10335 0.1757 0.10335 0.3824t-0.10335 0.3824q-0.10335 0.1757-0.27905 0.27905-0.1757 0.10335-0.3824 0.10335zm0.60978 5.4467h1.6846v0.89917h-4.8679v-0.89917h2.0877v-3.669h-1.7777v-0.9095h2.8732zm-7.1107 1.0025q-0.75447 0-1.2971-0.33073-0.53743-0.3359-0.82165-0.97151-0.27905-0.64079-0.27905-1.54t0.27905-1.5348q0.28422-0.64079 0.82165-0.97151 0.5426-0.3359 1.2971-0.3359t1.2919 0.3359q0.5426 0.33073 0.82165 0.97151 0.28422 0.63562 0.28422 1.5348t-0.28422 1.54q-0.27905 0.63562-0.82165 0.97151-0.53743 0.33073-1.2919 0.33073zm0-0.98185q0.60461 0 0.93017-0.48059 0.33073-0.48576 0.33073-1.3798 0-0.894-0.33073-1.3746-0.32556-0.48576-0.93017-0.48576t-0.93534 0.48576q-0.32556 0.48059-0.32556 1.3746 0 0.894 0.32556 1.3798 0.33073 0.48059 0.93534 0.48059zm-3.762-6.4595v7.338h-0.99218v-6.0358h-0.13436l-0.78548 3.0386h-1.0542l-0.78548-3.0386h-0.13436v6.0358h-0.99218v-7.338h1.6123l0.78548 3.1523h0.08268l0.78548-3.1523z"/>
</g>
</svg>
