<svg width="67.246mm" height="10.202mm" version="1.1" viewBox="0 0 67.246 10.202" xmlns="http://www.w3.org/2000/svg">
<g stroke-width=".26458" aria-label=" Здраво свету">
<style> @keyframes animate { 0% { filter: hue-rotate(360deg);} 100% { filter: hue-rotate(0deg);} } path {fill: url(#grad);animation: animate linear 5s infinite ;} </style> <linearGradient id="grad"> <stop offset="0%" stop-color="cyan" /> <stop offset="50%" stop-color="magenta" /> <stop offset="100%" stop-color="yellow" /> </linearGradient>
<path d="m61.859 1.9897h0.99483l1.2277 3.2279q0.15875 0.42333 0.28575 0.81491 0.127 0.381 0.1905 0.73025h0.04233q0.0635-0.26458 0.20108-0.68792 0.13758-0.43392 0.28575-0.86783l1.1536-3.2173h1.0054l-2.4447 6.4558q-0.29633 0.80433-0.77258 1.2806-0.46567 0.47625-1.2912 0.47625-0.254 0-0.4445-0.03175-0.1905-0.02117-0.32808-0.05292v-0.74083q0.11642 0.02117 0.27517 0.04233 0.16933 0.02117 0.34925 0.02117 0.48683 0 0.78316-0.27516 0.30692-0.27517 0.47625-0.73025l0.29633-0.75141zm-0.23283 0.78316h-1.8521v4.8895h-0.92075v-4.8895h-1.8309v-0.78316h4.6037zm-7.694-0.889q0.73025 0 1.2488 0.3175 0.52916 0.3175 0.80433 0.89958 0.28575 0.5715 0.28575 1.3441v0.56092h-3.8841q0.02117 0.96308 0.48683 1.4711 0.47625 0.49742 1.3229 0.49742 0.53975 0 0.9525-0.09525 0.42333-0.10583 0.86783-0.29633v0.81491q-0.43392 0.1905-0.85725 0.27516-0.42333 0.09525-1.0054 0.09525-0.80433 0-1.4287-0.32808-0.61383-0.32808-0.96308-0.97366-0.33867-0.65616-0.33867-1.5981 0-0.93133 0.30692-1.5981 0.3175-0.66675 0.87841-1.0266 0.5715-0.35983 1.3229-0.35983zm-0.01058 0.762q-0.66675 0-1.0583 0.43392-0.381 0.42333-0.45508 1.1853h2.8892q-0.010587-0.71966-0.33867-1.1642-0.32808-0.45508-1.0372-0.45508zm-3.7147 0.77258q0 0.52916-0.3175 0.8255-0.3175 0.29633-0.81492 0.40217v0.04233q0.52916 0.07408 0.92075 0.381 0.39158 0.29633 0.39158 0.93133 0 0.71966-0.53975 1.1959-0.52916 0.46566-1.7568 0.46566h-2.4447v-5.6726h2.4342q0.60325 0 1.0795 0.13758 0.48683 0.127 0.762 0.4445 0.28575 0.30692 0.28575 0.84666zm-0.94191 0.11642q0-0.40216-0.29633-0.58208-0.28575-0.1905-0.94191-0.1905h-1.4499v1.5557h1.2806q1.4076 0 1.4076-0.78316zm0.15875 2.4659q0-0.48683-0.37042-0.6985-0.37042-0.21167-1.0901-0.21167h-1.3864v1.8203h1.4076q0.6985 0 1.0689-0.20108 0.37042-0.21167 0.37042-0.70908zm-6.5828 1.7674q-0.75141 0-1.3441-0.30692-0.58208-0.30692-0.92075-0.9525-0.32808-0.64558-0.32808-1.651 0-1.0477 0.34925-1.7039 0.34925-0.65616 0.94191-0.96308 0.60325-0.30692 1.3652-0.30692 0.43392 0 0.83608 0.09525 0.40217 0.08467 0.65616 0.21167l-0.28575 0.77258q-0.254-0.09525-0.59266-0.17992-0.33867-0.08467-0.635-0.08467-1.6722 0-1.6722 2.1484 0 1.0266 0.40216 1.5769 0.41275 0.53975 1.2171 0.53975 0.46566 0 0.81491-0.09525 0.35983-0.09525 0.65616-0.23283v0.8255q-0.28575 0.14817-0.635 0.22225-0.33866 0.08467-0.8255 0.08467zm-6.4981-2.9527q0 1.4076-0.71966 2.1802-0.70908 0.77258-1.9262 0.77258-0.75142 0-1.3441-0.33867-0.58208-0.34925-0.92075-1.0054-0.33867-0.66675-0.33867-1.6087 0-1.4076 0.70908-2.1696t1.9262-0.762q0.77258 0 1.3547 0.34925 0.59266 0.33867 0.92075 0.99483 0.33867 0.64558 0.33867 1.5875zm-4.2862 0q0 1.0054 0.39158 1.5981 0.40217 0.58208 1.27 0.58208 0.85725 0 1.2594-0.58208 0.40216-0.59266 0.40216-1.5981 0-1.0054-0.40216-1.5769t-1.27-0.5715q-0.86783 0-1.2594 0.5715-0.39158 0.5715-0.39158 1.5769zm-2.1801-1.397q0 0.52916-0.3175 0.8255-0.3175 0.29633-0.81491 0.40217v0.04233q0.52916 0.07408 0.92075 0.381 0.39158 0.29633 0.39158 0.93133 0 0.71966-0.53975 1.1959-0.52916 0.46566-1.7568 0.46566h-2.4447v-5.6726h2.4342q0.60325 0 1.0795 0.13758 0.48683 0.127 0.762 0.4445 0.28575 0.30692 0.28575 0.84666zm-0.94191 0.11642q0-0.40216-0.29633-0.58208-0.28575-0.1905-0.94191-0.1905h-1.4499v1.5557h1.2806q1.4076 0 1.4076-0.78316zm0.15875 2.4659q0-0.48683-0.37042-0.6985t-1.0901-0.21167h-1.3864v1.8203h1.4076q0.6985 0 1.0689-0.20108 0.37042-0.21167 0.37042-0.70908zm-7.567-4.1063q1.0372 0 1.5346 0.45508t0.49742 1.4499v3.8629h-0.67733l-0.17992-0.80433h-0.04233q-0.37042 0.46566-0.78316 0.68792-0.40217 0.22225-1.1218 0.22225-0.77258 0-1.2806-0.40216-0.508-0.41275-0.508-1.2806 0-0.84666 0.66675-1.3017 0.66675-0.46567 2.0532-0.508l0.96308-0.03175v-0.33866q0-0.70908-0.30692-0.98425-0.30692-0.27517-0.86783-0.27517-0.4445 0-0.84666 0.13758-0.40216 0.127-0.75141 0.29633l-0.28575-0.6985q0.37042-0.20108 0.87841-0.33867 0.508-0.14817 1.0583-0.14817zm1.1112 2.9951-0.83608 0.03175q-1.0583 0.04233-1.4711 0.33867-0.40217 0.29633-0.40217 0.83608 0 0.47625 0.28575 0.6985 0.29633 0.22225 0.75141 0.22225 0.71966 0 1.1959-0.39158 0.47625-0.40217 0.47625-1.2277zm-7.0696-3.0057q1.0477 0 1.6827 0.73025 0.64558 0.73025 0.64558 2.2013 0 1.4499-0.64558 2.2013-0.635 0.75141-1.6933 0.75141-0.65616 0-1.0901-0.24342-0.42333-0.254-0.66675-0.58208h-0.0635q0.02117 0.17992 0.04233 0.45508 0.02117 0.27516 0.02117 0.47625v2.3283h-0.93133v-8.2126h0.762l0.127 0.77258h0.04233q0.254-0.37042 0.66675-0.62441 0.41275-0.254 1.1007-0.254zm-0.16933 0.78316q-0.86783 0-1.2277 0.48683-0.34925 0.48683-0.37042 1.4817v0.17992q0 1.0477 0.33867 1.6192 0.34925 0.56092 1.2806 0.56092 0.51858 0 0.84666-0.28575 0.33867-0.28575 0.49742-0.77258 0.16933-0.49742 0.16933-1.1324 0-0.97366-0.381-1.5557-0.37042-0.58208-1.1536-0.58208zm-4.4661-0.67733v4.8895h0.8255v2.7517h-0.89958v-1.9685h-3.9476v1.9685h-0.889v-2.7517h0.45508q0.73025-1.0054 1.0901-2.286 0.37042-1.2912 0.381-2.6035zm-0.89958 0.73025h-1.2594q-0.04233 0.71966-0.22225 1.4922-0.17992 0.762-0.46567 1.4605-0.27516 0.6985-0.64558 1.2065h2.5929zm-4.9424-0.84666q0 0.77258-0.48683 1.2277-0.48683 0.4445-1.3017 0.5715v0.04233q0.9525 0.127 1.4499 0.59266t0.49742 1.2171q0 0.99483-0.762 1.6192-0.762 0.62442-2.286 0.62442-0.61383 0-1.1747-0.09525-0.55033-0.08467-1.0266-0.3175v-0.86783q0.49742 0.23283 1.0795 0.37042 0.59266 0.127 1.1112 0.127 1.016 0 1.5346-0.381 0.52916-0.381 0.52916-1.0795 0-0.71966-0.61383-1.0477-0.61383-0.32808-1.7145-0.32808h-1.0795v-0.79375h1.0266q1.1218 0 1.6722-0.37042 0.56092-0.381 0.56092-1.016 0-0.5715-0.42333-0.87841t-1.1007-0.30692q-0.70908 0-1.1853 0.17992-0.46567 0.17992-0.91016 0.46567l-0.45508-0.64558q0.4445-0.32808 1.0901-0.55033 0.65616-0.23283 1.4711-0.23283 1.2277 0 1.8627 0.52916t0.635 1.3441z"/>
</g>
</svg>
