<svg width="77.417mm" height="8.7841mm" version="1.1" viewBox="0 0 77.417 8.7841" xmlns="http://www.w3.org/2000/svg">
<g stroke-width=".26458" aria-label=" ഹലോ വേൾഡ്">
<style> @keyframes animate { 0% { filter: hue-rotate(360deg);} 100% { filter: hue-rotate(0deg);} } path {fill: url(#grad);animation: animate linear 5s infinite ;} </style> <linearGradient id="grad"> <stop offset="0%" stop-color="cyan" /> <stop offset="50%" stop-color="magenta" /> <stop offset="100%" stop-color="yellow" /> </linearGradient>
<path d="m75.501 2.4024q-0.92075 0-1.4182-0.46566-0.49742-0.47625-0.49742-1.2382 0-0.1905 0.03175-0.381 0.03175-0.1905 0.07408-0.3175l0.78316 0.14817q-0.03175 0.10583-0.04233 0.254-0.02117 0.13758-0.02117 0.26458 0 0.56092 0.3175 0.79375 0.3175 0.22225 0.77258 0.22225 0.46566 0 0.78316-0.22225 0.30692-0.23283 0.30692-0.79375 0-0.127-0.01058-0.26458-0.02117-0.14817-0.05292-0.254l0.78316-0.14817q0.04233 0.127 0.07408 0.3175 0.03175 0.1905 0.03175 0.381 0 0.762-0.49742 1.2382-0.49742 0.46566-1.4182 0.46566zm-5.461 6.3817q-0.46566 0-0.84666-0.14817-0.381-0.15875-0.64558-0.47625-0.13758-0.16933-0.26458-0.40217-0.127-0.23283-0.20108-0.64558-0.07408-0.41275-0.07408-1.1112v-0.35983q0-0.58208-0.05292-1.016-0.05292-0.4445-0.23283-0.70908-0.13758-0.22225-0.381-0.34925-0.24342-0.13758-0.70908-0.13758-0.70908 0-1.1324 0.59266-0.42333 0.59266-0.42333 1.5769 0 0.89958 0.35983 1.5134 0.35983 0.61383 0.91016 1.0054l-0.56092 0.65616q-0.80433-0.62441-1.2277-1.3758-0.41275-0.762-0.41275-1.8309 0-1.3652 0.67733-2.1272 0.68792-0.77258 1.8521-0.77258 0.60325 0 1.016 0.17992 0.41275 0.16933 0.68791 0.48683 0.30692 0.34925 0.42333 0.81491 0.127 0.46566 0.127 1.2488v0.51858q0 0.74083 0.07408 1.1324 0.08467 0.39158 0.27517 0.61383 0.14817 0.16933 0.35983 0.26458 0.21167 0.09525 0.52916 0.09525 0.29633 0 0.51858-0.10583 0.22225-0.10583 0.37042-0.28575 0.17992-0.22225 0.26458-0.5715 0.08467-0.34925 0.08467-0.99483v-3.2702h0.91016v3.0903q0 0.59266 0.04233 0.94191 0.05292 0.33867 0.1905 0.58208 0.35983 0.61383 1.1218 0.61383 0.48683 0 0.85725-0.27517 0.381-0.28575 0.59266-0.77258 0.21166-0.48683 0.21166-1.1007 0-0.96308-0.37042-1.5557-0.37042-0.59266-0.89958-0.9525l0.61383-0.66675q0.45508 0.37042 0.81492 0.81491 0.35983 0.43392 0.56091 1.016 0.21166 0.5715 0.21166 1.3441 0 0.80433-0.30692 1.4711-0.30692 0.65616-0.89958 1.0477-0.58208 0.39158-1.4287 0.39158-0.67733 0-1.0901-0.254-0.40216-0.26458-0.68792-0.6985-0.58208 0.9525-1.8097 0.9525zm-9.0699-8.509q0.635 0 0.98425 0.23283 0.34925 0.22225 0.48683 0.52916 0.13758 0.30692 0.13758 0.55033 0 0.48683-0.22225 0.87841t-0.61383 0.78316q0.77258 0.52916 1.1747 1.3547 0.40217 0.8255 0.40217 1.7251 0 1.143-0.55033 1.7992-0.53975 0.65616-1.5769 0.65616-1.016 0-1.5663-0.62441-0.53975-0.635-0.53975-1.7992 0-0.86783 0.381-1.5663 0.381-0.70908 0.99483-1.3123-0.27517-0.0635-0.56092-0.0635-0.39158 0-0.74083 0.10583-0.33867 0.09525-0.56092 0.27516-0.381 0.29633-0.55033 0.8255-0.15875 0.51858-0.15875 1.2488v0.17992q0 0.77258-0.127 1.2488-0.127 0.46566-0.43392 0.81491-0.27517 0.3175-0.68792 0.49742-0.41275 0.16933-1.016 0.16933-1.1642 0-1.8521-0.762-0.67733-0.77258-0.67733-2.1484 0-1.0689 0.41275-1.8203 0.42333-0.762 1.2277-1.3864l0.5715 0.65616q-0.56092 0.39158-0.92075 1.0054-0.35983 0.61383-0.35983 1.524 0 0.98425 0.42333 1.5769t1.1324 0.59266q0.4445 0 0.68791-0.127 0.254-0.13758 0.40216-0.35983 0.17992-0.27517 0.23283-0.75141 0.05292-0.47625 0.05292-0.93133v-0.15875q0-0.92075 0.23283-1.4817t0.65616-0.92075q0.40216-0.33867 0.89958-0.47625 0.49742-0.14817 1.1007-0.14817 0.32808 0 0.62442 0.0635 0.30692 0.05292 0.58208 0.15875 0.254-0.254 0.42333-0.51858 0.17992-0.27517 0.17992-0.60325 0-0.28575-0.1905-0.508-0.17992-0.22225-0.635-0.22225-0.23283 0-0.4445 0.03175t-0.34925 0.08467l-0.20108-0.73025q0.17992-0.05292 0.48683-0.09525 0.30692-0.05292 0.64558-0.05292zm-0.9525 6.1066q0 0.64558 0.15875 1.0054 0.16933 0.35983 0.43392 0.508 0.27517 0.14817 0.58208 0.14817 1.1853 0 1.1853-1.6616 0-0.73025-0.29633-1.4182-0.28575-0.68791-0.87841-1.1218-0.61383 0.55033-0.89958 1.2065-0.28575 0.64558-0.28575 1.3335zm-13.864-3.7147q1.0477 0 1.7357 0.41275 0.68792 0.40216 1.0266 1.0901 0.34925 0.67733 0.34925 1.5134 0 0.762-0.24342 1.2912-0.24342 0.52916-0.59266 0.94191h2.5929v-5.1223h0.91016v5.8631h-4.445l-0.35983-0.62442q0.30691-0.21167 0.58208-0.51858 0.27517-0.30692 0.4445-0.73025 0.16933-0.43392 0.16933-0.99483 0-0.6985-0.254-1.2277-0.254-0.52916-0.75141-0.8255-0.48683-0.30692-1.2065-0.30692-0.6985 0-1.1959 0.3175-0.48683 0.30692-0.75141 0.83608-0.26458 0.52916-0.26458 1.1853 0 0.8255 0.34925 1.3864t0.94191 0.93133l-0.52916 0.66675q-0.45508-0.26458-0.84666-0.67733-0.381-0.42333-0.62442-1.0054-0.23283-0.59266-0.23283-1.3441 0-0.86783 0.37042-1.5557 0.37042-0.6985 1.0795-1.1007 0.71966-0.40217 1.7462-0.40217zm-6.0536 6.1171q-0.67733 0-1.3017-0.17992-0.61383-0.17992-1.1007-0.55033-0.47625-0.381-0.762-0.96308-0.27517-0.59266-0.27517-1.4076 0-0.78316 0.28575-1.3547 0.28575-0.5715 0.77258-0.94191 0.49742-0.37042 1.1112-0.53975 0.62441-0.17992 1.2912-0.17992 1.0477 0 1.5346 0.40217 0.49742 0.40216 0.49742 1.0266 0 0.45508-0.20108 0.762-0.20108 0.30692-0.53975 0.46567-0.32808 0.15875-0.70908 0.15875-0.56092 0-0.89958-0.1905-0.33866-0.20108-0.48683-0.51858-0.13758-0.32808-0.13758-0.68792 0-0.21167 0.05292-0.381 0.0635-0.17992 0.10583-0.28575-0.8255 0.1905-1.2806 0.78316-0.45508 0.58208-0.45508 1.4922 0 0.87841 0.45508 1.5028 0.45508 0.62441 1.2277 0.81491-0.0635-0.11642-0.11642-0.29633-0.05292-0.17992-0.05292-0.39158 0-0.35983 0.14817-0.66675 0.14817-0.30692 0.47625-0.49742 0.32808-0.20108 0.86783-0.20108 0.40216 0 0.74083 0.15875 0.33867 0.14817 0.53975 0.45508 0.21167 0.30692 0.21167 0.762 0 0.62442-0.49742 1.0372-0.48683 0.41275-1.5028 0.41275zm-0.16933-4.7202q0 0.23283 0.15875 0.48683 0.16933 0.24342 0.5715 0.24342 0.34925 0 0.508-0.20108 0.15875-0.21167 0.15875-0.47625 0-0.40216-0.29633-0.59266-0.28575-0.1905-0.66675-0.1905-0.04233 0-0.09525 0-0.04233 0-0.08467 0-0.254 0.3175-0.254 0.73025zm-0.0635 3.3126q0 0.43392 0.27517 0.74083 0.0635 0 0.127 0 0.40217 0 0.6985-0.1905 0.30692-0.20108 0.30692-0.61383 0-0.26458-0.15875-0.46566-0.15875-0.20108-0.51858-0.20108-0.40217 0-0.5715 0.24342-0.15875 0.24342-0.15875 0.48683zm-7.3236-1.6722q0 0.61383-0.127 1.1642-0.11642 0.55033-0.40216 0.98425-0.28575 0.43392-0.762 0.68792-0.46567 0.24342-1.1642 0.24342-0.71966 0-1.1853-0.29633-0.46566-0.30692-0.73025-0.75141-0.254-0.4445-0.34925-0.86783l0.92075-0.17992q0.07408 0.28575 0.21167 0.60325 0.14817 0.3175 0.41275 0.53975 0.27517 0.21167 0.70908 0.21167 0.56092 0 0.889-0.29633 0.33867-0.29633 0.48683-0.81491 0.15875-0.52916 0.15875-1.2171 0-1.0372-0.34925-1.6722t-1.1324-0.635q-0.41275 0-0.68791 0.22225-0.27517 0.21167-0.43392 0.51858-0.15875 0.30692-0.23283 0.59266l-0.91016-0.17992q0.127-0.4445 0.39158-0.87841 0.27517-0.43392 0.74083-0.71966 0.47625-0.29633 1.1959-0.29633 0.65616 0 1.1007 0.254 0.45508 0.24342 0.73025 0.67733 0.27517 0.42333 0.39158 0.97366 0.127 0.53975 0.127 1.1324zm-5.6515-2.9104v5.8631h-7.6729v-3.3126q0-0.78316 0.16933-1.2488 0.17992-0.46566 0.49742-0.77258 0.67733-0.65616 1.8944-0.65616 0.635 0 1.1007 0.15875 0.47625 0.15875 0.78316 0.46566 0.33866 0.32808 0.48683 0.8255 0.15875 0.48683 0.15875 1.1324v1.0583h-4.1804v1.6087h5.8526v-5.1223zm-5.1223 0.61383q-0.85725 0-1.2488 0.4445-0.39158 0.43392-0.39158 1.4076v0.30692h3.2702v-0.29633q0-1.0054-0.39158-1.4287-0.39158-0.43392-1.2382-0.43392zm-5.6621 5.3763q-0.67733 0-1.3017-0.17992-0.61383-0.17992-1.1007-0.55033-0.47625-0.381-0.762-0.96308-0.27517-0.59266-0.27517-1.4076 0-0.78316 0.28575-1.3547 0.28575-0.5715 0.77258-0.94191 0.49742-0.37042 1.1112-0.53975 0.62442-0.17992 1.2912-0.17992 1.0477 0 1.5346 0.40217 0.49742 0.40216 0.49742 1.0266 0 0.45508-0.20108 0.762-0.20108 0.30692-0.53975 0.46567-0.32808 0.15875-0.70908 0.15875-0.56092 0-0.89958-0.1905-0.33866-0.20108-0.48683-0.51858-0.13758-0.32808-0.13758-0.68792 0-0.21167 0.05292-0.381 0.0635-0.17992 0.10583-0.28575-0.8255 0.1905-1.2806 0.78316-0.45508 0.58208-0.45508 1.4922 0 0.87841 0.45508 1.5028 0.45508 0.62441 1.2277 0.81491-0.0635-0.11642-0.11642-0.29633-0.05292-0.17992-0.05292-0.39158 0-0.35983 0.14817-0.66675 0.14817-0.30692 0.47625-0.49742 0.32808-0.20108 0.86783-0.20108 0.40217 0 0.74083 0.15875 0.33867 0.14817 0.53975 0.45508 0.21167 0.30692 0.21167 0.762 0 0.62442-0.49742 1.0372-0.48683 0.41275-1.5028 0.41275zm-0.16933-4.7202q0 0.23283 0.15875 0.48683 0.16933 0.24342 0.5715 0.24342 0.34925 0 0.508-0.20108 0.15875-0.21167 0.15875-0.47625 0-0.40216-0.29633-0.59266-0.28575-0.1905-0.66675-0.1905-0.04233 0-0.09525 0-0.04233 0-0.08467 0-0.254 0.3175-0.254 0.73025zm-0.0635 3.3126q0 0.43392 0.27517 0.74083 0.0635 0 0.127 0 0.40216 0 0.6985-0.1905 0.30692-0.20108 0.30692-0.61383 0-0.26458-0.15875-0.46566-0.15875-0.20108-0.51858-0.20108-0.40216 0-0.5715 0.24342-0.15875 0.24342-0.15875 0.48683zm-13.79-2.3812q0.71966 0 1.1747 0.27517 0.46567 0.26458 0.68791 0.68791 0.23283 0.41275 0.23283 0.86783 0 0.34925-0.09525 0.635-0.09525 0.27517-0.23283 0.45508h2.5082q-0.32808-0.381-0.58208-0.92075-0.24342-0.53975-0.24342-1.2806 0-0.86783 0.37042-1.5557 0.37042-0.68792 1.0795-1.0901 0.70908-0.40217 1.7357-0.40217 1.0583 0 1.7462 0.41275 0.68791 0.40216 1.0266 1.0901 0.34925 0.67733 0.34925 1.5134 0 1.1112-0.48683 1.8627-0.47625 0.74083-1.2171 1.2065l-0.52917-0.66675q0.52917-0.30692 0.91016-0.87841 0.381-0.5715 0.381-1.4182 0-0.6985-0.26458-1.2277-0.254-0.52916-0.74083-0.8255-0.48683-0.30692-1.1959-0.30692-0.6985 0-1.1959 0.3175-0.49742 0.30692-0.762 0.83608-0.26458 0.52916-0.26458 1.1853 0 0.80433 0.3175 1.3441t0.87841 0.92075l-0.40217 0.62442h-4.1381l-0.30692-0.55033q0.21167-0.21167 0.33867-0.46566 0.127-0.26458 0.127-0.65616 0-0.5715-0.30692-0.91016-0.30692-0.33867-0.89958-0.33867-0.56091 0-0.87841 0.34925t-0.3175 0.83608q0 0.35983 0.14817 0.65616 0.14817 0.29633 0.47625 0.53975l-0.48683 0.61383q-0.4445-0.32808-0.74083-0.77258-0.28575-0.45508-0.28575-1.0583 0-0.56092 0.254-0.98425 0.26458-0.43392 0.73025-0.67733 0.47625-0.24342 1.1007-0.24342z"/>
</g>
</svg>
