<svg width="77.618mm" height="10.562mm" version="1.1" viewBox="0 0 77.618 10.562" xmlns="http://www.w3.org/2000/svg">
<g stroke-width=".26458" aria-label=" Сайн уу дэлхий">
<style> @keyframes animate { 0% { filter: hue-rotate(360deg);} 100% { filter: hue-rotate(0deg);} } path {fill: url(#grad);animation: animate linear 5s infinite ;} </style> <linearGradient id="grad"> <stop offset="0%" stop-color="cyan" /> <stop offset="50%" stop-color="magenta" /> <stop offset="100%" stop-color="yellow" /> </linearGradient>
<path d="m77.216 3.3188e-7q-0.074083 0.79375-0.53975 1.2065-0.45508 0.40217-1.4605 0.40217-1.0372 0-1.4711-0.40217-0.42333-0.40217-0.47625-1.2065h0.86783q0.052916 0.5715 0.29633 0.77258 0.254 0.1905 0.80433 0.1905 0.48683 0 0.762-0.20108 0.28575-0.21167 0.33866-0.762zm-3.7147 2.3495v3.4607q0 0.127-0.01058 0.381t-0.03175 0.508q-0.01058 0.254-0.02117 0.40217l3.0374-4.7519h1.143v5.6726h-0.86783v-3.3443q0-0.16933 0-0.4445 0.01058-0.27517 0.02117-0.53975 0.01058-0.27517 0.02117-0.41275l-3.0162 4.7413h-1.1536v-5.6726zm-6.8051 0v3.4607q0 0.127-0.01058 0.381t-0.03175 0.508q-0.01058 0.254-0.02117 0.40217l3.0374-4.7519h1.143v5.6726h-0.86783v-3.3443q0-0.16933 0-0.4445 0.01058-0.27517 0.02117-0.53975 0.01058-0.27517 0.02117-0.41275l-3.0162 4.7413h-1.1536v-5.6726zm-5.1329 2.7728-1.9579-2.7728h1.0583l1.4605 2.1378 1.4499-2.1378h1.0477l-1.9579 2.7728 2.0637 2.8998h-1.0583l-1.5452-2.2648-1.5663 2.2648h-1.0477zm-3.1432 2.8998h-0.94191v-4.9001h-1.6722q-0.13758 1.7886-0.381 2.8892-0.24342 1.0901-0.64558 1.5875-0.40216 0.49742-1.016 0.49742-0.13758 0-0.27517-0.021167-0.127-0.010583-0.21167-0.052917v-0.6985q0.0635 0.021167 0.13758 0.03175 0.07408 0.010583 0.14817 0.010583 0.5715 0 0.91016-1.2171 0.34925-1.2171 0.52916-3.7994h3.4184zm-8.636 0.10583q-0.48683 0-0.84666-0.084666-0.34925-0.074084-0.65616-0.22225v-0.80433q0.3175 0.127 0.68791 0.22225 0.37042 0.09525 0.83608 0.09525 0.8255 0 1.3123-0.4445t0.53975-1.4076h-2.794v-0.762h2.7834q-0.074083-0.86783-0.49742-1.27-0.41275-0.40217-1.2171-0.40217-0.30692 0-0.67733 0.084666-0.35983 0.084666-0.64558 0.1905l-0.26458-0.75141q0.30692-0.13758 0.73025-0.23283 0.42333-0.09525 0.84666-0.09525 0.79375 0 1.397 0.29633 0.61383 0.29633 0.9525 0.94191 0.34925 0.64558 0.34925 1.7039 0 1.0054-0.37042 1.6616-0.35983 0.65616-1.0054 0.97366-0.635 0.30692-1.4605 0.30692zm-2.8469-5.7785v4.8895h0.8255v2.7517h-0.89958v-1.9685h-3.9476v1.9685h-0.889v-2.7517h0.45508q0.73025-1.0054 1.0901-2.286 0.37042-1.2912 0.381-2.6035zm-0.89958 0.73025h-1.2594q-0.04233 0.71966-0.22225 1.4922-0.17992 0.762-0.46566 1.4605-0.27517 0.6985-0.64558 1.2065h2.5929zm-12.351-0.73025h0.99483l1.2277 3.2279q0.15875 0.42333 0.28575 0.81491 0.127 0.381 0.1905 0.73025h0.04233q0.0635-0.26458 0.20108-0.68791 0.13758-0.43392 0.28575-0.86783l1.1536-3.2173h1.0054l-2.4447 6.4558q-0.29633 0.80433-0.77258 1.2806-0.46566 0.47625-1.2912 0.47625-0.254 0-0.4445-0.03175-0.1905-0.02117-0.32808-0.05292v-0.74083q0.11642 0.021167 0.27517 0.042333 0.16933 0.021167 0.34925 0.021167 0.48683 0 0.78316-0.27517 0.30692-0.27517 0.47625-0.73025l0.29633-0.75141zm-5.3975 0h0.99483l1.2277 3.2279q0.15875 0.42333 0.28575 0.81491 0.127 0.381 0.1905 0.73025h0.04233q0.0635-0.26458 0.20108-0.68791 0.13758-0.43392 0.28575-0.86783l1.1536-3.2173h1.0054l-2.4447 6.4558q-0.29633 0.80433-0.77258 1.2806-0.46567 0.47625-1.2912 0.47625-0.254 0-0.4445-0.03175-0.1905-0.02117-0.32808-0.05292v-0.74083q0.11642 0.021167 0.27517 0.042333 0.16933 0.021167 0.34925 0.021167 0.48683 0 0.78316-0.27517 0.30692-0.27517 0.47625-0.73025l0.29633-0.75141zm-7.6729 0v2.3601h3.0797v-2.3601h0.93133v5.6726h-0.93133v-2.5294h-3.0797v2.5294h-0.93133v-5.6726zm-3.1432-2.3495q-0.074083 0.79375-0.53975 1.2065-0.45508 0.40217-1.4605 0.40217-1.0372 0-1.4711-0.40217-0.42333-0.40217-0.47625-1.2065h0.86783q0.052917 0.5715 0.29633 0.77258 0.254 0.1905 0.80433 0.1905 0.48683 0 0.762-0.20108 0.28575-0.21167 0.33866-0.762zm-3.7147 2.3495v3.4607q0 0.127-0.01058 0.381t-0.03175 0.508q-0.01058 0.254-0.02117 0.40217l3.0374-4.7519h1.143v5.6726h-0.86783v-3.3443q0-0.16933 0-0.4445 0.01058-0.27517 0.02117-0.53975 0.01058-0.27517 0.02117-0.41275l-3.0162 4.7413h-1.1536v-5.6726zm-4.6672-0.09525q1.0372 0 1.5346 0.45508 0.49742 0.45508 0.49742 1.4499v3.8629h-0.67733l-0.17992-0.80433h-0.04233q-0.37042 0.46567-0.78317 0.68791-0.40217 0.22225-1.1218 0.22225-0.77258 0-1.2806-0.40217-0.508-0.41275-0.508-1.2806 0-0.84666 0.66675-1.3017 0.66675-0.46567 2.0532-0.508l0.96308-0.03175v-0.33867q0-0.70908-0.30692-0.98425-0.30692-0.27517-0.86783-0.27517-0.4445 0-0.84666 0.13758-0.40217 0.127-0.75141 0.29633l-0.28575-0.6985q0.37042-0.20108 0.87841-0.33867 0.508-0.14817 1.0583-0.14817zm1.1112 2.9951-0.83608 0.03175q-1.0583 0.042333-1.4711 0.33867-0.40217 0.29633-0.40217 0.83608 0 0.47625 0.28575 0.6985 0.29633 0.22225 0.75141 0.22225 0.71966 0 1.1959-0.39158 0.47625-0.40217 0.47625-1.2277zm-6.5828-4.0534q-1.2171 0-1.9156 0.81491-0.6985 0.81491-0.6985 2.2331 0 1.4076 0.64558 2.2331 0.65616 0.81491 1.9579 0.81491 0.49742 0 0.94191-0.084666t0.86783-0.21167v0.8255q-0.42333 0.15875-0.87841 0.23283-0.4445 0.074083-1.0689 0.074083-1.1536 0-1.9262-0.47625-0.77258-0.47625-1.1642-1.3547-0.381-0.87841-0.381-2.0637 0-1.143 0.41275-2.0108 0.42333-0.87841 1.2382-1.3652 0.81491-0.49742 1.9791-0.49742 1.1959 0 2.0849 0.4445l-0.381 0.80433q-0.34925-0.15875-0.78316-0.28575-0.42333-0.127-0.93133-0.127z"/>
</g>
</svg>
