<svg width="98.806mm" height="15.579mm" version="1.1" viewBox="0 0 98.806 15.579" xmlns="http://www.w3.org/2000/svg">
<g stroke-width=".26458" aria-label="မင်္ဂလာပါကမ္ဘာလောက">
<style> @keyframes animate { 0% { filter: hue-rotate(360deg);} 100% { filter: hue-rotate(0deg);} } path {fill: url(#grad);animation: animate linear 5s infinite ;} </style> <linearGradient id="grad"> <stop offset="0%" stop-color="cyan" /> <stop offset="50%" stop-color="magenta" /> <stop offset="100%" stop-color="yellow" /> </linearGradient>
<path d="m89.439 10.721q-0.381-0.254-0.6985-0.68791-0.30692-0.43392-0.48683-0.98425-0.17992-0.56091-0.17992-1.1642 0-0.91016 0.381-1.5875 0.39158-0.68791 1.0583-1.0689 0.66675-0.39158 1.4922-0.39158 0.80433 0 1.4182 0.34925 0.61383 0.33867 0.99483 0.92075 0.41275-0.62441 1.0372-0.94191 0.635-0.32808 1.4182-0.32808 0.91016 0 1.5663 0.39158 0.65616 0.39158 1.0054 1.0583 0.35983 0.65616 0.35983 1.4922 0 0.889-0.35983 1.5557-0.34925 0.65616-0.96308 1.016-0.61383 0.35983-1.4076 0.35983-0.48683 0-0.83608-0.0635t-0.65616-0.21167l0.33866-0.6985q0.40217 0.20108 0.99483 0.20108 0.87841 0 1.397-0.58208 0.52916-0.58208 0.52916-1.5557 0-0.97366-0.508-1.5663-0.508-0.60325-1.4499-0.60325-0.68791 0-1.1747 0.37042t-0.89958 1.0266q0.10583 0.41275 0.10583 0.85725 0 0.99483-0.39158 1.7145-0.381 0.70908-0.97366 1.1218l-0.53975-0.67733q0.45508-0.37042 0.6985-0.89958 0.24342-0.52916 0.24342-1.2382 0-1.0477-0.53975-1.6616-0.52916-0.61383-1.4076-0.61383-0.889 0-1.4287 0.61383-0.53975 0.60325-0.53975 1.6616 0 0.70908 0.24342 1.2382 0.24342 0.52916 0.6985 0.89958zm-5.2176 0q-0.47625 0-0.8255-0.0635-0.33867-0.0635-0.635-0.21167l0.33867-0.6985q0.40216 0.1905 0.97366 0.1905 0.87841 0 1.3758-0.59266 0.49742-0.60325 0.49742-1.5981 0-0.62441-0.254-1.1007-0.254-0.48683-0.73025-0.762-0.46566-0.27517-1.1007-0.27517-0.61383 0-1.2065 0.30692-0.60325 0.29633-1.1747 0.96308l-0.55033-0.58208q0.5715-0.66675 1.27-1.0583 0.6985-0.40217 1.651-0.40217 0.889 0 1.5769 0.39158 0.6985 0.381 1.0901 1.0372 0.40217 0.65616 0.40217 1.4922 0 0.85725-0.35983 1.5346-0.35983 0.66675-0.97366 1.0477-0.60325 0.381-1.3652 0.381zm-10.192 0q-0.78316 0-1.397-0.35983-0.60325-0.37042-0.9525-1.0266-0.33867-0.66675-0.33867-1.5557 0-0.8255 0.34925-1.4922t0.98425-1.0583q0.64558-0.39158 1.5346-0.39158 0.80433 0 1.3758 0.35983 0.58208 0.34925 0.96308 0.96308t0.58208 1.3864q0.30692 1.1536 0.81491 1.7674 0.51858 0.61383 1.3864 0.61383 0.508 0 0.91016-0.26458 0.41275-0.26458 0.64558-0.75141 0.24342-0.49742 0.24342-1.1536 0-0.99483-0.51858-1.5663-0.508-0.5715-1.3547-0.5715-0.5715 0-0.97366 0.1905l-0.33867-0.6985q0.29633-0.14817 0.635-0.21167 0.34925-0.0635 0.8255-0.0635 0.78316 0 1.3864 0.35983 0.60325 0.35983 0.9525 1.0266 0.34925 0.65616 0.34925 1.5557 0 0.83608-0.35983 1.5028-0.34925 0.66675-0.98425 1.0583-0.62442 0.381-1.4499 0.381-1.2277 0-1.9156-0.6985-0.68791-0.70908-1.0795-2.0002-0.39158-1.2912-0.89958-1.8415-0.508-0.55033-1.2488-0.55033-0.83608 0-1.3441 0.60325-0.508 0.59266-0.508 1.5663 0 0.97366 0.508 1.5557 0.51858 0.58208 1.3652 0.58208 0.58208 0 0.97366-0.1905l0.33867 0.6985q-0.29633 0.14817-0.64558 0.21167-0.33866 0.0635-0.81491 0.0635zm-6.3605 0q-0.85725 0-1.5134-0.39158-0.64558-0.40217-1.016-1.0689-0.37042-0.66675-0.37042-1.4922 0-0.8255 0.37042-1.4922 0.381-0.66675 1.0372-1.0477 0.65616-0.39158 1.4922-0.39158 1.0054 0 1.6616 0.47625 0.65616 0.47625 0.89958 1.2488l-0.74083 0.381q-0.23283-0.65616-0.67733-0.98425-0.4445-0.33867-1.1642-0.33867-0.52916 0-0.96308 0.26458t-0.6985 0.75141q-0.254 0.47625-0.254 1.1218 0 0.381 0.09525 0.73025 0.42333-0.32808 0.9525-0.51858 0.52916-0.20108 1.0583-0.20108 0.75141 0 1.3123 0.22225 0.56092 0.21167 1.1642 0.6985-0.20108 0.93133-0.89958 1.4817-0.68791 0.55033-1.7462 0.55033zm0.20108-2.1802q-0.48683 0-0.93133 0.17992-0.43392 0.17992-0.79375 0.46567 0.23283 0.33867 0.60325 0.55033 0.37042 0.20108 0.889 0.20108 0.635 0 1.0372-0.23283 0.40217-0.24342 0.635-0.71966-0.254-0.17992-0.59266-0.30692-0.32808-0.13758-0.84666-0.13758zm-6.9215 2.1802q-0.47625 0-0.8255-0.0635-0.33866-0.0635-0.635-0.21167l0.33867-0.6985q0.40216 0.1905 0.97366 0.1905 0.87841 0 1.3758-0.59266 0.49742-0.60325 0.49742-1.5981 0-0.62441-0.254-1.1007-0.254-0.48683-0.73025-0.762-0.46566-0.27517-1.1007-0.27517-0.61383 0-1.2065 0.30692-0.60325 0.29633-1.1747 0.96308l-0.55033-0.58208q0.5715-0.66675 1.27-1.0583 0.6985-0.40217 1.651-0.40217 0.889 0 1.5769 0.39158 0.6985 0.381 1.0901 1.0372 0.40216 0.65616 0.40216 1.4922 0 0.85725-0.35983 1.5346-0.35983 0.66675-0.97366 1.0477-0.60325 0.381-1.3652 0.381zm-3.2702 4.8472q-0.30692 0-0.56092-0.04233t-0.47625-0.14817l0.3175-0.64558q0.27516 0.127 0.65616 0.127 0.53975 0 0.93133-0.381t0.39158-1.0583-0.33867-1.1218q-0.34925-0.4445-0.98425-0.4445-0.43392 0-0.81491 0.26458-0.39158 0.27517-0.64558 0.6985 0.0635 0.26458 0.0635 0.52916 0 0.62441-0.26458 1.1324-0.26458 0.508-0.75141 0.80433-0.49742 0.29633-1.1853 0.29633-0.66675 0-1.1853-0.34925-0.52916-0.33867-0.77258-0.94191l0.68791-0.32809q0.17992 0.47625 0.51858 0.68792 0.33867 0.21167 0.78316 0.21167 0.635 0 0.98425-0.43392 0.34925-0.42333 0.34925-1.1007 0-0.65616-0.35983-1.0689-0.35983-0.41275-0.94191-0.41275-0.43392 0-0.78316 0.22225-0.34925 0.22225-0.52916 0.68792l-0.67733-0.34925q0.24342-0.60325 0.77258-0.94191 0.51858-0.32808 1.1959-0.32808 0.60325 0 1.0477 0.26458 0.4445 0.26458 0.71966 0.66675 0.3175-0.46566 0.78316-0.6985 0.46566-0.23283 0.99483-0.23283 0.66675 0 1.1536 0.30692 0.48683 0.30692 0.75141 0.81491 0.27517 0.51858 0.27517 1.1536 0 0.62442-0.28575 1.1112-0.28575 0.49742-0.762 0.77258-0.47625 0.27517-1.0583 0.27517zm-1.8521-4.8472q-0.86783 0-1.5452-0.39158-0.67733-0.39158-1.0689-1.0795-0.381-0.68791-0.381-1.5769 0-0.87841 0.37042-1.6298 0.37042-0.762 0.99483-1.2065l0.53975 0.67733q-0.45508 0.37042-0.6985 0.89958-0.24342 0.51858-0.24342 1.2382 0 0.381 0.08467 0.71966 0.37042-0.33867 0.84666-0.52916 0.47625-0.1905 1.0901-0.1905 0.60325 0 1.0795 0.1905 0.48683 0.1905 0.86783 0.53975 0.08467-0.33867 0.08467-0.73025 0-0.71966-0.26458-1.2382-0.254-0.52916-0.75141-0.89958l0.52916-0.67733q0.4445 0.28575 0.77258 0.74083 0.32808 0.4445 0.508 0.98425t0.17992 1.1112q0 0.89958-0.39158 1.5875t-1.0689 1.0795q-0.67733 0.381-1.5346 0.381zm-0.01058-2.3177q-0.94191 0-1.6404 0.68791 0.26458 0.40217 0.68791 0.62441t0.96308 0.22225q0.53975 0 0.9525-0.22225 0.42333-0.22225 0.68791-0.62441-0.3175-0.33867-0.74083-0.508-0.42333-0.17992-0.91016-0.17992zm-13.515 2.3177q-0.381-0.254-0.6985-0.68791-0.30692-0.43392-0.48683-0.98425-0.17992-0.56091-0.17992-1.1642 0-0.91016 0.381-1.5875 0.39158-0.68791 1.0583-1.0689 0.66675-0.39158 1.4922-0.39158 0.80433 0 1.4182 0.34925 0.61383 0.33867 0.99483 0.92075 0.41275-0.62441 1.0372-0.94191 0.635-0.32808 1.4182-0.32808 0.91016 0 1.5663 0.39158 0.65616 0.39158 1.0054 1.0583 0.35983 0.65616 0.35983 1.4922 0 0.889-0.35983 1.5557-0.34925 0.65616-0.96308 1.016-0.61383 0.35983-1.4076 0.35983-0.48683 0-0.83608-0.0635t-0.65616-0.21167l0.33867-0.6985q0.40216 0.20108 0.99483 0.20108 0.87841 0 1.397-0.58208 0.52916-0.58208 0.52916-1.5557 0-0.97366-0.508-1.5663-0.508-0.60325-1.4499-0.60325-0.68791 0-1.1747 0.37042t-0.89958 1.0266q0.10583 0.41275 0.10583 0.85725 0 0.99483-0.39158 1.7145-0.381 0.70908-0.97366 1.1218l-0.53975-0.67733q0.45508-0.37042 0.6985-0.89958t0.24342-1.2382q0-1.0477-0.53975-1.6616-0.52916-0.61383-1.4076-0.61383-0.889 0-1.4287 0.61383-0.53975 0.60325-0.53975 1.6616 0 0.70908 0.24342 1.2382t0.6985 0.89958zm-3.81-0.10583v-8.255q0-0.75141-0.30692-1.1959-0.30692-0.45508-0.96308-0.45508-0.5715 0-0.92075 0.39158t-0.34925 1.1853v0.16933h-0.89958v-0.14817q0-0.70908 0.27516-1.2171 0.26458-0.51858 0.762-0.80433 0.48683-0.28575 1.1324-0.28575 1.0372 0 1.5981 0.66675 0.5715 0.66675 0.5715 1.8415v8.1068zm-4.5402 0.10583q-0.86783 0-1.5452-0.39158-0.67733-0.39158-1.0689-1.0795-0.381-0.68791-0.381-1.5769 0-0.87841 0.37042-1.6298 0.37042-0.762 0.99483-1.2065l0.53975 0.67733q-0.45508 0.37042-0.6985 0.89958-0.24342 0.51858-0.24342 1.2382 0 1.0583 0.56091 1.6722 0.56092 0.61383 1.4711 0.61383t1.4605-0.61383q0.56092-0.62441 0.56092-1.6722 0-0.71966-0.26458-1.2382-0.254-0.52916-0.75141-0.89958l0.52916-0.67733q0.4445 0.28575 0.77258 0.74083 0.32808 0.4445 0.508 0.98425t0.17992 1.1112q0 0.89958-0.39158 1.5875t-1.0689 1.0795q-0.67733 0.381-1.5346 0.381zm-6.8474 0q-0.47625 0-0.8255-0.0635-0.33867-0.0635-0.635-0.21167l0.33867-0.6985q0.40216 0.1905 0.97366 0.1905 0.87841 0 1.3758-0.59266 0.49742-0.60325 0.49742-1.5981 0-0.62441-0.254-1.1007-0.254-0.48683-0.73025-0.762-0.46566-0.27517-1.1007-0.27517-0.61383 0-1.2065 0.30692-0.60325 0.29633-1.1747 0.96308l-0.55033-0.58208q0.5715-0.66675 1.27-1.0583 0.6985-0.40217 1.651-0.40217 0.889 0 1.5769 0.39158 0.6985 0.381 1.0901 1.0372 0.40217 0.65616 0.40217 1.4922 0 0.85725-0.35983 1.5346-0.35983 0.66675-0.97366 1.0477-0.60325 0.381-1.3652 0.381zm-10.192 0q-0.78316 0-1.397-0.35983-0.60325-0.37042-0.9525-1.0266-0.33867-0.66675-0.33867-1.5557 0-0.8255 0.34925-1.4922t0.98425-1.0583q0.64558-0.39158 1.5346-0.39158 0.80433 0 1.3758 0.35983 0.58208 0.34925 0.96308 0.96308 0.381 0.61383 0.58208 1.3864 0.30692 1.1536 0.81491 1.7674 0.51858 0.61383 1.3864 0.61383 0.508 0 0.91016-0.26458 0.41275-0.26458 0.64558-0.75141 0.24342-0.49742 0.24342-1.1536 0-0.99483-0.51858-1.5663-0.508-0.5715-1.3547-0.5715-0.5715 0-0.97366 0.1905l-0.33867-0.6985q0.29633-0.14817 0.635-0.21167 0.34925-0.0635 0.8255-0.0635 0.78316 0 1.3864 0.35983 0.60325 0.35983 0.9525 1.0266 0.34925 0.65616 0.34925 1.5557 0 0.83608-0.35983 1.5028-0.34925 0.66675-0.98425 1.0583-0.62442 0.381-1.4499 0.381-1.2277 0-1.9156-0.6985-0.68791-0.70908-1.0795-2.0002-0.39158-1.2912-0.89958-1.8415-0.508-0.55033-1.2488-0.55033-0.83608 0-1.3441 0.60325-0.508 0.59266-0.508 1.5663 0 0.97366 0.508 1.5557 0.51858 0.58208 1.3652 0.58208 0.58208 0 0.97366-0.1905l0.33867 0.6985q-0.29633 0.14817-0.64558 0.21167-0.33866 0.0635-0.81491 0.0635zm-6.8262-6.731q-0.51858 0-0.84666-0.29633-0.33867-0.30692-0.33867-0.84666 0-0.28575 0.09525-0.49742 0.095249-0.21167 0.254-0.34925-0.33867-0.37042-0.33867-0.86783 0-0.53975 0.32808-0.83608 0.32808-0.29633 0.84666-0.29633 0.64558 0 0.99483 0.4445l-0.49742 0.4445q-0.10583-0.09525-0.22225-0.14817-0.11642-0.052916-0.26458-0.052916-0.20108 0-0.3175 0.11642-0.127 0.11642-0.127 0.32808 0 0.29633 0.29633 0.5715 0.063499-0.010583 0.13758-0.010583 0.35983 0 0.66675 0.16933 0.29633 0.15875 0.43392 0.46567l-0.60325 0.30692q-0.13758-0.254-0.46567-0.254-0.21167 0-0.33867 0.127t-0.127 0.33867q0 0.4445 0.45508 0.4445 0.32808 0 0.48683-0.24342l0.59266 0.30692q-0.13758 0.30692-0.42333 0.47625-0.29633 0.15875-0.67733 0.15875zm-1.5663 6.731q-0.381-0.254-0.6985-0.68791-0.30692-0.43392-0.48683-0.98425-0.17992-0.56091-0.17992-1.1642 0-0.89958 0.381-1.5875 0.39158-0.68791 1.0583-1.0689 0.67733-0.39158 1.524-0.39158 0.85725 0 1.524 0.39158 0.66675 0.39158 1.0372 1.0795 0.381 0.68791 0.381 1.5769 0 0.58208-0.17992 1.1324t-0.48683 0.99483q-0.30692 0.4445-0.6985 0.70908l-0.53975-0.67733q0.45508-0.37042 0.6985-0.89958t0.24342-1.2382q0-0.71966-0.254-1.2277-0.254-0.508-0.6985-0.78316-0.4445-0.27517-1.0266-0.27517-0.58208 0-1.0372 0.27517t-0.70908 0.79375q-0.254 0.508-0.254 1.2171 0 0.70908 0.24342 1.2382t0.6985 0.89958zm-5.5245 0q-0.86783 0-1.5452-0.39158-0.67733-0.39158-1.0689-1.0795-0.381-0.68791-0.381-1.5769 0-0.87841 0.37042-1.6298 0.37042-0.762 0.99483-1.2065l0.53975 0.67733q-0.45508 0.37042-0.6985 0.89958-0.24342 0.51858-0.24342 1.2382 0 0.381 0.084666 0.71966 0.37042-0.33867 0.84666-0.52916t1.0901-0.1905q0.60325 0 1.0795 0.1905 0.48683 0.1905 0.86783 0.53975 0.084666-0.33867 0.084666-0.73025 0-0.71966-0.26458-1.2382-0.254-0.52916-0.75141-0.89958l0.52916-0.67733q0.4445 0.28575 0.77258 0.74083 0.32808 0.4445 0.508 0.98425t0.17992 1.1112q0 0.89958-0.39158 1.5875t-1.0689 1.0795q-0.67733 0.381-1.5346 0.381zm-0.010583-2.3177q-0.94191 0-1.6404 0.68791 0.26458 0.40217 0.68791 0.62441t0.96308 0.22225 0.9525-0.22225q0.42333-0.22225 0.68791-0.62441-0.3175-0.33867-0.74083-0.508-0.42333-0.17992-0.91016-0.17992z"/>
</g>
</svg>
