<svg width="55.742mm" height="8.9111mm" version="1.1" viewBox="0 0 55.742 8.9111" xmlns="http://www.w3.org/2000/svg">
<g stroke-width=".26458" aria-label=" नमस्कार संसार">
<style> @keyframes animate { 0% { filter: hue-rotate(360deg);} 100% { filter: hue-rotate(0deg);} } path {fill: url(#grad);animation: animate linear 5s infinite ;} </style> <linearGradient id="grad"> <stop offset="0%" stop-color="cyan" /> <stop offset="50%" stop-color="magenta" /> <stop offset="100%" stop-color="yellow" /> </linearGradient>
<path d="m55.435 8.3396-0.5715 0.5715q-0.62441-0.51858-1.1747-1.0477t-0.97366-0.99483q-0.42333-0.46567-0.66675-0.79375-0.23283-0.32808-0.30692-0.51858-0.0635-0.1905-0.0635-0.37042 0-0.20108 0.15875-0.381 0.15875-0.17992 0.51858-0.17992 0.26458 0 0.45508 0.127 0.20108 0.11642 0.35983 0.33867 0.41275-0.21167 0.60325-0.52916 0.1905-0.3175 0.1905-0.73025 0-0.24342-0.05292-0.47625-0.05292-0.24342-0.127-0.40217h-2.5294v-0.75141h4.4873v0.75141h-1.1007q0.16933 0.37042 0.16933 0.98425 0 0.58208-0.23283 0.98425-0.23283 0.40217-0.635 0.68791-0.40216 0.27517-0.92075 0.48683 0.47625 0.55033 1.1007 1.143 0.635 0.58208 1.3123 1.1007zm-5.1223-5.3869v5.8314h-0.85725v-5.8314h-0.94191v-0.75141h2.8892v0.75141zm-2.7411 0v5.8314h-0.85725v-2.8152q-0.30692 0.09525-0.61383 0.127-0.30692 0.03175-0.71966 0.03175-0.4445 0-0.94191-0.074083-0.48683-0.084666-0.83608-0.20108-0.21167 0.13758-0.47625 0.254 0.43392 0.55033 1.016 1.1324 0.59266 0.58208 1.2382 1.1007l-0.5715 0.5715q-0.59266-0.51858-1.1218-1.0477-0.51858-0.52916-0.92075-0.99483-0.40216-0.46567-0.635-0.79375t-0.29633-0.51858q-0.05292-0.1905-0.05292-0.37042 0-0.20108 0.15875-0.381 0.15875-0.17992 0.51858-0.17992 0.26458 0 0.45508 0.127 0.20108 0.11642 0.35983 0.32808 0.22225-0.20108 0.29633-0.508 0.08467-0.3175 0.08467-0.635 0-0.3175-0.05292-0.5715-0.04233-0.254-0.11642-0.41275h-2.1272v-0.75141h7.3131v0.75141zm-2.3072 2.4236q0.41275 0 0.75141-0.042333t0.6985-0.13758v-2.2437h-2.3812q0.07408 0.17992 0.127 0.42333t0.05292 0.56091q0 0.4445-0.10583 0.77258-0.09525 0.32808-0.27516 0.55033 0.55033 0.11642 1.1324 0.11642zm-5.8631-4.7625q0-0.254 0.17992-0.43392 0.16933-0.17992 0.40216-0.17992 0.24342 0 0.41275 0.17992 0.16933 0.17992 0.16933 0.43392t-0.16933 0.43392q-0.16933 0.17992-0.41275 0.17992-0.23283 0-0.40216-0.17992-0.17992-0.17992-0.17992-0.43392zm1.016 2.3389v5.8314h-0.85725v-2.8152q-0.30692 0.09525-0.61383 0.127-0.30692 0.03175-0.71966 0.03175-0.4445 0-0.94191-0.074083-0.48683-0.084666-0.83608-0.20108-0.21167 0.13758-0.47625 0.254 0.43392 0.55033 1.016 1.1324 0.59266 0.58208 1.2382 1.1007l-0.5715 0.5715q-0.59266-0.51858-1.1218-1.0477-0.51858-0.52916-0.92075-0.99483-0.40216-0.46567-0.635-0.79375-0.23283-0.32808-0.29633-0.51858-0.052917-0.1905-0.052917-0.37042 0-0.20108 0.15875-0.381 0.15875-0.17992 0.51858-0.17992 0.26458 0 0.45508 0.127 0.20108 0.11642 0.35983 0.32808 0.22225-0.20108 0.29633-0.508 0.08467-0.3175 0.08467-0.635 0-0.3175-0.05292-0.5715-0.04233-0.254-0.11642-0.41275h-2.1272v-0.75141h7.3131v0.75141zm-2.3072 2.4236q0.41275 0 0.75141-0.042333t0.6985-0.13758v-2.2437h-2.3812q0.07408 0.17992 0.127 0.42333t0.05292 0.56091q0 0.4445-0.10583 0.77258-0.09525 0.32808-0.27517 0.55033 0.55033 0.11642 1.1324 0.11642zm-6.805 2.9633-0.5715 0.5715q-0.62442-0.51858-1.1747-1.0477-0.55033-0.52916-0.97366-0.99483-0.42333-0.46567-0.66675-0.79375-0.23283-0.32808-0.30692-0.51858-0.0635-0.1905-0.0635-0.37042 0-0.20108 0.15875-0.381 0.15875-0.17992 0.51858-0.17992 0.26458 0 0.45508 0.127 0.20108 0.11642 0.35983 0.33867 0.41275-0.21167 0.60325-0.52916t0.1905-0.73025q0-0.24342-0.05292-0.47625-0.05292-0.24342-0.127-0.40217h-2.5294v-0.75141h4.4873v0.75141h-1.1007q0.16933 0.37042 0.16933 0.98425 0 0.58208-0.23283 0.98425-0.23283 0.40217-0.635 0.68791-0.40217 0.27517-0.92075 0.48683 0.47625 0.55033 1.1007 1.143 0.635 0.58208 1.3123 1.1007zm-5.1223-5.3869v5.8314h-0.85725v-5.8314h-0.94191v-0.75141h2.8892v0.75141zm-1.6404 0h-3.4396v2.1378q0.508-0.52916 1.2382-0.52916 0.68791 0 1.1218 0.4445 0.43392 0.43392 0.43392 1.2488 0 0.48683-0.15875 1.0372-0.15875 0.55033-0.52916 1.0795l-0.762-0.43392q0.26458-0.33867 0.43392-0.78316 0.16933-0.4445 0.16933-0.87841 0-0.49742-0.21167-0.74083-0.20108-0.24342-0.5715-0.24342-0.5715 0-1.1642 0.762v2.7305h-0.85725v-1.8415q-0.254 0.21167-0.635 0.40217-0.37042 0.1905-0.89958 0.1905-0.49742 0-0.94191-0.20108-0.43392-0.20108-0.6985-0.60325-0.26458-0.41275-0.26458-1.016 0-0.84666 0.58208-1.3441 0.58208-0.49742 1.5134-0.49742 0.24342 0 0.53975 0.042333 0.30692 0.03175 0.46567 0.0635l-0.0635 0.77258q-0.16933-0.042333-0.43392-0.074083-0.254-0.03175-0.45508-0.03175-0.61383 0-0.9525 0.27517-0.33867 0.27517-0.33867 0.77258 0 0.56091 0.3175 0.83608 0.32808 0.26458 0.75141 0.26458 0.46567 0 0.8255-0.22225 0.37042-0.22225 0.68791-0.53975v-3.0797h-3.9264v-0.75141h8.2232zm-8.4349 2.4236q0.32808 0 0.59266-0.021167 0.26458-0.03175 0.56092-0.084666l0.08467 0.762q-0.26458 0.052917-0.53975 0.074083-0.27517 0.021167-0.58208 0.021167-0.4445 0-0.94191-0.074083-0.48683-0.084666-0.83608-0.20108-0.21167 0.13758-0.47625 0.254 0.43392 0.55033 1.016 1.1324 0.59266 0.58208 1.2382 1.1007l-0.5715 0.5715q-0.59266-0.51858-1.1218-1.0477-0.51858-0.52916-0.92075-0.99483-0.40217-0.46567-0.635-0.79375-0.23283-0.32808-0.29633-0.51858-0.05292-0.1905-0.05292-0.37042 0-0.20108 0.15875-0.381 0.15875-0.17992 0.51858-0.17992 0.26458 0 0.45508 0.127 0.20108 0.11642 0.35983 0.32808 0.22225-0.20108 0.29633-0.508 0.08467-0.3175 0.08467-0.635 0-0.3175-0.05292-0.5715-0.042329-0.254-0.11641-0.41275h-2.1272v-0.75141h4.2651v0.75141h-1.2912q0.07408 0.17992 0.127 0.42333t0.05292 0.56091q0 0.4445-0.10583 0.77258-0.09525 0.32808-0.27517 0.55033 0.55033 0.11642 1.1324 0.11642zm-4.8471-2.4236v5.8314h-0.85725v-2.6458h-2.3389v0.39158q0 0.34925-0.15875 0.508-0.14817 0.14817-0.34925 0.14817t-0.42333-0.127q-0.22225-0.13758-0.41275-0.33867-0.1905-0.21167-0.3175-0.4445-0.11642-0.23283-0.11642-0.43392 0-0.1905 0.13758-0.3175 0.14817-0.13758 0.508-0.13758h0.27517v-2.4342h-1.3335v-0.75141h6.477v0.75141zm-0.85725 0h-2.3389v2.4342h2.3389zm-10.403-0.75141h6.0219v0.75141h-1.0901v5.8314h-0.85725v-3.1538h-1.9156v0.5715q0 0.29633-0.14817 0.4445-0.14817 0.14817-0.39158 0.14817-0.254 0-0.53975-0.22225-0.28575-0.22225-0.48683-0.53975t-0.20108-0.61383q0-0.24342 0.13758-0.39158 0.14817-0.14817 0.508-0.14817h3.0374v-1.9262h-4.0746z"/>
</g>
</svg>
