<svg width="36.745mm" height="11.716mm" version="1.1" viewBox="0 0 36.745 11.716" xmlns="http://www.w3.org/2000/svg">
<g stroke-width=".26458" aria-label=" سلام نړی">
<style> @keyframes animate { 0% { filter: hue-rotate(360deg);} 100% { filter: hue-rotate(0deg);} } path {fill: url(#grad);animation: animate linear 5s infinite ;} </style> <linearGradient id="grad"> <stop offset="0%" stop-color="cyan" /> <stop offset="50%" stop-color="magenta" /> <stop offset="100%" stop-color="yellow" /> </linearGradient>
<path d="m4e-6 7.5671q0-0.381 0.10583-0.84666 0.10583-0.46567 0.33867-1.0266l0.762 0.29633q-0.16933 0.4445-0.254 0.81491-0.08467 0.37042-0.08467 0.68791 0 0.53975 0.30692 0.91016 0.30692 0.37042 0.8255 0.55033 0.52916 0.1905 1.1853 0.1905 0.762 0 1.3335-0.16933 0.5715-0.15875 0.9525-0.41275t0.56092-0.52916q0.1905-0.27517 0.1905-0.48683 0-0.17992-0.254-0.30692-0.254-0.13758-0.62441-0.26458-0.37042-0.13758-0.74083-0.30692-0.37042-0.17992-0.62442-0.4445-0.254-0.26458-0.254-0.65616 0-0.43392 0.21167-0.85725 0.22225-0.43392 0.59266-0.79375 0.381-0.35983 0.84666-0.5715 0.46566-0.22225 0.96308-0.22225 0.4445 0 0.762 0.127 0.3175 0.11642 0.45508 0.22225l-0.34925 0.75141q-0.17992-0.08467-0.40216-0.15875t-0.46566-0.07408q-0.30692 0-0.62442 0.127-0.30692 0.127-0.5715 0.33867-0.254 0.21166-0.41275 0.46566-0.15875 0.254-0.15875 0.508 0 0.17992 0.17992 0.32808 0.1905 0.14817 0.48683 0.27517 0.29633 0.127 0.62441 0.26458 0.33867 0.127 0.635 0.28575 0.29633 0.14817 0.47625 0.34925 0.1905 0.20108 0.1905 0.47625 0 0.39158-0.26458 0.84666-0.26458 0.45508-0.78316 0.84666-0.51858 0.40216-1.27 0.65616-0.74083 0.254-1.7145 0.254-0.889 0-1.5981-0.26458-0.70908-0.26458-1.1218-0.81491-0.41275-0.53975-0.41275-1.3652zm7.7681 2.4447-0.30692-0.80433q1.0266-0.33867 1.5981-0.80433 0.58208-0.46566 0.81491-0.97366 0.24342-0.51858 0.24342-1.0054 0-0.51858-0.23283-1.0477-0.22225-0.53975-0.49742-1.016l0.77258-0.39158q0.29633 0.56092 0.49742 1.0795 0.21167 0.51858 0.32808 0.91016 0.14817 0.45508 0.381 0.62442 0.24342 0.15875 0.65616 0.15875 0.22225 0 0.3175 0.127 0.10583 0.11642 0.10583 0.28575t-0.14817 0.3175q-0.14817 0.13758-0.381 0.13758-0.40216 0-0.67733-0.127-0.26458-0.127-0.43392-0.33866-0.04233 0.254-0.13758 0.48683-0.09525 0.23283-0.22225 0.4445 0.32808 0.0635 0.55033 0.3175 0.22225 0.26458 0.22225 0.61383 0 0.39158-0.27516 0.66675-0.27517 0.27517-0.66675 0.27517-0.33867 0-0.59266-0.21167-0.24342-0.20108-0.3175-0.508-0.41275 0.29633-0.83608 0.49742-0.41275 0.20108-0.762 0.28575zm2.5082-0.60325q0.17992 0 0.30692-0.11642 0.127-0.11642 0.127-0.28575 0-0.17992-0.127-0.30692-0.127-0.11642-0.30692-0.11642t-0.30692 0.11642q-0.127 0.127-0.127 0.30692 0 0.16933 0.127 0.28575 0.127 0.11642 0.30692 0.11642zm1.6404-1.7992 0.10583-0.86783q0.51858 0 0.8255-0.0635 0.30692-0.0635 0.4445-0.254 0.13758-0.20108 0.13758-0.59266 0-0.40216-0.1905-1.0054-0.17992-0.61383-0.41275-1.2171l0.85725-0.3175q0.13758 0.33866 0.254 0.77258 0.127 0.43392 0.21167 0.85725 0.08467 0.42333 0.08467 0.74083 0 1.0583-0.5715 1.5028-0.56092 0.4445-1.7462 0.4445zm1.3547-5.4186q-0.22225 0-0.381-0.14817-0.14817-0.15875-0.14817-0.37042t0.14817-0.37042q0.15875-0.15875 0.381-0.15875 0.21167 0 0.35983 0.15875 0.15875 0.15875 0.15875 0.37042t-0.15875 0.37042q-0.14817 0.14817-0.35983 0.14817zm5.027 9.525q-0.17992-0.6985-0.3175-1.3652-0.127-0.66675-0.1905-1.2277t-0.0635-0.92075q0-0.64558 0.23283-1.0689 0.23283-0.43392 0.62442-0.66675 0.39158-0.24342 0.86783-0.32808 0.48683-0.08467 0.99483-0.05292 0.51858 0.02117 0.97366 0.127 0.04233-0.48683-0.09525-0.89958-0.127-0.42333-0.40216-0.67733-0.27517-0.26458-0.67733-0.26458-0.77258 0-1.3335 1.0583l-0.65616-0.35983q0.40216-0.85725 0.94191-1.2065 0.55033-0.34925 1.1007-0.34925 0.53975 0 0.91016 0.23283 0.37042 0.22225 0.58208 0.59266 0.22225 0.35983 0.3175 0.78316 0.10583 0.41275 0.10583 0.79375 0 0.39158-0.13758 0.78316-0.13758 0.381-0.254 0.55033-0.9525-0.28575-1.6827-0.29633-0.73025-0.02117-1.143 0.28575-0.40217 0.30692-0.40217 1.016 0 0.39158 0.0635 0.93133 0.0635 0.53975 0.17992 1.1324 0.11642 0.60325 0.27517 1.1853zm5.842-4.1063q-0.28575 0-0.58208-0.05292-0.28575-0.04233-0.40216-0.0635l0.11642-0.83608q0.9525 0.127 1.7357-0.02117 0.79375-0.15875 1.2594-0.77258-0.41275-0.67733-1.2382-1.6404-0.8255-0.97366-1.9685-2.0002l0.5715-0.60325q1.1218 1.0583 1.8521 1.9156 0.73025 0.85725 1.1747 1.4922 0.127-0.45508 0.14817-1.0372l-0.14817-3.9899h0.86783l0.21167 5.4504q0.02117 0.51858 0.09525 0.80433 0.08467 0.27517 0.35983 0.381 0.28575 0.10583 0.889 0.10583 0.22225 0 0.3175 0.127 0.10583 0.11642 0.10583 0.28575t-0.14817 0.3175q-0.14817 0.13758-0.381 0.13758-0.74083 0-1.1747-0.13758-0.43392-0.14817-0.635-0.4445-0.20108-0.30692-0.26458-0.78316-0.32808 0.58208-0.80433 0.87841-0.47625 0.29633-0.99483 0.39158-0.508 0.09525-0.96308 0.09525zm4.8366 0 0.10583-0.86783q0.33867 0 0.55033-0.04233 0.21167-0.05292 0.34925-0.24342 0.14817-0.20108 0.27516-0.62442 0.127-0.42333 0.29633-1.1853l0.79375 0.22225q-0.0635 0.26458-0.14817 0.635-0.08467 0.37042-0.08467 0.67733 0 0.26458 0.20108 0.41275 0.20108 0.14817 0.73025 0.14817 0.3175 0 0.51858-0.05292 0.20108-0.05292 0.32808-0.254 0.13758-0.20108 0.24342-0.64558 0.10583-0.4445 0.22225-1.2171l0.80433 0.14817q-0.03175 0.1905-0.07408 0.46566t-0.08467 0.55033q-0.03175 0.26458-0.03175 0.4445 0 0.14817 0.0635 0.28575 0.07408 0.127 0.27517 0.20108 0.21167 0.07408 0.62442 0.07408 0.46566 0 0.73025-0.17992 0.27516-0.17992 0.27516-0.73025 0-0.40216-0.1905-1.0054-0.17992-0.61383-0.41275-1.2171l0.85725-0.3175q0.13758 0.33866 0.254 0.77258 0.127 0.43392 0.21167 0.85725 0.08467 0.42333 0.08467 0.74083 0 0.98425-0.48683 1.4711-0.48683 0.47625-1.3335 0.47625-0.58208 0-0.92075-0.14817-0.32808-0.15875-0.47625-0.48683-0.254 0.39158-0.61383 0.51858-0.34925 0.11642-0.99483 0.11642-0.22225 0-0.47625-0.05292-0.24342-0.05292-0.45508-0.20108-0.21167-0.15875-0.32808-0.46567-0.27517 0.46567-0.68792 0.59266-0.40216 0.127-0.99483 0.127z"/>
</g>
</svg>
