<svg width="36.142mm" height="11.716mm" version="1.1" viewBox="0 0 36.142 11.716" xmlns="http://www.w3.org/2000/svg">
<g stroke-width=".26458" aria-label=" سلام دنیا">
<style> @keyframes animate { 0% { filter: hue-rotate(360deg);} 100% { filter: hue-rotate(0deg);} } path {fill: url(#grad);animation: animate linear 5s infinite ;} </style> <linearGradient id="grad"> <stop offset="0%" stop-color="cyan" /> <stop offset="50%" stop-color="magenta" /> <stop offset="100%" stop-color="yellow" /> </linearGradient>
<path d="m2.3177 7.6094q-0.84666 0-1.3017-0.1905-0.4445-0.1905-0.61383-0.59266-0.16933-0.40217-0.1905-1.0372l-0.21167-5.7891h0.86783l0.21167 5.4504q0.021167 0.51858 0.09525 0.80433 0.084666 0.27517 0.35983 0.381 0.28575 0.10583 0.889 0.10583 0.22225 0 0.3175 0.127 0.10583 0.11642 0.10583 0.28575t-0.14817 0.3175q-0.14817 0.13758-0.381 0.13758zm-1.64e-5 0 0.10583-0.86783q0.52916 0 0.8255-0.074083 0.29633-0.084666 0.4445-0.30692 0.15875-0.23283 0.254-0.66675t0.23283-1.1324l0.8255 0.15875q-0.0635 0.28575-0.14817 0.65616-0.074083 0.37042-0.074083 0.62441 0 0.15875 0.021166 0.29633 0.021167 0.13758 0.15875 0.23283 0.13758 0.09525 0.46567 0.15875 0.32808 0.052917 0.94191 0.052917 0.22225 0 0.3175 0.127 0.10583 0.11642 0.10583 0.28575t-0.14817 0.3175q-0.14817 0.13758-0.381 0.13758-0.68791 0-1.0795-0.074083-0.381-0.084667-0.5715-0.23283-0.17992-0.15875-0.26458-0.39158-0.30692 0.43392-0.762 0.5715-0.4445 0.127-1.27 0.127zm2.667 2.0002q-0.22225 0-0.381-0.15875-0.14817-0.14817-0.14817-0.35983t0.14817-0.37042q0.15875-0.15875 0.381-0.15875 0.21167 0 0.35983 0.15875 0.15875 0.15875 0.15875 0.37042t-0.15875 0.35983q-0.14817 0.15875-0.35983 0.15875zm-1.4499 0q-0.22225 0-0.381-0.15875-0.14817-0.14817-0.14817-0.35983t0.14817-0.37042q0.15875-0.15875 0.381-0.15875 0.21167 0 0.35983 0.15875 0.15875 0.15875 0.15875 0.37042t-0.15875 0.35983q-0.14817 0.15875-0.35983 0.15875zm2.7305-2.0002 0.10583-0.86783q0.51858 0 0.8255-0.0635t0.4445-0.254q0.13758-0.20108 0.13758-0.59266 0-0.40217-0.1905-1.0054-0.17992-0.61383-0.41275-1.2171l0.85725-0.3175q0.13758 0.33867 0.254 0.77258 0.127 0.43392 0.21167 0.85725 0.084666 0.42333 0.084666 0.74083 0 1.0583-0.5715 1.5028-0.56091 0.4445-1.7462 0.4445zm1.3547-5.4186q-0.22225 0-0.381-0.14817-0.14817-0.15875-0.14817-0.37042t0.14817-0.37042q0.15875-0.15875 0.381-0.15875 0.21167 0 0.35983 0.15875 0.15875 0.15875 0.15875 0.37042t-0.15875 0.37042q-0.14817 0.14817-0.35983 0.14817zm1.8627 4.8895 0.42333-0.73025q0.21167 0.13758 0.59267 0.26458 0.381 0.127 0.889 0.127 0.78316 0 1.1112-0.23283 0.32808-0.24342 0.32808-0.66675 0-0.21167-0.09525-0.51858-0.08467-0.3175-0.381-0.84666-0.29633-0.53975-0.91016-1.4076l0.73025-0.47625q0.84666 1.1642 1.1747 1.9791 0.33867 0.81491 0.33867 1.3229 0 0.42333-0.21167 0.8255-0.21167 0.39158-0.70908 0.64558t-1.3758 0.254q-0.58208 0-1.0795-0.13758-0.49741-0.14817-0.8255-0.40217zm8.2126 4.6355q-0.17992-0.6985-0.3175-1.3652-0.127-0.66675-0.1905-1.2277-0.0635-0.56091-0.0635-0.92075 0-0.64558 0.23283-1.0689 0.23283-0.43392 0.62441-0.66675 0.39158-0.24342 0.86783-0.32808 0.48683-0.084666 0.99483-0.052917 0.51858 0.021167 0.97366 0.127 0.04233-0.48683-0.09525-0.89958-0.127-0.42333-0.40216-0.67733-0.27517-0.26458-0.67733-0.26458-0.77258 0-1.3335 1.0583l-0.65616-0.35983q0.40216-0.85725 0.94191-1.2065 0.55033-0.34925 1.1007-0.34925 0.53975 0 0.91016 0.23283 0.37042 0.22225 0.58208 0.59266 0.22225 0.35983 0.3175 0.78316 0.10583 0.41275 0.10583 0.79375 0 0.39158-0.13758 0.78316-0.13758 0.381-0.254 0.55033-0.9525-0.28575-1.6827-0.29633-0.73025-0.021167-1.143 0.28575-0.40216 0.30692-0.40216 1.016 0 0.39158 0.0635 0.93133 0.0635 0.53975 0.17992 1.1324 0.11642 0.60325 0.27516 1.1853zm5.842-4.1063q-0.28575 0-0.58208-0.052916-0.28575-0.042333-0.40217-0.0635l0.11642-0.83608q0.9525 0.127 1.7357-0.021167 0.79375-0.15875 1.2594-0.77258-0.41275-0.67733-1.2382-1.6404-0.8255-0.97366-1.9685-2.0002l0.5715-0.60325q1.1218 1.0583 1.8521 1.9156 0.73025 0.85725 1.1747 1.4922 0.127-0.45508 0.14817-1.0372l-0.14817-3.9899h0.86783l0.21167 5.4504q0.02117 0.51858 0.09525 0.80433 0.08467 0.27517 0.35983 0.381 0.28575 0.10583 0.889 0.10583 0.22225 0 0.3175 0.127 0.10583 0.11642 0.10583 0.28575t-0.14817 0.3175q-0.14817 0.13758-0.381 0.13758-0.74083 0-1.1747-0.13758-0.43392-0.14817-0.635-0.4445-0.20108-0.30692-0.26458-0.78316-0.32808 0.58208-0.80433 0.87841-0.47625 0.29633-0.99483 0.39158-0.508 0.09525-0.96308 0.09525zm4.8366 0 0.10583-0.86783q0.33866 0 0.55033-0.042333 0.21167-0.052917 0.34925-0.24342 0.14817-0.20108 0.27517-0.62441t0.29633-1.1853l0.79375 0.22225q-0.0635 0.26458-0.14817 0.635-0.08467 0.37042-0.08467 0.67733 0 0.26458 0.20108 0.41275 0.20108 0.14817 0.73025 0.14817 0.3175 0 0.51858-0.052917 0.20108-0.052916 0.32808-0.254 0.13758-0.20108 0.24342-0.64558t0.22225-1.2171l0.80433 0.14817q-0.03175 0.1905-0.07408 0.46567t-0.08467 0.55033q-0.03175 0.26458-0.03175 0.4445 0 0.14817 0.0635 0.28575 0.07408 0.127 0.27517 0.20108 0.21167 0.074083 0.62441 0.074083 0.46567 0 0.73025-0.17992 0.27517-0.17992 0.27517-0.73025 0-0.40217-0.1905-1.0054-0.17992-0.61383-0.41275-1.2171l0.85725-0.3175q0.13758 0.33867 0.254 0.77258 0.127 0.43392 0.21167 0.85725 0.08467 0.42333 0.08467 0.74083 0 0.98425-0.48683 1.4711-0.48683 0.47625-1.3335 0.47625-0.58208 0-0.92075-0.14817-0.32808-0.15875-0.47625-0.48683-0.254 0.39158-0.61383 0.51858-0.34925 0.11642-0.99483 0.11642-0.22225 0-0.47625-0.052916-0.24342-0.052917-0.45508-0.20108-0.21167-0.15875-0.32808-0.46567-0.27516 0.46567-0.68791 0.59266-0.40216 0.127-0.99483 0.127z"/>
</g>
</svg>
