<svg width="78.677mm" height="10.587mm" version="1.1" viewBox="0 0 78.677 10.587" xmlns="http://www.w3.org/2000/svg">
<g stroke-width=".26458" aria-label=" Witaj świecie">
<style> @keyframes animate { 0% { filter: hue-rotate(360deg);} 100% { filter: hue-rotate(0deg);} } path {fill: url(#grad);animation: animate linear 5s infinite ;} </style> <linearGradient id="grad"> <stop offset="0%" stop-color="cyan" /> <stop offset="50%" stop-color="magenta" /> <stop offset="100%" stop-color="yellow" /> </linearGradient>
<path d="m78.677 5.1509q0 0.37724-0.03101 0.7028h-3.7q0.14469 0.68213 0.65112 1.0387 0.50643 0.35657 1.3332 0.35657 0.63562 0 1.3436-0.14469l0.13436 0.96118q-0.75964 0.14469-1.602 0.14469-0.93534 0-1.5916-0.33073-0.65112-0.33073-0.99218-0.96635-0.34106-0.64079-0.34106-1.5555 0-0.88883 0.28939-1.5244t0.84232-0.97151q0.5581-0.3359 1.3384-0.3359 1.1162 0 1.7208 0.67696 0.60461 0.67696 0.60461 1.9482zm-0.99218-0.13436q0-0.7338-0.3514-1.1317-0.34623-0.39791-0.97151-0.39791-0.63562 0-1.0129 0.39791-0.37724 0.39791-0.44442 1.1317zm-7.307-3.2556q-0.2067 0-0.3824-0.10335t-0.27905-0.27905q-0.10335-0.1757-0.10335-0.3824 0-0.20671 0.10335-0.3824 0.10335-0.1757 0.27905-0.27905 0.1757-0.10335 0.3824-0.10335t0.3824 0.10335q0.1757 0.10335 0.27905 0.27905 0.10335 0.1757 0.10335 0.3824 0 0.20671-0.10335 0.3824-0.10335 0.1757-0.27905 0.27905-0.1757 0.10335-0.3824 0.10335zm0.60978 5.4467h1.6846v0.89917h-4.8679v-0.89917h2.0877v-3.669h-1.7777v-0.9095h2.8732zm-6.6869 1.0025q-0.89917 0-1.5296-0.33073-0.63045-0.33073-0.96118-0.96635-0.33073-0.64079-0.33073-1.5555 0-0.894 0.30489-1.5296t0.894-0.96635q0.58911-0.3359 1.4263-0.3359 0.44442 0 0.89917 0.10335 0.45992 0.10335 0.86299 0.53743 0.40824 0.42891 0.40824 1.3126h-1.1265q0-0.45992-0.27388-0.71313-0.27388-0.25838-0.75964-0.25838-0.71313 0-1.1059 0.47025-0.39274 0.47025-0.39274 1.3281 0 0.93534 0.46509 1.4314 0.47025 0.49092 1.3436 0.49092 0.77514 0 1.6123-0.13436l0.12402 0.96118q-0.74931 0.15503-1.8603 0.15503zm-4.2271-3.0592q0 0.37724-0.03101 0.7028h-3.7q0.14469 0.68213 0.65112 1.0387 0.50643 0.35657 1.3332 0.35657 0.63562 0 1.3436-0.14469l0.13436 0.96118q-0.75964 0.14469-1.602 0.14469-0.93534 0-1.5916-0.33073-0.65112-0.33073-0.99218-0.96635-0.34106-0.64079-0.34106-1.5555 0-0.88883 0.28939-1.5244 0.28939-0.63562 0.84232-0.97151 0.5581-0.3359 1.3384-0.3359 1.1162 0 1.7208 0.67696 0.60461 0.67696 0.60461 1.9482zm-0.99218-0.13436q0-0.7338-0.3514-1.1317-0.34623-0.39791-0.97151-0.39791-0.63562 0-1.0129 0.39791-0.37724 0.39791-0.44442 1.1317zm-7.307-3.2556q-0.2067 0-0.3824-0.10335-0.1757-0.10335-0.27905-0.27905-0.10335-0.1757-0.10335-0.3824 0-0.20671 0.10335-0.3824 0.10335-0.1757 0.27905-0.27905 0.1757-0.10335 0.3824-0.10335t0.3824 0.10335q0.1757 0.10335 0.27905 0.27905 0.10335 0.1757 0.10335 0.3824 0 0.20671-0.10335 0.3824-0.10335 0.1757-0.27905 0.27905-0.1757 0.10335-0.3824 0.10335zm0.60978 5.4467h1.6846v0.89917h-4.8679v-0.89917h2.0877v-3.669h-1.7777v-0.9095h2.8732zm-5.4053-4.5785h1.0335l-0.62012 5.581h-1.3953l-0.74414-4.4545h-0.06201l-0.74414 4.4545h-1.3953l-0.51676-5.581h1.0335l0.31006 4.7542h0.09302l0.67179-4.7542h1.1575l0.67179 4.7542h0.09302zm-5.2821 3.9114q0 0.8255-0.61383 1.2488-0.61383 0.42333-1.651 0.42333-0.59266 0-1.0266-0.09525-0.42333-0.09525-0.75141-0.26458v-0.84666q0.33866 0.16933 0.81491 0.3175 0.48683 0.13758 0.98425 0.13758 0.70908 0 1.0266-0.22225 0.3175-0.23283 0.3175-0.61383 0-0.21167-0.11642-0.381-0.11642-0.16933-0.42333-0.33867-0.29633-0.16933-0.85725-0.381-0.55033-0.21167-0.94191-0.42333t-0.60325-0.508-0.21167-0.762q0-0.71966 0.58208-1.1112 0.59266-0.39158 1.5452-0.39158 0.51858 0 0.96308 0.10583 0.45508 0.09525 0.84666 0.27517l-0.3175 0.74083q-0.35983-0.14817-0.75142-0.254t-0.80433-0.10583q-0.5715 0-0.87841 0.1905-0.29633 0.17992-0.29633 0.49742 0 0.23283 0.13758 0.40217 0.13758 0.15875 0.45508 0.3175 0.32808 0.14817 0.86783 0.35983 0.53975 0.20108 0.92075 0.41275t0.58208 0.51858q0.20108 0.29633 0.20108 0.75141zm-0.56092-6.5405v0.10583q-0.127 0.1905-0.39158 0.49742-0.26458 0.29633-0.5715 0.60325-0.29633 0.29633-0.55033 0.48683h-0.61383v-0.127q0.15875-0.20108 0.33866-0.47625 0.1905-0.27517 0.37042-0.56091 0.17992-0.29633 0.29633-0.52916zm-12.507 1.761q-0.2067 0-0.3824-0.10335-0.1757-0.10335-0.27905-0.27905-0.10335-0.1757-0.10335-0.3824 0-0.20671 0.10335-0.3824 0.10335-0.1757 0.27905-0.27905 0.1757-0.10335 0.3824-0.10335t0.3824 0.10335q0.1757 0.10335 0.27905 0.27905 0.10335 0.1757 0.10335 0.3824 0 0.20671-0.10335 0.3824-0.10335 0.1757-0.27905 0.27905t-0.3824 0.10335zm0.66146 5.8601q0 0.97668-0.28939 1.5865-0.28939 0.60978-0.89917 0.925-0.60461 0.31523-1.5916 0.39274l-0.8785 0.06201-0.05168-0.97151 1.0335-0.093017q0.83199-0.077513 1.2041-0.48576 0.37724-0.40824 0.37724-1.2506v-4.2478h-2.1291v-0.9095h3.2246zm-4.8059-0.39274v0.8785l-1.757 0.051676-0.05168-1.2092h-0.10852q-0.05684 0.62012-0.5271 0.94051-0.46509 0.32039-1.2454 0.32039-0.85783 0-1.3281-0.40824-0.47025-0.41341-0.47025-1.1731 0-0.86816 0.63045-1.3332 0.63562-0.46509 1.7983-0.46509 0.63045 0 1.0852 0.12919v-0.29455q0-0.5581-0.3824-0.83199-0.37724-0.27388-1.1472-0.31523l-1.3126-0.062012 0.10335-0.93017 1.1059 0.041341q1.3539 0.051676 2.0154 0.61495 0.66146 0.56327 0.66146 1.6485v2.2841zm-3.514 0.10335q0.48576 0 0.83199-0.17053 0.3514-0.17053 0.5271-0.44442 0.18087-0.27388 0.18087-0.57361v-0.33073q-0.25838-0.067179-0.51676-0.082682-0.25321-0.020671-0.64079-0.020671-0.65112 0-0.98702 0.20671-0.3359 0.2067-0.3359 0.60978 0 0.39791 0.23771 0.60461 0.23771 0.20154 0.7028 0.20154zm-3.1936 0.75447q-0.72864 0.12402-1.4366 0.12402-0.83716 0-1.3539-0.22738-0.51676-0.22738-0.75964-0.7028-0.24288-0.47542-0.24288-1.2402v-2.5011h-1.3746v-0.9095h1.3746v-1.6536h1.0955v1.6536h2.4908v0.9095h-2.4908v2.4495q0 0.65629 0.32039 0.95084 0.32039 0.28939 1.0439 0.28939 0.23771 0 0.50643-0.025838 0.27388-0.025838 0.7028-0.077514zm-8.2785-6.3252q-0.20671 0-0.3824-0.10335t-0.27905-0.27905q-0.10335-0.1757-0.10335-0.3824 0-0.20671 0.10335-0.3824 0.10335-0.1757 0.27905-0.27905 0.1757-0.10335 0.3824-0.10335t0.3824 0.10335q0.1757 0.10335 0.27905 0.27905 0.10335 0.1757 0.10335 0.3824 0 0.20671-0.10335 0.3824-0.10335 0.1757-0.27905 0.27905-0.1757 0.10335-0.3824 0.10335zm0.60978 5.4467h1.6846v0.89917h-4.8679v-0.89917h2.0877v-3.669h-1.7777v-0.9095h2.8732zm-5.0953-6.4389h0.98185l-0.72347 7.4414h-1.6743l-0.56844-4.2478h-0.062012l-0.56844 4.2478h-1.6743l-0.72347-7.4414h0.98185l0.62012 6.6146h0.10335l0.75447-4.4442h1.0852l0.74414 4.4442h0.10335z"/>
</g>
</svg>
