<svg width="82.761mm" height="12.319mm" version="1.1" viewBox="0 0 82.761 12.319" xmlns="http://www.w3.org/2000/svg">
<g stroke-width=".26458" aria-label=" ਸਤਿ ਸ੍ਰੀ ਅਕਾਲ ਦੁਨਿਆ">
<style> @keyframes animate { 0% { filter: hue-rotate(360deg);} 100% { filter: hue-rotate(0deg);} } path {fill: url(#grad);animation: animate linear 5s infinite ;} </style> <linearGradient id="grad"> <stop offset="0%" stop-color="cyan" /> <stop offset="50%" stop-color="magenta" /> <stop offset="100%" stop-color="yellow" /> </linearGradient>
<path d="m78.401 9.4826v-3.7359q-0.889 0.23283-1.5557 0.71966-0.02117 0.8255-0.24342 1.3547-0.21166 0.51858-0.64558 0.51858-0.22225 0-0.37042-0.127-0.14817-0.13758-0.14817-0.48683 0-0.40217 0.1905-0.84666 0.20108-0.4445 0.48683-0.75141-0.01058-0.42333-0.10583-0.85725-0.09525-0.4445-0.23283-0.70908-0.41275 0.14817-0.80433 0.37042-0.381 0.21167-0.635 0.41275-0.02117 0.85725-0.23283 1.3758-0.21167 0.51858-0.65616 0.51858-0.22225 0-0.37042-0.127-0.13758-0.13758-0.13758-0.49742 0-0.39158 0.1905-0.8255 0.1905-0.4445 0.46566-0.74083-0.031749-0.5715-0.14817-0.91016-0.10583-0.34925-0.21167-0.48683h-0.96308v-0.75141h1.5981q0.127 0.28575 0.26458 0.74083 0.13758 0.4445 0.16933 0.889 0.17992-0.15875 0.49742-0.33867 0.32808-0.17992 0.71966-0.32808 0.39158-0.15875 0.78316-0.24342 0.127 0.21167 0.23283 0.55033t0.17992 0.73025q0.07408 0.381 0.10583 0.71966 0.28575-0.20108 0.68791-0.381 0.41275-0.1905 0.889-0.30692v-2.032h4.3603v0.75141h-0.93133v3.0692h-0.85725v-3.0692h-1.7145v5.8314zm-10.372 0q-0.62441 0-1.0372-0.20108t-0.65616-0.51858q-0.23283-0.3175-0.33866-0.66675-0.09525-0.35983-0.09525-0.66675 0-0.81491 0.62442-1.524 0.635-0.70908 1.9685-1.0583v-1.1959h-3.0797v-0.75141h7.0061v0.75141h-3.0797v1.1959q1.3441 0.34925 1.9685 1.0583 0.62442 0.70908 0.62442 1.524 0 0.30692-0.09525 0.66675-0.09525 0.34925-0.33866 0.66675-0.23283 0.3175-0.64558 0.51858-0.41275 0.20108-1.0372 0.20108l-0.05292-0.77258q0.70908 0 1.016-0.35983 0.30692-0.35983 0.30692-0.93133 0-0.65616-0.55033-1.1642-0.55033-0.508-1.6192-0.77258-1.0689 0.26458-1.6192 0.77258-0.55033 0.508-0.55033 1.1642 0 0.5715 0.30692 0.93133 0.3175 0.35983 1.0266 0.35983zm-4.3391 0v-5.8314h-1.016v-0.75141h1.016v-0.48683q0-1.1218 0.43392-1.7674 0.43392-0.64558 1.4922-0.64558 0.78316 0 1.2806 0.45508 0.49742 0.45508 0.49742 1.397 0 0.34925-0.0635 0.6985l-0.8255-0.084666q0.02117-0.11642 0.03175-0.27517 0.02117-0.16933 0.02117-0.37042 0-0.508-0.22225-0.79375-0.21167-0.28575-0.71966-0.28575-0.43392 0-0.66675 0.22225-0.23283 0.21167-0.3175 0.58208-0.08467 0.37042-0.08467 0.84666v0.508h1.016v0.75141h-1.016v5.8314zm-4.1698 1.9262q-0.64558 0-1.1642-0.16933-0.52916-0.15875-0.86783-0.37042l0.15875-0.71966q0.35983 0.20108 0.80433 0.34925 0.4445 0.15875 1.0689 0.15875 0.61383 0 1.0689-0.15875 0.45508-0.14817 0.81491-0.34925l0.14817 0.71966q-0.33867 0.21167-0.85725 0.37042-0.52916 0.16933-1.1747 0.16933zm0.59268-1.9262q-0.96308 0-1.5875-0.37042-0.62441-0.381-0.93133-1.0477t-0.30692-1.5452v-0.11642h-0.1905q-0.29633 0-0.42333-0.11642-0.11642-0.11642-0.11642-0.28575 0-0.254 0.1905-0.52916 0.1905-0.28575 0.45508-0.47625 0.26458-0.1905 0.48683-0.1905 0.254 0 0.34925 0.17992 0.10583 0.16933 0.10583 0.40217v0.26458h2.8046v-2.0002h-4.8048v-0.75141h6.6781v0.75141h-1.0266v2.4447l-0.30692 0.30692h-3.3443q0 0.71966 0.17992 1.1747t0.46566 0.6985 0.635 0.33867q0.34925 0.09525 0.6985 0.09525 0.49742 0 0.92075-0.11642 0.43392-0.11642 0.91016-0.34925l0.29633 0.75141q-0.99483 0.48683-2.1378 0.48683zm-13.367-2.0426q0-0.66675 0.39158-1.2171 0.39158-0.56091 1.1112-0.93133-0.254-0.381-0.43392-0.79375-0.16933-0.42333-0.24342-0.84666h-1.3123v-0.75141h7.2813v0.75141h-1.3123q-0.14817 0.86783-0.65616 1.6298 0.78316 0.4445 1.1324 1.0054 0.34925 0.56091 0.34925 1.143 0 0.30692-0.10583 0.66675-0.10583 0.34925-0.34925 0.66675-0.24342 0.3175-0.67733 0.51858-0.42333 0.20108-1.0795 0.20108h-0.0635l-0.05292-0.77258h0.11642q0.70908 0 1.0372-0.34925 0.32808-0.35983 0.32808-0.89958 0-0.46567-0.27516-0.86783-0.26458-0.41275-0.83608-0.70908-0.51858 0.5715-1.1959 0.9525-0.66675-0.37042-1.2065-0.96308-0.46566 0.254-0.78316 0.64558-0.3175 0.381-0.3175 0.89958 0 0.5715 0.33866 0.93133 0.33867 0.35983 1.0901 0.35983h0.05292l-0.05292 0.77258h-0.0635q-0.65616 0-1.0901-0.20108-0.42333-0.20108-0.67733-0.508-0.24342-0.3175-0.34925-0.66675-0.095249-0.35983-0.095249-0.66675zm4.6143-3.7888h-2.921q0.11642 0.77258 0.51858 1.3441 0.40217 0.56091 0.94191 0.94191 0.53975-0.35983 0.93133-0.93133 0.40217-0.58208 0.52916-1.3547zm-6.731 3.0692v-3.0692h-0.85725v-0.75141h2.6352v0.75141h-0.93133v3.0692zm-2.2013 2.7622q-0.042334-0.61383-0.14817-1.143t-0.28575-0.98425q-0.39158 0.508-0.97366 0.8255-0.5715 0.30692-1.3335 0.30692-0.94191 0-1.5028-0.48683-0.55033-0.48683-0.55033-1.3547 0-0.59266 0.27517-0.99483 0.28575-0.41275 0.75141-0.62441t1.0372-0.21167q0.74083 0 1.2806 0.26458 0.53975 0.254 0.96308 0.74083 0.07408-0.30692 0.10583-0.61383 0.03175-0.30692 0.03175-0.5715 0-0.21167-0.03175-0.49742t-0.07408-0.48683h-4.7837v-0.75141h6.731v0.75141h-1.0901q0.03175 0.15875 0.0635 0.46567 0.03175 0.29633 0.03175 0.51858 0 0.48683-0.10583 0.99483-0.09525 0.49742-0.32808 0.9525 0.37042 0.64558 0.53975 1.4182 0.17992 0.77258 0.254 1.4817zm-3.9264-2.8257q0 0.52916 0.33867 0.80433 0.33867 0.26458 0.85725 0.26458 0.71966 0 1.1853-0.32808 0.47625-0.32808 0.762-0.78316-0.35983-0.49742-0.8255-0.77258t-1.0477-0.27517q-0.55033 0-0.91016 0.27517-0.35983 0.26458-0.35983 0.81491zm-3.0374 2.8257v-3.7359q-0.889 0.23283-1.5557 0.71966-0.02117 0.8255-0.24342 1.3547-0.21167 0.51858-0.64558 0.51858-0.22225 0-0.37042-0.127-0.14817-0.13758-0.14817-0.48683 0-0.40217 0.1905-0.84666 0.20108-0.4445 0.48683-0.75141-0.01058-0.42333-0.10583-0.85725-0.09525-0.4445-0.23283-0.70908-0.41275 0.14817-0.80433 0.37042-0.381 0.21167-0.635 0.41275-0.02117 0.85725-0.23283 1.3758-0.21167 0.51858-0.65616 0.51858-0.22225 0-0.37042-0.127-0.13758-0.13758-0.13758-0.49742 0-0.39158 0.1905-0.8255 0.1905-0.4445 0.46566-0.74083-0.03175-0.5715-0.14817-0.91016-0.10583-0.34925-0.21167-0.48683h-0.96308v-0.75141h1.5981q0.127 0.28575 0.26458 0.74083 0.13758 0.4445 0.16933 0.889 0.17992-0.15875 0.49742-0.33867 0.32808-0.17992 0.71966-0.32808 0.39158-0.15875 0.78316-0.24342 0.127 0.21167 0.23283 0.55033t0.17992 0.73025q0.07408 0.381 0.10583 0.71966 0.28575-0.20108 0.68792-0.381 0.41275-0.1905 0.889-0.30692v-2.032h1.8732v0.75141h-1.016v5.8314zm-10.604 0v-5.8314h-1.016v-0.75141h1.016v-0.33867q0-0.56091-0.0635-0.96308-0.0635-0.41275-0.28575-0.635-0.21167-0.22225-0.65616-0.22225-0.55033 0-0.78316 0.29633-0.24342 0.28575-0.24342 0.81491 0 0.16933 0.02117 0.32808t0.04233 0.28575l-0.8255 0.084666q-0.03175-0.16933-0.05292-0.34925t-0.02117-0.35983q0-0.87841 0.52916-1.3547 0.51859-0.48683 1.3547-0.48683 0.71966 0 1.1218 0.29633 0.40216 0.29633 0.56092 0.81491 0.15875 0.508 0.15875 1.1853v0.60325h1.016v0.75141h-1.016v5.8314zm-1.0901 2.8363q-0.254-0.37042-0.56092-0.68792-0.3175-0.3175-0.71966-0.51858-0.17992 0.1905-0.43392 0.29633-0.254 0.11642-0.60325 0.11642-0.37042 0-0.635-0.14817-0.26458-0.14817-0.26458-0.508t0.29633-0.508q0.28575-0.13758 0.67733-0.13758 0.14817 0 0.29633 0.02117 0.13758 0.02117 0.27517 0.04233 0.01058-0.04233 0.02117-0.09525 0-0.04233 0-0.11642v-0.59266h0.85725v0.17992q0 0.3175-0.02117 0.508-0.03175 0.1905-0.09525 0.33867 0.4445 0.20108 0.81491 0.55033 0.37042 0.35983 0.71966 0.84666zm-1.651-2.8363v-2.7622h-2.4765q-0.04233 0.86783-0.27517 1.3864-0.22225 0.51858-0.64558 0.51858-0.21167 0-0.35983-0.127-0.13758-0.127-0.13758-0.48683 0-0.23283 0.127-0.68791 0.127-0.45508 0.51858-0.889-0.03175-0.68791-0.16933-1.4076-0.13758-0.73025-0.381-1.3758h-0.78316v-0.75141h6.4558v0.75141h-1.016v5.8314zm-2.4659-3.5137h2.4659v-2.3177h-2.8892q0.21167 0.635 0.30692 1.2277 0.10583 0.59266 0.11642 1.0901zm-7.8845 3.5137q-0.70908 0-1.3547-0.1905-0.635-0.1905-1.1536-0.48683l0.33867-0.77258q0.508 0.32808 1.0372 0.508 0.52916 0.16933 1.1112 0.16933 0.46566 0 0.83608-0.11642 0.381-0.127 0.60325-0.39158 0.23283-0.27517 0.23283-0.71966 0-0.51858-0.32808-0.86783-0.3175-0.34925-0.85725-0.56091-0.23283 0.042333-0.55033 0.084666t-0.64558 0.042333q-0.48683 0-0.74083-0.084666-0.254-0.09525-0.34925-0.23283-0.09525-0.13758-0.09525-0.28575 0-0.30692 0.26458-0.41275 0.27516-0.11642 0.66675-0.11642 0.42333 0 0.79375 0.074083 0.381 0.0635 0.74083 0.20108 0.37042-0.14817 0.60325-0.45508 0.24342-0.30692 0.24342-0.80433 0-0.20108-0.04233-0.41275h-4.0746v-0.75141h5.8843v0.75141h-0.94191q0.03175 0.23283 0.03175 0.42333 0 0.65616-0.26458 1.0054-0.254 0.33867-0.64558 0.5715 0.52916 0.28575 0.84666 0.71966 0.32808 0.43392 0.32808 1.1218 0 0.64558-0.32808 1.0901-0.3175 0.4445-0.889 0.67733-0.56092 0.22225-1.3017 0.22225zm-4.445 0v-5.8314h-1.016v-0.75141h1.016v-0.48683q0-1.1218 0.43392-1.7674 0.43392-0.64558 1.4922-0.64558 0.78316 0 1.2806 0.45508 0.49742 0.45508 0.49742 1.397 0 0.34925-0.0635 0.6985l-0.8255-0.084666q0.02117-0.11642 0.03175-0.27517 0.02117-0.16933 0.02117-0.37042 0-0.508-0.22225-0.79375-0.21167-0.28575-0.71966-0.28575-0.43392 0-0.66675 0.22225-0.23284 0.21167-0.3175 0.58208t-0.084666 0.84666v0.508h1.016v0.75141h-1.016v5.8314zm-2.7411 0v-2.7622h-2.4765q-0.042333 0.86783-0.27517 1.3864-0.22225 0.51858-0.64558 0.51858-0.21167 0-0.35983-0.127-0.13758-0.127-0.13758-0.48683 0-0.23283 0.127-0.68791 0.127-0.45508 0.51858-0.889-0.03175-0.68791-0.16933-1.4076-0.13758-0.73025-0.381-1.3758h-0.78316v-0.75141h6.4558v0.75141h-1.016v5.8314zm-2.4659-3.5137h2.4659v-2.3177h-2.8892q0.21167 0.635 0.30692 1.2277 0.10583 0.59266 0.11642 1.0901z"/>
</g>
</svg>
