<svg width="60.505mm" height="10.096mm" version="1.1" viewBox="0 0 60.505 10.096" xmlns="http://www.w3.org/2000/svg">
<g stroke-width=".26458" aria-label=" Привет мир">
<style> @keyframes animate { 0% { filter: hue-rotate(360deg);} 100% { filter: hue-rotate(0deg);} } path {fill: url(#grad);animation: animate linear 5s infinite ;} </style> <linearGradient id="grad"> <stop offset="0%" stop-color="cyan" /> <stop offset="50%" stop-color="magenta" /> <stop offset="100%" stop-color="yellow" /> </linearGradient>
<path d="m58.176 1.778q1.0477 0 1.6827 0.73025 0.64558 0.73025 0.64558 2.2013 0 1.4499-0.64558 2.2013-0.635 0.75141-1.6933 0.75141-0.65616 0-1.0901-0.24342-0.42333-0.254-0.66675-0.58208h-0.0635q0.02117 0.17992 0.04233 0.45508 0.02117 0.27517 0.02117 0.47625v2.3283h-0.93133v-8.2126h0.762l0.127 0.77258h0.04233q0.254-0.37042 0.66675-0.62441t1.1007-0.254zm-0.16933 0.78316q-0.86783 0-1.2277 0.48683-0.34925 0.48683-0.37042 1.4817v0.17992q0 1.0477 0.33867 1.6192 0.34925 0.56091 1.2806 0.56091 0.51858 0 0.84666-0.28575 0.33866-0.28575 0.49742-0.77258 0.16933-0.49742 0.16933-1.1324 0-0.97366-0.381-1.5557-0.37042-0.58208-1.1536-0.58208zm-8.4561-0.67733v3.4607q0 0.127-0.01058 0.381t-0.03175 0.508q-0.01058 0.254-0.02117 0.40217l3.0374-4.7519h1.143v5.6726h-0.86783v-3.3443q0-0.16933 0-0.4445 0.01058-0.27517 0.02117-0.53975 0.01058-0.27517 0.02117-0.41275l-3.0162 4.7413h-1.1536v-5.6726zm-2.6881 0v5.6726h-0.83608v-3.6195q0-0.22225 0.01058-0.46567 0.02117-0.24342 0.04233-0.47625h-0.03175l-1.8521 4.5614h-0.78316l-1.7992-4.5614h-0.03175q0.03175 0.47625 0.03175 0.97366v3.5877h-0.83608v-5.6726h1.2382l1.7886 4.5614 1.8203-4.5614zm-9.9589 0.78316h-1.8521v4.8895h-0.92075v-4.8895h-1.8309v-0.78316h4.6037zm-7.694-0.889q0.73025 0 1.2488 0.3175 0.52916 0.3175 0.80433 0.89958 0.28575 0.5715 0.28575 1.3441v0.56091h-3.8841q0.02117 0.96308 0.48683 1.4711 0.47625 0.49742 1.3229 0.49742 0.53975 0 0.9525-0.09525 0.42333-0.10583 0.86783-0.29633v0.81491q-0.43392 0.1905-0.85725 0.27517-0.42333 0.09525-1.0054 0.09525-0.80433 0-1.4287-0.32808-0.61383-0.32808-0.96308-0.97366-0.33867-0.65616-0.33867-1.5981 0-0.93133 0.30692-1.5981 0.3175-0.66675 0.87841-1.0266 0.5715-0.35983 1.3229-0.35983zm-0.01058 0.762q-0.66675 0-1.0583 0.43392-0.381 0.42333-0.45508 1.1853h2.8892q-0.010587-0.71966-0.33867-1.1642-0.32808-0.45508-1.0372-0.45508zm-3.7147 0.77258q0 0.52916-0.3175 0.8255t-0.81491 0.40217v0.042333q0.52916 0.074083 0.92075 0.381 0.39158 0.29633 0.39158 0.93133 0 0.71966-0.53975 1.1959-0.52916 0.46567-1.7568 0.46567h-2.4447v-5.6726h2.4342q0.60325 0 1.0795 0.13758 0.48683 0.127 0.762 0.4445 0.28575 0.30692 0.28575 0.84666zm-0.94191 0.11642q0-0.40217-0.29633-0.58208-0.28575-0.1905-0.94191-0.1905h-1.4499v1.5557h1.2806q1.4076 0 1.4076-0.78316zm0.15875 2.4659q0-0.48683-0.37042-0.6985-0.37042-0.21167-1.0901-0.21167h-1.3864v1.8203h1.4076q0.6985 0 1.0689-0.20108 0.37042-0.21167 0.37042-0.70908zm-9.7049-4.0111v3.4607q0 0.127-0.01058 0.381t-0.03175 0.508q-0.01058 0.254-0.02117 0.40217l3.0374-4.7519h1.143v5.6726h-0.86783v-3.3443q0-0.16933 0-0.4445 0.01058-0.27517 0.02117-0.53975 0.01058-0.27517 0.02117-0.41275l-3.0162 4.7413h-1.1536v-5.6726zm-4.6884-0.10583q1.0477 0 1.6827 0.73025 0.64558 0.73025 0.64558 2.2013 0 1.4499-0.64558 2.2013-0.635 0.75141-1.6933 0.75141-0.65616 0-1.0901-0.24342-0.42333-0.254-0.66675-0.58208h-0.0635q0.021167 0.17992 0.042333 0.45508 0.021167 0.27517 0.021167 0.47625v2.3283h-0.93133v-8.2126h0.762l0.127 0.77258h0.042333q0.254-0.37042 0.66675-0.62441 0.41275-0.254 1.1007-0.254zm-0.16933 0.78316q-0.86783 0-1.2277 0.48683-0.34925 0.48683-0.37042 1.4817v0.17992q0 1.0477 0.33867 1.6192 0.34925 0.56091 1.2806 0.56091 0.51858 0 0.84666-0.28575 0.33867-0.28575 0.49742-0.77258 0.16933-0.49742 0.16933-1.1324 0-0.97366-0.381-1.5557-0.37042-0.58208-1.1536-0.58208zm-10.139 4.9953v-7.5565h5.6726v7.5565h-0.94191v-6.7204h-3.7782v6.7204z"/>
</g>
</svg>
