<svg width="84.641mm" height="8.2126mm" version="1.1" viewBox="0 0 84.641 8.2126" xmlns="http://www.w3.org/2000/svg">
<g stroke-width=".26458" aria-label=" Lefatše Lumela">
<style> @keyframes animate { 0% { filter: hue-rotate(360deg);} 100% { filter: hue-rotate(0deg);} } path {fill: url(#grad);animation: animate linear 5s infinite ;} </style> <linearGradient id="grad"> <stop offset="0%" stop-color="cyan" /> <stop offset="50%" stop-color="magenta" /> <stop offset="100%" stop-color="yellow" /> </linearGradient>
<path d="m84.641 7.2283v0.8785l-1.757 0.05168-0.05168-1.2092h-0.10852q-0.05684 0.62012-0.5271 0.94051-0.46509 0.32039-1.2454 0.32039-0.85783 0-1.3281-0.40824-0.47025-0.41341-0.47025-1.1731 0-0.86816 0.63045-1.3332 0.63562-0.46509 1.7983-0.46509 0.63045 0 1.0852 0.12919v-0.29455q0-0.5581-0.3824-0.83199-0.37724-0.27388-1.1472-0.31523l-1.3126-0.06201 0.10335-0.93017 1.1059 0.04134q1.3539 0.05168 2.0154 0.61495 0.66146 0.56327 0.66146 1.6485v2.2841zm-3.514 0.10335q0.48576 0 0.83199-0.17053 0.3514-0.17053 0.5271-0.44442 0.18087-0.27388 0.18087-0.57361v-0.33073q-0.25838-0.06718-0.51676-0.08268-0.25321-0.02067-0.64079-0.02067-0.65112 0-0.98702 0.2067-0.3359 0.2067-0.3359 0.60978 0 0.39791 0.23771 0.60461 0.23771 0.20154 0.7028 0.20154zm-3.1729 0.66146q-0.41341 0.11369-0.80098 0.16536-0.38757 0.05168-0.83199 0.05168-0.64079 0-1.0335-0.22738-0.39274-0.22738-0.57877-0.7028-0.18604-0.47542-0.18604-1.2402v-4.7749h-1.6123v-0.9095h2.7078v5.6327q0 0.46509 0.08268 0.72864 0.08785 0.25838 0.32556 0.38757 0.24288 0.12402 0.70796 0.12402 0.22738 0 0.48576-0.04651 0.26355-0.04651 0.60978-0.14986zm-6.2011-2.8422q0 0.37724-0.03101 0.7028h-3.7q0.14469 0.68213 0.65112 1.0387 0.50643 0.35657 1.3332 0.35657 0.63562 0 1.3436-0.14469l0.13436 0.96118q-0.75964 0.14469-1.602 0.14469-0.93534 0-1.5916-0.33073-0.65112-0.33073-0.99218-0.96635-0.34106-0.64078-0.34106-1.5555 0-0.88883 0.28939-1.5244t0.84232-0.97151q0.5581-0.3359 1.3384-0.3359 1.1162 0 1.7208 0.67696 0.60461 0.67696 0.60461 1.9482zm-0.99218-0.13436q0-0.7338-0.3514-1.1317-0.34623-0.39791-0.97151-0.39791-0.63562 0-1.0129 0.39791t-0.44442 1.1317zm-6.1702-2.4908q0.56844 0 0.82682 0.30489 0.25838 0.30489 0.25838 0.98702v4.2891h-1.0955v-4.1858q0-0.28939-0.10335-0.42891-0.10335-0.13953-0.32039-0.13953-0.53743 0-0.53743 0.74414v4.0101h-0.93017v-4.2891q0-0.46509-0.43408-0.46509-0.5271 0-0.5271 0.74414v4.0101h-1.0955v-5.4777h0.97151l0.07235 0.68213h0.08268q0.03101-0.39791 0.25838-0.58911 0.23254-0.19637 0.68213-0.19637 0.3514 0 0.57877 0.20154 0.22738 0.19637 0.30489 0.58394h0.08785q0.02584-0.3359 0.26355-0.5581 0.24288-0.22738 0.65629-0.22738zm-4.7542 4.7025v0.8785l-1.757 0.05168-0.07752-1.1059h-0.09818q-0.12402 0.5581-0.47542 0.85783-0.34623 0.29972-0.85783 0.29972-0.91467 0-1.4159-0.5116-0.49609-0.5116-0.49609-1.4521v-3.7207h1.0749v3.7207q0 0.49609 0.27388 0.76481 0.27388 0.26872 0.76998 0.26872 0.60978 0 0.9095-0.39791 0.29972-0.40308 0.29972-1.3074v-3.0489h1.0955v4.5889zm-6.5009-0.10335v0.98185h-4.8576v-7.338h1.0335v6.3562zm-12.588-1.974q0 0.37724-0.03101 0.7028h-3.7q0.14469 0.68213 0.65112 1.0387 0.50643 0.35657 1.3332 0.35657 0.63562 0 1.3436-0.14469l0.13436 0.96118q-0.75964 0.14469-1.602 0.14469-0.93534 0-1.5916-0.33073-0.65112-0.33073-0.99218-0.96635-0.34106-0.64078-0.34106-1.5555 0-0.88883 0.28939-1.5244t0.84232-0.97151q0.5581-0.3359 1.3384-0.3359 1.1162 0 1.7208 0.67696 0.60461 0.67696 0.60461 1.9482zm-0.99218-0.13436q0-0.7338-0.3514-1.1317-0.34623-0.39791-0.97151-0.39791-0.63562 0-1.0129 0.39791t-0.44442 1.1317zm-4.9824 1.5239q0 0.8255-0.61383 1.2488-0.61383 0.42333-1.651 0.42333-0.59266 0-1.0266-0.09525-0.42333-0.09525-0.75141-0.26458v-0.84666q0.33866 0.16933 0.81491 0.3175 0.48683 0.13758 0.98425 0.13758 0.70908 0 1.0266-0.22225 0.3175-0.23283 0.3175-0.61383 0-0.21167-0.11642-0.381-0.11642-0.16933-0.42333-0.33866-0.29633-0.16933-0.85725-0.381-0.55033-0.21167-0.94191-0.42333-0.39158-0.21167-0.60325-0.508-0.21167-0.29633-0.21167-0.762 0-0.71966 0.58208-1.1112 0.59266-0.39158 1.5452-0.39158 0.51858 0 0.96308 0.10583 0.45508 0.09525 0.84666 0.27517l-0.3175 0.74083q-0.35983-0.14817-0.75141-0.254-0.39158-0.10583-0.80433-0.10583-0.5715 0-0.87841 0.1905-0.29633 0.17992-0.29633 0.49742 0 0.23283 0.13758 0.40216 0.13758 0.15875 0.45508 0.3175 0.32808 0.14817 0.86783 0.35983 0.53975 0.20108 0.92075 0.41275t0.58208 0.51858q0.20108 0.29633 0.20108 0.75142zm-2.54-4.8472q-0.13758-0.24342-0.37042-0.51858-0.23283-0.28575-0.48683-0.56092t-0.4445-0.47625v-0.13758h0.635q0.27517 0.17992 0.5715 0.43392 0.29633 0.254 0.56091 0.53975 0.28575-0.28575 0.58208-0.53975 0.29633-0.254 0.5715-0.43392h0.65616v0.13758q-0.20108 0.20108-0.46567 0.47625-0.254 0.27517-0.49742 0.56092-0.23283 0.27517-0.35983 0.51858zm-2.7766 6.3928q-0.72864 0.12402-1.4366 0.12402-0.83716 0-1.3539-0.22738t-0.75964-0.7028q-0.24288-0.47542-0.24288-1.2402v-2.5011h-1.3746v-0.9095h1.3746v-1.6536h1.0955v1.6536h2.4908v0.9095h-2.4908v2.4495q0 0.65629 0.32039 0.95084 0.32039 0.28939 1.0439 0.28939 0.23771 0 0.50643-0.02584 0.27388-0.02584 0.7028-0.07751zm-5.6947-0.85783v0.8785l-1.757 0.05168-0.05168-1.2092h-0.10852q-0.05684 0.62012-0.5271 0.94051-0.46509 0.32039-1.2454 0.32039-0.85783 0-1.3281-0.40824-0.47025-0.41341-0.47025-1.1731 0-0.86816 0.63045-1.3332 0.63562-0.46509 1.7983-0.46509 0.63045 0 1.0852 0.12919v-0.29455q0-0.5581-0.3824-0.83199-0.37724-0.27388-1.1472-0.31523l-1.3126-0.06201 0.10335-0.93017 1.1059 0.04134q1.3539 0.05168 2.0154 0.61495 0.66146 0.56327 0.66146 1.6485v2.2841zm-3.514 0.10335q0.48576 0 0.83199-0.17053 0.3514-0.17053 0.5271-0.44442 0.18087-0.27388 0.18087-0.57361v-0.33073q-0.25838-0.06718-0.51676-0.08268-0.25321-0.02067-0.64079-0.02067-0.65112 0-0.98702 0.2067-0.3359 0.2067-0.3359 0.60978 0 0.39791 0.23771 0.60461 0.23771 0.20154 0.7028 0.20154zm-4.0308-6.0978q-1.4676 0-1.4676 1.8087v0.82682h2.2428v0.9095h-2.2428v3.328h-1.0955v-3.328h-1.726v-0.9095h1.726v-0.77514q0-1.4263 0.64595-2.1342t1.9482-0.70796q0.58911 0 1.1369 0.10335l-0.11369 0.95084q-0.60978-0.07235-1.0542-0.07235zm-5.3433 3.9171q0 0.37724-0.03101 0.7028h-3.7q0.14469 0.68213 0.65112 1.0387t1.3332 0.35657q0.63562 0 1.3436-0.14469l0.13436 0.96118q-0.75964 0.14469-1.602 0.14469-0.93534 0-1.5916-0.33073-0.65112-0.33073-0.99218-0.96635-0.34106-0.64078-0.34106-1.5555 0-0.88883 0.28939-1.5244t0.84232-0.97151q0.5581-0.3359 1.3384-0.3359 1.1162 0 1.7208 0.67696 0.60461 0.67696 0.60461 1.9482zm-0.99218-0.13436q0-0.7338-0.3514-1.1317-0.34623-0.39791-0.97151-0.39791-0.63562 0-1.0129 0.39791t-0.44442 1.1317zm-5.0229 2.1084v0.98185h-4.8576v-7.338h1.0335v6.3562z"/>
</g>
</svg>
