<svg width="74.771mm" height="12.457mm" version="1.1" viewBox="0 0 74.771 12.457" xmlns="http://www.w3.org/2000/svg">
<g stroke-width=".26458" aria-label=" හෙලෝ වර්ල්ඩ්">
<style> @keyframes animate { 0% { filter: hue-rotate(360deg);} 100% { filter: hue-rotate(0deg);} } path {fill: url(#grad);animation: animate linear 5s infinite ;} </style> <linearGradient id="grad"> <stop offset="0%" stop-color="cyan" /> <stop offset="50%" stop-color="magenta" /> <stop offset="100%" stop-color="yellow" /> </linearGradient>
<path d="m72.231 10.414q-0.67733 0-1.0795-0.27516-0.39158-0.27517-0.66675-0.65616-0.32808 0.42333-0.70908 0.67733-0.381 0.254-1.0901 0.254-0.62441 0-1.1218-0.26458-0.48683-0.26458-0.77258-0.77258-0.27517-0.508-0.27517-1.2382 0-0.59266 0.26458-1.1218 0.27517-0.52916 0.93133-0.87841-0.29633 0.03175-0.59266 0.042333-0.28575 0-0.52916 0h-0.21167v-0.6985h3.3443q-0.03175-0.49742-0.30692-0.73025-0.26458-0.23283-0.66675-0.23283-0.81491 0-0.81491 0.58208 0 0.03175 0 0.074083t0.01058 0.0635l-0.77258 0.042333q-0.01058-0.052916-0.01058-0.11642 0-0.074083 0-0.11642 0-0.60325 0.40217-0.91016 0.41275-0.3175 1.1218-0.3175 0.85725 0 1.3229 0.49742 0.46566 0.48683 0.46566 1.4287v0.43392h-0.37042q-0.37042 0-0.762 0.021167t-0.762 0.127q-0.37042 0.10583-0.68791 0.37042-0.27517 0.23283-0.4445 0.58208-0.15875 0.34925-0.15875 0.85725 0 0.74083 0.381 1.1324 0.39158 0.39158 1.0372 0.39158 0.79375 0 1.1007-0.42333 0.3175-0.43392 0.3175-1.143v-0.0635h0.70908v0.0635q0 0.45508 0.127 0.81491 0.127 0.34925 0.42333 0.55033 0.30692 0.20108 0.84666 0.20108 0.48683 0 0.87841-0.254 0.40216-0.254 0.635-0.85725 0.23283-0.60325 0.23283-1.6616 0-1.9262-0.91016-2.8998-0.91016-0.97366-2.9739-0.97366-0.94191 0-1.6722 0.127-0.71966 0.11642-1.4182 0.33867l-0.21167-0.68791q0.26458-0.084666 0.53975-0.15875-0.02117-0.10583-0.04233-0.23283-0.02117-0.127-0.02117-0.27517 0-0.32808 0.127-0.66675 0.127-0.34925 0.47625-0.635 0.34925-0.29633 0.99483-0.47625 0.64558-0.17992 1.6933-0.17992 1.1112 0 1.8097 0.17992 0.70908 0.16933 1.0901 0.45508 0.381 0.28575 0.52916 0.635 0.14817 0.34925 0.14817 0.70908 0 0.29633-0.0635 0.51858-0.05292 0.22225-0.14817 0.46567l-0.6985-0.22225q0.08467-0.16933 0.11642-0.32808 0.03175-0.16933 0.03175-0.42333 0-0.33867-0.23283-0.61383-0.22225-0.28575-0.83608-0.45508-0.60325-0.17992-1.7357-0.17992-0.85725 0-1.3652 0.11642-0.508 0.11642-0.762 0.30692-0.254 0.17992-0.33867 0.40217-0.07408 0.21167-0.07408 0.41275 0 0.16933 0.02117 0.3175 1.0054-0.1905 2.0108-0.1905 2.3495 0 3.5242 1.1112 1.1853 1.1007 1.1853 3.5031 0 1.3017-0.32808 2.0743-0.32808 0.77258-0.91016 1.1112-0.5715 0.33866-1.3017 0.33866zm-10.467 2.0426q-1.5028 0-2.4659-0.52916-0.9525-0.52916-1.4182-1.4711-0.45508-0.93133-0.45508-2.159 0-1.3758 0.56092-2.3812 0.5715-1.0054 1.6298-1.5452 1.0583-0.55033 2.5082-0.55033 0.51858 0 0.9525 0.0635 0.43392 0.052917 0.78316 0.15875v-2.3812q0-0.46567-0.09525-0.65616-0.11642-0.24342-0.43392-0.35983l0.27517-0.64558q0.28575 0.084666 0.4445 0.21167 0.15875 0.11642 0.24342 0.29633 0.10583-0.22225 0.30692-0.35983 0.21167-0.14817 0.51858-0.14817 0.40216 0 0.66675 0.24342 0.27516 0.24342 0.27516 0.74083 0 0.46567-0.27516 0.762-0.27517 0.28575-0.85725 0.28575-0.17992 0-0.34925-0.021167v2.3495q0.53975 0.33867 0.78316 0.83608t0.24342 1.0901q0 0.84666-0.56092 1.397t-1.6933 0.55033q-0.68792 0-1.0901-0.1905-0.40217-0.20108-0.5715-0.52916-0.16933-0.32808-0.16933-0.74083 0-0.16933 0.05292-0.35983h-1.6087v-0.70908h3.9476v0.70908h-1.5346q-0.08467 0.15875-0.08467 0.34925 0 0.29633 0.21167 0.51858t0.83608 0.22225q0.71966 0 1.0901-0.3175 0.381-0.3175 0.381-0.889 0-0.508-0.24342-0.89958-0.23283-0.40217-0.81491-0.62441-0.58208-0.23283-1.5981-0.23283-1.3123 0-2.1907 0.47625-0.87841 0.46567-1.3123 1.3123-0.43392 0.84666-0.43392 1.9897 0 1.6616 0.94191 2.5188 0.9525 0.85725 2.5823 0.85725 0.87841 0 1.5981-0.28575 0.73025-0.27517 1.1536-0.87841 0.43392-0.59267 0.43392-1.5452 0-0.052916 0-0.17992 0-0.127-0.02117-0.22225l0.762-0.042333q0.03175 0.23283 0.03175 0.45508 0 0.89958-0.3175 1.5452-0.3175 0.65616-0.87841 1.0795-0.55033 0.42333-1.2594 0.62441-0.6985 0.21167-1.4817 0.21167zm3.302-11.864q-0.29633 0-0.39158 0.16933-0.09525 0.16933-0.09525 0.46567v0.17992q0.15875 0.03175 0.29633 0.03175 0.5715 0 0.5715-0.4445 0-0.20108-0.10583-0.29633-0.10583-0.10583-0.27517-0.10583zm-11.832 9.8213q-1.5346 0-2.3918-0.79375-0.84666-0.80433-0.84666-2.2542 0-0.87841 0.33867-1.4711 0.33866-0.60325 0.96308-1.0266 0.635-0.42333 1.5134-0.77258 0.80433-0.4445 1.6933-1.0266 0.89958-0.58208 1.7674-1.2912l0.508 0.59266q-0.71966 0.61383-1.5134 1.1218-0.79375 0.49742-1.4605 0.8255 0.8255 0.042333 1.4711 0.39158 0.64558 0.34925 1.016 1.0054 0.37042 0.64558 0.37042 1.5875 0 0.98425-0.42333 1.6827-0.41275 0.6985-1.1853 1.0689-0.762 0.35983-1.8203 0.35983zm-2.4659-3.0692q0 0.67733 0.254 1.2065 0.26458 0.51858 0.81491 0.81491 0.55033 0.29633 1.4076 0.29633 0.92075 0 1.5028-0.30692 0.58208-0.30692 0.85725-0.83608 0.28575-0.52916 0.28575-1.1959 0-1.1324-0.6985-1.7568-0.68791-0.62441-1.8838-0.62441-0.22225 0-0.47625 0.03175-0.24342 0.021167-0.48683 0.0635-0.635 0.29633-0.97366 0.66675-0.33867 0.35983-0.47625 0.78316-0.127 0.41275-0.127 0.85725zm1.2806-2.5929v-3.0903q0-0.46567-0.09525-0.65616-0.11642-0.24342-0.43392-0.35983l0.27517-0.64558q0.28575 0.084666 0.4445 0.21167 0.15875 0.11642 0.24342 0.29633 0.10583-0.22225 0.30692-0.35983 0.21167-0.14817 0.51858-0.14817 0.40216 0 0.66675 0.24342 0.27516 0.24342 0.27516 0.74083 0 0.46567-0.27516 0.762-0.27517 0.28575-0.85725 0.28575-0.17992 0-0.34925-0.021167v2.7411zm1.2065-4.1592q-0.29633 0-0.39158 0.16933-0.09525 0.16933-0.09525 0.46567v0.17992q0.15875 0.03175 0.29633 0.03175 0.5715 0 0.5715-0.4445 0-0.20108-0.10583-0.29633-0.10583-0.10583-0.27517-0.10583zm-8.4455 9.8213q-1.6087 0-2.5082-0.74083-0.89958-0.74083-0.89958-2.0002 0-0.46567 0.15875-0.86783 0.16933-0.41275 0.508-0.6985 0.35983-0.30692 0.9525-0.46567t1.524-0.15875h0.59266q-0.021167-0.49742-0.29633-0.73025-0.27516-0.23283-0.68791-0.23283-0.80433 0-0.80433 0.62441 0 0.052917 0 0.11642 0.01058 0.052917 0.02117 0.10583l-0.75142 0.11642q-0.01058-0.084666-0.03175-0.1905-0.01058-0.10583-0.01058-0.24342 0-0.60325 0.40217-0.91016 0.41275-0.3175 1.1218-0.3175 0.85725 0 1.3229 0.49742 0.46566 0.48683 0.46566 1.4287v0.43392h-1.3758q-0.762 0-1.1959 0.11642t-0.6985 0.32808q-0.24342 0.20108-0.34925 0.47625-0.09525 0.26458-0.09525 0.59266 0 0.93133 0.6985 1.4499 0.6985 0.51858 1.9367 0.51858 1.0477 0 1.7462-0.32808 0.70908-0.33867 1.1218-0.889 0.41275-0.56091 0.58208-1.2277 0.17992-0.66675 0.17992-1.3441 0-1.0689-0.3175-1.778t-0.83608-1.1218q-0.51858-0.42333-1.1324-0.60325-0.61383-0.17992-1.2065-0.17992-0.9525 0-1.7039 0.23283-0.74083 0.23283-1.397 0.61383l-0.34925-0.68791q0.71966-0.40217 1.5875-0.64558 0.86783-0.254 1.8732-0.254 0.83608 0 1.5981 0.254 0.77258 0.24342 1.3758 0.77258t0.9525 1.3758q0.34925 0.83608 0.34925 2.0214 0 0.93133-0.254 1.7568-0.254 0.81491-0.78316 1.4499-0.52916 0.62441-1.3758 0.98425-0.83608 0.34925-2.0108 0.34925zm-11.747 0q-0.23283 0-0.45508-0.04233-0.21167-0.03175-0.41275-0.08467l0.13758-0.68791q0.27517 0.084666 0.62442 0.084666 0.29633 0 0.5715-0.084666 0.27517-0.09525 0.49742-0.33867 0.22225-0.24342 0.34925-0.68791 0.127-0.4445 0.127-1.1536t-0.127-1.1536q-0.127-0.4445-0.34925-0.68791-0.22225-0.24342-0.49742-0.32808-0.27516-0.09525-0.5715-0.09525-0.20108 0-0.34925 0.03175-0.14817 0.021167-0.27517 0.0635l-0.13758-0.68791q0.22225-0.074083 0.4445-0.10583 0.23283-0.03175 0.42333-0.03175 0.39158 0 0.78316 0.127t0.71966 0.45508q0.32808 0.32808 0.52916 0.92075 0.20108 0.58208 0.20108 1.4922t-0.20108 1.5028q-0.20108 0.58208-0.52916 0.91016-0.32808 0.32808-0.71966 0.45508-0.39158 0.127-0.78316 0.127zm0.46566-5.6621v-3.0903q0-0.46567-0.09525-0.65616-0.11642-0.24342-0.43392-0.35983l0.27517-0.64558q0.28575 0.084666 0.4445 0.21167 0.15875 0.11642 0.24342 0.29633 0.10583-0.22225 0.30692-0.35983 0.21167-0.14817 0.51858-0.14817 0.40216 0 0.66675 0.24342 0.27517 0.24342 0.27517 0.74083 0 0.46567-0.27517 0.762-0.27517 0.28575-0.85725 0.28575-0.17992 0-0.34925-0.021167v2.7411zm1.2065-4.1592q-0.29633 0-0.39158 0.16933-0.09525 0.16933-0.09525 0.46567v0.17992q0.15875 0.03175 0.29633 0.03175 0.5715 0 0.5715-0.4445 0-0.20108-0.10583-0.29633-0.10583-0.10583-0.27517-0.10583zm-6.9321 11.864q-1.5028 0-2.4659-0.52916-0.9525-0.52916-1.4182-1.4711-0.45508-0.93133-0.45508-2.159 0-1.3758 0.56092-2.3812 0.5715-1.0054 1.6298-1.5452 1.0583-0.55033 2.5082-0.55033 1.2806 0 2.0426 0.32808 0.762 0.32808 1.1007 0.889 0.33866 0.55033 0.33866 1.2488 0 0.84666-0.56092 1.397-0.56091 0.55033-1.6933 0.55033-0.68791 0-1.0901-0.1905-0.40217-0.20108-0.5715-0.52916-0.16933-0.32808-0.16933-0.74083 0-0.16933 0.05292-0.35983h-1.6087v-0.70908h3.9476v0.70908h-1.5346q-0.08467 0.15875-0.08467 0.34925 0 0.29633 0.21167 0.51858t0.83608 0.22225q0.71966 0 1.0901-0.3175 0.381-0.3175 0.381-0.889 0-0.508-0.24342-0.89958-0.23283-0.40217-0.81491-0.62441-0.58208-0.23283-1.5981-0.23283-1.3123 0-2.1907 0.47625-0.87841 0.46567-1.3123 1.3123-0.43392 0.84666-0.43392 1.9897 0 1.6616 0.94191 2.5188 0.9525 0.85725 2.5823 0.85725 0.87841 0 1.5981-0.28575 0.73025-0.27517 1.1536-0.87841 0.43392-0.59266 0.43392-1.5452 0-0.052916 0-0.17992 0-0.127-0.02117-0.22225l0.762-0.042333q0.03175 0.23283 0.03175 0.45508 0 0.89958-0.3175 1.5452-0.3175 0.65616-0.87841 1.0795-0.55033 0.42333-1.2594 0.62441-0.6985 0.21167-1.4817 0.21167zm-7.8528-2.0426q-0.889 0-1.5028-0.254-0.60325-0.254-0.97366-0.67733t-0.53975-0.9525q-0.15875-0.53975-0.15875-1.0901 0-0.91016 0.42333-1.5875 0.42333-0.67733 1.1853-1.0583 0.762-0.381 1.7886-0.381 0.78316 0 1.3864 0.11642 0.60325 0.10583 1.2065 0.34925l-0.27517 0.6985q-0.62442-0.26458-1.1536-0.34925-0.52916-0.084666-1.1853-0.084666-0.6985 0-1.2912 0.23283t-0.9525 0.74083q-0.35983 0.508-0.35983 1.3441 0 0.39158 0.11642 0.78316 0.11642 0.39158 0.39158 0.70908 0.27517 0.3175 0.73025 0.51858 0.46566 0.1905 1.1642 0.1905 0.79375 0 1.2488-0.1905 0.45508-0.20108 0.64558-0.52916 0.1905-0.32808 0.1905-0.71966 0-0.35983-0.16933-0.70908-0.16933-0.35983-0.68791-0.52916 0.05292 0.14817 0.07408 0.29633 0.02117 0.14817 0.02117 0.27517 0 0.64558-0.35983 0.89958-0.35983 0.254-0.87841 0.254-0.5715 0-0.94191-0.3175-0.37042-0.3175-0.37042-0.93133 0-0.59266 0.45508-0.92075 0.46566-0.33867 1.2065-0.33867 0.80433 0 1.3335 0.26458 0.53975 0.26458 0.80433 0.71966 0.27517 0.4445 0.27517 0.98425 0 0.64558-0.28575 1.1536-0.28575 0.508-0.92075 0.80433-0.62442 0.28575-1.6404 0.28575zm-0.47625-2.9316q0 0.20108 0.11642 0.37042 0.127 0.15875 0.42333 0.15875 0.27517 0 0.40216-0.14817 0.13758-0.14817 0.13758-0.39158 0-0.11642-0.03175-0.27517-0.02117-0.16933-0.10583-0.30692h-0.09525q-0.40217 0-0.62442 0.15875t-0.22225 0.43392zm-9.7155 2.9316q-0.92075 0-1.6192-0.3175-0.68791-0.32808-1.0689-0.94191-0.381-0.62441-0.381-1.5134 0-1.0689 0.68791-1.6087 0.6985-0.55033 2.0108-0.55033h0.17992q-0.03175-0.49742-0.30692-0.73025t-0.67733-0.23283q-0.80433 0-0.80433 0.62441 0 0.15875 0.042333 0.30692l-0.74083 0.127q-0.074083-0.23283-0.074083-0.52916 0-0.60325 0.40217-0.91016 0.41275-0.3175 1.1218-0.3175 0.85725 0 1.3229 0.49742 0.46567 0.48683 0.46567 1.4287v0.43392h-0.78316q-0.64558 0-1.0372 0.09525-0.381 0.09525-0.62441 0.30692-0.20108 0.16933-0.30692 0.4445-0.10583 0.26458-0.10583 0.65616 0 0.92075 0.61383 1.4499 0.62441 0.52916 1.6827 0.52916 1.0901 0 1.7039-0.46567 0.61383-0.47625 0.61383-1.3229 0-0.35983-0.13758-0.508-0.13758-0.15875-0.35983-0.15875-0.1905 0-0.30692 0.052917-0.10583 0.042333-0.23283 0.13758l-0.75141-0.23283q0.15875-1.0372 0.48683-1.6827 0.33867-0.65616 0.77258-1.016 0.43392-0.37042 0.889-0.508 0.45508-0.13758 0.86783-0.13758 0.91016 0 1.5028 0.42333 0.60325 0.41275 0.89958 1.143 0.29633 0.71966 0.29633 1.6404 0 1.0795-0.381 1.8203-0.381 0.73025-1.0583 1.1112-0.66675 0.37042-1.5452 0.37042-0.29633 0-0.5715-0.03175l0.03175-0.71966q0.08467 0.010583 0.1905 0.021167 0.11642 0 0.254 0 1.1853 0 1.7357-0.6985 0.55033-0.6985 0.55033-1.8732 0-0.70908-0.22225-1.2594-0.22225-0.55033-0.65616-0.86783-0.42333-0.32808-1.0689-0.32808-0.4445 0-0.85725 0.17992-0.40217 0.17992-0.74083 0.62441-0.32808 0.4445-0.53975 1.2277 0.22225-0.09525 0.508-0.09525 0.56092 0 0.889 0.37042t0.32808 1.0689q0 0.4445-0.16933 0.87841-0.15875 0.43392-0.51858 0.79375t-0.9525 0.58208q-0.59266 0.21166-1.4499 0.21166zm-6.5828 0q-0.889 0-1.5028-0.254-0.60325-0.254-0.97366-0.67733-0.37042-0.42333-0.53975-0.9525-0.15875-0.53975-0.15875-1.0901 0-0.91016 0.42333-1.5875 0.42333-0.67733 1.1853-1.0583 0.762-0.381 1.7886-0.381 0.78316 0 1.3864 0.11642 0.60325 0.10583 1.2065 0.34925l-0.27517 0.6985q-0.62441-0.26458-1.1536-0.34925-0.52916-0.084666-1.1853-0.084666-0.6985 0-1.2912 0.23283t-0.9525 0.74083q-0.35983 0.508-0.35983 1.3441 0 0.39158 0.11642 0.78316 0.11642 0.39158 0.39158 0.70908 0.27517 0.3175 0.73025 0.51858 0.46567 0.1905 1.1642 0.1905 0.79375 0 1.2488-0.1905 0.45508-0.20108 0.64558-0.52916 0.1905-0.32808 0.1905-0.71966 0-0.35983-0.16933-0.70908-0.16933-0.35983-0.68791-0.52916 0.052917 0.14817 0.074083 0.29633 0.021167 0.14817 0.021167 0.27517 0 0.64558-0.35983 0.89958-0.35983 0.254-0.87841 0.254-0.5715 0-0.94191-0.3175t-0.37042-0.93133q0-0.59266 0.45508-0.92075 0.46567-0.33867 1.2065-0.33867 0.80433 0 1.3335 0.26458 0.53975 0.26458 0.80433 0.71966 0.27517 0.4445 0.27517 0.98425 0 0.64558-0.28575 1.1536-0.28575 0.508-0.92075 0.80433-0.62441 0.28575-1.6404 0.28575zm-0.47625-2.9316q0 0.20108 0.11642 0.37042 0.127 0.15875 0.42333 0.15875 0.27517 0 0.40217-0.14817 0.13758-0.14817 0.13758-0.39158 0-0.11642-0.03175-0.27517-0.021167-0.16933-0.10583-0.30692h-0.09525q-0.40217 0-0.62441 0.15875t-0.22225 0.43392z"/>
</g>
</svg>
