<svg width="73.556mm" height="8.0305mm" version="1.1" viewBox="0 0 73.556 8.0305" xmlns="http://www.w3.org/2000/svg">
<g stroke-width=".26458" aria-label="Salamu Dunia">
<style> @keyframes animate { 0% { filter: hue-rotate(360deg);} 100% { filter: hue-rotate(0deg);} } path {fill: url(#grad);animation: animate linear 5s infinite ;} </style> <linearGradient id="grad"> <stop offset="0%" stop-color="cyan" /> <stop offset="50%" stop-color="magenta" /> <stop offset="100%" stop-color="yellow" /> </linearGradient>
<path d="m73.556 6.997v0.8785l-1.757 0.051676-0.05168-1.2092h-0.10852q-0.05684 0.62012-0.5271 0.94051-0.46509 0.32039-1.2454 0.32039-0.85783 0-1.3281-0.40824-0.47026-0.41341-0.47026-1.1731 0-0.86816 0.63045-1.3332 0.63562-0.46509 1.7983-0.46509 0.63045 0 1.0852 0.12919v-0.29455q0-0.5581-0.3824-0.83199-0.37723-0.27388-1.1472-0.31523l-1.3126-0.062012 0.10335-0.93017 1.1059 0.041341q1.3539 0.051676 2.0154 0.61495 0.66146 0.56327 0.66146 1.6485v2.2841zm-3.514 0.10335q0.48576 0 0.83199-0.17053 0.3514-0.17053 0.5271-0.44442 0.18087-0.27388 0.18087-0.57361v-0.33073q-0.25838-0.067179-0.51676-0.082682-0.25321-0.020671-0.64079-0.020671-0.65112 0-0.98702 0.20671-0.3359 0.2067-0.3359 0.60978 0 0.39791 0.23771 0.60461 0.23771 0.20154 0.7028 0.20154zm-5.271-5.5707q-0.2067 0-0.3824-0.10335-0.1757-0.10335-0.27905-0.27905-0.10335-0.1757-0.10335-0.3824 0-0.20671 0.10335-0.3824 0.10335-0.1757 0.27905-0.27905 0.1757-0.10335 0.3824-0.10335t0.3824 0.10335q0.1757 0.10335 0.27905 0.27905 0.10335 0.1757 0.10335 0.3824 0 0.20671-0.10335 0.3824-0.10335 0.1757-0.27905 0.27905-0.1757 0.10335-0.3824 0.10335zm0.60978 5.4467h1.6846v0.89917h-4.8679v-0.89917h2.0877v-3.669h-1.7777v-0.9095h2.8732zm-6.6972-4.6819q0.86816 0 1.3436 0.5271 0.47542 0.5271 0.47542 1.4883v3.5657h-1.0955v-3.5657q0-0.51676-0.25838-0.80098-0.25838-0.28422-0.72347-0.28422-1.2919 0-1.2919 1.571v3.0799h-1.0955v-5.4777h0.99218l0.08785 0.99218h0.11886q0.04651-0.55294 0.40308-0.82165 0.35657-0.27388 1.0439-0.27388zm-3.731 4.7025v0.8785l-1.757 0.051676-0.07751-1.1059h-0.09819q-0.12402 0.5581-0.47542 0.85783-0.34623 0.29972-0.85783 0.29972-0.91467 0-1.4159-0.5116-0.49609-0.51159-0.49609-1.4521v-3.7207h1.0749v3.7207q0 0.49609 0.27388 0.76481t0.76998 0.26872q0.60978 0 0.9095-0.39791 0.29972-0.40307 0.29972-1.3074v-3.0489h1.0955v4.5889zm-9.5808-6.4595q1.6846 0 2.5218 0.96635 0.83716 0.96635 0.83716 2.9094 0 1.7363-0.83716 2.5993-0.83716 0.86299-2.5218 0.86299h-1.7777v-7.338zm0 6.3562q1.1317 0 1.7001-0.64595 0.57361-0.64595 0.57361-1.9379 0-2.7905-2.2738-2.7905h-0.74414v5.3743zm-9.0227 0.10335v0.8785l-1.757 0.051676-0.07751-1.1059h-0.09819q-0.12402 0.5581-0.47542 0.85783-0.34623 0.29972-0.85783 0.29972-0.91467 0-1.4159-0.5116-0.49609-0.51159-0.49609-1.4521v-3.7207h1.0749v3.7207q0 0.49609 0.27388 0.76481t0.76998 0.26872q0.60978 0 0.9095-0.39791 0.29972-0.40307 0.29972-1.3074v-3.0489h1.0955v4.5889zm-7.6481-4.7025q0.56844 0 0.82682 0.30489 0.25838 0.30489 0.25838 0.98702v4.2891h-1.0955v-4.1858q0-0.28939-0.10335-0.42891-0.10335-0.13953-0.32039-0.13953-0.53743 0-0.53743 0.74414v4.0101h-0.93017v-4.2891q0-0.46509-0.43408-0.46509-0.5271 0-0.5271 0.74414v4.0101h-1.0955v-5.4777h0.97151l0.07235 0.68213h0.08268q0.03101-0.39791 0.25838-0.58911 0.23254-0.19637 0.68213-0.19637 0.3514 0 0.57877 0.20154 0.22738 0.19637 0.30489 0.58394h0.08785q0.025835-0.3359 0.26355-0.5581 0.24288-0.22738 0.65629-0.22738zm-4.7542 4.7025v0.8785l-1.757 0.051676-0.05168-1.2092h-0.10852q-0.05684 0.62012-0.5271 0.94051-0.46509 0.32039-1.2454 0.32039-0.85783 0-1.3281-0.40824-0.47025-0.41341-0.47025-1.1731 0-0.86816 0.63045-1.3332 0.63562-0.46509 1.7983-0.46509 0.63045 0 1.0852 0.12919v-0.29455q0-0.5581-0.3824-0.83199-0.37724-0.27388-1.1472-0.31523l-1.3126-0.062011 0.10335-0.93017 1.1059 0.041341q1.3539 0.051676 2.0154 0.61495 0.66146 0.56327 0.66146 1.6485v2.2841zm-3.514 0.10335q0.48576 0 0.83199-0.17053 0.3514-0.17053 0.5271-0.44442 0.18087-0.27388 0.18087-0.57361v-0.33073q-0.25838-0.067179-0.51676-0.082682-0.25321-0.020671-0.64079-0.020671-0.65112 0-0.98702 0.20671-0.3359 0.2067-0.3359 0.60978 0 0.39791 0.23771 0.60461 0.23771 0.20154 0.7028 0.20154zm-3.1729 0.66146q-0.41341 0.11369-0.80098 0.16536-0.38757 0.051676-0.83199 0.051676-0.64079 0-1.0335-0.22738-0.39274-0.22738-0.57877-0.7028-0.18603-0.47542-0.18603-1.2402v-4.7749h-1.6123v-0.9095h2.7078v5.6327q0 0.46509 0.08268 0.72864 0.08785 0.25838 0.32556 0.38757 0.24288 0.12402 0.70796 0.12402 0.22738 0 0.48576-0.046509 0.26355-0.046509 0.60978-0.14986zm-5.7154-0.76481v0.8785l-1.757 0.051676-0.051676-1.2092h-0.10852q-0.056844 0.62012-0.5271 0.94051-0.46509 0.32039-1.2454 0.32039-0.85783 0-1.3281-0.40824-0.47025-0.41341-0.47025-1.1731 0-0.86816 0.63045-1.3332 0.63562-0.46509 1.7983-0.46509 0.63045 0 1.0852 0.12919v-0.29455q0-0.5581-0.3824-0.83199-0.37724-0.27388-1.1472-0.31523l-1.3126-0.062012 0.10335-0.93017 1.1059 0.041341q1.3539 0.051676 2.0154 0.61495 0.66146 0.56327 0.66146 1.6485v2.2841zm-3.514 0.10335q0.48576 0 0.83199-0.17053 0.3514-0.17053 0.5271-0.44442 0.18087-0.27388 0.18087-0.57361v-0.33073q-0.25838-0.067179-0.51676-0.082682-0.25321-0.02067-0.64079-0.02067-0.65112 0-0.98702 0.20671-0.3359 0.2067-0.3359 0.60978 0 0.39791 0.23771 0.60461 0.23771 0.20154 0.7028 0.20154zm-4.8989-3.2143q0.84749 0.39791 1.2557 0.88883 0.40824 0.48576 0.40824 1.2092 0 1.0232-0.65112 1.5348-0.64595 0.5116-1.9637 0.5116-1.2506 0-2.1807-0.40307l0.13436-1.0025q1.1472 0.45475 2.1291 0.45475 0.7183 0 1.0697-0.26355 0.35657-0.26872 0.35657-0.81132 0-0.65629-0.67179-0.96118l-1.2712-0.57877q-0.77514-0.3514-1.1627-0.83716t-0.38757-1.1782q0-0.63562 0.27388-1.0852 0.27388-0.45475 0.79581-0.69246 0.52193-0.23771 1.2557-0.23771 0.66146 0 1.1317 0.20671 0.47542 0.20671 0.7183 0.59944 0.24805 0.38757 0.24805 0.94051h-1.0129q0-0.3824-0.28422-0.58911-0.28422-0.2067-0.80098-0.2067-0.57877 0-0.89917 0.26872-0.32039 0.26355-0.32039 0.74414 0 0.34623 0.18087 0.57361 0.18603 0.22221 0.57361 0.40824z"/>
</g>
</svg>
