<svg width="66.505mm" height="9.652mm" version="1.1" viewBox="0 0 66.505 9.652" xmlns="http://www.w3.org/2000/svg">
<g stroke-width=".26458" aria-label="Салом Ҷаҳон">
<style> @keyframes animate { 0% { filter: hue-rotate(360deg);} 100% { filter: hue-rotate(0deg);} } path {fill: url(#grad);animation: animate linear 5s infinite ;} </style> <linearGradient id="grad"> <stop offset="0%" stop-color="cyan" /> <stop offset="50%" stop-color="magenta" /> <stop offset="100%" stop-color="yellow" /> </linearGradient>
<path d="m62.494 1.9897v2.3601h3.0797v-2.3601h0.93133v5.6726h-0.93133v-2.5294h-3.0797v2.5294h-0.93133v-5.6726zm-2.4024 2.8257q0 1.4076-0.71966 2.1802-0.70908 0.77258-1.9262 0.77258-0.75141 0-1.3441-0.33867-0.58208-0.34925-0.92075-1.0054-0.33866-0.66675-0.33866-1.6087 0-1.4076 0.70908-2.1696 0.70908-0.762 1.9262-0.762 0.77258 0 1.3547 0.34925 0.59266 0.33867 0.92075 0.99483 0.33866 0.64558 0.33866 1.5875zm-4.2862 0q0 1.0054 0.39158 1.5981 0.40216 0.58208 1.27 0.58208 0.85725 0 1.2594-0.58208 0.40216-0.59266 0.40216-1.5981 0-1.0054-0.40216-1.5769-0.40217-0.5715-1.27-0.5715-0.86783 0-1.2594 0.5715t-0.39158 1.5769zm-2.5082 4.8154v-1.9685h-0.42333l-1.5452-2.2648-1.5663 2.2648h-1.0477l2.0532-2.8998-1.9579-2.7728h1.0583l1.4605 2.1378 1.4499-2.1378h1.0477l-1.9579 2.7728 1.5134 2.1167h0.8255v2.7517zm-7.6623-7.7364q1.0372 0 1.5346 0.45508 0.49742 0.45508 0.49742 1.4499v3.8629h-0.67733l-0.17992-0.80433h-0.04233q-0.37042 0.46567-0.78316 0.68791-0.40217 0.22225-1.1218 0.22225-0.77258 0-1.2806-0.40217-0.508-0.41275-0.508-1.2806 0-0.84666 0.66675-1.3017 0.66675-0.46567 2.0532-0.508l0.96308-0.03175v-0.33867q0-0.70908-0.30692-0.98425t-0.86783-0.27517q-0.4445 0-0.84666 0.13758-0.40216 0.127-0.75141 0.29633l-0.28575-0.6985q0.37042-0.20108 0.87841-0.33867 0.508-0.14817 1.0583-0.14817zm1.1112 2.9951-0.83608 0.03175q-1.0583 0.042333-1.4711 0.33867-0.40216 0.29633-0.40216 0.83608 0 0.47625 0.28575 0.6985 0.29633 0.22225 0.75141 0.22225 0.71966 0 1.1959-0.39158 0.47625-0.40217 0.47625-1.2277zm-5.2387-4.7837v6.7098h0.91016v2.8363h-0.91016v-1.9897h-0.9525v-3.1009q-0.61383 0.21167-1.1536 0.34925-0.52916 0.127-1.1853 0.127-1.0583 0-1.6404-0.48683-0.58208-0.49742-0.58208-1.4287v-3.0162h0.9525v2.8787q0 0.61383 0.3175 0.92075 0.32808 0.29633 1.0477 0.29633 0.62442 0 1.1218-0.11642t1.1218-0.3175v-3.6618zm-10.022 1.8838v5.6726h-0.83608v-3.6195q0-0.22225 0.01058-0.46567 0.02117-0.24342 0.04233-0.47625h-0.03175l-1.8521 4.5614h-0.78316l-1.7992-4.5614h-0.03175q0.03175 0.47625 0.03175 0.97366v3.5877h-0.83608v-5.6726h1.2382l1.7886 4.5614 1.8203-4.5614zm-7.5565 2.8257q0 1.4076-0.71966 2.1802-0.70908 0.77258-1.9262 0.77258-0.75141 0-1.3441-0.33867-0.58208-0.34925-0.92075-1.0054-0.33867-0.66675-0.33867-1.6087 0-1.4076 0.70908-2.1696 0.70908-0.762 1.9262-0.762 0.77258 0 1.3547 0.34925 0.59266 0.33867 0.92075 0.99483 0.33867 0.64558 0.33867 1.5875zm-4.2862 0q0 1.0054 0.39158 1.5981 0.40217 0.58208 1.27 0.58208 0.85725 0 1.2594-0.58208 0.40216-0.59266 0.40216-1.5981 0-1.0054-0.40216-1.5769t-1.27-0.5715q-0.86783 0-1.2594 0.5715-0.39158 0.5715-0.39158 1.5769zm-2.4447 2.8469h-0.94191v-4.9001h-1.6722q-0.13758 1.7886-0.381 2.8892-0.24342 1.0901-0.64558 1.5875-0.40216 0.49742-1.016 0.49742-0.13758 0-0.27517-0.021167-0.127-0.010583-0.21167-0.052917v-0.6985q0.0635 0.021167 0.13758 0.03175 0.07408 0.010583 0.14817 0.010583 0.5715 0 0.91016-1.2171 0.34925-1.2171 0.52916-3.7994h3.4184zm-8.1068-5.7679q1.0372 0 1.5346 0.45508 0.49742 0.45508 0.49742 1.4499v3.8629h-0.67733l-0.17992-0.80433h-0.04233q-0.37042 0.46567-0.78317 0.68791-0.40217 0.22225-1.1218 0.22225-0.77258 0-1.2806-0.40217-0.508-0.41275-0.508-1.2806 0-0.84666 0.66675-1.3017 0.66675-0.46567 2.0532-0.508l0.96308-0.03175v-0.33867q0-0.70908-0.30692-0.98425-0.30692-0.27517-0.86783-0.27517-0.4445 0-0.84666 0.13758-0.40217 0.127-0.75141 0.29633l-0.28575-0.6985q0.37042-0.20108 0.87841-0.33867 0.508-0.14817 1.0583-0.14817zm1.1112 2.9951-0.83608 0.03175q-1.0583 0.042333-1.4711 0.33867-0.40217 0.29633-0.40217 0.83608 0 0.47625 0.28575 0.6985 0.29633 0.22225 0.75141 0.22225 0.71966 0 1.1959-0.39158 0.47625-0.40217 0.47625-1.2277zm-6.5828-4.0534q-1.2171 0-1.9156 0.81491-0.6985 0.81491-0.6985 2.2331 0 1.4076 0.64558 2.2331 0.65616 0.81491 1.9579 0.81491 0.49742 0 0.94191-0.084666t0.86783-0.21167v0.8255q-0.42333 0.15875-0.87841 0.23283-0.4445 0.074083-1.0689 0.074083-1.1536 0-1.9262-0.47625-0.77258-0.47625-1.1642-1.3547-0.381-0.87841-0.381-2.0637 0-1.143 0.41275-2.0108 0.42333-0.87841 1.2382-1.3652 0.81491-0.49742 1.9791-0.49742 1.1959 0 2.0849 0.4445l-0.381 0.80433q-0.34925-0.15875-0.78316-0.28575-0.42333-0.127-0.93133-0.127z"/>
</g>
</svg>
