<svg width="53.329mm" height="8.8476mm" version="1.1" viewBox="0 0 53.329 8.8476" xmlns="http://www.w3.org/2000/svg">
<g stroke-width=".26458" aria-label="สวัสดีชาวโลก">
<style> @keyframes animate { 0% { filter: hue-rotate(360deg);} 100% { filter: hue-rotate(0deg);} } path {fill: url(#grad);animation: animate linear 5s infinite ;} </style> <linearGradient id="grad"> <stop offset="0%" stop-color="cyan" /> <stop offset="50%" stop-color="magenta" /> <stop offset="100%" stop-color="yellow" /> </linearGradient>
<path d="m48.641 8.7418v-2.0108q0-0.66675 0.29633-0.96308 0.29633-0.30692 0.75141-0.42333l0.01058-0.03175-1.1642-0.4445v-0.34925q0-0.43392 0.28575-0.81491 0.28575-0.39158 0.81491-0.62441 0.53975-0.24342 1.2806-0.24342 0.64558 0 1.1959 0.21167 0.55033 0.20108 0.87841 0.64558 0.33866 0.43392 0.33866 1.143v3.9052h-0.94191v-3.81q0-0.70908-0.43392-1.0054-0.42333-0.30692-1.0477-0.30692-0.64558 0-1.0266 0.27517-0.381 0.26458-0.381 0.67733l1.143 0.5715-0.08467 0.508q-0.39158 0-0.68792 0.26458-0.28575 0.254-0.28575 0.81491v2.0108zm-4.4132 0.10583q-0.93133 0-1.4287-0.42333-0.48683-0.43392-0.48683-1.2382 0-0.87841 0.635-1.3547 0.64558-0.47625 2.0849-0.56091l1.016-0.0635v-0.32808q0-0.68791-0.3175-0.97366-0.30692-0.29633-1.0372-0.29633-0.52916 0-1.016 0.14817-0.47625 0.13758-0.91016 0.39158v-0.87841q0.30692-0.15875 0.8255-0.29633 0.52916-0.13758 1.1853-0.13758 1.1112 0 1.651 0.48683 0.55033 0.47625 0.55033 1.5028v3.9158h-0.93133v-2.7517l-0.889 0.0635q-1.0795 0.074083-1.4922 0.33867-0.40216 0.26458-0.40216 0.77258 0 0.47625 0.29633 0.6985 0.30692 0.22225 0.84666 0.22225 0.34925 0 0.61383-0.09525l0.14817 0.70908q-0.20108 0.074083-0.4445 0.10583-0.23283 0.042333-0.49742 0.042333zm-3.2702 0q-0.28575 0-0.55033-0.09525-0.26458-0.095249-0.43392-0.33867-0.16933-0.24342-0.16933-0.67733v-5.8102q0-0.635-0.30692-0.91016-0.29633-0.27517-0.762-0.27517v-0.40217l0.78316-0.33867h2.8257v0.74083h-2.1484l-0.01058 0.042333q0.23283 0.15875 0.39158 0.48683 0.16933 0.3175 0.16933 0.83608v5.5139q0 0.24342 0.10583 0.34925t0.33867 0.10583q0.09525 0 0.20108-0.021167t0.20108-0.052917l0.127 0.68791q-0.20108 0.09525-0.39158 0.127-0.1905 0.03175-0.37042 0.03175zm-5.5033 0q-0.41275 0-0.80433-0.084666-0.381-0.084666-0.81491-0.3175l0.29633-0.71966q0.23283 0.13758 0.52916 0.24342 0.29633 0.09525 0.68792 0.09525 0.78316 0 1.2171-0.5715 0.4445-0.58208 0.4445-1.6722 0-1.0689-0.45508-1.6298-0.4445-0.5715-1.3758-0.5715-0.33867 0-0.68792 0.074083-0.34925 0.074083-0.61383 0.22225v-0.79375q0.30692-0.15875 0.66675-0.22225 0.37042-0.0635 0.74083-0.0635 0.9525 0 1.5452 0.381 0.59266 0.37042 0.86783 1.0372 0.27517 0.66675 0.27517 1.5663 0 1.397-0.635 2.2119-0.62442 0.81491-1.8838 0.81491zm-3.8206-0.10583v-4.1169q0-0.51858-0.24342-0.762-0.23283-0.24342-0.79375-0.24342-0.381 0-0.71966 0.10583-0.32808 0.09525-0.635 0.27517v-0.84666q0.21167-0.10583 0.60325-0.21167t0.93133-0.10583q0.8255 0 1.3123 0.37042 0.48683 0.37042 0.48683 1.2806v4.2545zm-5.4081 0.10583q-1.0054 0-1.5557-0.47625-0.53975-0.48683-0.53975-1.4499v-0.64558q0-0.52916 0.14817-0.83608 0.14817-0.30692 0.3175-0.52916 0.17992-0.24342 0.30692-0.42333 0.13758-0.17992 0.13758-0.43392 0-0.22225-0.11642-0.3175-0.10583-0.09525-0.27517-0.09525-0.127 0-0.27517 0.042333-0.13758 0.042333-0.27516 0.10583l-0.21167-0.67733q0.1905-0.127 0.46566-0.17992 0.28575-0.052917 0.49742-0.052917 0.59266 0 0.83608 0.30692 0.24342 0.29633 0.24342 0.762 0 0.39158-0.13758 0.64558-0.127 0.254-0.30692 0.49742-0.17992 0.26458-0.29633 0.508-0.11642 0.24342-0.11642 0.635v0.62441q0 0.48683 0.15875 0.75141 0.15875 0.26458 0.42333 0.37042 0.26458 0.09525 0.5715 0.09525 1.0795 0 1.0795-1.016v-1.4817q0-0.39158-0.17992-0.59266-0.17992-0.21167-0.58208-0.21167h-0.042333v-0.60325h0.05292q0.43392 0 0.61383-0.20108 0.17992-0.20108 0.21167-0.48683 0.04233-0.29633 0.04233-0.53975h0.94191q0 0.56091-0.13758 0.9525-0.13758 0.39158-0.62441 0.5715v0.042333q0.29633 0.074083 0.42333 0.254 0.13758 0.16933 0.17992 0.39158 0.04233 0.21167 0.04233 0.41275v1.5452q0 0.81491-0.508 1.2806-0.508 0.45508-1.5134 0.45508zm-8.3502-6.8262v-0.41275l0.77258-0.33867h2.8469v-0.85725h0.889v1.1959h-0.01058v0.41275zm1.7568 6.8262q-0.84666 0-1.3335-0.39158-0.47625-0.40217-0.67733-1.0795-0.1905-0.67733-0.1905-1.4922 0-1.1959 0.32808-1.8521 0.32808-0.66675 0.91016-0.93133 0.59266-0.26458 1.3652-0.26458 1.27 0 1.8415 0.55033 0.58208 0.55033 0.58208 1.4922v3.8629h-0.93133v-3.7782q0-0.65616-0.32808-0.99483-0.32808-0.34925-1.1324-0.34925-0.48683 0-0.87841 0.17992-0.381 0.17992-0.60325 0.66675-0.21167 0.48683-0.21167 1.4287 0 0.61383 0.11642 1.1112 0.127 0.48683 0.43392 0.77258 0.30692 0.28575 0.85725 0.28575 0.15875 0 0.29633-0.021167t0.26458-0.0635l0.09525 0.73025q-0.16933 0.074083-0.39158 0.10583-0.21167 0.03175-0.41275 0.03175zm-6.4558 0q-0.93133 0-1.4287-0.42333-0.48683-0.43392-0.48683-1.2382 0-0.87841 0.635-1.3547 0.64558-0.47625 2.0849-0.56091l1.016-0.0635v-0.32808q0-0.68791-0.3175-0.97366-0.30692-0.29633-1.0372-0.29633-0.52916 0-1.016 0.14817-0.47625 0.13758-0.91016 0.39158v-0.87841q0.30692-0.15875 0.8255-0.29633 0.52916-0.13758 1.1853-0.13758 0.42333 0 0.75141 0.074083 0.33867 0.074083 0.56092 0.254 0.17992-0.084666 0.30692-0.23283 0.127-0.14817 0.127-0.37042h0.92075q0 0.40217-0.23283 0.67733-0.22225 0.27517-0.5715 0.42333 0.17992 0.1905 0.254 0.48683 0.08467 0.29633 0.08467 0.67733v3.9158h-0.93133v-2.7517l-0.889 0.0635q-1.0795 0.074083-1.4922 0.33867-0.40216 0.26458-0.40216 0.77258 0 0.47625 0.29633 0.6985 0.30692 0.22225 0.84666 0.22225 0.34925 0 0.61383-0.09525l0.14817 0.70908q-0.20108 0.074083-0.4445 0.10583-0.23283 0.042333-0.49742 0.042333zm-4.6143-6.8262q-0.66675 0-0.94191-0.26458-0.27517-0.27517-0.27517-0.61383 0-0.15875 0.052917-0.33867 0.042333-0.1905 0.11642-0.30692l0.79375 0.13758q-0.0635 0.127-0.0635 0.32808 0 0.13758 0.084666 0.24342 0.084666 0.09525 0.28575 0.09525h2.6776v0.71966zm-1.0054 6.8262q-0.41275 0-0.80433-0.084666-0.381-0.084667-0.81491-0.3175l0.29633-0.71966q0.23283 0.13758 0.52916 0.24342 0.29633 0.09525 0.68791 0.09525 0.78316 0 1.2171-0.5715 0.4445-0.58208 0.4445-1.6722 0-1.0689-0.45508-1.6298-0.4445-0.5715-1.3758-0.5715-0.33867 0-0.68791 0.074083t-0.61383 0.22225v-0.79375q0.30692-0.15875 0.66675-0.22225 0.37042-0.0635 0.74083-0.0635 0.9525 0 1.5452 0.381 0.59266 0.37042 0.86783 1.0372 0.27517 0.66675 0.27517 1.5663 0 1.397-0.635 2.2119-0.62441 0.81491-1.8838 0.81491zm-5.6409 0q-0.93133 0-1.4287-0.42333-0.48683-0.43392-0.48683-1.2382 0-0.87841 0.635-1.3547 0.64558-0.47625 2.0849-0.56091l1.016-0.0635v-0.32808q0-0.68791-0.3175-0.97366-0.30692-0.29633-1.0372-0.29633-0.52916 0-1.016 0.14817-0.47625 0.13758-0.91016 0.39158v-0.87841q0.30692-0.15875 0.8255-0.29633 0.52916-0.13758 1.1853-0.13758 0.42333 0 0.75141 0.074083 0.33867 0.074083 0.56091 0.254 0.17992-0.084666 0.30692-0.23283 0.127-0.14817 0.127-0.37042h0.92075q0 0.40217-0.23283 0.67733-0.22225 0.27517-0.5715 0.42333 0.17992 0.1905 0.254 0.48683 0.084666 0.29633 0.084666 0.67733v3.9158h-0.93133v-2.7517l-0.889 0.0635q-1.0795 0.074083-1.4922 0.33867-0.40217 0.26458-0.40217 0.77258 0 0.47625 0.29633 0.6985 0.30692 0.22225 0.84666 0.22225 0.34925 0 0.61383-0.09525l0.14817 0.70908q-0.20108 0.074083-0.4445 0.10583-0.23283 0.042333-0.49742 0.042333z"/>
</g>
</svg>
