<svg width="67.694mm" height="10.232mm" version="1.1" viewBox="0 0 67.694 10.232" xmlns="http://www.w3.org/2000/svg">
<g stroke-width=".26458" aria-label=" Selam Dünya">
<style> @keyframes animate { 0% { filter: hue-rotate(360deg);} 100% { filter: hue-rotate(0deg);} } path {fill: url(#grad);animation: animate linear 5s infinite ;} </style> <linearGradient id="grad"> <stop offset="0%" stop-color="cyan" /> <stop offset="50%" stop-color="magenta" /> <stop offset="100%" stop-color="yellow" /> </linearGradient>
<path d="m67.694 6.8729v0.8785l-1.757 0.051676-0.05168-1.2092h-0.10852q-0.05684 0.62012-0.5271 0.94051-0.46509 0.32039-1.2454 0.32039-0.85783 0-1.3281-0.40824-0.47025-0.41341-0.47025-1.1731 0-0.86816 0.63045-1.3332 0.63562-0.46509 1.7983-0.46509 0.63045 0 1.0852 0.12919v-0.29455q0-0.5581-0.3824-0.83199-0.37724-0.27388-1.1472-0.31523l-1.3126-0.062012 0.10335-0.93017 1.1059 0.041341q1.3539 0.051676 2.0154 0.61495 0.66146 0.56327 0.66146 1.6485v2.2841zm-3.514 0.10335q0.48576 0 0.83199-0.17053 0.3514-0.17053 0.5271-0.44442 0.18087-0.27388 0.18087-0.57361v-0.33073q-0.25838-0.067179-0.51676-0.082682-0.25321-0.02067-0.64079-0.02067-0.65112 0-0.98702 0.20671-0.3359 0.20671-0.3359 0.60978 0 0.39791 0.23771 0.60461 0.23771 0.20154 0.7028 0.20154zm-2.9352-4.7025-1.5813 4.9919q-0.31006 0.98702-0.69246 1.5813-0.3824 0.59944-0.90434 0.89917-0.52193 0.30489-1.2661 0.3824l-0.93017 0.10335-0.05168-0.98185 0.85783-0.10335q0.64078-0.077514 1.0542-0.37724 0.41858-0.29972 0.70796-0.91467h-0.5426l-2.1291-5.581h1.1369l1.7363 4.7542h0.09819l0.0052-0.020671 1.3643-4.7335zm-8.4232-0.10335q0.86816 0 1.3436 0.5271 0.47542 0.5271 0.47542 1.4883v3.5657h-1.0955v-3.5657q0-0.51676-0.25838-0.80098t-0.72347-0.28422q-1.2919 0-1.2919 1.571v3.0799h-1.0955v-5.4777h0.99218l0.08785 0.99218h0.11886q0.04651-0.55294 0.40308-0.82165 0.35657-0.27388 1.0439-0.27388zm-4.4135-0.091612v5.6726h-0.762l-0.13758-0.75141h-0.04233q-0.27517 0.4445-0.762 0.65616-0.48683 0.20108-1.0372 0.20108-1.0266 0-1.5452-0.48683-0.51858-0.49742-0.51858-1.5769v-3.7147h0.94191v3.6512q0 1.3547 1.2594 1.3547 0.94191 0 1.3017-0.52916 0.37042-0.52916 0.37042-1.524v-2.9527zm-3.8629-1.5346q0-0.27517 0.14817-0.39158 0.14817-0.127 0.34925-0.127t0.34925 0.127q0.14817 0.11642 0.14817 0.39158 0 0.26458-0.14817 0.40217-0.14817 0.127-0.34925 0.127t-0.34925-0.127q-0.14817-0.13758-0.14817-0.40217zm1.9897 0q0-0.27517 0.13758-0.39158 0.14817-0.127 0.34925-0.127t0.34925 0.127q0.14817 0.11642 0.14817 0.39158 0 0.26458-0.14817 0.40217-0.14817 0.127-0.34925 0.127t-0.34925-0.127q-0.13758-0.13758-0.13758-0.40217zm-7.3643-0.1308q1.6846 0 2.5218 0.96635 0.83716 0.96635 0.83716 2.9094 0 1.7363-0.83716 2.5993-0.83716 0.86299-2.5218 0.86299h-1.7777v-7.338zm0 6.3562q1.1317 0 1.7001-0.64595 0.57361-0.64595 0.57361-1.9379 0-2.7905-2.2738-2.7905h-0.74414v5.3743zm-10.47-4.5992q0.56844 0 0.82682 0.30489 0.25838 0.30489 0.25838 0.98702v4.2891h-1.0955v-4.1858q0-0.28939-0.10335-0.42891-0.10335-0.13953-0.32039-0.13953-0.53743 0-0.53743 0.74414v4.0101h-0.93017v-4.2891q0-0.46509-0.43408-0.46509-0.5271 0-0.5271 0.74414v4.0101h-1.0955v-5.4777h0.97151l0.07235 0.68213h0.08268q0.03101-0.39791 0.25838-0.58911 0.23254-0.19637 0.68213-0.19637 0.3514 0 0.57877 0.20154 0.22738 0.19637 0.30489 0.58394h0.08785q0.025837-0.3359 0.26355-0.5581 0.24288-0.22738 0.65629-0.22738zm-4.7542 4.7025v0.8785l-1.757 0.051676-0.05168-1.2092h-0.10852q-0.05684 0.62012-0.5271 0.94051-0.46509 0.32039-1.2454 0.32039-0.85783 0-1.3281-0.40824-0.47025-0.41341-0.47025-1.1731 0-0.86816 0.63045-1.3332 0.63562-0.46509 1.7983-0.46509 0.63045 0 1.0852 0.12919v-0.29455q0-0.5581-0.3824-0.83199-0.37724-0.27388-1.1472-0.31523l-1.3126-0.062012 0.10335-0.93017 1.1059 0.041341q1.3539 0.051676 2.0154 0.61495 0.66146 0.56327 0.66146 1.6485v2.2841zm-3.514 0.10335q0.48576 0 0.83199-0.17053 0.3514-0.17053 0.5271-0.44442 0.18087-0.27388 0.18087-0.57361v-0.33073q-0.25838-0.067179-0.51676-0.082682-0.25321-0.02067-0.64079-0.02067-0.65112 0-0.98702 0.20671-0.3359 0.20671-0.3359 0.60978 0 0.39791 0.23771 0.60461 0.23771 0.20154 0.7028 0.20154zm-3.1729 0.66146q-0.41341 0.11369-0.80098 0.16536-0.38757 0.051676-0.83199 0.051676-0.64078 0-1.0335-0.22738-0.39274-0.22738-0.57877-0.7028-0.18604-0.47542-0.18604-1.2402v-4.7749h-1.6123v-0.9095h2.7078v5.6327q0 0.46509 0.08268 0.72864 0.08785 0.25838 0.32556 0.38757 0.24288 0.12402 0.70796 0.12402 0.22738 0 0.48576-0.046509 0.26355-0.046509 0.60978-0.14986zm-6.2012-2.8422q0 0.37724-0.03101 0.7028h-3.7q0.14469 0.68213 0.65112 1.0387 0.50643 0.35657 1.3332 0.35657 0.63562 0 1.3436-0.14469l0.13436 0.96118q-0.75964 0.14469-1.602 0.14469-0.93534 0-1.5916-0.33073-0.65112-0.33073-0.99218-0.96635-0.34106-0.64079-0.34106-1.5555 0-0.88883 0.28939-1.5244t0.84232-0.97151q0.5581-0.3359 1.3384-0.3359 1.1162 0 1.7208 0.67696 0.60461 0.67696 0.60461 1.9482zm-0.99218-0.13436q0-0.7338-0.3514-1.1317-0.34623-0.39791-0.97151-0.39791-0.63562 0-1.0129 0.39791-0.37724 0.39791-0.44442 1.1317zm-6.935-0.89917q0.84749 0.39791 1.2557 0.88883 0.40824 0.48576 0.40824 1.2092 0 1.0232-0.65112 1.5348-0.64595 0.5116-1.9637 0.5116-1.2506 0-2.1807-0.40307l0.13436-1.0025q1.1472 0.45475 2.1291 0.45475 0.7183 0 1.0697-0.26355 0.35657-0.26872 0.35657-0.81132 0-0.65629-0.67179-0.96118l-1.2712-0.57877q-0.77514-0.3514-1.1627-0.83716-0.38757-0.48576-0.38757-1.1782 0-0.63562 0.27388-1.0852 0.27388-0.45475 0.79581-0.69246 0.52193-0.23771 1.2557-0.23771 0.66146 0 1.1317 0.20671 0.47542 0.20671 0.7183 0.59944 0.24805 0.38757 0.24805 0.94051h-1.0129q0-0.3824-0.28422-0.58911-0.28422-0.20671-0.80098-0.20671-0.57877 0-0.89917 0.26872-0.32039 0.26355-0.32039 0.74414 0 0.34623 0.18087 0.57361 0.18603 0.22221 0.57361 0.40824z"/>
</g>
</svg>
