<svg width="56.97mm" height="10.202mm" version="1.1" viewBox="0 0 56.97 10.202" xmlns="http://www.w3.org/2000/svg">
<g stroke-width=".26458" aria-label=" Привіт Світ">
<style> @keyframes animate { 0% { filter: hue-rotate(360deg);} 100% { filter: hue-rotate(0deg);} } path {fill: url(#grad);animation: animate linear 5s infinite ;} </style> <linearGradient id="grad"> <stop offset="0%" stop-color="cyan" /> <stop offset="50%" stop-color="magenta" /> <stop offset="100%" stop-color="yellow" /> </linearGradient>
<path d="m56.97 2.7728h-1.8521v4.8895h-0.92075v-4.8895h-1.8309v-0.78316h4.6037zm-5.715 4.8895h-0.93133v-5.6726h0.93133zm-2.4659-4.2439q0 0.52916-0.3175 0.8255t-0.81491 0.40217v0.042333q0.52916 0.074083 0.92075 0.381 0.39158 0.29633 0.39158 0.93133 0 0.71966-0.53975 1.1959-0.52916 0.46567-1.7568 0.46567h-2.4447v-5.6726h2.4342q0.60325 0 1.0795 0.13758 0.48683 0.127 0.762 0.4445 0.28575 0.30692 0.28575 0.84666zm-0.94191 0.11642q0-0.40217-0.29633-0.58208-0.28575-0.1905-0.94191-0.1905h-1.4499v1.5557h1.2806q1.4076 0 1.4076-0.78316zm0.15875 2.4659q0-0.48683-0.37042-0.6985-0.37042-0.21167-1.0901-0.21167h-1.3864v1.8203h1.4076q0.6985 0 1.0689-0.20108 0.37042-0.21167 0.37042-0.70908zm-7.1014-5.1647q-1.2171 0-1.9156 0.81491-0.6985 0.81491-0.6985 2.2331 0 1.4076 0.64558 2.2331 0.65616 0.81491 1.9579 0.81491 0.49742 0 0.94191-0.084666 0.4445-0.084666 0.86783-0.21167v0.8255q-0.42333 0.15875-0.87841 0.23283-0.4445 0.074083-1.0689 0.074083-1.1536 0-1.9262-0.47625t-1.1642-1.3547q-0.381-0.87841-0.381-2.0637 0-1.143 0.41275-2.0108 0.42333-0.87841 1.2382-1.3652 0.81491-0.49742 1.9791-0.49742 1.1959 0 2.0849 0.4445l-0.381 0.80433q-0.34925-0.15875-0.78316-0.28575-0.42333-0.127-0.93133-0.127zm-7.239 1.9367h-1.8521v4.8895h-0.92075v-4.8895h-1.8309v-0.78316h4.6037zm-5.715 4.8895h-0.93133v-5.6726h0.93133zm-2.4659-4.2439q0 0.52916-0.3175 0.8255t-0.81491 0.40217v0.042333q0.52916 0.074083 0.92075 0.381 0.39158 0.29633 0.39158 0.93133 0 0.71966-0.53975 1.1959-0.52916 0.46567-1.7568 0.46567h-2.4447v-5.6726h2.4342q0.60325 0 1.0795 0.13758 0.48683 0.127 0.762 0.4445 0.28575 0.30692 0.28575 0.84666zm-0.94191 0.11642q0-0.40217-0.29633-0.58208-0.28575-0.1905-0.94191-0.1905h-1.4499v1.5557h1.2806q1.4076 0 1.4076-0.78316zm0.15875 2.4659q0-0.48683-0.37042-0.6985-0.37042-0.21167-1.0901-0.21167h-1.3864v1.8203h1.4076q0.6985 0 1.0689-0.20108 0.37042-0.21167 0.37042-0.70908zm-9.7049-4.0111v3.4607q0 0.127-0.01058 0.381t-0.03175 0.508q-0.01058 0.254-0.02117 0.40217l3.0374-4.7519h1.143v5.6726h-0.86783v-3.3443q0-0.16933 0-0.4445 0.01058-0.27517 0.02117-0.53975 0.01058-0.27517 0.02117-0.41275l-3.0162 4.7413h-1.1536v-5.6726zm-4.6884-0.10583q1.0477 0 1.6827 0.73025 0.64558 0.73025 0.64558 2.2013 0 1.4499-0.64558 2.2013-0.635 0.75141-1.6933 0.75141-0.65616 0-1.0901-0.24342-0.42333-0.254-0.66675-0.58208h-0.0635q0.021167 0.17992 0.042333 0.45508 0.021167 0.27517 0.021167 0.47625v2.3283h-0.93133v-8.2126h0.762l0.127 0.77258h0.042333q0.254-0.37042 0.66675-0.62441 0.41275-0.254 1.1007-0.254zm-0.16933 0.78316q-0.86783 0-1.2277 0.48683-0.34925 0.48683-0.37042 1.4817v0.17992q0 1.0477 0.33867 1.6192 0.34925 0.56091 1.2806 0.56091 0.51858 0 0.84666-0.28575 0.33867-0.28575 0.49742-0.77258 0.16933-0.49742 0.16933-1.1324 0-0.97366-0.381-1.5557-0.37042-0.58208-1.1536-0.58208zm-10.139 4.9953v-7.5565h5.6726v7.5565h-0.94191v-6.7204h-3.7782v6.7204z"/>
</g>
</svg>
