<svg width="75.985mm" height="11.064mm" version="1.1" viewBox="0 0 75.985 11.064" xmlns="http://www.w3.org/2000/svg">
<g stroke-width=".26458" aria-label="Chào thế giới">
<style> @keyframes animate { 0% { filter: hue-rotate(360deg);} 100% { filter: hue-rotate(0deg);} } path {fill: url(#grad);animation: animate linear 5s infinite ;} </style> <linearGradient id="grad"> <stop offset="0%" stop-color="cyan" /> <stop offset="50%" stop-color="magenta" /> <stop offset="100%" stop-color="yellow" /> </linearGradient>
<path d="m73.691 2.2478q-0.2067 0-0.3824-0.10335-0.1757-0.10335-0.27905-0.27905-0.10335-0.1757-0.10335-0.3824 0-0.2067 0.10335-0.3824 0.10335-0.1757 0.27905-0.27905 0.1757-0.10335 0.3824-0.10335t0.3824 0.10335q0.1757 0.10335 0.27905 0.27905 0.10335 0.1757 0.10335 0.3824 0 0.20671-0.10335 0.3824-0.10335 0.1757-0.27905 0.27905-0.1757 0.10335-0.3824 0.10335zm0.60978 5.4467h1.6846v0.89917h-4.8679v-0.89917h2.0877v-3.669h-1.7777v-0.9095h2.8732zm-4.698-1.9477q0 1.4076-0.71966 2.1802-0.70908 0.77258-1.9262 0.77258-0.75142 0-1.3441-0.33867-0.58208-0.34925-0.92075-1.0054-0.33867-0.66675-0.33867-1.6087 0-1.4076 0.70908-2.1696 0.70908-0.762 1.9262-0.762 0.56091 0 1.0266 0.1905 0.47625 0.1905 0.81491 0.53975 0.47625-0.14817 0.59266-0.55033 0.11642-0.41275 0.11642-0.94191h0.99483l0.07408 0.11642q-0.13758 0.73025-0.4445 1.2277-0.30692 0.48683-0.92075 0.70908 0.16933 0.32808 0.26458 0.74083t0.09525 0.89958zm-4.2862 0q0 1.0689 0.39158 1.6298 0.40217 0.55033 1.27 0.55033 0.87841 0 1.27-0.55033 0.39158-0.56091 0.39158-1.6298 0-1.0689-0.40216-1.6087-0.39158-0.53975-1.27-0.53975-0.86783 0-1.2594 0.53975t-0.39158 1.6087zm3.1538-5.2599v0.10583q-0.127 0.1905-0.39158 0.49742-0.26458 0.29633-0.5715 0.60325-0.29633 0.29633-0.55033 0.48683h-0.61383v-0.127q0.15875-0.20108 0.33867-0.47625 0.1905-0.27517 0.37042-0.56091 0.17992-0.29633 0.29633-0.52916zm-7.4998 1.761q-0.2067 0-0.3824-0.10335-0.1757-0.10335-0.27905-0.27905-0.10335-0.1757-0.10335-0.3824 0-0.2067 0.10335-0.3824 0.10335-0.1757 0.27905-0.27905 0.1757-0.10335 0.3824-0.10335t0.3824 0.10335q0.1757 0.10335 0.27905 0.27905 0.10335 0.1757 0.10335 0.3824 0 0.20671-0.10335 0.3824-0.10335 0.1757-0.27905 0.27905-0.1757 0.10335-0.3824 0.10335zm0.60978 5.4467h1.6846v0.89917h-4.8679v-0.89917h2.0877v-3.669h-1.7777v-0.9095h2.8732zm-4.8782-4.5785v4.9919q0 0.98185-0.29456 1.6071-0.28939 0.62528-0.90434 0.94051-0.61495 0.32039-1.5916 0.35657l-1.602 0.05168-0.05168-0.97151 1.757-0.08268q0.82165-0.036173 1.1989-0.45992 0.3824-0.42375 0.3824-1.2764v-0.5271h-0.09302q-0.05168 0.46509-0.43925 0.70796-0.38757 0.24288-1.018 0.24288-0.69246 0-1.1834-0.32039-0.48575-0.32556-0.74413-0.95084-0.25321-0.62528-0.25321-1.5193 0-0.91467 0.25321-1.5658 0.25838-0.65112 0.74931-0.98702 0.49609-0.34106 1.1886-0.34106 0.65629 0 1.0129 0.27388 0.36173 0.26872 0.43408 0.82165h0.11886l0.087849-0.99218zm-2.4805 4.6509q1.3849 0 1.3849-0.93017v-1.3229q0-1.571-1.3953-1.571-0.60461 0-0.93534 0.5116-0.32556 0.5116-0.32556 1.4521 0 0.91984 0.32039 1.3901 0.32039 0.47025 0.95084 0.47025zm-7.3081-6.7191q0.21167-0.26458 0.34925-0.48683t0.30692-0.56091h0.93133v0.10583q-0.23283 0.30692-0.508 0.58208-0.27517 0.26458-0.55033 0.48683h-0.52916zm0.41275 1.1324h-0.51858q-0.26458-0.17992-0.53975-0.39158-0.27517-0.22225-0.55033-0.46567-0.27517 0.24342-0.55033 0.46567-0.27517 0.21167-0.53975 0.39158h-0.51858v-0.127q0.26458-0.30692 0.5715-0.64558 0.30692-0.34925 0.55033-0.70908h0.97366q0.24342 0.35983 0.55033 0.70908 0.30692 0.33867 0.5715 0.64558zm-1.5875 0.635q0.73025 0 1.2488 0.3175 0.52916 0.3175 0.80433 0.89958 0.28575 0.5715 0.28575 1.3441v0.56091h-3.8841q0.02117 0.96308 0.48683 1.4711 0.47625 0.49742 1.3229 0.49742 0.53975 0 0.9525-0.09525 0.42333-0.10583 0.86783-0.29633v0.81491q-0.43392 0.1905-0.85725 0.27517-0.42333 0.09525-1.0054 0.09525-0.80433 0-1.4287-0.32808-0.61383-0.32808-0.96308-0.97366-0.33866-0.65616-0.33866-1.5981 0-0.93133 0.30692-1.5981 0.3175-0.66675 0.87841-1.0266 0.5715-0.35983 1.3229-0.35983zm-0.01058 0.762q-0.66675 0-1.0583 0.43392-0.381 0.42333-0.45508 1.1853h2.8892q-0.010586-0.71966-0.33867-1.1642-0.32808-0.45508-1.0372-0.45508zm-5.7669-0.56455q0.86816 0 1.3436 0.5271 0.47542 0.5271 0.47542 1.4883v3.5657h-1.0955v-3.5657q0-0.51676-0.25838-0.80098-0.25838-0.28422-0.72347-0.28422-1.2919 0-1.2919 1.571v3.0799h-1.0955v-7.7514h1.0955v3.2659h0.10335q0.04651-0.55294 0.40308-0.82165 0.35657-0.27388 1.0439-0.27388zm-4.2375 5.5604q-0.72864 0.12402-1.4366 0.12402-0.83716 0-1.3539-0.22738-0.51676-0.22738-0.75964-0.7028-0.24288-0.47542-0.24288-1.2402v-2.5011h-1.3746v-0.9095h1.3746v-1.6536h1.0955v1.6536h2.4908v0.9095h-2.4908v2.4495q0 0.65629 0.32039 0.95084 0.32039 0.28939 1.0439 0.28939 0.23771 0 0.50643-0.025838 0.27388-0.025838 0.7028-0.077514zm-14.779 0.12402q-0.75447 0-1.2971-0.33073-0.53743-0.3359-0.82165-0.97151-0.27905-0.64079-0.27905-1.54 0-0.89917 0.27905-1.5348 0.28422-0.64079 0.82165-0.97151 0.5426-0.3359 1.2971-0.3359 0.75447 0 1.2919 0.3359 0.5426 0.33073 0.82165 0.97151 0.28422 0.63562 0.28422 1.5348 0 0.89917-0.28422 1.54-0.27905 0.63562-0.82165 0.97151-0.53743 0.33073-1.2919 0.33073zm0-0.98185q0.60461 0 0.93017-0.48059 0.33073-0.48576 0.33073-1.3798t-0.33073-1.3746q-0.32556-0.48576-0.93017-0.48576-0.60461 0-0.93534 0.48576-0.32556 0.48059-0.32556 1.3746t0.32556 1.3798q0.33073 0.48059 0.93534 0.48059zm-5.9898-4.8894q1.0372 0 1.5346 0.45508 0.49742 0.45508 0.49742 1.4499v3.8629h-0.67733l-0.17992-0.80433h-0.04233q-0.37042 0.46567-0.78316 0.68791-0.40217 0.22225-1.1218 0.22225-0.77258 0-1.2806-0.40217-0.508-0.41275-0.508-1.2806 0-0.84666 0.66675-1.3017 0.66675-0.46567 2.0532-0.508l0.96308-0.03175v-0.33867q0-0.70908-0.30692-0.98425t-0.86783-0.27517q-0.4445 0-0.84666 0.13758-0.40216 0.127-0.75141 0.29633l-0.28575-0.6985q0.37042-0.20108 0.87841-0.33867 0.508-0.14817 1.0583-0.14817zm1.1112 2.9951-0.83608 0.03175q-1.0583 0.042333-1.4711 0.33867-0.40216 0.29633-0.40216 0.83608 0 0.47625 0.28575 0.6985 0.29633 0.22225 0.75141 0.22225 0.71966 0 1.1959-0.39158 0.47625-0.40217 0.47625-1.2277zm-1.4605-5.334q0.11642 0.23283 0.28575 0.52916 0.17992 0.28575 0.37042 0.56091 0.20108 0.27517 0.35983 0.47625v0.127h-0.62442q-0.24342-0.1905-0.55033-0.48683-0.30692-0.30692-0.5715-0.60325-0.254-0.30692-0.381-0.49742v-0.10583zm-5.3859 2.5258q0.86816 0 1.3436 0.5271 0.47542 0.5271 0.47542 1.4883v3.5657h-1.0955v-3.5657q0-0.51676-0.25838-0.80098-0.25838-0.28422-0.72347-0.28422-1.2919 0-1.2919 1.571v3.0799h-1.0955v-7.7514h1.0955v3.2659h0.10335q0.046509-0.55294 0.40307-0.82165 0.35657-0.27388 1.0439-0.27388zm-5.7981 5.6844q-3.421 0-3.421-3.7827 0-1.1886 0.37207-2.0309 0.37724-0.84749 1.0904-1.2867 0.7183-0.44442 1.7312-0.44442 0.74931 0 1.4211 0.3359 0.67696 0.33073 0.67696 1.4108h-1.0129q0-0.80615-1.0749-0.80615-0.63562 0-1.111 0.32556-0.47025 0.32556-0.72864 0.95084-0.25838 0.62012-0.25838 1.4934 0 1.4418 0.62528 2.1652 0.62528 0.7183 1.8655 0.7183 0.74931 0 1.4779-0.31006l0.23771 0.9095q-0.89917 0.3514-1.8914 0.3514z"/>
</g>
</svg>
