<svg width="48.018mm" height="10.232mm" version="1.1" viewBox="0 0 48.018 10.232" xmlns="http://www.w3.org/2000/svg">
<g stroke-width=".26458" aria-label=" Helo Byd">
<style> @keyframes animate { 0% { filter: hue-rotate(360deg);} 100% { filter: hue-rotate(0deg);} } path {fill: url(#grad);animation: animate linear 5s infinite ;} </style> <linearGradient id="grad"> <stop offset="0%" stop-color="cyan" /> <stop offset="50%" stop-color="magenta" /> <stop offset="100%" stop-color="yellow" /> </linearGradient>
<path d="m48.018-1.1548e-7v7.7514l-0.98185 0.051676-0.09302-0.89917h-0.12402q-0.05168 0.46509-0.43925 0.70796-0.38757 0.24288-1.018 0.24288-0.69246 0-1.1834-0.32039-0.48576-0.32556-0.74414-0.95084-0.25321-0.62528-0.25321-1.5193 0-0.91467 0.25321-1.5658 0.25838-0.65112 0.74931-0.98702 0.49609-0.34106 1.1886-0.34106 0.65629 0 1.0129 0.27388 0.36173 0.26872 0.43408 0.82165h0.10335v-3.2659zm-2.4805 6.9246q1.3849 0 1.3849-0.93017v-1.3229q0-1.571-1.3953-1.571-0.60461 0-0.93534 0.5116-0.32556 0.5116-0.32556 1.4521 0 0.91984 0.32039 1.3901 0.32039 0.47025 0.95084 0.47025zm-3.3176-4.6509-1.5813 4.9919q-0.31006 0.98702-0.69246 1.5813-0.3824 0.59944-0.90434 0.89917-0.52193 0.30489-1.2661 0.3824l-0.93017 0.10335-0.051677-0.98185 0.85783-0.10335q0.64079-0.077514 1.0542-0.37724 0.41858-0.29972 0.70796-0.91467h-0.5426l-2.1291-5.581h1.1369l1.7363 4.7542h0.09819l0.0052-0.020671 1.3643-4.7335zm-8.3509 1.6226q1.0904 0.015503 1.6795 0.48059 0.59428 0.46509 0.59428 1.3074 0 0.65112-0.26355 1.1162-0.25838 0.46509-0.75964 0.70796-0.49609 0.24288-1.1989 0.24288h-2.8112v-7.338h2.1807q1.1162 0 1.726 0.48576 0.60978 0.48576 0.60978 1.3746 0 0.66662-0.45475 1.0697t-1.3022 0.49092zm-1.726-2.5011v1.9895h0.96118q0.68213 0 1.0594-0.26355 0.37724-0.26355 0.37724-0.74414 0-0.47025-0.39274-0.72347-0.39274-0.25838-1.1162-0.25838zm1.4779 5.3743q0.68213 0 1.0594-0.31006 0.37724-0.31523 0.37724-0.8785 0-0.57877-0.39791-0.894-0.39274-0.32039-1.111-0.32039h-1.4056v2.4029zm-12.64 1.0852q-0.75447 0-1.2971-0.33073-0.53743-0.3359-0.82165-0.97151-0.27905-0.64079-0.27905-1.54 0-0.89917 0.27905-1.5348 0.28422-0.64079 0.82165-0.97151 0.5426-0.3359 1.2971-0.3359 0.75447 0 1.2919 0.3359 0.5426 0.33073 0.82165 0.97151 0.28422 0.63562 0.28422 1.5348 0 0.89917-0.28422 1.54-0.27905 0.63562-0.82165 0.97151-0.53743 0.33073-1.2919 0.33073zm0-0.98185q0.60461 0 0.93017-0.48059 0.33073-0.48576 0.33073-1.3798 0-0.894-0.33073-1.3746-0.32556-0.48576-0.93017-0.48576-0.60461 0-0.93534 0.48576-0.32556 0.48059-0.32556 1.3746 0 0.894 0.32556 1.3798 0.33073 0.48059 0.93534 0.48059zm-3.8034 0.76481q-0.41341 0.11369-0.80098 0.16536-0.38757 0.051676-0.83199 0.051676-0.64079 0-1.0335-0.22738-0.39274-0.22738-0.57877-0.7028-0.18604-0.47542-0.18604-1.2402v-4.7749h-1.6123v-0.9095h2.7078v5.6327q0 0.46509 0.08268 0.72864 0.08785 0.25838 0.32556 0.38757 0.24288 0.12402 0.70796 0.12402 0.22738 0 0.48576-0.046509 0.26355-0.046509 0.60978-0.14986zm-6.2012-2.8422q0 0.37724-0.03101 0.7028h-3.7q0.14469 0.68213 0.65112 1.0387 0.50643 0.35657 1.3332 0.35657 0.63562 0 1.3436-0.14469l0.13436 0.96118q-0.75964 0.14469-1.602 0.14469-0.93534 0-1.5916-0.33073-0.65112-0.33073-0.99218-0.96635-0.34106-0.64079-0.34106-1.5555 0-0.88883 0.28939-1.5244t0.84232-0.97151q0.5581-0.3359 1.3384-0.3359 1.1162 0 1.7208 0.67696 0.60461 0.67696 0.60461 1.9482zm-0.99218-0.13436q0-0.7338-0.3514-1.1317-0.34623-0.39791-0.97151-0.39791-0.63562 0-1.0129 0.39791-0.37724 0.39791-0.44442 1.1317zm-5.24-4.2478v7.338h-1.0335v-3.1626h-2.6768v3.1626h-1.0335v-7.338h1.0335v3.1936h2.6768v-3.1936z"/>
</g>
</svg>
