<svg width="50.302mm" height="8.1809mm" version="1.1" viewBox="0 0 50.302 8.1809" xmlns="http://www.w3.org/2000/svg">
<g stroke-width=".26458" aria-label=" העלא וועלט">
<style> @keyframes animate { 0% { filter: hue-rotate(360deg);} 100% { filter: hue-rotate(0deg);} } path {fill: url(#grad);animation: animate linear 5s infinite ;} </style> <linearGradient id="grad"> <stop offset="0%" stop-color="cyan" /> <stop offset="50%" stop-color="magenta" /> <stop offset="100%" stop-color="yellow" /> </linearGradient>
<path d="m2.8575 8.1809q-0.86783 0-1.5134-0.3175-0.64558-0.32808-0.99483-1.0477-0.34925-0.71966-0.34925-1.905v-3.1327h0.9525v3.1327q0 1.1324 0.46567 1.7886 0.46567 0.65616 1.4605 0.65616 0.99483 0 1.4605-0.65616 0.46567-0.65616 0.46567-1.7886 0-0.41275-0.021167-0.8255-0.010583-0.41275-0.10583-0.75141-0.084666-0.34925-0.29633-0.56091-0.20108-0.21167-0.58208-0.21167-0.26458 0-0.60325 0.09525t-0.61383 0.24342v-0.91016q0.20108-0.09525 0.53975-0.20108 0.34925-0.11642 0.78316-0.11642 0.65616 0 1.0372 0.254 0.381 0.24342 0.56091 0.68791 0.1905 0.4445 0.24342 1.0372 0.0635 0.58208 0.0635 1.2594 0 1.5663-0.80433 2.4236-0.79375 0.84666-2.1484 0.84666zm4.1698-6.4029h3.9158v0.71966l-1.9791 5.5456h-1.0054l1.9897-5.3869h-3.8735v-2.6564h0.9525zm4.5508 6.2653v-0.87841h1.7145l-1.2488-5.3869h0.9525l1.2171 5.334q0.91016-0.16933 1.4076-0.83608 0.508-0.66675 0.62442-1.9897l0.23283-2.5082h0.9525l-0.23283 2.5082q-0.042334 0.47625-0.14817 0.99483-0.10583 0.51858-0.33866 1.016-0.23283 0.48683-0.64558 0.889-0.40217 0.39158-1.0372 0.62441-0.62441 0.23283-1.5346 0.23283zm7.0696 0v-6.2653h0.9525v6.2653zm2.7516 0v-6.2653h0.9525v6.2653zm5.1964 0v-1.6722q0-1.0054 0.33866-1.651 0.33867-0.64558 0.94191-0.96308l-1.3441-1.9791h1.1218l2.3601 3.5031q0.77258-0.46567 0.77258-1.8944v-1.6087h0.9525v1.5452q0 1.0054-0.33866 1.651-0.33867 0.635-0.94191 0.96308l1.4287 2.1061h-1.1218l-2.4447-3.6301q-0.77258 0.47625-0.77258 1.8944v1.7357zm6.932-6.2653h3.9158v0.71966l-1.9791 5.5456h-1.0054l1.9897-5.3869h-3.8735v-2.6564h0.9525zm4.5508 6.2653v-0.87841h1.7145l-1.2488-5.3869h0.9525l1.2171 5.334q0.91016-0.16933 1.4076-0.83608 0.508-0.66675 0.62441-1.9897l0.23283-2.5082h0.9525l-0.23283 2.5082q-0.042333 0.47625-0.14817 0.99483t-0.33866 1.016q-0.23283 0.48683-0.64558 0.889-0.40216 0.39158-1.0372 0.62441-0.62442 0.23283-1.5346 0.23283zm11.271 0v-4.0746q0-0.74083-0.32808-1.0266-0.32808-0.28575-0.91016-0.28575h-2.9633v-0.87841h3.0268q1.0795 0 1.5981 0.47625 0.52916 0.47625 0.52916 1.524v4.2651zm-4.2016 0v-3.7465h0.9525v3.7465z"/>
</g>
</svg>
