<svg width="97.854mm" height="10.356mm" version="1.1" viewBox="0 0 97.854 10.356" xmlns="http://www.w3.org/2000/svg">
<g stroke-width=".26458" aria-label="Mo ki O Ile Aiye">
<style> @keyframes animate { 0% { filter: hue-rotate(360deg);} 100% { filter: hue-rotate(0deg);} } path {fill: url(#grad);animation: animate linear 5s infinite ;} </style> <linearGradient id="grad"> <stop offset="0%" stop-color="cyan" /> <stop offset="50%" stop-color="magenta" /> <stop offset="100%" stop-color="yellow" /> </linearGradient>
<path d="m97.854 4.9196q0 0.37724-0.03101 0.7028h-3.7q0.14469 0.68213 0.65112 1.0387 0.50643 0.35657 1.3332 0.35657 0.63562 0 1.3436-0.14469l0.13436 0.96118q-0.75964 0.14469-1.602 0.14469-0.93534 0-1.5916-0.33073-0.65112-0.33073-0.99218-0.96635-0.34106-0.64079-0.34106-1.5555 0-0.88883 0.28939-1.5244t0.84232-0.97151q0.5581-0.3359 1.3384-0.3359 1.1162 0 1.7208 0.67696 0.60461 0.67696 0.60461 1.9482zm-0.99218-0.13436q0-0.7338-0.3514-1.1317-0.34623-0.39791-0.97151-0.39791-0.63562 0-1.0129 0.39791-0.37724 0.39791-0.44442 1.1317zm-4.9713-2.3874-1.5813 4.9919q-0.31006 0.98702-0.69246 1.5813-0.3824 0.59944-0.90433 0.89917-0.52193 0.30489-1.2661 0.3824l-0.93017 0.10335-0.05168-0.98185 0.85783-0.10335q0.64079-0.077514 1.0542-0.37724 0.41858-0.29972 0.70796-0.91467h-0.5426l-2.1291-5.581h1.1369l1.7363 4.7542h0.09819l0.0052-0.020671 1.3643-4.7335zm-8.5369-0.86816q-0.2067 0-0.3824-0.10335-0.1757-0.10335-0.27905-0.27905-0.10335-0.1757-0.10335-0.3824 0-0.20671 0.10335-0.3824 0.10335-0.1757 0.27905-0.27905 0.1757-0.10335 0.3824-0.10335t0.3824 0.10335q0.1757 0.10335 0.27905 0.27905t0.10335 0.3824q0 0.20671-0.10335 0.3824-0.10335 0.1757-0.27905 0.27905t-0.3824 0.10335zm0.60978 5.4467h1.6846v0.89917h-4.8679v-0.89917h2.0877v-3.669h-1.7777v-0.9095h2.8732zm-5.8239-0.88883h-2.6045l-0.48059 1.788h-1.0852l2.1187-7.338h1.4986l2.1187 7.338h-1.0852zm-0.26355-0.98185-0.99218-3.6794h-0.09302l-0.99218 3.6794zm-11.028-0.18603q0 0.37724-0.03101 0.7028h-3.7q0.14469 0.68213 0.65112 1.0387 0.50643 0.35657 1.3332 0.35657 0.63562 0 1.3436-0.14469l0.13436 0.96118q-0.75964 0.14469-1.602 0.14469-0.93534 0-1.5916-0.33073-0.65112-0.33073-0.99218-0.96635-0.34106-0.64079-0.34106-1.5555 0-0.88883 0.28939-1.5244t0.84232-0.97151q0.5581-0.3359 1.3384-0.3359 1.1162 0 1.7208 0.67696 0.60461 0.67696 0.60461 1.9482zm-0.99218-0.13436q0-0.7338-0.3514-1.1317-0.34623-0.39791-0.97151-0.39791-0.63562 0-1.0129 0.39791-0.37724 0.39791-0.44442 1.1317zm-5.209 2.9766q-0.41341 0.11369-0.80098 0.16536-0.38757 0.051676-0.83199 0.051676-0.64079 0-1.0335-0.22738-0.39274-0.22738-0.57878-0.7028-0.18603-0.47542-0.18603-1.2402v-4.7749h-1.6123v-0.9095h2.7078v5.6327q0 0.46509 0.08268 0.72864 0.08785 0.25838 0.32556 0.38757 0.24288 0.12402 0.70796 0.12402 0.22738 0 0.48576-0.046509 0.26355-0.046509 0.60978-0.14986zm-8.0873-6.2425v5.3743h1.7208v0.98185h-4.4648v-0.98185h1.7105v-5.3743h-1.7105v-0.98185h4.4648v0.98185zm-12.914 6.4595q-2.7078 0-2.7078-3.7207 0-3.824 2.7078-3.824 2.7078 0 2.7078 3.824 0 3.7207-2.7078 3.7207zm0-0.95084q1.6226 0 1.6226-2.7698 0-2.8732-1.6226-2.8732t-1.6226 2.8732q0 2.7698 1.6226 2.7698zm-12.103-5.4984q-0.2067 0-0.3824-0.10335t-0.27905-0.27905q-0.10335-0.1757-0.10335-0.3824 0-0.20671 0.10335-0.3824 0.10335-0.1757 0.27905-0.27905 0.1757-0.10335 0.3824-0.10335 0.20671 0 0.3824 0.10335 0.1757 0.10335 0.27905 0.27905 0.10335 0.1757 0.10335 0.3824 0 0.20671-0.10335 0.3824-0.10335 0.1757-0.27905 0.27905t-0.3824 0.10335zm0.60978 5.4467h1.6846v0.89917h-4.8679v-0.89917h2.0877v-3.669h-1.7777v-0.9095h2.8732zm-5.6741 0.89917-1.3177-2.2531q-0.36173 0.072347-0.73897 0.072347h-0.5581v2.1807h-1.0955v-7.7514h1.0955v4.5889h0.29972q0.69246 0 1.1265-0.22738 0.43408-0.22738 0.68213-0.72864 0.25321-0.50126 0.37207-1.3591h1.1369q-0.26355 1.9895-1.2971 2.7698l1.6485 2.7078zm-13.839 0.10335q-0.75447 0-1.2971-0.33073-0.53743-0.3359-0.82165-0.97151-0.27905-0.64079-0.27905-1.54 0-0.89917 0.27905-1.5348 0.28422-0.64079 0.82165-0.97151 0.5426-0.3359 1.2971-0.3359t1.2919 0.3359q0.5426 0.33073 0.82165 0.97151 0.28422 0.63562 0.28422 1.5348 0 0.89917-0.28422 1.54-0.27905 0.63562-0.82165 0.97151-0.53743 0.33073-1.2919 0.33073zm0-0.98185q0.60461 0 0.93017-0.48059 0.33073-0.48576 0.33073-1.3798t-0.33073-1.3746q-0.32556-0.48576-0.93017-0.48576-0.60461 0-0.93534 0.48576-0.32556 0.48059-0.32556 1.3746t0.32556 1.3798q0.33073 0.48059 0.93534 0.48059zm-3.762-6.4595v7.338h-0.99218v-6.0358h-0.13436l-0.78548 3.0386h-1.0542l-0.78548-3.0386h-0.13436v6.0358h-0.99218v-7.338h1.6123l0.78548 3.1523h0.082682l0.78548-3.1523z"/>
</g>
</svg>
