<svg width="92.159mm" height="7.9065mm" version="1.1" viewBox="0 0 92.159 7.9065" xmlns="http://www.w3.org/2000/svg">
<g stroke-width=".26458" aria-label=" Sawubona Mhlaba">
<style> @keyframes animate { 0% { filter: hue-rotate(360deg);} 100% { filter: hue-rotate(0deg);} } path {fill: url(#grad);animation: animate linear 5s infinite ;} </style> <linearGradient id="grad"> <stop offset="0%" stop-color="cyan" /> <stop offset="50%" stop-color="magenta" /> <stop offset="100%" stop-color="yellow" /> </linearGradient>
<path d="m92.159 6.8729v0.8785l-1.757 0.051676-0.05168-1.2092h-0.10852q-0.05684 0.62012-0.5271 0.94051-0.46509 0.32039-1.2454 0.32039-0.85783 0-1.3281-0.40824-0.47025-0.41341-0.47025-1.1731 0-0.86816 0.63045-1.3332 0.63562-0.46509 1.7983-0.46509 0.63045 0 1.0852 0.12919v-0.29455q0-0.5581-0.3824-0.83199-0.37724-0.27388-1.1472-0.31523l-1.3126-0.062012 0.10335-0.93017 1.1059 0.041341q1.3539 0.051676 2.0154 0.61495 0.66146 0.56327 0.66146 1.6485v2.2841zm-3.514 0.10335q0.48576 0 0.83199-0.17053 0.3514-0.17053 0.5271-0.44442 0.18087-0.27388 0.18087-0.57361v-0.33073q-0.25838-0.067179-0.51676-0.082682-0.25321-0.02067-0.64079-0.02067-0.65112 0-0.98702 0.20671-0.3359 0.20671-0.3359 0.60978 0 0.39791 0.23771 0.60461 0.23771 0.20154 0.7028 0.20154zm-5.2606-4.8059q0.72347 0 1.2402 0.33073 0.51676 0.32556 0.78548 0.95084 0.26872 0.62528 0.26872 1.5089 0 0.91467-0.35657 1.5658-0.3514 0.64595-1.0284 0.98702-0.67179 0.34106-1.6226 0.34106-0.79582 0-1.8293-0.10335v-7.7514h1.0955v3.2659h0.10335q0.07751-1.0955 1.3436-1.0955zm-0.49609 4.7542q0.81648 0 1.2609-0.5116 0.44442-0.51676 0.44442-1.4521 0-0.894-0.33073-1.3746-0.32556-0.48576-0.93017-0.48576-1.3953 0-1.3953 1.571v2.2221q0.31006 0.031006 0.95084 0.031006zm-3.1316-0.051676v0.8785l-1.757 0.051676-0.05168-1.2092h-0.10852q-0.05684 0.62012-0.5271 0.94051-0.46509 0.32039-1.2454 0.32039-0.85783 0-1.3281-0.40824-0.47025-0.41341-0.47025-1.1731 0-0.86816 0.63045-1.3332 0.63562-0.46509 1.7983-0.46509 0.63045 0 1.0852 0.12919v-0.29455q0-0.5581-0.3824-0.83199-0.37724-0.27388-1.1472-0.31523l-1.3126-0.062012 0.10335-0.93017 1.1059 0.041341q1.3539 0.051676 2.0154 0.61495 0.66146 0.56327 0.66146 1.6485v2.2841zm-3.514 0.10335q0.48576 0 0.83199-0.17053 0.3514-0.17053 0.5271-0.44442 0.18087-0.27388 0.18087-0.57361v-0.33073q-0.25838-0.067179-0.51676-0.082682-0.25321-0.02067-0.64078-0.02067-0.65112 0-0.98702 0.20671t-0.3359 0.60978q0 0.39791 0.23771 0.60461 0.23771 0.20154 0.7028 0.20154zm-3.1729 0.66146q-0.41341 0.11369-0.80098 0.16536-0.38757 0.051676-0.83199 0.051676-0.64079 0-1.0335-0.22738-0.39274-0.22738-0.57877-0.7028-0.18603-0.47542-0.18603-1.2402v-4.7749h-1.6123v-0.9095h2.7078v5.6327q0 0.46509 0.08268 0.72864 0.08785 0.25838 0.32556 0.38757 0.24288 0.12402 0.70796 0.12402 0.22738 0 0.48576-0.046509 0.26355-0.046509 0.60978-0.14986zm-8.1855-5.4673q0.86816 0 1.3436 0.5271 0.47542 0.5271 0.47542 1.4883v3.5657h-1.0955v-3.5657q0-0.51676-0.25838-0.80098-0.25838-0.28422-0.72347-0.28422-1.2919 0-1.2919 1.571v3.0799h-1.0955v-7.7514h1.0955v3.2659h0.10335q0.04651-0.55294 0.40308-0.82165 0.35657-0.27388 1.0439-0.27388zm-4.1754-1.757v7.338h-0.99218v-6.0358h-0.13436l-0.78548 3.0386h-1.0542l-0.78548-3.0386h-0.13436v6.0358h-0.99218v-7.338h1.6123l0.78548 3.1523h0.08268l0.78548-3.1523zm-11.958 6.4595v0.8785l-1.757 0.051676-0.05168-1.2092h-0.10852q-0.05684 0.62012-0.5271 0.94051-0.46509 0.32039-1.2454 0.32039-0.85783 0-1.3281-0.40824-0.47025-0.41341-0.47025-1.1731 0-0.86816 0.63045-1.3332 0.63562-0.46509 1.7983-0.46509 0.63045 0 1.0852 0.12919v-0.29455q0-0.5581-0.3824-0.83199-0.37724-0.27388-1.1472-0.31523l-1.3126-0.062012 0.10335-0.93017 1.1059 0.041341q1.3539 0.051676 2.0154 0.61495 0.66146 0.56327 0.66146 1.6485v2.2841zm-3.514 0.10335q0.48576 0 0.83199-0.17053 0.3514-0.17053 0.5271-0.44442 0.18087-0.27388 0.18087-0.57361v-0.33073q-0.25838-0.067179-0.51676-0.082682-0.25321-0.02067-0.64078-0.02067-0.65112 0-0.98702 0.20671t-0.3359 0.60978q0 0.39791 0.23771 0.60461 0.23771 0.20154 0.7028 0.20154zm-5.1573-4.8059q0.86816 0 1.3436 0.5271 0.47542 0.5271 0.47542 1.4883v3.5657h-1.0955v-3.5657q0-0.51676-0.25838-0.80098-0.25838-0.28422-0.72347-0.28422-1.2919 0-1.2919 1.571v3.0799h-1.0955v-5.4777h0.99218l0.08785 0.99218h0.11886q0.04651-0.55294 0.40308-0.82165 0.35657-0.27388 1.0439-0.27388zm-6.6146 5.6844q-0.75447 0-1.2971-0.33073-0.53743-0.3359-0.82165-0.97151-0.27905-0.64079-0.27905-1.54 0-0.89917 0.27905-1.5348 0.28422-0.64079 0.82165-0.97151 0.5426-0.3359 1.2971-0.3359 0.75447 0 1.2919 0.3359 0.5426 0.33073 0.82165 0.97151 0.28422 0.63562 0.28422 1.5348 0 0.89917-0.28422 1.54-0.27905 0.63562-0.82165 0.97151-0.53743 0.33073-1.2919 0.33073zm0-0.98185q0.60461 0 0.93017-0.48059 0.33073-0.48576 0.33073-1.3798 0-0.894-0.33073-1.3746-0.32556-0.48576-0.93017-0.48576t-0.93534 0.48576q-0.32556 0.48059-0.32556 1.3746 0 0.894 0.32556 1.3798 0.33073 0.48059 0.93534 0.48059zm-5.8911-4.7025q0.72347 0 1.2402 0.33073 0.51676 0.32556 0.78548 0.95084 0.26872 0.62528 0.26872 1.5089 0 0.91467-0.35657 1.5658-0.3514 0.64595-1.0284 0.98702-0.67179 0.34106-1.6226 0.34106-0.79581 0-1.8293-0.10335v-7.7514h1.0955v3.2659h0.10335q0.07751-1.0955 1.3436-1.0955zm-0.49609 4.7542q0.81648 0 1.2609-0.5116 0.44442-0.51676 0.44442-1.4521 0-0.894-0.33073-1.3746-0.32556-0.48576-0.93017-0.48576-1.3953 0-1.3953 1.571v2.2221q0.31006 0.031006 0.95084 0.031006zm-3.1316-0.051676v0.8785l-1.757 0.051676-0.07751-1.1059h-0.09819q-0.12402 0.5581-0.47542 0.85783-0.34623 0.29972-0.85783 0.29972-0.91467 0-1.4159-0.5116-0.49609-0.5116-0.49609-1.4521v-3.7207h1.0749v3.7207q0 0.49609 0.27388 0.76481 0.27388 0.26872 0.76998 0.26872 0.60978 0 0.9095-0.39791 0.29972-0.40307 0.29972-1.3074v-3.0489h1.0955v4.5889zm-7.3794-4.5992h1.0335l-0.62012 5.581h-1.3953l-0.74414-4.4545h-0.06201l-0.74414 4.4545h-1.3953l-0.51676-5.581h1.0335l0.31006 4.7542h0.09302l0.67179-4.7542h1.1575l0.67179 4.7542h0.09302zm-5.0229 4.5992v0.8785l-1.757 0.051676-0.051676-1.2092h-0.10852q-0.056844 0.62012-0.5271 0.94051-0.46509 0.32039-1.2454 0.32039-0.85783 0-1.3281-0.40824-0.47025-0.41341-0.47025-1.1731 0-0.86816 0.63045-1.3332 0.63562-0.46509 1.7983-0.46509 0.63045 0 1.0852 0.12919v-0.29455q0-0.5581-0.3824-0.83199-0.37724-0.27388-1.1472-0.31523l-1.3126-0.062012 0.10335-0.93017 1.1059 0.041341q1.3539 0.051676 2.0154 0.61495 0.66146 0.56327 0.66146 1.6485v2.2841zm-3.514 0.10335q0.48576 0 0.83199-0.17053 0.3514-0.17053 0.5271-0.44442 0.18087-0.27388 0.18087-0.57361v-0.33073q-0.25838-0.067179-0.51676-0.082682-0.25321-0.02067-0.64079-0.02067-0.65112 0-0.98702 0.20671t-0.3359 0.60978q0 0.39791 0.23771 0.60461 0.23771 0.20154 0.7028 0.20154zm-4.8989-3.2143q0.84749 0.39791 1.2557 0.88883 0.40824 0.48576 0.40824 1.2092 0 1.0232-0.65112 1.5348-0.64595 0.5116-1.9637 0.5116-1.2506 0-2.1807-0.40307l0.13436-1.0025q1.1472 0.45475 2.1291 0.45475 0.7183 0 1.0697-0.26355 0.35657-0.26872 0.35657-0.81132 0-0.65629-0.67179-0.96118l-1.2712-0.57877q-0.77514-0.3514-1.1627-0.83716-0.38757-0.48576-0.38757-1.1782 0-0.63562 0.27388-1.0852 0.27388-0.45475 0.79581-0.69246 0.52193-0.23771 1.2557-0.23771 0.66146 0 1.1317 0.20671 0.47542 0.20671 0.7183 0.59944 0.24805 0.38757 0.24805 0.94051h-1.0129q0-0.3824-0.28422-0.58911-0.28422-0.20671-0.80098-0.20671-0.57877 0-0.89917 0.26872-0.32039 0.26355-0.32039 0.74414 0 0.34623 0.18087 0.57361 0.18603 0.22221 0.57361 0.40824z"/>
</g>
</svg>
